<?xml version="1.0" standalone="no"?>
<!DOCTYPE svg PUBLIC "-//W3C//DTD SVG 20010904//EN"
 "http://www.w3.org/TR/2001/REC-SVG-20010904/DTD/svg10.dtd">
<svg version="1.0" xmlns="http://www.w3.org/2000/svg"
 width="880.000000pt" height="495.000000pt" viewBox="0 0 880.000000 495.000000"
 preserveAspectRatio="xMidYMid meet">

<g transform="translate(0.000000,495.000000) scale(0.100000,-0.100000)"
fill="#000000" stroke="none">
<path d="M136 4865 c-4 -47 -16 -110 -26 -140 -10 -30 -17 -55 -16 -55 2 0 25
10 52 21 26 12 79 28 118 36 38 8 91 26 118 39 26 13 58 24 71 24 27 0 47 17
47 40 0 9 14 37 30 63 17 26 30 50 30 52 0 3 -94 5 -209 5 l-208 0 -7 -85z"/>
<path d="M693 4927 c-15 -12 -45 -31 -66 -42 -21 -11 -41 -24 -44 -28 -6 -11
93 40 129 64 14 11 32 19 39 19 20 0 238 -108 296 -146 56 -37 73 -43 52 -18
-14 17 -112 84 -123 84 -4 0 -50 20 -103 45 -108 51 -139 55 -180 22z"/>
<path d="M7969 4943 c-3 -28 -9 -45 -23 -59 -23 -23 -20 -51 7 -57 31 -8 152
7 168 20 8 5 40 20 71 31 45 17 60 19 70 9 8 -7 37 -33 65 -59 40 -37 48 -49
38 -58 -9 -8 -26 -2 -64 21 -28 18 -54 29 -57 26 -4 -3 -9 -28 -11 -54 -5 -45
-4 -47 11 -28 15 19 15 17 16 -32 0 -29 5 -53 10 -53 6 0 10 5 10 11 0 5 5 7
10 4 14 -9 13 -75 -2 -75 -30 0 -105 -110 -112 -165 l-6 -40 16 43 c9 25 31
54 51 70 20 15 44 35 54 44 17 16 19 16 32 -2 18 -25 30 -14 15 13 -8 16 -8
22 0 25 6 2 32 45 58 95 44 88 85 150 68 102 -4 -11 -15 -33 -24 -50 -9 -16
-23 -48 -30 -70 -7 -22 -17 -47 -23 -55 -10 -13 -9 -13 5 0 18 17 40 60 97
184 23 49 44 86 47 83 3 -3 -1 -18 -10 -34 -15 -26 -38 -85 -37 -91 1 -1 -20
-41 -45 -90 -52 -100 -47 -98 23 8 44 67 113 199 113 218 1 9 39 59 40 51 0
-5 -48 -106 -102 -214 -34 -68 -144 -220 -156 -217 -25 5 -10 -23 37 -70 28
-27 42 -47 33 -43 -9 4 -23 9 -29 12 -7 3 -13 0 -13 -7 0 -6 -4 -9 -9 -6 -10
7 -21 -17 -21 -45 0 -11 -5 -17 -10 -14 -6 4 -8 11 -5 16 4 5 2 9 -4 9 -26 0
-16 -21 26 -54 68 -53 43 -44 -53 19 -72 47 -84 52 -84 35 0 -14 27 -40 82
-80 88 -64 95 -77 20 -32 -51 29 -83 37 -75 16 2 -6 -3 -26 -12 -43 -8 -17
-12 -31 -8 -32 5 0 -1 -4 -12 -8 -13 -5 -31 -3 -48 6 -27 13 -28 13 -25 -4 2
-14 14 -19 52 -21 l48 -3 -61 -59 c-33 -32 -61 -66 -61 -76 0 -16 2 -15 16 4
19 28 112 102 126 102 6 0 0 -9 -12 -20 -13 -12 -25 -30 -27 -41 -3 -23 22
-89 34 -89 5 0 24 11 43 23 99 67 114 70 30 7 -85 -65 -158 -132 -184 -169
-42 -60 -30 -59 32 1 49 48 223 178 238 178 3 0 2 -6 -3 -12 -4 -7 -8 -17 -8
-23 -2 -18 -17 -110 -21 -125 -2 -9 -45 -49 -95 -90 -99 -81 -141 -128 -164
-184 -22 -53 -18 -55 13 -5 30 47 220 234 229 225 3 -3 -3 -38 -12 -78 -10
-40 -18 -80 -18 -88 0 -8 -31 -48 -70 -89 -64 -68 -137 -192 -137 -233 0 -7
13 14 29 47 29 59 135 195 153 195 6 0 7 -14 2 -32 -6 -28 -5 -31 8 -20 9 7
18 30 22 52 4 24 12 40 20 40 14 0 46 57 46 80 0 24 44 100 57 100 7 0 18 12
23 26 13 33 13 34 -5 28 -17 -7 -21 11 -5 21 6 3 11 21 11 38 1 18 3 24 6 15
2 -10 13 -18 23 -18 10 0 20 8 23 18 3 9 22 44 41 77 20 33 45 79 56 103 11
23 23 42 25 42 10 0 -8 -55 -22 -68 -7 -7 -13 -19 -13 -26 0 -8 -7 -19 -15
-26 -9 -7 -13 -15 -10 -18 3 -3 1 -10 -4 -16 -6 -7 -41 -72 -79 -146 -87 -171
-105 -204 -114 -208 -5 -2 -8 -8 -8 -14 0 -5 -31 -65 -68 -132 -117 -207 -107
-166 -105 -451 1 -137 -1 -241 -4 -230 -3 11 -13 29 -23 40 -29 33 -51 83 -39
87 8 3 6 10 -4 20 -14 13 -42 77 -50 113 -1 6 -6 13 -12 17 -16 11 -15 798 1
933 7 61 16 123 19 138 4 15 4 27 1 27 -9 0 -36 -65 -75 -180 -18 -52 -55
-156 -82 -230 -103 -287 -124 -432 -80 -564 12 -38 36 -99 52 -134 32 -72 36
-90 14 -72 -12 10 -13 6 -9 -27 3 -24 -3 -13 -16 32 -11 39 -34 114 -51 167
-16 54 -34 134 -39 179 -5 45 -12 90 -15 101 -6 18 -8 17 -26 -6 -28 -36 -137
-86 -188 -86 -23 0 -58 -7 -79 -16 -32 -13 -35 -17 -21 -27 24 -18 35 -93 15
-104 -19 -10 -22 -42 -12 -100 7 -36 5 -43 -13 -53 -14 -7 -21 -7 -21 0 0 5
-18 10 -39 10 -31 0 -39 -3 -37 -17 2 -12 19 -20 57 -28 30 -6 67 -19 83 -30
26 -17 27 -20 10 -32 -10 -8 -20 -9 -24 -4 -14 23 -134 49 -245 54 l-50 2 -2
-49 c-4 -88 -9 -90 -133 -50 -47 15 -88 23 -101 19 -18 -6 -14 -10 29 -30 50
-23 78 -65 43 -65 -22 0 -41 -19 -35 -35 4 -9 -16 -12 -71 -13 -88 -2 -95 -5
-88 -32 4 -16 0 -20 -17 -20 -13 0 -24 -8 -27 -19 -6 -22 -36 -20 -120 8 -73
24 -123 35 -123 26 0 -4 10 -15 23 -25 32 -27 10 -45 -61 -47 -74 -2 -132 -13
-132 -24 0 -5 6 -9 13 -10 6 -1 -6 -5 -27 -10 -34 -8 -44 -6 -77 16 -46 33
-120 55 -173 54 l-41 -1 43 -9 c23 -4 57 -18 75 -30 18 -13 33 -23 35 -24 7
-5 -11 -34 -19 -30 -4 3 -2 -7 6 -22 16 -31 10 -46 -9 -20 -14 18 -32 24 -21
7 9 -14 -5 -101 -15 -95 -5 3 -12 1 -15 -5 -4 -6 -27 -10 -51 -9 -49 3 -64 -7
-66 -42 -2 -28 -25 -59 -45 -59 -7 0 -13 -4 -13 -9 0 -4 -25 -13 -55 -19 -55
-11 -135 1 -187 29 -11 6 -22 8 -25 5 -3 -3 -24 4 -46 16 -38 19 -40 21 -22
34 10 8 23 14 28 14 9 0 0 39 -12 52 -4 4 -32 1 -63 -8 -52 -15 -56 -18 -52
-43 3 -19 -3 -35 -18 -52 -13 -13 -22 -22 -21 -20 8 14 -93 65 -109 54 -8 -4
-9 0 -4 13 5 14 4 16 -4 8 -8 -8 -8 -19 2 -40 7 -16 15 -31 19 -34 13 -10 19
-49 9 -55 -5 -3 -10 -2 -10 3 0 5 -9 19 -19 31 -11 13 -22 28 -24 34 -2 6 -11
8 -19 4 -14 -5 -15 -11 -6 -35 7 -17 17 -28 24 -25 20 7 23 -43 2 -56 -27 -17
-90 -13 -114 7 -52 42 -58 101 -15 153 33 40 138 99 217 122 73 22 112 44 120
69 3 12 19 39 35 61 16 22 26 43 24 48 -3 4 -1 10 5 14 5 3 10 19 10 35 0 16
5 32 10 35 6 3 10 11 10 16 0 6 -12 -3 -26 -18 -20 -22 -24 -24 -19 -8 l6 20
-20 -20 c-35 -35 -49 -44 -57 -37 -4 4 -4 2 0 -5 3 -6 0 -15 -7 -20 -7 -4 -38
-39 -67 -76 -56 -70 -79 -76 -39 -10 15 25 18 34 7 25 -11 -9 -18 -10 -23 -2
-5 8 -11 8 -20 0 -8 -7 -19 -9 -25 -5 -5 3 -25 -5 -43 -19 -18 -14 -44 -27
-58 -29 -20 -3 -25 -12 -34 -58 -5 -30 -14 -61 -20 -69 -5 -8 -11 -30 -12 -48
-1 -19 -12 -54 -24 -78 -13 -28 -19 -56 -17 -75 4 -24 -1 -36 -24 -57 -32 -31
-35 -42 -10 -42 9 0 24 -5 32 -10 11 -7 6 -8 -17 -4 -23 5 -31 3 -30 -7 3 -20
-106 -189 -120 -189 -7 0 -13 -4 -13 -10 0 -5 5 -10 11 -10 10 0 -39 -72 -53
-78 -5 -2 -8 -12 -8 -22 0 -18 2 -18 38 3 20 12 38 25 40 29 2 4 25 30 52 57
47 50 49 51 105 51 57 0 58 0 40 20 -10 11 -29 20 -42 20 -23 0 -23 0 -6 28
20 32 74 92 83 92 4 0 12 -10 19 -23 7 -13 28 -31 47 -42 20 -11 34 -26 34
-37 0 -14 5 -17 24 -12 13 3 27 1 31 -5 3 -7 3 -11 -2 -10 -4 1 -21 0 -38 -1
l-30 -2 32 -11 c39 -15 47 -22 25 -24 -9 -1 -22 -2 -27 -3 -28 -6 -45 2 -45
19 0 14 -5 18 -20 14 -34 -9 -22 -28 33 -56 51 -27 56 -27 262 -29 116 0 255
4 310 11 55 6 201 13 325 15 190 4 234 8 281 24 132 47 130 48 -82 56 -107 4
-198 11 -202 15 -12 12 188 25 265 18 54 -5 61 -3 66 15 3 15 11 19 29 15 13
-2 48 2 79 9 39 9 63 10 78 3 18 -8 32 -4 79 27 44 28 60 46 73 79 33 87 66
100 206 80 53 -7 59 -6 88 19 17 14 43 29 56 32 43 11 106 -3 149 -34 l41 -29
31 21 c16 11 40 34 51 51 16 22 39 36 89 53 38 13 76 20 86 17 13 -6 16 -3 11
10 -9 24 57 88 135 131 35 19 81 49 102 66 24 19 43 28 48 22 5 -5 18 -36 30
-69 42 -114 116 -280 158 -355 24 -41 43 -78 43 -82 0 -5 12 -8 28 -9 20 -1
14 -4 -23 -14 -27 -8 -72 -13 -100 -13 -27 1 -77 -2 -110 -7 -33 -5 -67 -9
-75 -10 -29 -1 -94 -28 -114 -47 -17 -15 -29 -18 -61 -12 -22 3 -41 10 -43 15
-11 29 -79 -18 -186 -129 -65 -68 -136 -168 -136 -192 0 -8 -7 -23 -14 -33
-11 -14 -19 -15 -39 -8 -14 6 -49 8 -79 6 -51 -3 -53 -5 -56 -34 -4 -41 -19
-44 -202 -46 -143 -1 -159 1 -210 23 -30 13 -69 35 -87 48 -21 16 -45 24 -70
24 -21 0 -63 6 -92 14 -29 7 -61 11 -71 9 -10 -3 -53 2 -95 11 -42 9 -82 16
-89 16 -20 -1 127 -48 172 -55 23 -4 42 -10 42 -15 0 -4 33 -12 73 -17 45 -5
71 -13 70 -20 -2 -7 27 -17 75 -24 42 -7 69 -15 60 -17 -33 -7 -18 -20 30 -27
53 -7 92 -24 57 -25 -48 -1 13 -19 85 -25 89 -8 130 -25 61 -25 -75 0 -40 -9
95 -24 221 -25 238 -28 284 -55 l45 -26 -140 -5 -140 -6 144 -2 c135 -2 146
-3 191 -29 39 -22 50 -34 55 -61 7 -40 43 -58 138 -71 159 -22 490 -93 562
-121 11 -4 45 -13 75 -20 30 -7 69 -19 85 -26 17 -7 42 -15 58 -19 15 -3 27
-10 27 -17 0 -17 33 -37 63 -38 18 0 27 -5 27 -17 0 -9 7 -24 16 -34 13 -15
16 -40 15 -140 -2 -104 -5 -124 -21 -141 -13 -14 -17 -26 -11 -36 11 -19 -7
-62 -25 -62 -6 0 -18 -19 -25 -43 -10 -37 -16 -43 -34 -39 -19 3 -22 0 -18
-21 4 -20 0 -26 -23 -31 -15 -4 -24 -10 -18 -14 5 -4 10 -17 12 -29 2 -18 -4
-24 -35 -32 -21 -6 -44 -11 -51 -11 -8 0 -12 -6 -9 -12 2 -7 -4 -32 -14 -55
l-18 -43 24 0 c18 0 25 -5 25 -20 0 -11 -4 -20 -9 -20 -5 0 -12 -10 -14 -22
l-4 -23 -8 22 c-4 13 -11 23 -16 23 -14 0 -3 -62 23 -129 l23 -61 193 0 192 0
0 2216 c0 1757 -3 2213 -13 2208 -9 -6 -9 -4 -1 7 14 18 16 159 2 159 -7 0 -7
4 0 13 15 17 14 157 0 157 -9 0 -9 3 0 12 7 7 12 27 12 45 0 27 -3 31 -17 26
-17 -6 -17 -5 0 14 18 21 24 89 7 78 -5 -3 -10 -2 -10 4 0 13 -81 12 -97 -1
-9 -7 -13 -7 -13 0 0 13 -700 17 -701 5z m761 -23 c0 -5 -4 -10 -10 -10 -5 0
-10 5 -10 10 0 6 5 10 10 10 6 0 10 -4 10 -10z m-67 -22 c-6 -7 -24 -38 -40
-68 -59 -107 -75 -135 -101 -170 -15 -19 -49 -69 -76 -110 -57 -88 -54 -85
-62 -78 -5 6 88 149 140 213 13 17 45 71 71 120 52 99 65 118 73 110 3 -2 0
-10 -5 -17z m99 0 c-7 -7 -12 -8 -12 -2 0 14 12 26 19 19 2 -3 -1 -11 -7 -17z
m-81 -52 c-17 -24 -31 -47 -31 -51 0 -3 -34 -55 -75 -114 -41 -60 -75 -112
-75 -116 0 -3 -15 -27 -32 -53 -18 -25 -36 -51 -40 -56 -4 -6 -10 -7 -14 -4
-3 4 4 20 17 36 13 16 31 42 41 58 9 16 51 81 95 145 43 64 91 138 106 164 15
26 30 45 33 42 3 -3 -8 -26 -25 -51z m69 24 c0 -5 -4 -10 -10 -10 -5 0 -10 5
-10 10 0 6 5 10 10 10 6 0 10 -4 10 -10z m-54 -80 c-20 -27 -36 -52 -36 -55 0
-11 -93 -145 -98 -141 -2 3 10 25 27 50 17 24 31 49 31 55 0 6 5 11 10 11 6 0
10 5 10 11 0 14 82 131 88 125 2 -3 -12 -28 -32 -56z m58 6 c-9 -15 -19 -25
-21 -22 -3 2 3 16 13 30 9 15 19 25 21 22 3 -2 -3 -16 -13 -30z m-24 -46 c0
-5 -4 -10 -10 -10 -5 0 -10 5 -10 10 0 6 5 10 10 10 6 0 10 -4 10 -10z m50
-14 c0 -3 -4 -8 -10 -11 -5 -3 -10 -1 -10 4 0 6 5 11 10 11 6 0 10 -2 10 -4z
m-86 -40 c-9 -15 -19 -25 -21 -22 -3 2 3 16 13 30 9 15 19 25 21 22 3 -2 -3
-16 -13 -30z m56 4 c0 -5 -5 -10 -11 -10 -5 0 -7 5 -4 10 3 6 8 10 11 10 2 0
4 -4 4 -10z m-92 -57 c-8 -10 -35 -52 -61 -93 -47 -75 -117 -162 -117 -146 0
8 47 71 81 109 9 9 22 30 30 45 8 15 17 29 20 32 3 3 14 20 23 38 9 17 22 32
28 32 7 0 6 -7 -4 -17z m122 7 c0 -5 -5 -10 -11 -10 -5 0 -7 5 -4 10 3 6 8 10
11 10 2 0 4 -4 4 -10z m-20 -30 c0 -5 -5 -10 -11 -10 -5 0 -7 5 -4 10 3 6 8
10 11 10 2 0 4 -4 4 -10z m-70 -20 c0 -5 -5 -10 -11 -10 -5 0 -7 5 -4 10 3 6
8 10 11 10 2 0 4 -4 4 -10z m42 -22 c-7 -7 -12 -8 -12 -2 0 14 12 26 19 19 2
-3 -1 -11 -7 -17z m-185 -23 c-7 -14 -15 -25 -19 -25 -11 0 -10 7 4 30 18 28
28 25 15 -5z m111 -4 c-7 -12 -16 -21 -21 -21 -4 0 0 11 9 25 20 30 31 26 12
-4z m122 25 c0 -3 -14 -20 -31 -38 -16 -18 -51 -62 -76 -98 -26 -36 -48 -67
-50 -69 -1 -2 -6 -1 -10 2 -6 7 61 97 118 160 16 17 29 35 29 39 0 5 5 8 10 8
6 0 10 -2 10 -4z m-70 -26 c0 -5 -5 -10 -11 -10 -5 0 -7 5 -4 10 3 6 8 10 11
10 2 0 4 -4 4 -10z m-37 -45 c-10 -13 -22 -25 -26 -25 -4 0 0 11 10 25 10 13
22 25 26 25 4 0 0 -11 -10 -25z m100 0 c-10 -13 -22 -25 -26 -25 -4 0 0 11 10
25 10 13 22 25 26 25 4 0 0 -11 -10 -25z m-271 -19 c-10 -14 -22 -22 -26 -19
-3 4 4 17 16 30 28 30 36 22 10 -11z m118 11 c-8 -7 -33 -34 -54 -62 -54 -69
-56 -71 -56 -58 0 6 12 26 28 43 15 18 40 48 56 67 16 18 31 31 35 28 3 -4 -1
-12 -9 -18z m154 -42 c-9 -14 -19 -24 -21 -21 -6 6 20 46 30 46 4 0 0 -11 -9
-25z m-134 9 c0 -3 -19 -29 -42 -57 -24 -29 -44 -54 -45 -56 -2 -2 -6 -1 -10
2 -3 4 5 20 19 35 14 15 33 39 43 55 15 24 35 36 35 21z m-175 -23 c-3 -6 -11
-11 -17 -11 -6 0 -6 6 2 15 14 17 26 13 15 -4z m210 -65 c-10 -14 -21 -26 -26
-26 -5 0 0 13 12 30 27 36 38 33 14 -4z m88 10 c-10 -13 -20 -22 -22 -20 -4 4
29 44 36 44 2 0 -4 -11 -14 -24z m-15 -85 c-23 -33 -46 -61 -50 -61 -11 0 -8
5 46 84 22 33 41 55 43 49 2 -6 -15 -38 -39 -72z m-144 44 c-6 -16 -24 -21
-24 -7 0 11 11 22 21 22 5 0 6 -7 3 -15z m74 -30 c-13 -19 -27 -35 -31 -35 -4
0 -4 6 0 13 28 43 39 57 45 57 5 0 -2 -16 -14 -35z m-40 13 c-2 -6 -10 -14
-16 -16 -7 -2 -10 2 -6 12 7 18 28 22 22 4z m56 -53 c-6 -16 -24 -21 -24 -7 0
11 11 22 21 22 5 0 6 -7 3 -15z m36 -65 c0 -5 -2 -10 -4 -10 -3 0 -8 5 -11 10
-3 6 -1 10 4 10 6 0 11 -4 11 -10z m-274 -336 c10 -56 8 -71 -15 -107 -11 -18
-27 -47 -37 -65 -9 -18 -19 -30 -22 -27 -3 2 9 32 27 66 18 34 30 66 28 73 -3
6 -9 0 -15 -14 -6 -14 -11 -20 -11 -13 -1 19 19 67 32 75 8 5 8 8 1 8 -7 0 -9
11 -6 25 6 33 10 28 18 -21z m-442 -960 c3 -8 2 -12 -4 -9 -6 3 -10 10 -10 16
0 14 7 11 14 -7z m-1744 -419 c0 -19 -2 -35 -4 -35 -2 0 -6 16 -8 35 -2 19 0
35 4 35 4 0 8 -16 8 -35z m-572 -144 c3 -8 -1 -12 -9 -9 -7 2 -15 10 -17 17
-3 8 1 12 9 9 7 -2 15 -10 17 -17z m-143 -172 c63 -25 94 -31 145 -30 36 0
120 -8 188 -19 67 -11 125 -20 129 -20 4 0 3 -4 -3 -9 -5 -6 -122 -13 -260
-17 l-251 -7 -57 56 c-31 31 -56 61 -56 67 0 20 86 9 165 -21z m3133 -21 c-5
-13 -36 -21 -134 -36 -65 -11 -77 0 -32 28 39 23 173 30 166 8z m-273 -7 c-14
-13 -93 -25 -80 -13 6 6 21 12 35 15 44 8 54 7 45 -2z"/>
<path d="M8435 3840 c-3 -5 -1 -10 4 -10 6 0 11 5 11 10 0 6 -2 10 -4 10 -3 0
-8 -4 -11 -10z"/>
<path d="M545 4840 c-3 -6 1 -7 9 -4 18 7 21 14 7 14 -6 0 -13 -4 -16 -10z"/>
<path d="M8210 4825 c0 -8 5 -15 10 -15 6 0 10 7 10 15 0 8 -4 15 -10 15 -5 0
-10 -7 -10 -15z"/>
<path d="M960 4527 c19 -18 50 -43 68 -56 52 -37 21 5 -38 52 -59 46 -77 48
-30 4z"/>
<path d="M8109 4533 l-24 -28 28 24 c15 14 27 26 27 28 0 8 -8 1 -31 -24z"/>
<path d="M8130 4429 c-7 -11 -9 -23 -6 -26 2 -3 -6 -16 -18 -30 -13 -14 -29
-44 -36 -67 -7 -22 -21 -65 -31 -94 -10 -30 -17 -58 -14 -62 3 -5 1 -11 -5
-15 -5 -3 -10 -11 -10 -17 0 -18 28 11 53 55 13 23 41 69 61 101 30 51 36 69
36 118 0 60 -11 73 -30 37z"/>
<path d="M8338 3935 c-32 -25 -58 -48 -58 -52 0 -3 8 1 18 10 10 10 22 14 26
10 4 -4 11 -1 17 7 8 13 10 13 18 1 8 -12 11 -9 16 12 4 15 11 27 15 27 4 0
10 7 14 15 9 24 -6 18 -66 -30z"/>
<path d="M7743 3774 c-15 -15 -17 -54 -4 -54 9 0 26 58 19 65 -1 2 -9 -3 -15
-11z"/>
<path d="M7666 3652 c-3 -5 15 -29 41 -53 25 -24 59 -62 75 -84 l31 -40 -7 70
c-4 39 -12 75 -19 81 -27 25 -110 43 -121 26z"/>
<path d="M913 3467 c-15 -34 -24 -83 -28 -142 -6 -87 -42 -273 -70 -365 l-14
-45 2 55 c1 30 -2 66 -7 79 -6 17 -5 22 4 16 9 -6 9 -3 1 14 -6 11 -14 49 -17
83 -3 35 -10 78 -15 96 -6 19 -8 47 -5 63 3 19 2 28 -4 24 -6 -4 -10 10 -10
34 0 22 -4 43 -10 46 -5 3 -10 17 -10 30 0 13 -5 27 -11 31 -9 5 -10 -1 -5
-22 4 -16 12 -56 17 -88 6 -33 12 -63 14 -67 8 -12 36 -308 40 -419 4 -92 3
-101 -8 -69 -7 20 -28 54 -47 77 -58 67 -90 114 -90 133 0 9 -3 19 -7 21 -5 2
-18 25 -31 52 -13 27 -31 50 -42 53 -11 3 -21 13 -21 22 -1 9 -4 3 -8 -14 -9
-41 5 -171 24 -224 8 -24 15 -61 15 -82 0 -21 4 -40 9 -43 4 -3 11 -30 15 -59
3 -30 13 -70 21 -90 9 -22 12 -44 7 -57 l-8 -21 -25 20 c-33 25 -56 82 -64
153 -4 32 -11 60 -16 63 -5 4 -9 25 -9 48 0 51 -11 70 -36 66 -31 -5 -44 10
-44 52 0 30 4 39 17 39 14 0 13 3 -5 20 -12 12 -22 29 -22 40 0 10 -4 29 -10
42 -5 13 -14 49 -20 81 -7 32 -16 57 -22 55 -6 -2 -12 -33 -13 -68 -2 -36 -4
-68 -4 -72 -1 -3 -9 -9 -18 -11 -11 -3 -7 -5 10 -6 30 -1 36 -21 12 -45 -8 -8
-15 -19 -15 -25 0 -6 -5 -11 -11 -11 -5 0 -7 -4 -4 -10 3 -5 1 -10 -4 -10 -6
0 -11 -8 -11 -18 0 -11 -9 -27 -21 -37 -19 -18 -22 -18 -52 -3 -21 11 -67 18
-129 21 l-98 4 0 -723 c0 -527 3 -724 11 -724 41 0 724 230 938 316 130 53
179 65 166 43 -5 -7 7 -8 40 -3 35 5 46 4 41 -5 -4 -6 -2 -11 3 -11 6 0 11 3
11 8 0 12 64 12 72 -1 6 -9 10 -8 18 3 5 8 10 10 10 4 0 -7 11 -9 26 -6 16 3
30 -1 35 -9 6 -9 9 -10 9 -2 0 12 7 14 73 15 20 1 37 6 37 11 0 6 3 7 6 4 4
-4 1 -15 -7 -24 -7 -10 -2 -8 12 5 40 35 84 21 47 -16 -9 -9 -9 -12 0 -12 7 0
12 6 12 13 0 9 2 9 9 -1 6 -11 14 -6 30 17 20 27 20 30 4 25 -14 -4 -15 -4 -3
4 8 5 42 13 75 17 77 9 273 49 395 80 104 26 338 46 546 46 65 0 126 4 134 9
10 7 -10 10 -62 10 -61 0 -78 3 -78 14 0 12 26 15 128 19 80 2 145 10 175 20
30 10 45 12 41 5 -5 -7 -2 -9 9 -5 19 7 33 -9 15 -17 -7 -3 -2 -5 12 -4 50 2
80 -2 80 -12 0 -5 -56 -11 -135 -12 -169 -4 -187 -22 -25 -26 95 -2 120 0 148
15 32 17 34 17 43 1 13 -23 70 -24 110 -3 16 8 42 21 57 29 18 10 43 13 70 9
62 -8 51 -23 -18 -23 -47 0 -60 -3 -60 -15 0 -22 65 -19 117 6 61 29 62 39 4
39 -39 0 -51 4 -51 15 0 11 -12 15 -46 15 -27 0 -43 4 -39 10 3 6 -4 10 -17
11 -22 0 -22 1 -3 8 11 5 22 4 23 0 2 -5 17 -9 34 -9 26 0 29 2 18 15 -7 8
-22 15 -34 16 -12 1 -4 6 20 12 55 16 73 33 70 65 -1 15 6 38 16 51 10 13 15
28 11 34 -3 5 -6 21 -7 35 -1 22 -9 28 -66 45 -36 10 -91 28 -123 39 -32 11
-62 17 -65 13 -13 -13 33 -36 138 -70 62 -20 94 -34 77 -34 -15 -1 -35 3 -45
8 -23 13 -117 41 -136 41 -8 0 -16 -4 -18 -9 -2 -6 -25 -5 -56 1 -52 11 -53
11 -82 -22 -21 -24 -39 -33 -66 -35 -20 -1 -40 -8 -44 -15 -8 -14 -76 -16
-127 -5 -32 7 -46 -6 -23 -20 15 -9 2 -25 -21 -25 -14 0 -19 7 -19 25 0 15 -6
25 -14 25 -8 0 -23 11 -34 25 -11 14 -22 25 -24 25 -3 0 -18 -11 -34 -25 -17
-15 -23 -25 -15 -25 8 0 12 -3 8 -6 -7 -8 -106 -17 -172 -17 -27 0 -53 -4 -56
-10 -8 -12 -100 -30 -149 -30 -19 1 -60 6 -90 13 -37 8 -84 10 -145 4 -99 -8
-496 -7 -504 2 -12 11 31 32 79 38 28 4 50 9 50 11 0 2 -7 30 -16 62 -9 32
-18 69 -21 83 -3 14 -14 35 -25 46 -20 23 -30 74 -47 254 l-9 95 4 -95 c5 -89
1 -118 -25 -160 -17 -28 -41 -88 -41 -103 0 -9 -4 -18 -8 -21 -18 -11 -29 13
-41 88 -17 102 -30 139 -47 132 -8 -3 -20 6 -28 22 -8 16 -26 33 -40 40 -24
11 -26 10 -26 -14 0 -35 -30 -163 -39 -169 -5 -2 -8 44 -8 103 0 59 -6 126
-13 147 -41 132 -62 161 -100 137 -11 -6 -31 -12 -45 -12 -20 0 -29 7 -37 32
l-11 32 -20 -63 c-30 -96 -41 -67 -45 109 -2 107 0 150 8 150 7 0 9 10 5 28
-6 28 10 197 21 226 3 9 2 16 -2 16 -5 0 -19 -24 -31 -53z m-668 -638 c10 -15
-1 -22 -24 -14 -12 3 -21 15 -21 26 0 16 3 18 19 9 11 -5 23 -15 26 -21z m488
-200 c-10 -4 -27 -8 -38 -8 -18 0 -19 1 -2 8 10 4 18 10 18 14 -3 26 1 28 20
11 19 -17 19 -19 2 -25z m-606 -81 c-2 -13 -4 -5 -4 17 -1 22 1 32 4 23 2 -10
2 -28 0 -40z m-7 -88 c-10 -55 -20 -77 -20 -46 0 23 22 108 26 103 2 -2 0 -28
-6 -57z m880 -85 c74 -8 141 -15 148 -15 6 0 21 -9 32 -20 22 -22 27 -83 10
-110 -8 -13 -10 -12 -10 3 0 9 -4 17 -10 17 -5 0 -10 -16 -10 -35 0 -24 -5
-35 -15 -35 -8 0 -14 5 -12 12 1 6 -17 17 -39 24 -53 15 -84 32 -107 55 -10
11 -28 19 -41 19 -30 0 -106 56 -106 79 0 5 -8 15 -17 21 -15 9 -13 10 12 6
17 -3 91 -13 165 -21z m1790 -55 c0 -5 -4 -10 -10 -10 -5 0 -10 5 -10 10 0 6
5 10 10 10 6 0 10 -4 10 -10z m-450 -40 c0 -5 -12 -10 -26 -10 -14 0 -23 4
-19 10 3 6 15 10 26 10 10 0 19 -4 19 -10z m300 -21 c0 -14 -37 -10 -43 4 -4
10 2 13 19 9 13 -2 24 -8 24 -13z m607 15 c-3 -3 -12 -4 -19 -1 -8 3 -5 6 6 6
11 1 17 -2 13 -5z m-174 -101 c-7 -2 -19 -2 -25 0 -7 3 -2 5 12 5 14 0 19 -2
13 -5z m127 -23 c0 -5 -12 -10 -27 -9 l-28 1 25 8 c14 4 26 8 28 9 1 1 2 -3 2
-9z m-67 -7 c-7 -2 -19 -2 -25 0 -7 3 -2 5 12 5 14 0 19 -2 13 -5z m7 -25 c0
-5 -23 -8 -51 -8 -27 0 -48 4 -45 8 6 11 96 10 96 0z m150 2 c0 -5 -22 -10
-50 -10 -27 0 -50 5 -50 10 0 6 23 10 50 10 28 0 50 -4 50 -10z m-89 -20 c18
0 28 -4 24 -10 -3 -5 -32 -10 -63 -10 -53 1 -56 2 -37 16 11 8 26 12 33 9 8
-3 27 -5 43 -5z m-1994 -166 c-3 -3 -12 -4 -19 -1 -8 3 -5 6 6 6 11 1 17 -2
13 -5z m250 -10 c-3 -3 -12 -4 -19 -1 -8 3 -5 6 6 6 11 1 17 -2 13 -5z m96
-11 c-7 -2 -19 -2 -25 0 -7 3 -2 5 12 5 14 0 19 -2 13 -5z"/>
<path d="M1090 2230 c19 -13 30 -13 30 0 0 6 -10 10 -22 10 -19 0 -20 -2 -8
-10z"/>
<path d="M313 3364 c-16 -16 -17 -34 -3 -34 6 0 10 -9 10 -20 0 -22 15 -27 23
-7 6 15 -2 66 -12 71 -3 2 -12 -2 -18 -10z"/>
<path d="M500 3275 c0 -25 14 -34 24 -16 8 12 -3 41 -15 41 -5 0 -9 -11 -9
-25z"/>
<path d="M8132 3265 c0 -16 2 -22 5 -12 2 9 2 23 0 30 -3 6 -5 -1 -5 -18z"/>
<path d="M8115 3155 c-4 -42 -5 -78 -2 -81 2 -3 8 29 12 71 4 42 5 79 2 81 -3
3 -8 -29 -12 -71z"/>
<path d="M8196 3174 c-4 -20 -5 -38 -3 -40 3 -3 8 11 11 32 4 20 5 38 3 40 -3
3 -8 -11 -11 -32z"/>
<path d="M183 3193 c-7 -2 -13 -13 -13 -23 0 -10 -12 -28 -26 -39 -15 -12 -21
-21 -15 -21 7 0 9 -4 6 -10 -3 -5 1 -10 9 -10 9 0 16 4 16 9 0 6 12 9 28 8 26
-2 27 0 27 42 0 44 -8 54 -32 44z m17 -53 c0 -11 -7 -20 -15 -20 -13 0 -13 3
-3 20 7 11 14 20 15 20 2 0 3 -9 3 -20z"/>
<path d="M16 3151 c-3 -5 1 -11 9 -14 9 -4 12 -1 8 9 -6 16 -10 17 -17 5z"/>
<path d="M8182 3100 c0 -14 2 -19 5 -12 2 6 2 18 0 25 -3 6 -5 1 -5 -13z"/>
<path d="M440 2970 c0 -11 5 -20 10 -20 6 0 10 9 10 20 0 11 -4 20 -10 20 -5
0 -10 -9 -10 -20z"/>
<path d="M8221 2914 c0 -11 3 -14 6 -6 3 7 2 16 -1 19 -3 4 -6 -2 -5 -13z"/>
<path d="M7140 2910 c8 -5 20 -10 25 -10 6 0 3 5 -5 10 -8 5 -19 10 -25 10 -5
0 -3 -5 5 -10z"/>
<path d="M5526 2718 l-18 -33 21 25 c18 22 26 40 18 40 -1 0 -11 -15 -21 -32z"/>
<path d="M4065 2682 c13 -13 1055 -24 1055 -11 0 5 -1 9 -2 10 -2 0 -241 3
-533 6 -351 3 -527 2 -520 -5z"/>
<path d="M6070 2650 c8 -5 29 -9 45 -9 29 1 29 1 5 9 -14 4 -34 8 -45 9 -16 1
-17 -1 -5 -9z"/>
<path d="M6370 2630 c0 -5 5 -10 10 -10 6 0 10 5 10 10 0 6 -4 10 -10 10 -5 0
-10 -4 -10 -10z"/>
<path d="M2194 2586 c-30 -20 -56 -48 -64 -66 -7 -17 -23 -39 -36 -49 -13 -10
-22 -28 -21 -40 1 -19 7 -21 72 -21 117 0 253 19 305 41 28 12 47 26 44 31 -3
5 -54 7 -115 5 -107 -3 -110 -2 -134 23 -14 14 -25 32 -25 40 0 7 3 10 7 7 3
-4 11 3 17 15 6 13 23 28 36 35 l25 13 -30 0 c-18 0 -51 -14 -81 -34z"/>
<path d="M6194 2601 c21 -23 26 -26 26 -11 0 5 -10 15 -22 21 -23 12 -23 12
-4 -10z"/>
<path d="M3953 2599 c-7 -7 -13 -27 -13 -44 0 -60 6 -62 323 -69 261 -5 291
-4 325 11 32 15 69 18 252 18 118 0 221 4 228 8 6 5 12 23 12 40 0 30 -3 33
-32 33 -18 0 -269 4 -558 8 -424 6 -527 5 -537 -5z"/>
<path d="M3180 2580 c0 -5 5 -10 11 -10 5 0 7 5 4 10 -3 6 -8 10 -11 10 -2 0
-4 -4 -4 -10z"/>
<path d="M3260 2549 c30 -11 69 -25 85 -30 l30 -8 -28 24 c-15 14 -39 25 -51
25 -13 0 -39 2 -57 5 -26 4 -20 0 21 -16z"/>
<path d="M4793 2473 c42 -2 112 -2 155 0 42 1 7 3 -78 3 -85 0 -120 -2 -77 -3z"/>
<path d="M3360 2461 c0 -5 5 -13 10 -16 6 -3 10 -2 10 4 0 5 -4 13 -10 16 -5
3 -10 2 -10 -4z"/>
<path d="M1830 2421 c0 -32 16 -42 26 -16 3 8 -1 22 -10 30 -15 15 -16 14 -16
-14z"/>
<path d="M3560 2440 c0 -5 -14 -10 -31 -10 l-31 0 45 -34 c30 -23 61 -37 94
-42 26 -3 56 -11 66 -16 11 -6 17 -5 17 2 0 6 5 8 10 5 6 -4 8 -10 5 -15 -3
-5 0 -12 6 -15 5 -4 8 -13 5 -21 -3 -9 7 -17 32 -24 53 -14 82 -13 82 5 0 8
-7 15 -16 15 -9 0 -29 14 -44 30 -15 17 -34 30 -42 30 -7 0 -25 6 -39 14 -16
8 -32 10 -40 5 -20 -12 -52 20 -38 37 13 16 5 44 -11 44 -6 0 -8 -4 -5 -10 3
-5 -1 -10 -9 -10 -8 0 -18 5 -21 10 -3 6 -13 10 -21 10 -8 0 -14 -4 -14 -10z
m230 -130 c0 -5 -7 -10 -16 -10 -8 0 -12 5 -9 10 3 6 10 10 16 10 5 0 9 -4 9
-10z"/>
<path d="M2010 2425 c0 -8 8 -15 18 -14 10 0 12 3 4 6 -6 2 -10 9 -6 14 3 5 0
9 -5 9 -6 0 -11 -7 -11 -15z"/>
<path d="M5890 2430 c0 -5 5 -10 10 -10 6 0 10 5 10 10 0 6 -4 10 -10 10 -5 0
-10 -4 -10 -10z"/>
<path d="M5795 2410 c4 -6 11 -8 16 -5 14 9 11 15 -7 15 -8 0 -12 -5 -9 -10z"/>
<path d="M2850 2375 c0 -14 5 -25 10 -25 6 0 10 11 10 25 0 14 -4 25 -10 25
-5 0 -10 -11 -10 -25z"/>
<path d="M3797 2383 c8 -21 69 -53 94 -51 15 2 23 -2 22 -9 -4 -18 91 -17 106
1 9 11 7 15 -8 19 -11 3 -22 0 -24 -6 -2 -6 -9 -7 -16 -3 -11 7 -11 10 0 16
14 10 -47 28 -127 39 -41 6 -51 5 -47 -6z"/>
<path d="M3500 2327 c0 -4 5 -16 11 -29 13 -29 156 -83 176 -66 23 19 14 28
-52 58 -63 28 -135 48 -135 37z"/>
<path d="M3395 2300 c-10 -11 -13 -20 -7 -20 6 0 13 -9 17 -20 3 -11 20 -29
36 -41 26 -19 34 -20 54 -9 19 10 21 15 12 27 -20 24 -82 83 -88 83 -3 0 -14
-9 -24 -20z"/>
<path d="M7520 2255 c47 -25 152 -56 171 -50 29 10 23 22 -18 35 -21 7 -42 16
-47 21 -6 5 -37 9 -70 9 -57 -1 -60 -2 -36 -15z"/>
<path d="M3353 2183 c9 -2 23 -2 30 0 6 3 -1 5 -18 5 -16 0 -22 -2 -12 -5z"/>
<path d="M3400 2181 c0 -5 7 -11 15 -15 9 -3 15 0 15 9 0 8 -7 15 -15 15 -8 0
-15 -4 -15 -9z"/>
<path d="M3550 2180 c0 -5 5 -10 10 -10 6 0 10 5 10 10 0 6 -4 10 -10 10 -5 0
-10 -4 -10 -10z"/>
<path d="M3695 2180 c-3 -5 1 -10 9 -10 9 0 16 5 16 10 0 6 -4 10 -9 10 -6 0
-13 -4 -16 -10z"/>
<path d="M3820 2180 c0 -5 5 -10 10 -10 6 0 10 5 10 10 0 6 -4 10 -10 10 -5 0
-10 -4 -10 -10z"/>
<path d="M3920 2170 c0 -5 4 -10 9 -10 6 0 13 5 16 10 3 6 -1 10 -9 10 -9 0
-16 -4 -16 -10z"/>
<path d="M4872 2158 c3 -26 21 -22 23 5 1 9 -5 17 -12 17 -9 0 -13 -8 -11 -22z"/>
<path d="M7615 2160 c3 -5 8 -10 11 -10 2 0 4 5 4 10 0 6 -5 10 -11 10 -5 0
-7 -4 -4 -10z"/>
<path d="M7685 2160 c-4 -6 -15 -8 -26 -5 -10 4 -19 3 -19 -2 0 -11 107 -43
140 -43 14 0 32 5 40 10 12 7 7 12 -20 24 -53 22 -107 30 -115 16z"/>
<path d="M3350 2145 c0 -8 9 -15 20 -15 13 0 18 5 14 15 -4 8 -12 15 -20 15
-8 0 -14 -7 -14 -15z"/>
<path d="M3500 2150 c0 -5 4 -10 9 -10 6 0 13 5 16 10 3 6 -1 10 -9 10 -9 0
-16 -4 -16 -10z"/>
<path d="M3650 2150 c0 -5 4 -10 9 -10 6 0 13 5 16 10 3 6 -1 10 -9 10 -9 0
-16 -4 -16 -10z"/>
<path d="M3770 2150 c0 -5 5 -10 10 -10 6 0 10 5 10 10 0 6 -4 10 -10 10 -5 0
-10 -4 -10 -10z"/>
<path d="M3445 2129 c-4 -6 -4 -13 -1 -16 8 -8 36 5 36 17 0 13 -27 13 -35 -1z"/>
<path d="M3600 2124 c0 -9 5 -14 12 -12 18 6 21 28 4 28 -9 0 -16 -7 -16 -16z"/>
<path d="M3730 2130 c0 -5 5 -10 11 -10 5 0 7 5 4 10 -3 6 -8 10 -11 10 -2 0
-4 -4 -4 -10z"/>
<path d="M7109 2104 c-5 -15 -6 -36 -2 -48 4 -11 7 -24 8 -28 0 -3 4 -10 9
-15 5 -5 6 2 3 16 -3 13 1 37 9 53 15 28 12 48 -7 48 -5 0 -14 -12 -20 -26z"/>
<path d="M2903 2103 c9 -2 25 -2 35 0 9 3 1 5 -18 5 -19 0 -27 -2 -17 -5z"/>
<path d="M3540 2100 c0 -5 9 -10 20 -10 11 0 20 5 20 10 0 6 -9 10 -20 10 -11
0 -20 -4 -20 -10z"/>
<path d="M3670 2100 c0 -5 7 -10 15 -10 8 0 15 5 15 10 0 6 -7 10 -15 10 -8 0
-15 -4 -15 -10z"/>
<path d="M3796 2103 c-11 -11 -6 -23 9 -23 8 0 15 4 15 9 0 13 -16 22 -24 14z"/>
<path d="M3410 2070 c0 -11 3 -12 40 -12 50 -1 70 2 70 12 0 6 -25 10 -55 10
-30 0 -55 -4 -55 -10z"/>
<path d="M3570 2070 c0 -5 18 -10 40 -10 22 0 40 5 40 10 0 6 -18 10 -40 10
-22 0 -40 -4 -40 -10z"/>
<path d="M4290 2073 c-14 -3 -28 -9 -31 -15 -3 -5 -96 -11 -209 -13 -169 -4
-205 -7 -212 -20 -8 -13 -80 -15 -583 -15 -482 0 -575 -2 -575 -14 0 -7 6 -18
13 -24 6 -5 127 -15 267 -22 140 -7 440 -22 665 -34 l410 -21 -1 -23 c-1 -22
10 -29 20 -13 3 5 35 8 70 7 39 -1 72 4 82 11 11 8 50 13 105 13 48 0 100 5
116 11 51 19 101 89 64 89 -17 0 -18 3 -8 29 19 52 7 61 -85 60 -46 -1 -94 -4
-108 -6z"/>
<path d="M4900 2060 c0 -6 39 -10 98 -10 66 0 92 3 82 10 -20 13 -180 13 -180
0z"/>
<path d="M4785 2031 c-11 -19 31 -28 147 -35 109 -6 118 -5 128 13 5 11 10 22
10 25 0 10 -279 6 -285 -3z"/>
<path d="M6672 1934 c-39 -19 -36 -24 14 -24 28 0 59 6 69 14 17 12 16 14 -21
17 -22 2 -50 -1 -62 -7z"/>
<path d="M1639 1896 c6 -7 8 -22 5 -32 -6 -17 -5 -17 10 1 l16 20 -6 -20 c-6
-17 -3 -17 18 5 14 14 23 29 20 35 -3 5 -7 4 -9 -2 -3 -9 -12 -9 -29 -2 -34
12 -39 11 -25 -5z"/>
<path d="M1737 1883 c3 -7 0 -20 -7 -28 -8 -9 -8 -15 -2 -15 6 0 14 9 17 20 3
11 10 20 15 20 5 0 7 -8 4 -17 -4 -12 1 -9 14 7 12 14 18 27 16 30 -3 2 -9 -2
-14 -10 -6 -8 -10 -10 -10 -5 0 6 -8 11 -19 11 -11 0 -17 -5 -14 -13z"/>
<path d="M1820 1885 c6 -8 9 -24 5 -37 -5 -19 -3 -19 10 5 19 33 29 35 20 5
-6 -18 -5 -20 5 -11 17 15 4 47 -15 39 -8 -3 -15 -1 -15 4 0 6 -5 10 -11 10
-8 0 -8 -4 1 -15z"/>
<path d="M1918 1868 c3 -12 7 -17 10 -10 2 6 8 12 14 12 6 0 7 -8 3 -17 -5
-15 -4 -16 7 -5 11 11 10 16 -6 28 -28 20 -35 18 -28 -8z"/>
<path d="M1995 1880 c3 -5 8 -10 11 -10 2 0 4 5 4 10 0 6 -5 10 -11 10 -5 0
-7 -4 -4 -10z"/>
<path d="M1455 1871 c-3 -5 -1 -12 5 -16 5 -3 10 1 10 9 0 18 -6 21 -15 7z"/>
<path d="M2022 1868 c-7 -7 -12 -19 -12 -27 0 -11 4 -10 16 5 15 19 16 19 9
-1 -5 -15 -3 -17 5 -8 8 7 9 17 3 27 -7 13 -12 13 -21 4z"/>
<path d="M2193 1856 c7 -14 14 -21 15 -16 2 6 8 10 14 10 6 0 7 -8 3 -17 -4
-13 -3 -15 5 -7 12 12 2 47 -11 38 -6 -3 -16 -1 -24 6 -12 10 -12 8 -2 -14z"/>
<path d="M5575 1873 c-16 -2 -38 -13 -47 -23 -16 -17 -16 -19 0 -25 9 -3 48
-9 86 -12 59 -5 71 -4 82 12 13 17 20 17 113 6 93 -12 141 -9 141 8 0 18 -85
33 -210 36 -74 2 -148 1 -165 -2z"/>
<path d="M2115 1859 c-4 -6 -4 -13 -1 -16 3 -4 6 -1 6 5 0 6 7 9 17 5 11 -4
14 -3 9 5 -9 15 -23 15 -31 1z"/>
<path d="M2299 1848 c-11 -8 -11 -9 3 -5 9 3 18 1 21 -6 2 -8 5 -8 10 0 9 15
-17 23 -34 11z"/>
<path d="M2403 1844 c-16 -16 -17 -28 -2 -18 6 3 15 0 20 -7 7 -12 9 -11 9 1
0 27 -14 39 -27 24z"/>
<path d="M6113 1853 c-50 -10 -19 -23 52 -23 60 0 75 3 75 15 0 12 -12 15 -52
14 -29 -1 -63 -4 -75 -6z"/>
<path d="M2500 1835 c-11 -13 -10 -14 5 -8 15 5 17 3 11 -13 -5 -14 -4 -16 4
-7 8 7 9 17 3 28 -9 15 -11 15 -23 0z"/>
<path d="M3890 1814 c-139 -45 -547 -147 -559 -140 -5 4 -12 2 -16 -4 -3 -5
-13 -10 -22 -10 -17 0 -186 -92 -258 -141 -168 -113 -693 -374 -712 -355 -3 3
-17 -6 -31 -20 -15 -13 -32 -24 -37 -24 -6 0 -125 11 -265 25 -140 14 -347 34
-460 45 -1028 99 -1426 140 -1502 156 -25 5 -28 3 -28 -20 0 -19 6 -27 23 -30
12 -3 182 -19 377 -36 356 -31 1370 -127 1638 -155 231 -24 247 -23 381 36
277 121 357 159 541 253 108 55 224 107 259 116 70 17 88 35 47 46 -44 11 -29
20 54 33 88 13 289 78 420 136 47 20 114 49 150 64 74 32 130 60 115 60 -5 -1
-57 -16 -115 -35z"/>
<path d="M2594 1829 c-3 -6 -3 -13 0 -16 3 -4 6 -1 6 7 0 10 3 10 15 0 9 -7
15 -8 15 -2 0 14 -28 23 -36 11z"/>
<path d="M2690 1822 c-13 -14 -12 -15 2 -9 9 3 18 1 21 -6 2 -6 6 -7 9 -2 3 6
1 15 -6 21 -9 8 -16 7 -26 -4z"/>
<path d="M2800 1821 c0 -6 4 -13 10 -16 6 -3 7 1 4 9 -7 18 -14 21 -14 7z"/>
<path d="M2901 1814 c0 -11 3 -14 6 -6 3 7 2 16 -1 19 -3 4 -6 -2 -5 -13z"/>
<path d="M5798 1813 c7 -3 16 -2 19 1 4 3 -2 6 -13 5 -11 0 -14 -3 -6 -6z"/>
<path d="M2485 1800 c-3 -5 -1 -10 4 -10 6 0 11 5 11 10 0 6 -2 10 -4 10 -3 0
-8 -4 -11 -10z"/>
<path d="M2580 1789 c0 -5 5 -7 10 -4 6 3 10 8 10 11 0 2 -4 4 -10 4 -5 0 -10
-5 -10 -11z"/>
<path d="M3995 1777 c-69 -23 -155 -72 -155 -88 0 -16 22 -21 33 -7 7 8 27 21
45 28 20 8 29 16 22 20 -12 8 23 24 75 36 17 4 35 10 40 14 16 12 122 -5 142
-22 10 -8 34 -23 53 -33 41 -21 120 -83 120 -95 0 -9 -35 -15 -155 -29 -44 -5
-102 -15 -128 -21 -36 -10 -54 -10 -73 -2 -37 18 -29 29 39 52 34 11 70 27 80
34 17 13 17 15 -4 29 -20 15 -25 14 -63 -5 -23 -11 -54 -31 -69 -44 -32 -27
-49 -29 -80 -12 -12 7 -40 13 -62 14 -22 1 -44 3 -50 4 -22 5 -55 -1 -55 -10
0 -19 38 -30 65 -20 19 7 34 7 52 -2 34 -17 34 -26 1 -46 -26 -16 -28 -15 -75
18 -47 34 -50 35 -143 34 -80 0 -110 -5 -190 -33 -93 -31 -174 -74 -216 -112
-28 -26 -450 -226 -704 -334 -257 -110 -248 -105 -226 -117 26 -15 67 -2 286
92 462 197 551 233 562 222 7 -7 3 -12 -11 -17 -29 -9 -26 -29 4 -43 35 -16
49 -15 125 9 82 27 116 21 134 -22 13 -32 68 -68 74 -50 5 16 22 14 93 -15 42
-18 94 -29 153 -35 81 -6 96 -5 150 16 34 12 60 28 59 33 -2 6 18 31 44 55
l47 44 -27 54 c-14 30 -40 68 -57 86 l-30 31 26 6 c16 4 30 3 34 -3 13 -23
110 -42 235 -48 107 -5 137 -3 169 11 21 9 50 16 65 16 22 0 26 4 26 29 0 26
-2 28 -15 16 -28 -26 -112 -55 -156 -55 -28 0 -68 10 -102 26 -31 14 -67 30
-79 35 -13 5 -23 12 -23 17 0 19 258 38 318 24 43 -10 46 -9 34 19 -8 19 -131
118 -216 175 -75 49 -139 55 -241 21z m-373 -188 c16 -8 31 -8 60 2 34 11 43
10 66 -3 15 -9 28 -26 30 -37 3 -21 7 -18 -175 -119 -43 -23 -91 -53 -107 -66
-28 -21 -24 -21 70 10 139 46 167 44 81 -6 -37 -22 -83 -51 -101 -65 -18 -14
-38 -25 -45 -25 -22 0 -90 45 -95 62 -3 12 -10 16 -20 12 -20 -8 -87 36 -84
53 2 7 55 38 118 68 156 74 158 75 137 87 -11 5 -32 5 -58 -2 -23 -6 -43 -9
-46 -6 -7 7 9 13 74 31 62 17 70 17 95 4z m313 -38 c8 -14 -33 -34 -53 -26
-14 5 -13 9 8 20 30 17 37 18 45 6z m-90 -141 c9 -10 46 -29 80 -40 86 -28 96
-42 60 -80 -43 -45 -186 -100 -262 -100 -42 0 -137 36 -170 64 l-26 22 54 39
c67 49 197 115 225 115 11 0 29 -9 39 -20z m-550 -80 c7 -11 -35 -31 -47 -23
-5 2 -8 11 -8 19 0 16 45 20 55 4z"/>
<path d="M3200 1760 c0 -6 7 -10 15 -10 8 0 15 2 15 4 0 2 -7 6 -15 10 -8 3
-15 1 -15 -4z"/>
<path d="M6698 1413 c7 -3 16 -2 19 1 4 3 -2 6 -13 5 -11 0 -14 -3 -6 -6z"/>
<path d="M6958 1403 c23 -2 61 -2 85 0 23 2 4 4 -43 4 -47 0 -66 -2 -42 -4z"/>
<path d="M3430 1180 c0 -25 17 -32 62 -28 l33 3 -35 23 c-43 27 -60 28 -60 2z"/>
<path d="M7820 1178 c0 -7 9 -24 20 -38 l20 -25 -10 35 c-6 19 -10 36 -10 37
0 2 -4 3 -10 3 -5 0 -10 -6 -10 -12z"/>
<path d="M0 1106 c0 -22 5 -25 43 -30 112 -15 949 -106 975 -106 27 0 51 15
40 25 -1 2 -224 31 -493 64 -270 34 -507 64 -527 67 -36 5 -38 4 -38 -20z"/>
<path d="M3143 950 c-4 -15 -14 -20 -39 -20 -18 0 -36 5 -40 11 -10 16 -54 4
-102 -27 -47 -31 -51 -40 -22 -49 30 -10 24 -25 -10 -25 -22 0 -28 4 -24 15 4
8 4 15 1 15 -14 0 -77 -31 -77 -39 0 -4 -18 -13 -40 -20 -46 -14 -60 -30 -36
-43 25 -14 20 -38 -10 -38 -20 0 -24 4 -19 19 5 18 4 18 -30 3 -37 -17 -45
-36 -20 -46 23 -9 18 -25 -12 -32 -19 -5 -30 -2 -38 10 -10 13 -18 14 -39 6
-30 -11 -31 -13 -10 -44 14 -23 14 -25 -7 -31 -15 -5 -26 -2 -34 9 -17 23 -49
20 -83 -9 -17 -14 -46 -32 -65 -40 -20 -8 -38 -24 -42 -35 -3 -11 -12 -20 -18
-20 -35 0 -87 -23 -92 -40 -4 -12 -24 -24 -59 -34 -29 -9 -61 -25 -72 -37 -10
-12 -36 -28 -57 -36 -20 -9 -46 -26 -56 -39 -11 -14 -40 -31 -66 -39 -26 -7
-59 -25 -74 -38 -14 -13 -48 -32 -76 -42 -27 -10 -60 -27 -72 -37 -12 -11 -45
-31 -75 -45 -29 -13 -60 -30 -68 -38 -8 -7 -45 -25 -82 -40 -139 -55 -143 -55
449 -55 l540 0 22 24 c13 13 33 27 44 30 12 3 33 22 47 41 15 21 34 35 47 35
15 0 27 11 39 35 10 21 26 38 41 41 13 4 35 23 48 44 13 21 35 40 49 44 14 3
33 20 41 36 10 20 26 33 44 36 19 4 31 15 39 36 6 18 22 34 41 41 16 6 34 21
40 34 6 13 22 28 37 33 14 6 28 19 31 31 3 11 18 26 34 35 16 8 29 19 29 26 0
6 16 28 35 49 35 39 45 72 25 84 -14 9 -12 21 6 40 11 11 20 13 28 5 14 -11
26 -4 26 15 0 7 -9 10 -23 8 -29 -6 -56 24 -64 71 -5 34 -4 36 21 36 32 0 33
10 3 38 -29 27 -47 28 -54 2z m-108 -50 c3 -5 -3 -10 -15 -10 -12 0 -18 5 -15
10 3 6 10 10 15 10 5 0 12 -4 15 -10z m-181 -86 c25 -9 19 -24 -9 -24 -24 0
-32 10 -18 23 8 8 8 8 27 1z m-384 -258 c-15 -15 -33 4 -19 20 10 12 14 12 20
2 5 -7 4 -17 -1 -22z m-97 -58 c-7 -13 -33 -9 -33 5 0 8 3 16 6 20 8 8 33 -16
27 -25z m-121 -70 c-6 -6 -15 -8 -19 -4 -4 4 -1 11 7 16 19 12 27 3 12 -12z"/>
<path d="M8460 375 c0 -8 5 -15 10 -15 6 0 10 7 10 15 0 8 -4 15 -10 15 -5 0
-10 -7 -10 -15z"/>
<path d="M5185 222 c-17 -3 -70 -73 -137 -180 -25 -40 -22 -43 34 -40 l52 3
38 109 c21 60 37 110 36 111 -2 0 -12 -1 -23 -3z"/>
<path d="M5329 220 c-9 -5 -31 -35 -50 -66 -19 -31 -49 -78 -67 -105 l-32 -49
65 0 c36 0 65 3 66 8 2 17 9 41 33 111 36 105 33 129 -15 101z"/>
<path d="M5419 113 c-30 -53 -55 -100 -57 -105 -2 -4 24 -8 57 -8 51 0 61 3
61 18 0 9 12 51 25 92 32 94 31 100 -3 100 -26 0 -34 -10 -83 -97z"/>
<path d="M7257 194 c-16 -17 -2 -22 96 -33 56 -6 163 -18 237 -27 74 -8 163
-19 197 -23 39 -4 67 -3 73 3 36 36 -29 72 -109 61 -31 -4 -65 -8 -76 -8 -36
0 -349 23 -380 29 -17 3 -34 2 -38 -2z"/>
<path d="M6372 90 c-6 -22 -12 -51 -12 -65 0 -23 4 -25 40 -25 l40 0 0 65 c0
64 0 65 -28 65 -23 0 -29 -6 -40 -40z"/>
<path d="M6527 123 c-3 -5 -8 -34 -11 -65 l-7 -58 60 0 61 0 0 59 c0 44 -4 60
-16 65 -22 8 -82 7 -87 -1z"/>
<path d="M6678 98 c-6 -13 -13 -40 -14 -61 l-2 -38 411 2 c267 0 416 4 425 11
6 6 12 19 12 28 0 23 -36 32 -145 37 -44 2 -116 6 -160 8 -44 3 -116 7 -160 9
-44 2 -97 7 -117 11 -21 4 -51 2 -69 -4 -24 -8 -37 -7 -59 4 -16 8 -47 15 -69
15 -31 0 -43 -5 -53 -22z"/>
<path d="M0 40 l0 -40 90 0 c83 0 90 2 90 20 0 13 -9 21 -28 25 -15 3 -40 12
-55 20 -16 8 -44 15 -63 15 -33 0 -34 -1 -34 -40z"/>
<path d="M4746 53 c-4 -13 -12 -23 -17 -23 -5 0 -9 -8 -9 -17 0 -14 2 -15 9
-4 5 7 14 11 19 7 11 -7 32 23 32 46 0 10 -2 10 -9 -1 -7 -11 -9 -11 -13 0 -3
9 -7 6 -12 -8z"/>
<path d="M6643 35 c0 -22 2 -30 4 -17 2 12 2 30 0 40 -3 9 -5 -1 -4 -23z"/>
<path d="M5328 3 c7 -3 16 -2 19 1 4 3 -2 6 -13 5 -11 0 -14 -3 -6 -6z"/>
</g>
</svg>
