<?xml version="1.0" standalone="no"?>
<!DOCTYPE svg PUBLIC "-//W3C//DTD SVG 20010904//EN"
 "http://www.w3.org/TR/2001/REC-SVG-20010904/DTD/svg10.dtd">
<svg version="1.0" xmlns="http://www.w3.org/2000/svg"
 width="602.000000pt" height="451.000000pt" viewBox="0 0 602.000000 451.000000"
 preserveAspectRatio="xMidYMid meet">

<g transform="translate(0.000000,451.000000) scale(0.100000,-0.100000)"
fill="#000000" stroke="none">
<path d="M3913 4497 c-36 -11 -56 -30 -163 -162 -68 -82 -130 -158 -139 -169
-15 -17 -13 -21 42 -70 l58 -51 -15 -40 c-7 -22 -20 -53 -26 -70 l-13 -30 -6
25 c-6 22 -12 25 -51 25 l-45 0 -6 -80 c-9 -104 -66 -337 -122 -495 l-44 -125
-7 100 c-8 110 -13 135 -27 135 -5 0 -9 -28 -10 -62 0 -49 -2 -58 -10 -40 -8
20 -15 23 -56 20 -44 -3 -47 -5 -56 -37 -6 -25 -11 -31 -20 -22 -6 6 -16 11
-22 11 -16 0 -58 -128 -69 -206 -2 -16 -13 -67 -24 -114 -12 -47 -23 -98 -25
-115 -3 -31 -10 -23 -21 26 -3 15 -17 31 -33 38 -23 10 -26 10 -15 0 7 -8 12
-37 11 -69 l0 -55 -12 35 c-11 32 -15 35 -58 38 -39 3 -47 0 -56 -20 -6 -14
-19 -23 -33 -23 -19 0 -26 -12 -51 -85 -16 -47 -31 -97 -34 -111 -3 -14 -16
-65 -30 -113 -14 -47 -25 -103 -26 -124 -1 -20 -5 -48 -9 -62 l-8 -25 -1 26
c-2 48 -29 69 -121 89 -47 11 -94 19 -105 19 -37 0 6 -16 92 -34 45 -10 83
-23 85 -29 2 -6 1 -36 -3 -66 -3 -30 -7 -44 -8 -30 l-2 25 -29 -33 c-17 -18
-30 -29 -30 -26 0 4 -6 1 -13 -5 -8 -6 -17 -8 -21 -4 -4 4 -4 -1 0 -11 12 -31
-10 -11 -40 37 -23 37 -36 46 -73 54 -36 9 -46 8 -50 -4 -3 -8 -12 -12 -19 -9
-8 3 -22 -4 -33 -15 -19 -20 -32 -99 -47 -274 -7 -83 -25 -145 -43 -145 -6 0
-37 9 -68 19 -32 11 -74 22 -93 25 -32 5 -33 4 -16 -9 10 -8 51 -26 90 -41 39
-15 75 -30 80 -35 5 -4 -23 -22 -62 -40 -40 -17 -70 -34 -68 -38 2 -3 -13 -26
-34 -50 -32 -36 -47 -45 -87 -51 -45 -7 -51 -6 -92 28 -35 28 -45 32 -52 21
-4 -8 -48 -77 -98 -154 -49 -77 -140 -222 -203 -321 l-113 -181 -28 19 c-33
24 -30 43 14 103 29 39 97 140 186 277 35 55 43 75 42 110 l-2 43 -6 -45 c-7
-43 -39 -102 -149 -266 -22 -33 -58 -72 -80 -86 -27 -18 -41 -36 -45 -57 -5
-25 -11 -31 -32 -31 -15 0 -35 -5 -45 -10 -11 -6 -21 -6 -25 -1 -3 5 11 15 30
22 44 16 45 39 2 62 -44 24 -116 23 -197 -1 -36 -11 -135 -39 -220 -62 -85
-23 -161 -46 -168 -49 -10 -6 1 -20 37 -50 l51 -42 211 60 c134 38 217 57 227
52 8 -4 11 -11 6 -14 -5 -3 -97 -31 -204 -62 -107 -32 -199 -60 -203 -62 -5
-3 15 -26 44 -52 53 -48 53 -48 94 -35 307 93 382 115 418 119 l42 6 -42 -23
c-24 -12 -43 -25 -43 -28 0 -3 21 -12 46 -19 55 -16 232 -6 267 16 6 3 7 1 3
-5 -4 -7 -3 -12 2 -12 5 0 128 39 273 86 145 47 306 99 357 115 50 16 92 34
92 39 0 6 -4 10 -8 10 -5 0 -16 6 -27 13 -16 13 -15 14 15 15 18 0 36 6 40 12
4 7 20 5 51 -6 l44 -16 193 61 c107 34 199 61 205 61 6 0 2 -7 -9 -16 -10 -8
-12 -12 -4 -7 8 4 85 8 170 9 85 1 205 3 265 5 71 2 118 -2 132 -9 25 -14 56
-6 46 12 -3 6 -1 6 8 -2 15 -14 33 -16 25 -3 -7 11 22 23 35 15 6 -3 16 0 24
6 18 15 20 -1 3 -19 -7 -8 -1 -6 13 3 14 9 29 13 32 9 4 -3 7 3 7 14 0 15 6
21 26 21 15 0 29 4 33 10 3 6 19 16 34 21 18 7 26 7 22 1 -9 -14 1 -12 17 2
15 15 76 39 98 41 8 0 20 7 26 15 7 9 20 13 32 10 13 -4 27 1 37 12 9 10 27
21 41 24 30 8 33 45 4 53 -16 4 -18 9 -9 27 8 15 3 13 -18 -9 -37 -39 -89 -77
-135 -98 -57 -27 -59 -19 -2 11 79 42 95 57 88 77 -7 17 -8 17 -21 -1 -9 -12
-13 -14 -13 -4 0 9 -4 8 -13 -5 -10 -13 -16 -15 -21 -6 -4 6 -12 8 -18 5 -8
-5 -9 -1 -4 11 5 15 4 16 -9 5 -8 -7 -12 -17 -8 -23 4 -6 1 -7 -8 -1 -8 5 -22
7 -33 5 -12 -2 -16 1 -11 9 6 9 2 9 -12 1 -11 -6 -23 -7 -27 -3 -4 3 -4 -2 0
-12 5 -14 4 -17 -5 -12 -7 5 -21 0 -33 -11 -21 -18 -21 -18 -8 7 13 25 13 25
-7 7 -11 -10 -27 -17 -34 -15 -8 2 -13 -3 -11 -10 2 -10 -2 -10 -18 -2 -15 8
-20 8 -20 -2 0 -9 -3 -9 -11 2 -8 12 -9 11 -6 -5 2 -11 7 -19 13 -19 5 1 18
-7 29 -18 20 -20 20 -20 -18 -4 -136 56 -231 216 -278 466 -13 70 -24 88 -81
130 -21 15 -34 31 -30 35 4 5 2 6 -3 2 -13 -7 -105 78 -124 115 -7 14 -14 51
-14 82 -1 30 -5 50 -9 43 -30 -47 18 85 62 174 26 50 34 59 53 55 12 -3 81
-13 152 -22 72 -9 139 -20 151 -25 16 -5 219 -262 327 -413 13 -17 20 -14 138
54 68 40 155 91 193 113 61 36 66 41 47 48 -11 5 -21 11 -21 13 0 3 28 24 63
47 34 23 63 43 64 44 2 1 -7 35 -18 76 -28 101 -67 185 -90 195 -17 8 -15 15
27 87 42 73 44 80 31 101 -35 52 -119 134 -164 158 -45 24 -58 26 -207 29
l-160 4 -31 -100 c-31 -102 -40 -110 -44 -40 -1 22 -3 47 -4 55 -4 44 24 171
114 505 55 204 102 378 105 387 4 14 9 15 23 6 10 -6 33 -8 53 -4 l36 7 6 92
c11 186 17 477 9 476 -4 0 -27 -6 -50 -12z m-236 -1703 c16 -3 23 -13 27 -37
3 -17 19 -118 36 -224 17 -106 30 -200 28 -210 -2 -10 -9 17 -16 60 -10 60
-17 77 -30 78 -11 0 -12 3 -4 6 15 6 16 39 0 49 -7 5 -9 1 -6 -13 4 -15 1 -20
-11 -18 -9 1 -17 7 -17 13 -1 7 -2 15 -3 19 0 3 -11 -2 -23 -13 l-22 -19 20
26 c17 24 20 25 31 10 15 -20 17 -7 2 20 -5 11 -15 16 -21 13 -7 -4 -8 -3 -4
4 4 7 2 20 -4 29 -11 17 -11 17 -6 1 3 -10 1 -18 -5 -18 -6 0 -7 -6 -3 -12 5
-9 2 -9 -9 1 -9 7 -17 19 -17 25 0 6 5 4 11 -4 9 -13 10 -13 6 1 -3 9 -1 21 5
27 7 7 5 10 -8 8 -11 -2 -20 -8 -20 -14 -3 -25 -5 -27 -13 -13 -10 16 -2 53 9
46 5 -3 12 0 16 6 4 7 3 9 -3 6 -16 -10 -34 38 -20 54 7 8 -9 -6 -35 -30 -26
-24 -45 -48 -41 -54 3 -5 10 -4 16 2 17 17 30 13 23 -6 -5 -15 -3 -14 9 2 15
19 15 19 12 -5 -3 -14 0 -30 5 -37 6 -7 5 -14 -3 -19 -7 -4 -9 -3 -6 3 4 6 -5
21 -18 33 -14 13 -25 19 -24 14 1 -18 118 -189 128 -187 6 2 8 -3 5 -10 -2 -7
6 -30 20 -50 30 -43 48 -77 43 -77 -4 0 -33 44 -161 243 -31 48 -67 92 -79 97
-12 5 -87 19 -166 30 -134 19 -184 30 -134 30 11 0 26 7 33 15 7 8 26 17 44
20 17 4 40 8 51 10 11 2 20 4 20 5 0 1 11 3 23 4 13 2 28 9 33 17 5 8 9 9 9 2
0 -9 19 -11 40 -3 3 1 9 2 13 1 5 -1 6 2 3 7 -3 5 6 14 19 20 14 7 25 16 25
20 0 9 120 6 167 -4z m227 -60 c10 -4 14 -13 11 -23 -3 -9 -27 -127 -54 -261
-27 -135 -50 -238 -51 -230 -11 135 -59 492 -69 504 -10 12 -8 15 16 19 32 6
124 0 147 -9z m-304 -87 c0 -5 -4 -5 -10 -2 -5 3 -10 14 -10 23 0 15 2 15 10
2 5 -8 10 -19 10 -23z m100 -203 c0 -8 -19 -13 -24 -6 -3 5 1 9 9 9 8 0 15 -2
15 -3z m-1261 -86 c-1 -7 -5 -24 -9 -38 -7 -21 -8 -20 -7 12 1 21 5 38 10 38
4 0 7 -6 6 -12z m1338 -80 c-3 -8 -6 -5 -6 6 -1 11 2 17 5 13 3 -3 4 -12 1
-19z m13 -72 c0 -11 0 -11 -29 34 l-23 35 26 -30 c14 -16 26 -34 26 -39z
m-1413 -78 c-3 -8 -6 -5 -6 6 -1 11 2 17 5 13 3 -3 4 -12 1 -19z m-607 -733
c-1 -6 -10 -13 -21 -17 -17 -7 -18 -5 -9 13 11 20 33 23 30 4z"/>
<path d="M3673 2591 c6 -15 19 -34 29 -44 10 -9 13 -12 8 -5 -13 15 -13 31 -1
24 8 -5 8 15 1 34 -1 3 -2 7 -2 11 0 3 -10 5 -23 5 -21 0 -22 -2 -12 -25z m31
-13 c-4 -6 -10 -5 -15 3 -14 22 -10 33 6 19 8 -7 12 -17 9 -22z"/>
<path d="M1988 2123 c7 -3 16 -2 19 1 4 3 -2 6 -13 5 -11 0 -14 -3 -6 -6z"/>
<path d="M4245 2112 c-42 -14 -50 -21 -53 -44 -2 -16 0 -28 5 -28 4 0 59 15
122 33 l114 34 -58 11 c-70 14 -68 15 -130 -6z"/>
<path d="M5955 2121 c-23 -4 -57 -17 -76 -29 -41 -25 -170 -157 -315 -322
-187 -212 -273 -282 -479 -390 -184 -96 -344 -180 -410 -215 -475 -252 -888
-455 -924 -455 -5 0 -40 -13 -77 -29 -38 -16 -217 -81 -399 -144 -315 -110
-525 -187 -700 -257 -99 -39 -457 -200 -468 -209 -4 -4 13 -22 38 -40 42 -30
46 -31 72 -17 15 7 127 57 248 109 121 52 254 111 295 130 111 51 219 92 658
253 485 177 487 177 696 281 198 99 1035 554 1151 626 192 120 204 130 421
389 106 126 201 229 244 264 38 31 70 58 70 60 0 2 -1 3 -2 3 -2 -1 -21 -4
-43 -8z"/>
<path d="M1938 2113 c7 -3 16 -2 19 1 4 3 -2 6 -13 5 -11 0 -14 -3 -6 -6z"/>
<path d="M4326 2056 l-139 -42 -19 -42 c-17 -41 -17 -43 0 -38 23 7 158 49
311 95 68 21 120 40 115 43 -5 3 -31 9 -58 13 -27 3 -54 8 -60 10 -6 1 -74
-16 -150 -39z"/>
<path d="M1768 2083 c7 -3 16 -2 19 1 4 3 -2 6 -13 5 -11 0 -14 -3 -6 -6z"/>
<path d="M1718 2073 c7 -3 16 -2 19 1 4 3 -2 6 -13 5 -11 0 -14 -3 -6 -6z"/>
<path d="M1668 2063 c6 -2 18 -2 25 0 6 3 1 5 -13 5 -14 0 -19 -2 -12 -5z"/>
<path d="M1618 2053 c7 -3 16 -2 19 1 4 3 -2 6 -13 5 -11 0 -14 -3 -6 -6z"/>
<path d="M1348 2003 c7 -3 16 -2 19 1 4 3 -2 6 -13 5 -11 0 -14 -3 -6 -6z"/>
<path d="M1078 1953 c7 -3 16 -2 19 1 4 3 -2 6 -13 5 -11 0 -14 -3 -6 -6z"/>
<path d="M808 1903 c7 -3 16 -2 19 1 4 3 -2 6 -13 5 -11 0 -14 -3 -6 -6z"/>
<path d="M1745 1800 c-3 -5 1 -10 10 -10 9 0 13 5 10 10 -3 6 -8 10 -10 10 -2
0 -7 -4 -10 -10z"/>
<path d="M185 1760 c10 -11 20 -20 23 -20 3 0 -3 9 -13 20 -10 11 -20 20 -23
20 -3 0 3 -9 13 -20z"/>
<path d="M1720 1760 c-6 -11 -8 -20 -6 -20 3 0 10 9 16 20 6 11 8 20 6 20 -3
0 -10 -9 -16 -20z"/>
<path d="M255 1705 c61 -57 463 -385 478 -391 16 -6 356 80 395 100 15 7 45
17 67 20 86 14 84 16 -108 133 -99 60 -104 60 -225 26 l-53 -15 -67 46 -67 46
-148 -31 -147 -30 -83 66 c-45 37 -64 50 -42 30z m675 -115 c0 -5 -7 -10 -16
-10 -8 0 -12 5 -9 10 3 6 10 10 16 10 5 0 9 -4 9 -10z"/>
<path d="M1900 1736 c0 -2 7 -7 16 -10 8 -3 12 -2 9 4 -6 10 -25 14 -25 6z"/>
<path d="M1340 1636 c0 -2 7 -7 16 -10 8 -3 12 -2 9 4 -6 10 -25 14 -25 6z"/>
<path d="M1430 1586 c0 -2 7 -7 16 -10 8 -3 12 -2 9 4 -6 10 -25 14 -25 6z"/>
<path d="M1470 1566 c0 -3 14 -12 30 -21 17 -9 30 -13 30 -11 0 3 -13 12 -30
21 -16 9 -30 13 -30 11z"/>
<path d="M3700 1432 c0 -6 -14 -15 -32 -21 -17 -6 -29 -14 -26 -17 4 -3 23 3
44 14 23 12 33 22 25 26 -6 4 -11 3 -11 -2z"/>
<path d="M3520 1365 c0 -8 2 -15 4 -15 2 0 6 7 10 15 3 8 1 15 -4 15 -6 0 -10
-7 -10 -15z"/>
<path d="M1070 1360 c0 -6 7 -13 15 -17 24 -9 27 1 5 15 -13 8 -20 8 -20 2z"/>
<path d="M1027 1340 c-3 -11 -2 -20 3 -20 12 0 21 28 11 35 -5 2 -11 -4 -14
-15z"/>
<path d="M985 1340 c-3 -5 -1 -10 4 -10 6 0 11 5 11 10 0 6 -2 10 -4 10 -3 0
-8 -4 -11 -10z"/>
<path d="M3585 1330 c-3 -6 1 -7 9 -4 18 7 21 14 7 14 -6 0 -13 -4 -16 -10z"/>
<path d="M2948 1296 c-9 -10 -20 -11 -37 -4 -18 6 -28 5 -40 -7 -14 -14 -13
-15 18 -9 25 5 32 4 27 -4 -13 -22 10 -12 34 13 13 14 21 25 17 25 -3 0 -12
-6 -19 -14z"/>
<path d="M2826 1284 c-18 -18 -21 -34 -5 -34 5 0 7 5 4 10 -3 6 -2 10 3 10 6
0 12 7 16 15 7 19 1 19 -18 -1z"/>
<path d="M2703 1283 c-13 -3 -23 -11 -23 -19 0 -8 -7 -14 -16 -14 -8 0 -12 4
-9 10 3 6 -1 7 -10 4 -13 -5 -11 -10 12 -24 23 -14 29 -15 36 -3 4 7 5 18 2
23 -8 13 1 13 25 0 17 -9 18 -8 13 7 -6 16 -5 16 10 5 12 -10 21 -11 34 -3 10
6 16 11 13 11 -23 5 -69 6 -87 3z"/>
<path d="M2583 1240 c-32 -13 -29 -22 3 -10 14 6 30 7 36 4 7 -4 8 -2 4 4 -8
14 -13 14 -43 2z"/>
<path d="M2635 1210 c-3 -5 -2 -10 4 -10 5 0 13 5 16 10 3 6 2 10 -4 10 -5 0
-13 -4 -16 -10z"/>
</g>
</svg>
