<?xml version="1.0" standalone="no"?>
<!DOCTYPE svg PUBLIC "-//W3C//DTD SVG 20010904//EN"
 "http://www.w3.org/TR/2001/REC-SVG-20010904/DTD/svg10.dtd">
<svg version="1.0" xmlns="http://www.w3.org/2000/svg"
 width="1240.000000pt" height="910.000000pt" viewBox="0 0 1240.000000 910.000000"
 preserveAspectRatio="xMidYMid meet">

<g transform="translate(0.000000,910.000000) scale(0.100000,-0.100000)"
fill="#000000" stroke="none">
<path d="M3450 9090 c0 -9 29 -161 140 -725 21 -110 73 -375 115 -590 42 -214
124 -632 182 -928 l106 -539 26 5 c14 2 85 19 158 36 144 34 225 39 280 16 19
-8 52 -15 73 -15 24 0 78 -19 156 -56 65 -31 136 -63 157 -70 34 -12 37 -12
35 3 -3 17 54 58 309 216 288 179 357 224 476 312 64 47 117 90 117 95 0 5 -5
20 -11 34 -10 21 -8 29 15 59 18 24 26 46 26 75 0 23 -34 243 -76 489 -42 246
-79 473 -84 503 -4 30 -46 284 -94 563 -47 279 -86 512 -86 517 0 7 -363 10
-1010 10 -674 0 -1010 -3 -1010 -10z m1859 -1176 c50 -29 71 -73 71 -146 0
-52 -3 -67 -16 -72 -20 -8 -54 2 -54 14 0 5 -17 14 -37 20 -21 7 -48 21 -60
32 -23 22 -53 18 -53 -5 0 -8 6 -32 14 -54 13 -37 20 -80 17 -110 -1 -7 -10
-13 -21 -13 -11 0 -20 -4 -20 -9 0 -19 -61 21 -75 49 -21 40 -19 54 14 143 38
102 99 167 156 167 20 0 49 -7 64 -16z m93 -249 c6 -14 17 -25 25 -25 7 0 13
-4 13 -9 0 -5 12 -14 28 -20 27 -11 62 -60 62 -86 0 -25 -31 -46 -59 -40 -26
5 -26 5 -25 -57 0 -35 4 -74 8 -88 25 -75 81 -104 149 -75 42 17 100 20 127 5
11 -6 22 -26 26 -46 9 -47 -4 -59 -119 -110 -72 -32 -96 -47 -111 -74 -19 -31
-19 -34 -3 -63 13 -22 15 -33 6 -43 -12 -15 -104 -46 -204 -69 -120 -27 -145
-35 -242 -81 -52 -24 -97 -44 -99 -44 -3 0 -33 -14 -67 -31 -77 -38 -195 -84
-357 -138 -69 -24 -147 -53 -175 -66 -116 -54 -232 -98 -265 -99 -29 -1 -36 3
-44 26 -10 29 17 118 36 118 5 0 28 15 51 34 73 59 359 246 427 277 120 57
146 68 210 93 36 13 117 49 180 79 63 31 167 73 231 95 132 45 167 65 175 97
6 24 -13 71 -24 61 -3 -4 -19 21 -34 55 -23 51 -28 75 -27 135 1 67 3 72 23
71 60 -3 76 3 92 35 15 30 15 32 -4 47 -25 20 -47 61 -32 61 6 0 16 -11 22
-25z m376 -657 c-2 -13 -11 -24 -20 -26 -21 -4 -24 18 -6 36 19 19 30 14 26
-10z"/>
<path d="M5410 7513 c0 -12 5 -25 10 -28 13 -8 13 15 0 35 -8 12 -10 11 -10
-7z"/>
<path d="M9835 9003 c11 -142 10 -151 -35 -199 -31 -33 -41 -53 -46 -93 -8
-64 -35 -107 -79 -128 -44 -21 -50 -39 -46 -136 l3 -78 -64 -87 c-122 -165
-138 -190 -163 -247 -14 -31 -35 -90 -46 -130 -11 -40 -33 -100 -49 -134 -17
-34 -30 -63 -30 -66 0 -2 -36 -85 -79 -182 -114 -256 -240 -504 -268 -526 -13
-11 -47 -47 -75 -81 -82 -99 -129 -147 -142 -143 -16 5 -52 82 -65 142 -25
112 -98 207 -200 260 -40 20 -51 14 -16 -9 22 -15 24 -20 14 -33 -7 -8 -14
-22 -16 -31 -1 -9 -9 -22 -17 -28 -9 -6 -16 -16 -16 -23 0 -6 -5 -11 -11 -11
-8 0 -9 -13 -5 -40 7 -46 -1 -50 -34 -15 -13 14 -30 25 -37 25 -9 0 -13 8 -11
22 2 11 -3 23 -11 26 -10 3 -12 -1 -8 -17 3 -11 1 -21 -4 -21 -4 0 -6 -6 -4
-12 3 -7 -9 -29 -26 -48 -17 -19 -37 -45 -46 -57 -8 -12 -31 -27 -51 -34 -40
-13 -71 -44 -72 -72 0 -11 -9 -30 -20 -44 -25 -32 -25 -46 0 -99 24 -49 15
-94 -20 -94 -11 0 -20 -6 -20 -12 0 -9 -4 -8 -10 2 -5 8 -10 10 -10 5 0 -6
-13 -15 -28 -21 -22 -9 -33 -8 -47 2 -27 20 -52 17 -68 -6 -8 -11 -17 -17 -20
-13 -4 3 -7 -3 -7 -15 0 -11 -5 -22 -11 -24 -6 -2 -13 -26 -16 -53 -4 -36 -13
-58 -33 -80 -15 -16 -35 -45 -44 -62 -9 -18 -21 -33 -26 -33 -6 0 -10 -8 -11
-17 0 -10 -3 -13 -6 -6 -3 9 -10 7 -25 -6 -26 -25 -50 -70 -42 -82 3 -5 0 -8
-7 -7 -7 2 -30 -31 -51 -72 -28 -55 -47 -79 -69 -89 -17 -7 -35 -27 -43 -44
-13 -31 -56 -87 -56 -73 0 4 -9 2 -20 -4 -11 -6 -17 -17 -14 -25 11 -28 -7
-36 -28 -13 -18 21 -19 21 -12 3 4 -11 9 -38 12 -60 3 -35 0 -42 -20 -53 -12
-6 -36 -13 -53 -15 -29 -3 -27 -6 20 -22 19 -6 18 -8 -10 -31 -16 -13 -36 -24
-44 -24 -7 0 -11 -6 -8 -14 3 -7 -3 -21 -14 -30 -11 -9 -22 -29 -25 -45 -4
-20 -11 -28 -20 -24 -9 3 -14 -2 -14 -17 0 -11 -4 -18 -10 -15 -5 3 -10 -2
-10 -12 0 -11 -7 -28 -15 -39 -8 -10 -15 -29 -15 -41 0 -37 -43 -106 -72 -117
-16 -6 -28 -14 -28 -19 0 -10 -26 -42 -116 -143 -45 -49 -76 -75 -103 -84 -27
-9 -41 -20 -45 -35 -3 -13 -9 -30 -12 -39 -16 -42 135 5 231 71 70 49 117 92
203 191 35 40 67 72 73 72 5 0 9 -13 9 -30 0 -16 4 -30 10 -30 15 0 8 -53 -10
-68 -13 -11 -11 -13 12 -8 15 4 30 2 33 -4 4 -6 -1 -7 -12 -4 -11 3 -6 -5 12
-20 39 -34 126 -60 173 -51 21 3 64 15 97 27 47 16 69 19 100 13 l40 -8 -54
-8 c-64 -9 -93 -29 -40 -29 18 0 44 -3 55 -6 15 -4 32 4 57 26 20 17 40 32 44
33 4 1 8 54 8 117 0 91 4 121 17 145 l18 30 -2 -60 c-1 -40 4 -72 16 -97 10
-21 16 -43 13 -50 -5 -15 10 -48 22 -48 5 0 12 11 15 25 14 54 52 19 71 -65
10 -43 9 -46 -15 -58 -24 -12 -24 -12 9 -7 19 3 36 7 38 9 2 2 6 26 10 54 3
27 9 56 14 63 14 24 31 -5 31 -56 1 -47 1 -47 31 -41 40 8 54 21 77 72 23 54
37 60 85 40 52 -22 71 -20 142 13 179 85 335 110 445 71 31 -11 94 -28 140
-39 157 -36 213 -53 291 -88 133 -59 188 -55 229 19 21 37 61 70 214 181 90
65 150 140 165 207 5 23 43 99 85 170 42 72 106 202 145 297 38 92 77 178 87
190 9 12 50 66 91 120 94 125 199 233 226 233 37 0 204 -364 205 -447 0 -15
-14 -32 -44 -52 -67 -47 -154 -148 -192 -226 -25 -51 -38 -98 -49 -173 -8 -57
-20 -112 -25 -122 -6 -11 -44 -65 -84 -122 -54 -75 -105 -131 -184 -201 -96
-84 -113 -104 -131 -152 -28 -74 -27 -85 10 -116 l31 -25 -40 -45 c-23 -24
-37 -45 -32 -47 6 -2 10 -13 10 -24 0 -12 7 -26 16 -33 14 -10 13 -15 -17 -47
-44 -46 -71 -54 -115 -33 -27 12 -34 22 -34 44 0 41 -27 125 -51 155 -26 32
-63 34 -82 4 -38 -61 -42 -148 -12 -220 6 -15 2 -18 -24 -18 -25 0 -31 4 -31
23 0 12 -7 31 -15 41 -8 11 -13 28 -10 37 4 11 -5 28 -21 44 l-27 27 -146 -17
c-80 -9 -204 -23 -276 -30 -71 -8 -247 -27 -390 -44 -143 -16 -294 -33 -336
-36 l-76 -7 203 -204 c112 -112 227 -219 256 -237 55 -34 218 -107 239 -107 7
0 24 11 38 24 15 13 49 37 76 53 44 26 50 33 46 59 -1 15 -9 37 -17 48 -8 11
-14 27 -14 36 1 25 39 -31 46 -68 l6 -33 18 28 c9 15 51 60 93 100 60 57 82
72 103 70 30 -2 63 -26 57 -42 -2 -6 33 -11 88 -13 131 -3 192 -23 226 -74 16
-22 40 -54 56 -71 15 -17 27 -39 27 -49 0 -16 3 -16 20 -6 11 7 20 18 20 25 0
7 6 14 13 15 6 0 17 2 23 2 6 1 29 14 51 29 21 15 44 27 50 27 6 0 13 5 15 12
3 7 7 8 10 2 6 -8 -9 -48 -31 -84 -5 -8 -25 -50 -45 -92 -20 -43 -39 -78 -43
-78 -3 0 -14 7 -24 16 -10 9 -23 13 -28 9 -13 -8 -14 -55 -2 -74 6 -10 5 -22
-4 -34 -10 -15 -11 -25 -4 -39 6 -11 8 -32 4 -48 -3 -15 -2 -31 4 -34 12 -8
12 -84 0 -92 -15 -9 -10 -44 6 -44 16 0 19 -17 9 -44 -10 -25 -34 -19 -34 8 0
13 -6 27 -12 29 -10 4 -10 7 0 14 10 7 7 16 -13 37 -23 25 -31 28 -68 22 -22
-4 -48 -12 -56 -19 -8 -7 -23 -12 -33 -12 -14 0 -24 -11 -32 -36 -7 -20 -18
-43 -25 -50 -6 -8 -18 -23 -26 -34 -13 -19 -14 -19 -24 7 -11 30 -28 32 -68
10 -17 -10 -24 -9 -37 3 -11 11 -15 12 -18 3 -5 -14 -118 -19 -118 -6 0 17
-18 7 -23 -12 -3 -11 -13 -20 -22 -20 -12 0 -15 -5 -10 -20 5 -16 2 -20 -15
-20 -17 0 -20 -4 -15 -22 20 -70 35 -92 50 -68 11 18 23 10 30 -21 6 -27 10
-30 34 -25 14 4 43 8 64 10 30 3 37 0 33 -11 -4 -8 -4 -19 -1 -23 8 -13 35 -1
35 15 0 7 7 16 16 19 23 9 27 8 20 -9 -3 -8 -1 -15 5 -15 6 0 7 -5 4 -11 -5
-7 12 -8 54 -3 43 5 61 3 61 -5 0 -16 16 -14 34 4 8 8 19 15 24 15 4 0 19 11
32 25 15 16 30 23 42 19 15 -4 18 0 18 25 0 21 8 39 25 53 14 12 24 27 21 33
-2 6 4 11 14 11 14 0 18 -13 24 -73 3 -40 13 -90 21 -110 18 -44 12 -134 -12
-171 -13 -21 -13 -25 1 -35 15 -11 15 -14 0 -35 -11 -16 -20 -20 -26 -14 -7 7
-19 7 -34 2 -14 -6 -26 -6 -29 0 -4 6 -16 3 -30 -6 -13 -9 -34 -18 -47 -20
-71 -12 -147 -21 -176 -18 -17 1 -35 -2 -38 -7 -3 -5 -15 -9 -27 -9 -12 0 -31
-7 -41 -15 -11 -8 -27 -13 -36 -10 -9 3 -26 -9 -43 -30 -29 -37 -28 -60 3 -50
30 9 33 -23 4 -51 -18 -19 -28 -23 -38 -15 -14 12 -26 5 -26 -16 0 -19 -22
-40 -46 -46 -10 -2 -3 -3 16 -1 l35 3 -25 -19 c-14 -11 -32 -20 -41 -20 -36 0
-47 -75 -16 -101 l22 -19 -31 -29 c-18 -16 -40 -33 -50 -39 -18 -10 -18 -12 3
-49 12 -21 30 -42 40 -48 10 -5 17 -18 15 -27 -2 -11 19 -40 52 -74 45 -46 53
-59 44 -73 -6 -9 -92 -90 -190 -181 -99 -91 -250 -230 -337 -310 -87 -80 -240
-223 -341 -318 -307 -291 -392 -362 -436 -362 -17 0 -23 -8 -28 -35 -15 -76
-41 -68 -247 74 -77 53 -211 145 -298 205 -191 130 -227 159 -217 174 5 9 18
6 48 -9 39 -20 238 -136 286 -167 12 -8 22 -10 22 -5 0 5 -15 17 -32 28 -58
33 -160 98 -258 164 -52 35 -147 99 -210 141 -63 43 -124 87 -134 99 -19 21
-19 21 7 21 15 0 27 5 27 10 0 6 6 10 14 10 18 0 66 45 91 84 21 35 33 159 17
179 -13 15 1 67 43 173 14 34 25 67 25 72 0 10 -53 9 -111 -3 -33 -6 -37 -4
-60 29 -13 20 -30 36 -37 36 -8 0 -50 18 -94 40 -91 45 -100 46 -152 25 -40
-17 -40 -18 -26 -46 8 -14 7 -19 -2 -20 -7 0 -63 -1 -125 -3 -86 -2 -117 -6
-138 -20 -15 -10 -24 -20 -22 -23 3 -3 -3 -21 -13 -41 -30 -61 -32 -76 -10
-100 11 -11 20 -26 20 -31 0 -6 9 -15 20 -21 30 -16 24 -45 -15 -86 -36 -37
-39 -44 -29 -81 5 -18 16 -22 67 -28 90 -10 188 -32 200 -44 14 -14 -33 -64
-93 -99 -25 -14 -48 -30 -51 -35 -12 -17 3 -47 22 -47 11 0 22 -6 25 -14 10
-25 -14 -53 -61 -72 -42 -18 -45 -22 -45 -56 0 -30 -8 -44 -50 -84 -28 -27
-60 -54 -71 -60 -11 -5 -39 -29 -62 -51 -23 -22 -69 -54 -102 -69 -112 -54
-131 -89 -98 -185 28 -80 24 -186 -8 -236 -46 -70 -57 -137 -33 -212 6 -20 4
-23 -9 -18 -10 4 -17 2 -17 -3 0 -6 -24 -10 -53 -10 -60 0 -262 -43 -283 -61
-8 -6 -14 -31 -15 -58 -1 -25 -4 -57 -9 -71 -5 -18 -1 -35 13 -58 15 -26 18
-46 15 -92 l-4 -60 40 6 c23 4 64 12 91 19 71 18 275 4 306 -22 8 -6 35 -14
61 -18 26 -4 53 -14 60 -23 12 -14 6 -15 -49 -9 -35 4 -63 3 -63 -1 0 -4 7
-18 16 -30 8 -12 13 -26 10 -30 -3 -5 -52 -12 -108 -15 -151 -10 -213 -26
-417 -107 -30 -12 -67 -30 -82 -41 -15 -10 -31 -19 -36 -19 -5 0 -24 -13 -43
-30 l-35 -29 763 -1 c419 0 762 1 762 3 0 1 -4 17 -9 34 -8 27 -5 42 17 85 14
29 31 58 37 63 7 6 24 27 39 47 33 44 66 57 168 65 65 5 86 2 140 -17 65 -24
102 -45 104 -58 0 -4 3 -14 6 -22 17 -45 17 -50 -1 -50 -11 0 -21 -4 -23 -8
-8 -19 -77 -50 -126 -57 -44 -6 -55 -11 -63 -32 -21 -56 -52 -53 495 -53 326
0 507 4 511 10 3 5 35 10 71 10 35 0 64 4 64 9 0 16 28 20 62 10 22 -6 34 -6
36 1 6 16 22 12 22 -6 0 -14 12 -16 85 -12 58 4 91 10 103 21 12 11 22 13 35
6 12 -7 17 -7 17 2 0 7 9 9 25 5 19 -5 23 -3 19 9 -8 20 40 38 89 33 27 -3 37
0 37 10 0 9 7 12 20 9 11 -3 23 -1 26 4 3 6 23 21 45 34 21 14 41 36 45 50 3
13 14 27 24 30 22 7 147 129 241 235 37 41 86 96 110 122 51 53 77 85 184 221
42 53 81 97 85 97 21 0 -25 -168 -174 -642 l-83 -268 1493 0 1494 0 0 4550 0
4550 -486 0 -486 0 6 -22 c4 -13 14 -52 23 -88 9 -36 20 -66 25 -68 4 -2 8
-11 8 -20 0 -15 2 -15 11 -2 8 12 10 8 7 -16 -3 -25 -1 -31 11 -29 9 2 19 4
24 4 4 1 7 9 8 19 1 11 4 9 9 -8 l8 -25 1 24 c1 13 3 22 6 19 3 -3 -6 -61 -20
-129 -14 -68 -30 -151 -35 -184 -5 -33 -19 -105 -30 -160 -11 -55 -32 -168
-45 -251 -45 -274 -53 -234 -35 166 8 195 28 308 65 380 12 24 12 37 -6 111
-11 46 -34 128 -51 182 l-32 97 -44 0 -44 0 6 -72 c3 -40 9 -246 12 -456 9
-489 -6 -770 -76 -1463 l-37 -376 -108 -174 c-154 -249 -171 -261 -149 -112 7
48 20 160 29 248 9 88 23 210 31 270 42 320 93 740 99 815 3 47 10 135 15 195
6 61 14 173 19 250 6 78 17 174 25 215 19 100 32 201 52 405 10 94 19 189 22
213 l4 42 -707 0 -708 0 8 -97z m1694 -137 c-9 -8 -10 -7 -5 7 3 10 7 28 7 40
2 16 3 14 6 -7 3 -16 -1 -34 -8 -40z m-3699 -2870 c0 -3 -4 -8 -10 -11 -5 -3
-10 -1 -10 4 0 6 5 11 10 11 6 0 10 -2 10 -4z m-51 -111 c13 -57 68 -142 90
-137 6 1 11 -5 11 -13 0 -38 -50 2 -93 75 -27 48 -47 130 -30 130 5 0 15 -25
22 -55z m108 -117 c-3 -8 -6 -5 -6 6 -1 11 2 17 5 13 3 -3 4 -12 1 -19z m-156
-412 c-15 -18 -104 -40 -130 -31 -32 10 -25 25 12 26 17 0 52 6 77 13 51 14
58 12 41 -8z m2487 -612 l43 -41 -23 -26 -23 -26 -28 27 c-33 31 -87 106 -87
120 0 21 76 -14 118 -54z m-698 19 c-35 -24 -38 -31 -31 -67 16 -75 26 -70
-232 -94 -128 -12 -275 -24 -327 -27 -179 -11 -220 -14 -254 -21 -20 -3 -51 0
-73 7 -36 12 -37 13 -13 19 14 4 32 3 40 -1 25 -12 72 2 78 23 4 17 5 17 17 2
9 -13 21 -16 50 -11 45 7 47 9 39 31 -6 15 -20 16 -137 12 -92 -4 -137 -10
-154 -21 -21 -14 -23 -14 -23 2 0 31 16 44 56 49 510 59 900 106 903 110 2 2
23 4 45 4 l40 0 -24 -17z m-722 -335 c-6 -18 -28 -21 -28 -4 0 9 7 16 16 16 9
0 14 -5 12 -12z m2522 -649 c6 -11 20 -65 31 -120 10 -56 24 -109 29 -119 18
-33 71 -40 109 -14 47 33 40 -2 -25 -131 -98 -194 -151 -275 -181 -275 -10 0
-12 64 -10 333 1 207 6 335 12 339 16 12 24 9 35 -13z m-234 -41 c-4 -13 -9
-130 -12 -262 -2 -131 -7 -243 -10 -247 -3 -5 -5 -56 -5 -112 1 -91 -2 -106
-20 -125 -11 -12 -30 -22 -44 -22 -13 0 -30 -3 -39 -6 -10 -4 -34 15 -72 55
-62 67 -84 111 -189 374 l-58 148 24 82 c24 81 25 82 59 84 113 8 258 27 294
38 65 21 79 19 72 -7z m903 -265 c5 -21 17 -76 26 -123 9 -47 25 -120 36 -163
11 -43 24 -102 29 -130 6 -29 24 -98 41 -153 16 -56 45 -164 64 -240 18 -77
36 -149 40 -161 6 -19 4 -23 -14 -23 -52 0 -78 69 -90 245 -7 97 -9 103 -69
220 -72 140 -90 219 -99 433 -5 117 -4 132 10 132 10 0 20 -14 26 -37z m-1004
-533 c3 -5 2 -10 -2 -10 -13 0 -73 -57 -73 -70 0 -6 -7 -13 -15 -16 -8 -3 -49
-58 -92 -122 -83 -124 -84 -127 -152 -254 -25 -46 -57 -105 -72 -133 -86 -160
-230 -461 -250 -525 -22 -69 -24 -72 -27 -39 -4 45 50 207 123 369 30 68 55
125 55 128 0 2 -7 -1 -15 -8 -8 -7 -15 -18 -15 -25 0 -20 -62 -75 -83 -75 -11
0 -34 -9 -53 -20 -21 -14 -35 -17 -39 -10 -4 6 -15 8 -26 5 -10 -4 -19 -3 -19
2 0 4 -21 9 -47 10 -32 1 -51 7 -60 19 -7 10 -13 12 -13 6 0 -7 -7 -12 -15
-12 -8 0 -15 5 -15 10 0 6 -7 10 -15 10 -8 0 -15 4 -15 10 0 13 -54 40 -81 40
-18 0 -21 4 -16 29 4 16 3 31 -1 34 -4 2 -2 3 5 1 18 -4 46 21 40 37 -4 10 -6
9 -6 -3 -1 -13 -9 -18 -31 -18 -33 0 -37 6 -16 29 19 21 46 100 39 117 -2 7
-14 14 -26 16 -12 2 -23 11 -25 22 -4 16 2 33 27 85 11 21 59 20 64 -1 8 -27
34 -21 53 12 22 36 45 46 60 26 15 -22 24 -20 56 11 21 20 28 23 28 11 0 -17
15 -18 39 -4 10 6 12 5 7 -2 -10 -16 0 -15 27 2 12 8 38 17 57 21 19 4 38 12
41 17 4 6 28 11 55 12 27 1 49 7 52 14 2 7 12 12 22 12 10 0 22 5 25 10 4 6
12 4 21 -5 21 -20 27 -19 58 11 14 15 26 23 26 17 0 -5 -5 -14 -12 -21 -9 -9
-7 -13 6 -18 10 -4 22 0 29 8 7 8 20 20 29 27 17 12 18 11 12 -20 l-5 -34 25
30 c14 17 26 33 26 38 0 10 51 68 122 140 54 54 89 70 103 47z m60 -102 c-52
-41 -10 -75 49 -39 35 22 66 19 66 -5 0 -7 -7 -17 -15 -21 -12 -7 -62 -70
-103 -130 -40 -60 -99 -154 -117 -188 -12 -22 -39 -71 -60 -110 -22 -38 -49
-91 -62 -116 -12 -25 -29 -52 -38 -59 -8 -7 -15 -20 -15 -30 0 -9 -8 -25 -19
-34 -10 -9 -21 -29 -24 -44 -3 -15 -15 -38 -26 -51 -12 -13 -21 -32 -21 -41 0
-9 -9 -25 -19 -34 -11 -10 -23 -31 -26 -48 -4 -16 -13 -32 -21 -35 -8 -3 -14
-13 -14 -22 0 -9 -8 -28 -17 -41 -10 -14 -18 -29 -18 -35 0 -23 -41 -95 -54
-95 -9 0 -11 7 -6 23 4 12 9 34 12 49 3 15 11 33 19 39 8 6 14 19 14 29 0 10
6 23 14 29 8 7 18 25 21 41 3 16 12 34 20 40 7 6 16 23 20 38 4 15 12 34 20
42 7 8 16 26 20 40 4 14 15 34 25 45 10 11 21 31 25 45 4 14 13 32 20 40 7 8
18 32 24 52 7 20 19 42 27 48 7 7 14 20 14 29 0 9 9 30 20 46 11 17 20 39 20
51 0 11 9 29 19 38 11 10 23 31 26 46 3 16 13 34 21 41 20 17 17 47 -6 54 -26
8 -37 1 -56 -38 -8 -18 -26 -50 -39 -72 -14 -22 -33 -59 -44 -81 -11 -23 -24
-45 -29 -48 -6 -3 -13 -19 -17 -34 -8 -36 -50 -86 -64 -78 -6 4 -9 12 -5 17 3
5 10 7 15 4 12 -8 11 1 -3 25 -10 16 -9 23 10 43 12 13 22 35 22 48 0 14 11
36 25 49 17 16 23 30 19 44 -3 14 2 28 15 40 12 11 21 27 21 36 0 9 9 25 21
36 13 11 19 27 16 40 -3 16 2 24 14 27 11 3 23 17 29 31 5 14 14 26 20 26 6 0
15 11 20 25 5 14 17 28 25 31 8 4 15 14 15 24 0 10 9 22 20 25 11 3 20 12 20
18 0 30 86 81 107 64 10 -7 7 -14 -12 -29z m201 -109 c3 -6 -6 -22 -20 -36
-15 -14 -25 -31 -22 -39 3 -8 0 -14 -8 -14 -12 0 -66 -73 -66 -89 0 -5 -9 -16
-20 -26 -11 -10 -20 -26 -20 -36 0 -10 -6 -22 -14 -26 -8 -4 -21 -24 -30 -43
-24 -54 -96 -182 -117 -209 -11 -13 -19 -31 -19 -40 0 -10 -7 -26 -15 -37 -8
-10 -24 -37 -36 -59 -34 -68 -56 -106 -72 -123 -8 -9 -18 -27 -21 -39 -7 -23
-32 -37 -41 -23 -3 5 3 28 15 50 11 22 29 58 40 79 11 22 20 45 20 52 0 6 11
24 25 41 14 16 25 38 25 48 0 9 7 23 15 30 8 7 15 17 15 23 0 16 100 217 122
246 10 13 18 32 18 41 0 10 7 20 15 24 8 3 15 16 15 30 0 16 7 27 20 31 11 3
20 15 20 25 0 11 9 24 20 30 11 6 20 17 20 26 0 42 96 94 116 63z m-166 -428
c0 -9 -21 -57 -100 -226 -80 -173 -162 -335 -175 -345 -8 -7 -15 -20 -15 -30
0 -10 -7 -23 -15 -30 -8 -7 -15 -20 -15 -30 0 -10 -7 -23 -15 -30 -8 -7 -15
-21 -15 -31 0 -18 -17 -35 -27 -26 -7 8 24 101 53 160 8 16 14 35 14 43 0 9
11 30 25 48 14 18 25 37 25 43 0 6 11 22 25 37 14 15 25 35 25 45 0 10 7 24
16 31 8 8 24 32 36 54 11 23 31 62 44 88 13 25 28 49 34 53 5 3 10 15 10 27 0
11 9 31 20 45 11 14 20 36 20 48 0 12 3 25 7 28 9 10 23 8 23 -2z m-460 -107
c0 -8 4 -12 10 -9 6 3 7 -1 4 -10 -4 -11 -13 -14 -28 -9 -28 9 -29 11 -23 29
8 20 37 20 37 -1z m-38 -76 c3 -7 -5 -24 -18 -38 l-24 -25 0 32 c0 36 32 59
42 31z m-37 -109 c-6 -9 -35 -1 -35 10 0 4 3 11 7 14 8 9 34 -13 28 -24z m-59
-64 c-3 -9 -11 -13 -16 -10 -8 5 -7 11 1 21 14 18 24 11 15 -11z m-32 -70 c-6
-16 -24 -21 -24 -7 0 11 11 22 21 22 5 0 6 -7 3 -15z m272 -36 c3 -6 -3 -24
-15 -40 -11 -15 -21 -35 -21 -43 0 -17 -27 -29 -36 -15 -8 14 38 109 53 109 6
0 15 -5 19 -11z m-296 -18 c0 -6 -4 -13 -10 -16 -5 -3 -10 1 -10 9 0 9 5 16
10 16 6 0 10 -4 10 -9z m60 -205 c-14 -14 -24 0 -16 21 6 15 8 15 16 3 6 -9 5
-19 0 -24z m-10 -46 c0 -16 -4 -30 -8 -30 -5 0 -7 14 -4 30 2 17 6 30 8 30 2
0 4 -13 4 -30z m230 -61 c0 -5 -4 -9 -10 -9 -5 0 -10 7 -10 16 0 8 5 12 10 9
6 -3 10 -10 10 -16z m-151 -195 l24 -25 -29 7 c-39 9 -44 13 -44 30 0 22 22
16 49 -12z m81 -99 c0 -8 -7 -15 -15 -15 -16 0 -20 12 -8 23 11 12 23 8 23 -8z
m-3886 -529 c-3 -8 -15 -17 -27 -20 -21 -5 -20 -4 3 14 30 24 31 24 24 6z
m-74 -46 c0 -5 -5 -10 -11 -10 -5 0 -7 5 -4 10 3 6 8 10 11 10 2 0 4 -4 4 -10z
m-157 -126 c63 -32 84 -50 104 -88 18 -35 10 -72 -18 -81 -26 -8 -49 11 -49
41 0 26 -51 60 -77 50 -17 -7 -12 -27 29 -111 37 -76 74 -115 108 -115 33 0
50 -17 50 -50 0 -24 -2 -25 -64 -23 -80 2 -97 11 -137 70 -42 61 -68 131 -76
204 -6 58 -5 61 27 95 19 18 38 34 42 34 5 0 32 -12 61 -26z"/>
<path d="M9410 4703 c0 -14 30 -53 41 -53 6 0 9 12 7 28 -2 19 -9 28 -25 30
-13 2 -23 0 -23 -5z"/>
<path d="M9323 4693 c-26 -5 -29 -16 -9 -32 20 -16 78 -3 74 18 -3 17 -27 22
-65 14z"/>
<path d="M9190 4665 c0 -20 23 -29 55 -21 42 11 31 36 -15 36 -29 0 -40 -4
-40 -15z"/>
<path d="M9075 4660 c-10 -17 5 -30 33 -30 34 0 57 14 48 29 -9 14 -73 15 -81
1z"/>
<path d="M8967 4654 c-19 -20 -5 -34 34 -34 33 0 40 3 37 18 -3 17 -57 30 -71
16z"/>
<path d="M8844 4635 c-10 -25 6 -37 39 -29 42 9 47 12 40 29 -7 20 -72 20 -79
0z"/>
<path d="M10016 2504 c-4 -9 -4 -19 -1 -22 2 -3 7 3 11 12 4 9 4 19 1 22 -2 3
-7 -3 -11 -12z"/>
<path d="M10017 2363 c-13 -13 -7 -32 8 -27 8 4 15 12 15 20 0 15 -12 19 -23
7z"/>
<path d="M10973 2750 c-15 -23 -36 -50 -45 -62 -10 -12 -18 -26 -18 -32 0 -6
-9 -19 -20 -29 -25 -21 -25 -39 -1 -54 15 -10 21 -9 33 5 24 30 58 81 58 87 0
4 17 27 37 52 36 43 36 46 18 59 -27 20 -31 18 -62 -26z"/>
<path d="M460 8974 c-201 -29 -386 -56 -413 -60 l-47 -7 0 -2843 c0 -1564 2
-2844 3 -2844 2 0 98 52 213 116 115 64 279 155 364 202 85 46 160 88 165 92
6 4 98 56 205 115 373 205 685 385 667 385 -13 0 -118 -50 -145 -68 -15 -11
-38 -23 -52 -27 -14 -4 -27 -10 -30 -14 -3 -3 -48 -28 -100 -54 -52 -27 -142
-73 -199 -103 -57 -30 -106 -52 -108 -50 -2 2 33 24 79 49 46 24 164 89 263
144 99 55 253 139 343 188 89 50 161 94 159 99 -2 5 -38 19 -81 30 l-77 21 33
15 c36 16 83 16 57 -1 -11 -7 -9 -9 6 -9 11 0 27 9 35 19 7 11 17 18 22 15 4
-3 8 -1 8 4 0 5 15 17 32 26 l33 17 -32 -6 c-18 -4 -33 -5 -33 -3 0 3 54 38
120 79 116 72 120 75 120 109 0 19 -5 53 -10 75 -5 22 -8 40 -7 42 1 1 79 -47
172 -107 94 -60 244 -155 335 -211 91 -56 174 -111 185 -122 20 -19 20 -19 -2
-8 -30 15 -41 14 -18 -3 18 -13 16 -15 -30 -44 -27 -17 -81 -48 -121 -68 l-72
-38 -108 22 c-60 12 -119 25 -131 28 -18 5 -23 2 -23 -13 0 -17 17 -23 135
-48 l136 -27 82 47 c128 75 177 109 177 123 0 9 6 12 16 8 9 -3 18 -6 20 -6 2
0 4 -9 4 -19 0 -14 11 -23 38 -32 20 -7 43 -20 50 -31 7 -10 30 -27 50 -38 37
-19 37 -19 9 -20 -16 0 -78 11 -139 25 -61 14 -113 23 -116 20 -2 -2 -2 -10 0
-17 7 -18 263 -72 285 -60 16 10 82 -23 182 -91 l44 -30 -28 -15 c-26 -13 -39
-12 -139 8 -61 13 -121 27 -133 31 -12 5 -25 4 -28 -1 -5 -8 20 -40 33 -40 4
0 51 -9 105 -20 117 -24 155 -25 181 -5 11 8 26 15 33 15 17 0 213 -120 213
-131 0 -21 -58 -19 -165 6 -63 15 -115 30 -115 34 0 4 6 13 12 20 7 8 -2 5
-19 -5 -18 -10 -33 -21 -33 -24 1 -24 33 -37 152 -61 l133 -27 38 19 c50 26
63 24 128 -19 124 -82 210 -136 329 -210 169 -106 807 -530 815 -542 3 -5 0
-8 -7 -5 -41 13 -292 65 -301 62 -6 -2 13 -9 43 -15 274 -57 305 -67 394 -127
63 -43 86 -64 86 -80 0 -24 11 -28 164 -71 149 -41 206 -75 313 -190 52 -56
101 -112 110 -125 47 -70 170 -173 196 -164 14 6 117 192 117 212 0 9 -423
298 -1145 784 -71 48 -326 215 -565 372 -239 156 -502 328 -585 382 -82 54
-314 202 -515 330 -858 546 -961 612 -1070 690 -63 45 -171 120 -240 167 -190
128 -450 318 -450 329 0 5 8 9 18 9 30 0 52 23 46 47 l-6 22 -51 -19 c-28 -11
-53 -17 -55 -15 -3 3 -11 -7 -19 -21 -15 -31 -16 -37 -4 -30 15 9 43 -5 37
-19 -3 -9 2 -11 15 -8 12 4 27 -3 38 -16 11 -12 23 -23 28 -24 11 -3 4 -21
-13 -30 -8 -4 -14 -21 -14 -36 0 -40 52 -87 189 -172 64 -40 169 -108 234
-151 65 -43 120 -78 122 -78 6 0 86 -51 230 -145 61 -40 148 -97 195 -127 47
-30 112 -72 145 -94 33 -21 65 -41 70 -44 6 -3 57 -36 115 -75 58 -38 120 -78
139 -88 19 -11 64 -38 100 -61 36 -23 104 -66 151 -96 102 -64 100 -63 189
-124 39 -27 69 -51 66 -54 -2 -3 -31 13 -62 34 -32 21 -71 46 -88 55 -35 19
-850 529 -975 610 -47 31 -121 78 -165 106 -44 27 -147 93 -230 145 -306 194
-662 415 -728 452 -57 32 -66 41 -55 52 15 15 678 182 831 210 20 3 37 11 37
18 0 10 -152 663 -305 1311 -35 149 -91 387 -124 531 -33 144 -89 384 -125
535 -36 151 -77 328 -91 394 -33 153 -80 318 -107 374 -30 63 -94 101 -167
100 -31 -1 -220 -25 -421 -55z m464 -3511 c66 -47 80 -62 36 -36 -19 11 -50
29 -67 39 -18 10 -33 22 -33 26 0 14 11 9 64 -29z m505 -329 c14 -12 -19 -1
-35 12 -18 14 -18 14 6 3 14 -6 27 -13 29 -15z m276 -180 c30 -20 55 -39 55
-42 0 -2 -12 4 -27 13 -14 10 -41 26 -60 37 -31 19 -40 28 -28 28 3 0 30 -16
60 -36z m105 -70 c0 -2 -9 0 -20 6 -11 6 -20 13 -20 16 0 2 9 0 20 -6 11 -6
20 -13 20 -16z m-30 -494 c0 -5 -8 -10 -17 -10 -15 0 -16 2 -3 10 19 12 20 12
20 0z m1530 -330 c0 -5 -7 -7 -15 -4 -8 4 -15 8 -15 10 0 2 7 4 15 4 8 0 15
-4 15 -10z m-2350 -264 c0 -2 -7 -7 -16 -10 -8 -3 -12 -2 -9 4 6 10 25 14 25
6z m-41 -20 c-2 -2 -15 -9 -29 -15 -24 -11 -24 -11 -6 3 16 13 49 24 35 12z"/>
<path d="M9174 8619 c-4 -6 -13 -48 -21 -93 -13 -78 -39 -182 -105 -422 -17
-61 -28 -119 -25 -128 8 -20 50 -21 66 -2 6 8 18 57 26 109 8 53 32 167 54
254 48 196 59 272 40 284 -19 12 -26 11 -35 -2z"/>
<path d="M6175 6830 c3 -5 18 -10 33 -9 24 0 25 1 7 9 -28 12 -47 12 -40 0z"/>
<path d="M6460 6802 c-14 -11 -22 -23 -19 -27 14 -13 130 -12 144 1 7 8 22 14
31 14 13 0 15 3 7 11 -6 6 -40 13 -75 16 -53 5 -67 2 -88 -15z"/>
<path d="M5975 6788 c-31 -24 -62 -42 -140 -83 -27 -14 -61 -32 -75 -40 -14
-7 -43 -22 -65 -33 -62 -29 -174 -90 -245 -135 -36 -22 -81 -50 -100 -62 -19
-12 -76 -49 -126 -83 -145 -98 -256 -162 -278 -162 -31 0 -15 -11 154 -103 85
-46 214 -117 285 -156 113 -62 136 -71 176 -70 38 2 45 5 42 20 -3 10 5 23 18
33 26 18 59 21 59 6 0 -20 33 -9 89 30 31 22 61 40 65 40 5 0 25 15 46 33 21
17 55 47 76 65 69 60 228 177 264 194 19 10 31 17 26 18 -19 0 28 39 55 45 16
4 29 12 29 19 0 22 39 49 70 49 16 0 27 4 24 9 -3 5 2 20 10 33 16 25 16 25
-17 25 -18 0 -43 7 -56 16 -23 16 -23 16 -16 -7 4 -13 7 -26 7 -29 0 -24 -6
-30 -28 -30 -21 0 -25 4 -21 20 3 11 1 20 -4 20 -5 0 -9 -5 -9 -11 0 -6 -8 -8
-17 -5 -10 3 -25 1 -33 -4 -12 -7 -10 -13 13 -34 34 -31 34 -43 2 -58 -21 -10
-29 -8 -48 10 -28 27 -55 28 -73 5 -19 -26 -17 -36 6 -30 23 6 43 -14 34 -37
-9 -22 -47 -20 -62 4 -18 30 -47 24 -87 -17 -32 -33 -38 -36 -57 -24 -17 11
-22 10 -29 -1 -5 -7 -9 -19 -9 -25 0 -7 -9 -13 -19 -13 -23 0 -37 -16 -19 -23
7 -2 -1 -4 -17 -3 -30 1 -31 2 -18 28 8 15 30 33 52 42 22 8 42 24 45 34 4 11
27 29 51 42 25 13 45 27 45 31 0 5 18 18 40 29 21 11 44 29 50 40 6 11 23 26
38 34 15 8 40 26 56 40 16 14 34 26 40 26 6 0 21 16 34 35 l22 35 -22 0 c-13
0 -30 -5 -38 -10 -13 -9 -13 -11 0 -19 19 -13 13 -18 -31 -26 -26 -5 -40 -2
-52 9 -8 9 -22 16 -29 16 -8 0 -20 6 -27 13 -11 10 -12 8 -7 -9 13 -43 -55
-74 -84 -39 -10 12 -10 19 -2 27 7 7 12 22 12 34 0 17 7 23 28 26 21 2 28 9
29 28 2 14 0 19 -4 10 -9 -22 -24 -30 -57 -30 -27 0 -28 2 -22 34 6 29 3 37
-14 46 -11 6 -25 8 -30 5 -5 -3 -11 -1 -15 5 -3 5 3 10 14 10 12 0 21 3 22 8
0 4 2 17 3 30 3 27 5 27 -29 0z m-11 -77 c10 -11 24 -17 32 -14 25 10 15 -17
-12 -29 -18 -8 -31 -9 -42 -2 -22 15 -29 39 -8 31 19 -7 21 4 4 21 -7 7 -8 12
-2 12 6 0 19 -9 28 -19z m44 -166 c26 -30 28 -51 6 -59 -43 -17 -88 10 -65 38
6 8 11 18 10 22 -6 33 21 32 49 -1z m52 -65 c0 -5 -4 -10 -10 -10 -5 0 -10 5
-10 10 0 6 5 10 10 10 6 0 10 -4 10 -10z m-157 -17 c-5 -12 -2 -15 10 -10 19
7 20 6 11 -17 -8 -20 -38 -21 -54 -1 -10 12 -10 18 0 30 17 21 41 19 33 -2z
m-97 -89 c8 3 14 1 14 -4 0 -13 -37 -13 -45 0 -3 6 -3 16 2 23 5 9 9 7 11 -6
2 -11 9 -16 18 -13z m17 -194 c-3 -11 -12 -20 -19 -20 -8 0 -17 -6 -20 -14 -3
-8 -11 -13 -18 -10 -7 3 -17 -6 -24 -20 -10 -22 -42 -42 -95 -60 -10 -3 -16
-10 -13 -15 8 -12 -12 -26 -56 -40 -21 -7 -38 -19 -38 -26 0 -19 -34 -37 -55
-29 -20 8 -15 24 11 38 10 6 35 25 55 42 20 18 47 35 60 39 13 4 39 21 58 37
18 16 45 35 59 41 14 7 36 22 49 35 28 28 53 29 46 2z m157 -4 c0 -7 -7 -20
-16 -27 -14 -11 -18 -10 -30 6 -21 28 -17 35 16 35 19 0 30 -5 30 -14z m-106
-81 c-4 -8 -13 -15 -21 -15 -8 0 -12 4 -9 9 4 5 0 12 -6 14 -7 3 -1 6 14 6 20
1 26 -3 22 -14z m-101 -61 c8 -8 -16 -33 -25 -27 -13 7 -9 33 5 33 8 0 16 -3
20 -6z"/>
<path d="M6663 6750 c0 -13 -6 -26 -12 -28 -5 -2 -7 -10 -4 -18 3 -8 1 -14 -5
-14 -6 0 -18 -3 -28 -7 -12 -4 -15 -3 -10 6 5 7 -15 -2 -43 -21 -50 -33 -59
-50 -42 -77 13 -20 -5 -51 -29 -51 -11 0 -25 9 -32 20 -13 21 -38 27 -38 10 0
-5 7 -10 16 -10 8 0 12 -4 9 -10 -3 -5 -2 -10 4 -10 5 0 8 -11 6 -25 -3 -34
18 -32 56 5 17 16 40 32 50 35 10 3 46 33 81 67 35 33 76 65 91 70 15 6 26 13
23 15 -3 3 7 16 22 29 l27 23 -37 1 c-21 0 -38 4 -38 9 0 5 -15 9 -33 8 -26
-2 -32 -6 -34 -27z"/>
<path d="M6947 6739 c-24 -18 -31 -19 -37 -8 -15 23 -65 -1 -66 -31 -1 -45 -4
-50 -39 -64 -19 -8 -35 -21 -35 -29 0 -16 -21 -27 -50 -27 -10 0 -27 -13 -36
-30 -12 -20 -27 -30 -48 -32 l-31 -3 36 -17 c36 -16 46 -41 26 -65 -13 -18
-72 -16 -87 2 -16 20 -46 19 -54 -1 -9 -23 -8 -24 14 -24 12 0 34 -7 50 -15
27 -14 33 -14 60 0 17 9 35 13 40 10 4 -3 19 19 33 48 25 56 48 77 177 165
105 73 126 90 117 98 -4 4 -12 3 -18 -3 -12 -12 -39 -7 -39 7 0 15 30 19 55 8
19 -9 28 -9 37 0 16 16 6 23 -39 28 -28 3 -45 -1 -66 -17z m-102 -109 c-3 -5
-14 -10 -23 -9 -14 0 -13 2 3 9 27 11 27 11 20 0z"/>
<path d="M7704 6703 c3 -21 6 -46 6 -56 0 -10 5 -17 11 -15 17 6 17 97 1 103
-23 9 -25 6 -18 -32z"/>
<path d="M6075 6720 c-8 -13 15 -13 35 0 12 8 11 10 -7 10 -12 0 -25 -4 -28
-10z"/>
<path d="M7663 6491 c-29 -18 -73 -91 -73 -122 0 -8 -5 -20 -12 -27 -22 -22 4
-12 34 13 16 14 35 22 40 19 6 -4 8 -2 4 4 -3 5 -3 12 1 14 13 5 83 91 83 101
0 5 -8 6 -17 3 -9 -4 -19 -2 -23 3 -3 6 -18 3 -37 -8z"/>
<path d="M6435 6386 c-15 -51 -14 -55 14 -50 18 4 33 0 44 -10 19 -20 54 -21
73 -2 12 13 10 15 -18 18 -22 2 -36 10 -43 25 -10 23 -65 38 -70 19z"/>
<path d="M6681 6329 c-11 -26 -49 -60 -151 -134 -88 -64 -107 -87 -81 -97 4
-1 12 -13 15 -25 7 -21 4 -23 -26 -23 -19 0 -39 5 -45 11 -8 8 -17 7 -34 -1
-30 -16 -79 -71 -73 -82 7 -12 -5 -48 -17 -48 -5 0 -9 7 -9 15 0 25 -22 17
-95 -35 -38 -27 -84 -57 -102 -67 -28 -14 -49 -40 -40 -49 4 -4 128 -24 150
-24 9 0 17 6 17 14 0 20 25 37 43 30 8 -3 18 -16 21 -29 8 -30 25 -25 56 17
20 28 21 32 6 40 -21 12 -20 41 2 61 24 22 49 21 64 -2 6 -10 18 -17 25 -14
11 4 11 10 -2 30 -15 22 -15 26 0 49 17 26 53 32 73 12 18 -18 27 -1 13 28
-10 23 -8 29 23 60 38 38 57 42 81 18 13 -13 21 -14 41 -6 19 9 24 19 24 49 0
21 9 80 20 132 11 52 19 96 17 97 -1 2 -9 -11 -16 -27z"/>
<path d="M4295 6334 c-261 -60 -302 -67 -309 -51 -2 7 -5 5 -5 -4 -1 -9 6 -22
14 -29 12 -10 43 -5 162 28 82 22 177 47 213 55 58 13 61 15 25 15 -22 0 -67
-6 -100 -14z"/>
<path d="M6343 6314 c0 -31 -20 -54 -45 -54 -11 0 -34 -16 -51 -35 -17 -19
-40 -35 -51 -35 -12 0 -32 -15 -46 -35 -14 -19 -31 -35 -37 -35 -7 0 -30 -16
-52 -35 -21 -19 -44 -35 -50 -35 -6 0 -31 -18 -55 -40 -24 -22 -48 -40 -53
-40 -6 0 -16 -7 -23 -15 -7 -8 -43 -35 -81 -60 -38 -25 -69 -50 -69 -55 0 -11
20 -17 88 -25 l52 -7 0 31 c0 35 22 51 48 34 25 -15 25 -30 1 -52 l-23 -21 22
0 c12 0 40 19 64 43 24 23 55 51 69 62 15 11 60 47 100 80 41 33 88 70 105 82
16 12 49 39 71 60 74 69 115 103 122 103 5 0 16 8 25 19 16 18 16 19 -21 28
-27 6 -39 15 -44 33 -4 14 -7 22 -8 18 -1 -4 -14 -3 -30 2 -26 7 -28 6 -28
-16z m55 -62 c20 -18 20 -18 1 -30 -26 -17 -43 -15 -62 6 -13 14 -14 21 -5 30
17 17 42 15 66 -6z m-91 -70 c9 -6 3 -13 -18 -26 -34 -20 -34 -20 -43 12 -6
19 -4 22 21 22 15 0 34 -4 40 -8z m-99 -70 c19 -13 3 -42 -24 -42 -26 0 -52
35 -31 43 19 8 41 7 55 -1z m-88 -82 c10 -6 11 -10 3 -10 -7 0 -13 -6 -13 -14
0 -21 -53 -5 -56 17 -2 12 5 17 24 17 15 0 34 -5 42 -10z"/>
<path d="M3655 6310 c-199 -47 -667 -150 -681 -150 -8 0 -13 -4 -10 -9 3 -4
-7 -6 -22 -4 -19 3 -23 2 -13 -5 18 -13 -39 -26 -71 -17 -15 4 -19 3 -10 -3
15 -10 29 -6 -403 -107 -154 -36 -287 -64 -295 -62 -9 2 -21 -2 -27 -8 -9 -10
-5 -14 20 -19 32 -7 139 18 887 205 605 152 636 158 739 156 62 -1 96 -6 98
-14 5 -13 -56 -33 -100 -33 -27 0 -28 -1 -11 -17 13 -14 34 -18 85 -18 71 0
90 8 71 27 -7 7 -12 20 -12 30 0 26 -50 48 -95 41 -29 -5 -40 -2 -47 10 -11
20 -3 20 -103 -3z"/>
<path d="M3890 6306 c0 -2 7 -7 16 -10 8 -3 12 -2 9 4 -6 10 -25 14 -25 6z"/>
<path d="M3557 6248 c-43 -11 -76 -22 -74 -25 5 -4 169 36 176 43 8 8 -24 2
-102 -18z"/>
<path d="M7335 6245 c-4 -11 -16 -38 -28 -60 -12 -22 -19 -41 -17 -42 3 -1 -2
-10 -10 -20 -8 -10 -21 -30 -27 -45 -7 -16 -17 -28 -22 -28 -5 0 -11 -11 -13
-25 -3 -14 -4 -25 -3 -25 5 0 84 120 114 172 25 44 30 62 22 75 -9 17 -10 17
-16 -2z"/>
<path d="M3438 6213 c7 -3 16 -2 19 1 4 3 -2 6 -13 5 -11 0 -14 -3 -6 -6z"/>
<path d="M3620 6210 c-12 -8 -11 -10 7 -10 12 0 25 5 28 10 8 13 -15 13 -35 0z"/>
<path d="M3720 6196 c-14 -8 -77 -26 -140 -41 -213 -51 -623 -153 -943 -235
-188 -48 -327 -78 -340 -75 -17 5 -19 4 -7 -4 8 -6 11 -11 5 -11 -5 0 -5 -4 1
-10 12 -12 217 36 899 210 286 73 533 135 548 138 20 3 26 9 23 19 -3 8 -6 17
-6 19 0 7 -14 4 -40 -10z"/>
<path d="M4019 6186 c14 -14 29 -26 34 -26 13 0 -12 29 -37 42 -19 10 -18 8 3
-16z"/>
<path d="M3460 6180 c-80 -23 -224 -56 -305 -70 -33 -5 -107 -24 -164 -40 -57
-17 -111 -30 -121 -30 -9 0 -53 -11 -96 -25 -43 -14 -115 -35 -159 -46 -44
-11 -96 -24 -115 -29 -19 -5 -84 -21 -145 -36 -122 -30 -125 -32 -106 -43 7
-5 61 5 124 21 382 100 497 130 542 139 28 6 54 15 59 20 6 5 22 9 36 9 15 0
105 20 201 44 96 24 212 52 259 61 47 10 96 23 110 31 25 13 24 13 -15 13 -22
0 -69 -9 -105 -19z"/>
<path d="M3278 6173 c7 -3 16 -2 19 1 4 3 -2 6 -13 5 -11 0 -14 -3 -6 -6z"/>
<path d="M6820 6146 c0 -20 5 -36 10 -36 6 0 10 13 10 29 0 17 -4 33 -10 36
-6 4 -10 -8 -10 -29z"/>
<path d="M2798 6113 c7 -3 16 -2 19 1 4 3 -2 6 -13 5 -11 0 -14 -3 -6 -6z"/>
<path d="M4097 6104 c-3 -3 -120 -35 -259 -69 -180 -45 -258 -61 -270 -54 -14
8 -16 6 -11 -7 4 -12 3 -15 -5 -10 -8 4 -10 2 -6 -8 6 -16 34 -30 43 -21 3 3
-1 10 -9 15 -12 7 -11 9 5 8 11 -1 49 7 85 16 36 10 146 37 244 62 166 40 208
55 195 69 -3 3 -8 2 -12 -1z"/>
<path d="M3935 6024 c-71 -19 -142 -37 -157 -40 -15 -4 -25 -10 -23 -14 5 -8
-93 -50 -115 -50 -5 0 -11 -4 -14 -9 -3 -5 15 -3 40 5 26 7 51 11 57 7 5 -3 8
-2 4 3 -3 5 47 24 111 43 65 18 147 42 184 52 65 19 99 40 61 38 -10 0 -76
-16 -148 -35z"/>
<path d="M3443 6034 c-77 -20 -145 -57 -220 -121 l-66 -56 -276 -82 c-428
-128 -425 -128 -520 -42 -114 103 -184 161 -180 149 8 -22 239 -222 265 -228
42 -11 96 1 368 81 142 42 265 74 273 71 8 -3 12 -2 9 3 -3 4 13 14 36 20 23
7 76 41 119 76 95 77 148 103 225 113 50 7 56 9 39 19 -15 8 -34 7 -72 -3z"/>
<path d="M7187 5983 c-4 -3 -7 -11 -7 -17 0 -6 5 -5 12 2 6 6 9 14 7 17 -3 3
-9 2 -12 -2z"/>
<path d="M2003 5968 c-10 -13 -26 -60 -37 -110 -6 -25 -1 -31 50 -63 55 -35
56 -36 113 -24 32 6 64 15 72 19 24 16 2 22 -39 10 -36 -9 -45 -8 -74 11 l-33
21 31 -5 c35 -7 74 1 74 14 0 5 -10 10 -22 10 -18 1 -19 2 -5 6 10 3 30 -3 45
-13 l27 -17 -19 21 c-29 33 -96 63 -117 52 -10 -6 -26 -10 -36 -9 -10 0 2 8
26 18 l45 18 -27 27 c-28 28 -58 34 -74 14z"/>
<path d="M5654 5869 c-19 -21 -19 -21 9 -8 15 7 27 16 27 21 0 14 -16 9 -36
-13z"/>
<path d="M7138 5813 c7 -3 16 -2 19 1 4 3 -2 6 -13 5 -11 0 -14 -3 -6 -6z"/>
<path d="M1902 5783 c-35 -8 -73 -22 -83 -31 -11 -9 -25 -17 -32 -17 -6 0 -43
-8 -82 -17 -38 -9 -124 -29 -190 -44 -157 -35 -175 -42 -104 -43 104 -2 629
106 629 128 0 7 -59 41 -68 40 -4 0 -36 -8 -70 -16z"/>
<path d="M2945 5760 c-13 -5 -14 -9 -5 -9 8 0 24 4 35 9 13 5 14 9 5 9 -8 0
-24 -4 -35 -9z"/>
<path d="M3100 5752 c-21 -3 -264 -51 -340 -67 -22 -5 -22 -4 5 10 37 20 21
16 -135 -30 -76 -22 -140 -35 -162 -33 -48 4 -49 -8 -3 -21 27 -7 57 -4 136
15 56 14 111 22 123 19 16 -5 18 -4 6 4 -11 8 -4 10 30 9 38 -1 355 74 369 88
8 7 -4 10 -29 6z"/>
<path d="M2875 5740 c-13 -5 -14 -9 -5 -9 8 0 24 4 35 9 13 5 14 9 5 9 -8 0
-24 -4 -35 -9z"/>
<path d="M6766 5598 c-9 -47 -8 -70 3 -81 8 -8 11 8 11 51 0 69 -4 78 -14 30z"/>
<path d="M2835 5605 c-39 -14 -40 -14 -5 -8 41 7 82 22 60 22 -8 0 -33 -7 -55
-14z"/>
<path d="M2768 5583 c7 -3 16 -2 19 1 4 3 -2 6 -13 5 -11 0 -14 -3 -6 -6z"/>
<path d="M1178 5573 c7 -3 16 -2 19 1 4 3 -2 6 -13 5 -11 0 -14 -3 -6 -6z"/>
<path d="M2728 5573 c7 -3 16 -2 19 1 4 3 -2 6 -13 5 -11 0 -14 -3 -6 -6z"/>
<path d="M2645 5555 c-39 -14 -40 -14 -5 -8 41 7 82 22 60 22 -8 0 -33 -7 -55
-14z"/>
<path d="M6050 5557 c16 -17 108 -39 123 -30 16 10 -5 21 -53 27 -28 4 -58 9
-68 13 -15 5 -15 4 -2 -10z"/>
<path d="M2878 5543 c7 -3 16 -2 19 1 4 3 -2 6 -13 5 -11 0 -14 -3 -6 -6z"/>
<path d="M6447 5543 c-4 -3 -7 -19 -7 -35 0 -16 -7 -44 -14 -63 -12 -29 -20
-35 -44 -35 -16 0 -43 5 -61 11 -67 24 -37 -1 92 -74 122 -70 140 -77 227 -91
l94 -15 52 57 c52 55 65 84 44 97 -6 4 -19 23 -30 44 -28 57 -61 73 -190 93
-127 19 -154 21 -163 11z"/>
<path d="M2578 5533 c7 -3 16 -2 19 1 4 3 -2 6 -13 5 -11 0 -14 -3 -6 -6z"/>
<path d="M2838 5533 c7 -3 16 -2 19 1 4 3 -2 6 -13 5 -11 0 -14 -3 -6 -6z"/>
<path d="M2538 5523 c7 -3 16 -2 19 1 4 3 -2 6 -13 5 -11 0 -14 -3 -6 -6z"/>
<path d="M2798 5523 c7 -3 16 -2 19 1 4 3 -2 6 -13 5 -11 0 -14 -3 -6 -6z"/>
<path d="M6285 5520 c-3 -6 1 -13 10 -16 19 -8 30 0 20 15 -8 14 -22 14 -30 1z"/>
<path d="M2458 5503 c7 -3 16 -2 19 1 4 3 -2 6 -13 5 -11 0 -14 -3 -6 -6z"/>
<path d="M2418 5493 c7 -3 16 -2 19 1 4 3 -2 6 -13 5 -11 0 -14 -3 -6 -6z"/>
<path d="M2368 5483 c6 -2 18 -2 25 0 6 3 1 5 -13 5 -14 0 -19 -2 -12 -5z"/>
<path d="M2328 5473 c7 -3 16 -2 19 1 4 3 -2 6 -13 5 -11 0 -14 -3 -6 -6z"/>
<path d="M2608 5473 c7 -3 16 -2 19 1 4 3 -2 6 -13 5 -11 0 -14 -3 -6 -6z"/>
<path d="M2540 5460 c-20 -6 -21 -8 -5 -8 11 0 29 3 40 8 25 11 -1 11 -35 0z"/>
<path d="M2460 5440 c-20 -6 -21 -8 -5 -8 11 0 29 3 40 8 25 11 -1 11 -35 0z"/>
<path d="M6744 5052 c5 -8 0 -12 -13 -12 -12 0 -21 -4 -21 -10 0 -5 9 -10 19
-10 22 0 35 26 19 36 -7 4 -8 3 -4 -4z"/>
<path d="M8491 4938 c-11 -17 -19 -20 -58 -14 -48 6 -94 -11 -112 -41 -5 -10
-23 -18 -43 -19 -67 -4 -160 -14 -167 -19 -5 -2 -16 4 -26 15 -19 21 -60 27
-70 10 -3 -5 -21 -10 -38 -10 -24 0 -28 -3 -17 -10 8 -5 24 -10 35 -10 24 0
133 -51 197 -91 46 -30 47 -30 95 -15 26 8 179 29 338 46 484 51 573 61 602
71 24 7 23 8 -12 4 -238 -25 -514 -46 -542 -40 -38 7 -67 45 -78 101 -3 19 -9
34 -13 35 -4 0 -23 2 -43 4 -27 3 -38 -1 -48 -17z"/>
<path d="M5247 4900 c3 -11 10 -17 15 -14 5 3 16 -2 23 -12 8 -11 15 -14 15
-8 0 11 -23 34 -47 47 -7 5 -9 0 -6 -13z"/>
<path d="M7570 4703 c-12 -15 -23 -27 -23 -26 -4 6 -47 -10 -47 -17 0 -12 30
-20 54 -14 14 3 25 18 33 42 15 47 11 50 -17 15z"/>
<path d="M8333 4713 c9 -2 23 -2 30 0 6 3 -1 5 -18 5 -16 0 -22 -2 -12 -5z"/>
<path d="M7157 4619 c-38 -4 -72 -11 -75 -15 -9 -9 161 3 208 15 34 9 33 9
-15 9 -27 0 -81 -4 -118 -9z"/>
<path d="M7445 4605 c-44 -6 -129 -15 -190 -19 -116 -6 -181 -18 -198 -35 -5
-5 -12 -31 -14 -58 -5 -52 25 -127 59 -147 18 -11 123 3 224 29 27 7 90 16
140 19 l89 7 -33 -29 c-18 -16 -49 -34 -70 -40 -20 -7 -50 -23 -67 -37 l-30
-25 54 27 c46 23 66 27 141 28 74 0 93 -3 117 -21 15 -11 35 -23 44 -26 13 -5
15 -14 10 -40 -7 -35 -37 -50 -53 -26 -7 10 -15 5 -38 -21 -26 -31 -36 -35
-81 -37 -29 -2 -58 -9 -68 -18 -10 -9 -21 -16 -25 -16 -4 0 -13 -6 -20 -13
-11 -10 -9 -18 8 -43 12 -17 28 -30 38 -28 17 2 55 -32 46 -41 -3 -3 -25 -9
-49 -13 l-44 -8 42 -7 c66 -11 226 25 348 78 17 8 52 23 78 34 l48 21 -58 48
c-174 145 -301 316 -319 431 -7 47 -3 46 -129 26z m25 -31 c-47 -7 -103 -12
-125 -12 -25 0 -8 5 45 13 47 7 103 12 125 12 23 0 5 -5 -45 -13z m-177 -21
c-7 -2 -21 -2 -30 0 -10 3 -4 5 12 5 17 0 24 -2 18 -5z"/>
<path d="M6800 4547 c-107 -18 -188 -33 -180 -35 19 -3 400 55 408 63 8 8 -21
4 -228 -28z"/>
<path d="M7000 4530 c-8 -15 -15 -18 -28 -11 -11 6 -75 1 -180 -14 -196 -28
-225 -34 -234 -49 -4 -6 -13 -11 -20 -11 -8 0 -13 -12 -12 -31 1 -22 -3 -30
-16 -31 -10 -1 -37 -7 -61 -14 l-44 -12 45 -14 c25 -8 56 -12 70 -9 14 2 32
-2 42 -11 25 -22 36 -22 445 23 l53 5 -22 42 c-15 29 -21 60 -21 100 1 31 -1
57 -3 57 -2 0 -8 -9 -14 -20z m-33 -77 c-3 -10 -5 -4 -5 12 0 17 2 24 5 18 2
-7 2 -21 0 -30z"/>
<path d="M6280 4381 c34 -27 206 -130 305 -182 44 -23 92 -50 107 -61 27 -19
53 -24 44 -9 -8 12 -259 157 -381 220 -55 28 -89 43 -75 32z"/>
<path d="M2215 4329 c-44 -23 -86 -48 -93 -57 -7 -9 -25 -17 -41 -18 -41 -2
-198 -90 -204 -114 -3 -14 -14 -20 -32 -20 -36 0 -216 -98 -223 -122 -3 -12
-14 -18 -34 -18 -38 0 -219 -97 -226 -122 -3 -12 -14 -18 -33 -18 -37 0 -236
-106 -244 -129 -4 -12 -19 -20 -43 -23 -21 -3 -60 -19 -87 -35 -89 -53 -171
-95 -145 -74 14 11 29 21 34 21 5 0 7 2 4 5 -4 5 -44 -14 -130 -63 -20 -12
-56 -31 -79 -42 -33 -17 -39 -24 -28 -32 11 -8 10 -9 -4 -4 -12 4 -43 -7 -80
-27 -34 -19 -98 -53 -142 -77 -44 -23 -149 -81 -232 -129 l-153 -86 0 -587 0
-587 38 -10 c21 -6 53 -14 72 -17 l33 -7 -29 -24 c-39 -31 -57 -29 -71 7 -6
17 -18 30 -27 30 -14 0 -16 -22 -16 -171 0 -152 2 -173 17 -184 17 -13 17 -14
0 -32 -19 -21 -25 -133 -7 -133 5 0 20 -11 33 -24 22 -22 71 -40 316 -117 77
-24 110 -30 127 -23 35 13 234 174 234 189 0 32 -40 54 -165 90 -249 71 -241
70 -287 51 -54 -21 -49 -16 112 94 271 187 260 178 260 209 0 16 -6 33 -13 38
-6 6 -75 27 -152 47 -186 49 -175 44 -136 68 l33 21 28 -30 c29 -30 54 -39
250 -86 87 -20 95 -24 95 -46 0 -40 41 -59 232 -107 l182 -46 73 42 c98 56
168 107 168 124 0 37 -37 56 -191 100 -86 25 -173 48 -193 51 -31 6 -36 11
-36 35 0 15 -8 34 -17 42 -10 8 -88 32 -173 53 -85 21 -156 39 -158 40 -2 2
13 11 34 21 l37 18 23 -27 c19 -22 48 -33 166 -63 90 -22 155 -34 176 -30 l33
5 -22 -18 c-22 -18 -22 -18 -3 -44 24 -33 82 -55 257 -98 115 -28 142 -31 167
-22 17 6 86 51 155 99 117 82 125 90 125 120 0 21 -7 37 -17 43 -13 8 0 9 45
4 l62 -6 93 70 c151 113 205 152 391 278 286 194 533 365 649 450 96 71 107
82 107 110 0 28 -5 33 -37 43 l-38 11 35 -5 c137 -20 126 -23 233 56 83 62 97
77 97 101 0 22 -6 30 -22 33 -13 3 -91 22 -174 42 l-151 36 -119 -82 c-65 -45
-120 -84 -122 -85 -11 -10 23 -44 49 -50 17 -4 28 -9 26 -12 -3 -2 -29 2 -60
10 -43 12 -60 12 -83 2 -16 -7 -157 -97 -314 -202 -281 -187 -338 -223 -291
-185 20 16 22 23 14 48 -9 26 -17 30 -139 61 -71 18 -142 33 -158 33 -36 0
-226 -117 -226 -139 0 -28 15 -41 61 -55 59 -19 28 -20 -41 -1 -30 8 -68 15
-85 15 l-30 0 43 26 c37 22 42 30 42 61 0 35 0 35 35 29 23 -5 45 -2 65 9 59
31 171 107 176 120 13 33 -15 53 -106 75 -50 12 -89 24 -87 27 3 2 62 -10 132
-27 103 -25 133 -30 152 -21 39 18 17 -6 -32 -34 -91 -54 -65 -80 127 -124
165 -38 150 -41 273 45 103 72 93 91 -72 133 -145 37 -180 38 -227 10 -61 -36
-40 -14 35 35 68 46 71 49 66 81 l-5 33 34 -11 c40 -12 51 -8 152 57 57 38 72
52 72 72 0 16 -8 28 -22 35 -22 9 -22 9 2 4 93 -19 92 -20 175 37 64 42 81 59
83 81 4 33 -2 34 -43 2 -39 -29 -50 -33 -51 -20 -1 6 12 20 28 32 l30 21 -59
12 c-32 6 -69 16 -83 21 l-25 9 25 -4 c14 -3 77 -15 141 -27 l117 -23 73 50
c49 33 75 58 77 72 2 12 1 22 -2 22 -3 0 -39 -20 -79 -45 -83 -50 -113 -54
-222 -32 -44 10 -56 15 -45 22 8 5 17 10 20 11 3 0 13 4 24 9 12 5 21 3 28 -6
8 -12 9 -11 5 1 -2 8 -13 20 -25 26 -31 15 -17 23 31 17 23 -3 39 -2 34 3 -4
4 5 13 20 20 26 11 26 12 6 13 -13 1 -23 5 -23 10 0 21 -42 22 -78 3 -142 -76
-147 -79 -150 -106 -3 -23 -8 -26 -39 -26 -26 0 -59 -15 -125 -57 -78 -49 -89
-59 -84 -79 6 -21 3 -22 -26 -18 -33 5 -56 -4 -141 -56 l-38 -23 3 34 c3 33 4
34 40 31 31 -3 53 6 123 48 75 45 85 55 85 80 0 27 2 29 38 27 52 -2 202 87
202 120 0 26 -16 30 -39 10 -9 -8 -33 -24 -54 -37 -38 -23 -39 -23 -26 -1 8
11 19 21 25 21 6 0 19 9 28 19 17 18 17 19 -1 24 -39 10 26 7 76 -4 41 -9 55
-8 83 7 64 33 138 87 138 100 0 21 -12 17 -86 -26 -77 -45 -113 -49 -203 -26
-65 18 -78 29 -31 26 19 -2 53 1 76 5 33 6 40 11 39 28 -1 11 -7 23 -13 25 -7
2 -10 8 -6 13 3 5 0 9 -5 9 -6 0 -10 5 -8 12 5 27 -38 17 -123 -29 -73 -38
-90 -52 -90 -70 0 -21 -5 -23 -45 -23 -25 0 -45 2 -45 4 0 2 16 14 35 26 19
12 35 30 35 40 0 13 10 19 43 22 48 6 187 90 187 113 0 23 -17 18 -82 -21 -58
-36 -149 -60 -134 -36 4 7 16 12 28 12 19 0 19 1 -3 19 l-23 18 23 12 c12 7
32 12 44 11 63 -5 59 10 -8 29 -22 7 -49 16 -60 21 -11 4 -28 11 -39 14 -18 6
-18 7 -1 26 10 11 15 28 12 39 -4 17 0 18 34 14 32 -5 50 1 108 36 106 63 113
84 33 100 -76 15 -77 15 -167 -30z m167 21 c34 0 15 -21 -52 -57 -48 -25 -73
-33 -94 -29 -41 8 -41 10 -9 42 28 29 96 56 121 48 8 -2 23 -4 34 -4z m-202
-120 c0 -13 -35 -31 -95 -46 -64 -17 -75 -17 -75 1 0 8 17 19 43 26 23 6 51
15 62 19 28 12 65 12 65 0z m6 -158 c-9 -2 -25 -1 -34 3 -15 6 -15 8 3 15 12
4 26 3 34 -4 12 -9 11 -12 -3 -14z m-169 -10 c-10 -10 -17 -24 -17 -30 0 -15
-16 -23 -33 -16 -25 9 11 64 42 64 23 0 23 -1 8 -18z m-217 -22 c0 -5 -4 -10
-10 -10 -5 0 -10 5 -10 10 0 6 5 10 10 10 6 0 10 -4 10 -10z m150 -94 c0 -3
-4 -8 -10 -11 -5 -3 -10 -1 -10 4 0 6 5 11 10 11 6 0 10 -2 10 -4z m513 -6
c17 0 17 -1 2 -17 -13 -13 -24 -14 -53 -7 -19 5 -38 15 -40 23 -4 11 3 13 34
8 22 -4 47 -7 57 -7z m-707 -26 c-3 -9 -6 -20 -6 -25 0 -5 -9 -9 -20 -9 -17 0
-18 3 -8 25 12 27 44 36 34 9z m271 -129 c-21 -15 -37 -34 -37 -45 0 -17 -7
-20 -41 -20 l-42 0 34 23 c19 12 35 33 37 45 3 19 10 22 45 22 l42 0 -38 -25z
m218 -7 c19 -28 7 -33 -42 -17 -34 11 -35 13 -18 25 26 20 41 17 60 -8z m-755
-23 c0 -8 -4 -15 -10 -15 -5 0 -10 7 -10 15 0 8 5 15 10 15 6 0 10 -7 10 -15z
m330 -90 c0 -2 -18 -14 -40 -25 -38 -19 -45 -29 -41 -57 1 -9 -12 -13 -41 -13
l-43 1 33 14 c18 8 36 24 41 36 5 14 22 27 47 35 21 6 40 12 42 13 1 1 2 -1 2
-4z m191 -25 c10 -6 19 -15 19 -20 0 -15 -58 -22 -81 -9 -22 11 -22 12 -4 25
22 17 40 18 66 4z m447 -65 c2 -6 -4 -12 -13 -13 -25 -6 -85 8 -85 18 0 13 94
7 98 -5z m64 -41 c-11 -8 -33 -18 -49 -24 l-28 -10 25 20 c14 11 31 20 38 20
6 0 12 5 12 11 0 5 5 7 11 4 6 -5 3 -12 -9 -21z m-1745 0 c-3 -3 -12 -4 -19
-1 -8 3 -5 6 6 6 11 1 17 -2 13 -5z m728 -54 c-3 -5 -13 -10 -21 -10 -8 0 -12
5 -9 10 3 6 13 10 21 10 8 0 12 -4 9 -10z m835 0 c20 -6 21 -8 5 -8 -11 0 -29
3 -40 8 -25 11 1 11 35 0z m-591 -16 c10 -9 -35 -3 -49 6 -11 8 -7 9 15 4 17
-4 32 -8 34 -10z m-279 -39 c0 -17 -2 -18 -25 -9 -13 5 -14 8 -3 15 19 13 28
11 28 -6z m748 -1 c2 -1 -6 -8 -18 -14 -24 -13 -100 -4 -100 12 0 6 7 8 15 4
8 -3 15 -1 15 3 0 8 79 3 88 -5z m-298 -39 c0 -23 -3 -25 -47 -25 l-48 0 40
24 c51 31 55 31 55 1z m1304 10 c20 -10 33 -12 41 -5 12 10 25 4 25 -11 0 -4
-15 -16 -34 -27 -54 -32 -99 -7 -81 46 6 16 14 15 49 -3z m-1414 -50 c0 -5
-84 -55 -93 -55 -4 0 -5 10 -3 23 2 18 11 23 47 28 24 3 45 7 47 7 1 1 2 0 2
-3z m-315 -35 c3 -6 -1 -7 -9 -4 -18 7 -21 14 -7 14 6 0 13 -4 16 -10z m434
-45 c14 -4 19 -11 14 -16 -9 -9 -73 16 -73 27 0 5 6 4 59 -11z m-739 -5 c0 -5
-8 -10 -17 -10 -15 0 -16 2 -3 10 19 12 20 12 20 0z m464 -45 c4 -14 14 -25
24 -26 9 0 13 -2 7 -5 -5 -2 -32 2 -60 9 l-50 14 30 16 c40 21 42 21 49 -8z
m1326 10 l55 -15 -49 6 c-27 3 -58 9 -70 14 -34 14 3 11 64 -5z m-1450 -53 c0
-6 -66 -42 -77 -42 -7 0 -13 11 -13 25 0 24 3 25 45 23 25 -2 45 -4 45 -6z
m-339 -40 c-7 -2 -18 1 -23 6 -8 8 -4 9 13 5 13 -4 18 -8 10 -11z m479 -32
l25 -8 -29 -1 c-19 -1 -26 -5 -23 -14 4 -10 -3 -12 -24 -9 -16 2 -32 9 -35 14
-3 5 0 9 7 7 8 -1 21 -1 29 0 13 1 13 2 0 11 -12 8 -11 10 5 9 11 -1 31 -5 45
-9z m540 -10 c13 -7 12 -10 -5 -16 -11 -4 -22 -11 -25 -16 -8 -11 -82 11 -75
23 4 5 13 9 21 9 9 0 12 5 8 11 -7 12 48 4 76 -11z m-1310 -10 c0 -5 -4 -10
-10 -10 -5 0 -10 5 -10 10 0 6 5 10 10 10 6 0 10 -4 10 -10z m474 -36 c9 -24
9 -25 -34 -22 -22 2 -40 4 -40 5 0 4 54 32 61 33 4 0 10 -7 13 -16z m-114 -38
c0 -9 -84 -55 -92 -50 -4 3 -8 13 -8 23 0 13 7 18 23 17 17 -2 47 4 75 13 1 1
2 -1 2 -3z m73 -83 c-26 -10 -12 -23 25 -22 27 0 32 2 18 8 -11 4 -15 10 -10
14 14 8 38 -9 30 -22 -8 -12 -54 -15 -80 -5 -13 5 -14 9 -5 20 6 8 17 14 23
13 7 0 6 -2 -1 -6z m602 -23 c0 -11 -10 -15 -37 -14 -46 1 -71 11 -63 24 11
17 100 8 100 -10z m-855 -30 c0 -5 9 -19 21 -31 19 -19 19 -20 2 -16 -10 3
-35 9 -56 13 l-38 6 28 19 c33 21 43 23 43 9z m-146 -71 c-3 -5 -18 -16 -34
-24 -25 -13 -29 -13 -34 1 -13 33 -7 40 34 36 22 -2 37 -8 34 -13z m263 5 c-3
-3 -12 -4 -19 -1 -8 3 -5 6 6 6 11 1 17 -2 13 -5z m833 -14 c-31 -25 -360
-247 -420 -285 -25 -15 -38 -19 -28 -10 27 29 5 72 -43 85 -21 5 -57 15 -80
21 -23 6 -39 12 -37 14 2 2 57 -9 122 -25 138 -34 135 -35 256 52 77 55 94 84
69 114 -11 14 -6 15 47 9 53 -6 62 -4 93 19 41 30 58 35 21 6z m-263 4 c-3 -3
-12 -4 -19 -1 -8 3 -5 6 6 6 11 1 17 -2 13 -5z m-1177 -19 c0 -8 -4 -15 -10
-15 -5 0 -10 7 -10 15 0 8 5 15 10 15 6 0 10 -7 10 -15z m1217 9 c-3 -3 -12
-4 -19 -1 -8 3 -5 6 6 6 11 1 17 -2 13 -5z m-438 -18 l55 -12 -38 -24 c-40
-24 -55 -18 -56 22 0 9 -6 19 -12 21 -22 9 -5 7 51 -7z m256 -38 c14 -6 25
-15 25 -20 0 -11 -72 -10 -90 2 -12 7 -8 10 15 10 23 0 27 3 15 10 -21 14 3
13 35 -2z m-555 -19 c10 -6 4 -7 -15 -3 -16 4 -37 11 -45 15 -10 6 -4 7 15 3
17 -4 37 -11 45 -15z m-780 1 c0 -5 -2 -10 -4 -10 -3 0 -8 5 -11 10 -3 6 -1
10 4 10 6 0 11 -4 11 -10z m500 -56 c0 -15 -23 -17 -54 -5 -18 7 -18 8 4 24
25 18 50 8 50 -19z m561 -6 c8 -16 6 -17 -23 -12 -61 11 -64 14 -33 34 30 20
32 19 56 -22z m-731 -39 c0 -10 -50 -33 -57 -25 -20 20 -10 36 23 33 19 -1 34
-5 34 -8z m-353 -35 c-3 -3 -12 -4 -19 -1 -8 3 -5 6 6 6 11 1 17 -2 13 -5z
m861 -9 c1 -1 -20 -17 -48 -35 -27 -18 -50 -34 -50 -36 0 -1 5 -15 12 -29 12
-27 11 -27 203 -74 136 -33 140 -32 236 34 48 33 44 26 -13 -20 -22 -18 -23
-34 -3 -41 32 -13 13 -24 -40 -24 -37 0 -65 -6 -87 -20 -42 -25 -43 -25 -46 7
-1 15 -5 30 -10 34 -11 11 -251 72 -300 77 l-43 4 46 29 c53 33 62 51 46 85
l-11 25 53 -7 c28 -4 53 -8 55 -9z m-343 -28 c39 -30 -13 -49 -72 -26 -27 10
-27 11 -9 25 25 18 57 18 81 1z m505 -2 c-10 -12 -7 -15 13 -20 14 -4 35 -1
47 5 18 10 21 9 18 -2 -5 -16 -77 -22 -97 -9 -12 8 -12 12 -2 25 8 9 18 16 23
16 6 0 5 -6 -2 -15z m-816 -70 c7 -20 -4 -24 -44 -16 l-34 7 23 16 c25 18 46
15 55 -7z m-174 -53 c0 -13 -47 -35 -59 -28 -25 16 -11 36 24 36 19 0 35 -4
35 -8z m488 -69 c-53 -33 -68 -34 -68 -4 0 9 -5 22 -10 27 -7 7 11 10 59 10
l70 -1 -51 -32z m-388 -12 c0 -6 12 -6 28 -2 42 12 75 -8 36 -23 -9 -3 -12 -2
-9 5 5 6 -6 9 -31 7 -23 -2 -39 2 -41 10 -3 6 0 12 6 12 6 0 11 -4 11 -9z
m669 -7 c2 -2 -5 -7 -15 -11 -10 -3 -22 -11 -26 -17 -5 -8 -11 -7 -20 2 -6 6
-23 12 -37 12 -24 0 -24 1 -6 14 16 12 90 12 104 0z m638 -20 c-3 -3 -12 -4
-19 -1 -8 3 -5 6 6 6 11 1 17 -2 13 -5z m102 -20 c13 -12 -10 -11 -49 1 l-45
15 45 -6 c25 -4 47 -8 49 -10z m-1662 -38 c0 -8 -5 -13 -11 -11 -6 2 -24 6
-41 10 l-30 7 24 19 c22 18 26 18 41 4 9 -8 17 -21 17 -29z m341 -91 c2 -2
-16 -15 -40 -29 -46 -27 -52 -26 -62 16 l-6 27 52 -6 c29 -3 54 -7 56 -8z
m207 -45 c4 -6 15 -8 26 -5 10 4 19 2 19 -4 0 -20 -50 -24 -70 -6 -11 10 -26
15 -35 12 -21 -9 -19 10 2 22 18 10 46 0 58 -19z m-550 10 c3 -5 2 -10 -4 -10
-5 0 -17 -7 -26 -16 -14 -15 -18 -15 -40 0 -14 9 -25 21 -25 26 0 13 87 13 95
0z m1260 -100 c25 -11 -1 -11 -35 0 -20 6 -21 8 -5 8 11 0 29 -3 40 -8z m-139
-72 c4 -7 -4 -20 -20 -32 -15 -12 -42 -34 -59 -50 -29 -27 -107 -49 -107 -30
0 11 62 74 72 74 5 0 26 11 46 25 41 28 57 31 68 13z m-361 -4 c14 -6 14 -8
-1 -25 -20 -22 -54 -25 -54 -6 0 14 19 37 31 37 4 0 15 -3 24 -6z m-418 -551
c2 -6 -7 -19 -20 -28 -19 -12 -31 -13 -51 -6 -32 13 -33 24 -3 39 27 14 69 11
74 -5z"/>
<path d="M1968 3623 c6 -2 18 -2 25 0 6 3 1 5 -13 5 -14 0 -19 -2 -12 -5z"/>
<path d="M721 2531 c-10 -6 -5 -11 18 -16 29 -6 51 -1 40 9 -12 10 -46 14 -58
7z"/>
<path d="M8220 4335 c-7 -9 -8 -15 -2 -15 5 0 12 7 16 15 3 8 4 15 2 15 -2 0
-9 -7 -16 -15z"/>
<path d="M7388 4333 c7 -3 16 -2 19 1 4 3 -2 6 -13 5 -11 0 -14 -3 -6 -6z"/>
<path d="M2494 4315 c-23 -17 -14 -19 19 -4 17 8 38 7 80 -4 31 -8 59 -12 62
-9 6 7 -86 31 -121 32 -11 0 -29 -7 -40 -15z"/>
<path d="M7310 4320 c8 -5 20 -10 25 -10 6 0 3 5 -5 10 -8 5 -19 10 -25 10 -5
0 -3 -5 5 -10z"/>
<path d="M7240 4315 c0 -4 69 -45 77 -45 3 0 0 6 -6 14 -11 13 -71 40 -71 31z"/>
<path d="M1635 4140 c-3 -6 1 -7 9 -4 18 7 21 14 7 14 -6 0 -13 -4 -16 -10z"/>
<path d="M2628 4120 c-47 -14 -158 -80 -158 -94 0 -8 6 -18 13 -23 14 -12 220
-56 257 -56 28 0 148 70 164 96 21 32 -4 29 -66 -10 -35 -22 -73 -43 -85 -47
-21 -7 -180 22 -234 42 -23 9 -22 10 17 21 23 6 47 18 54 26 7 8 24 15 39 15
29 0 45 9 49 28 2 14 -10 14 -50 2z"/>
<path d="M6756 4107 c7 -16 115 -78 128 -74 12 5 -64 53 -76 49 -5 -1 -8 2 -8
6 0 5 -11 14 -25 20 -18 9 -23 8 -19 -1z"/>
<path d="M6717 4089 c7 -7 15 -10 18 -7 3 3 -2 9 -12 12 -14 6 -15 5 -6 -5z"/>
<path d="M2970 4048 c-45 -28 -44 -27 -38 -33 8 -8 66 24 72 40 7 19 8 19 -34
-7z"/>
<path d="M6770 4055 c0 -2 10 -10 23 -16 20 -11 21 -11 8 4 -13 16 -31 23 -31
12z"/>
<path d="M7941 4020 c-50 -36 -103 -92 -154 -164 l-22 -31 35 27 c40 31 112
58 154 58 33 0 76 -40 76 -70 0 -28 -21 -70 -35 -70 -7 0 -18 -7 -25 -15 -7
-8 -16 -13 -20 -10 -4 2 -26 -3 -50 -12 -43 -17 -129 -97 -130 -120 0 -7 -4
-13 -10 -13 -5 0 -10 -7 -10 -15 0 -8 -9 -24 -20 -35 -21 -21 -27 -60 -10 -60
5 0 7 -7 4 -15 -4 -8 -12 -15 -18 -15 -15 0 -50 -38 -59 -62 -7 -19 9 -16 57
13 51 31 50 9 -1 -23 l-47 -30 23 -19 c13 -11 61 -42 106 -69 l84 -50 44 21
c43 21 47 21 81 5 96 -45 373 -114 509 -126 59 -5 116 -14 128 -20 11 -7 22
-10 24 -8 1 2 -6 22 -16 45 -13 31 -27 46 -55 58 -60 25 -245 84 -302 96 -28
6 -50 14 -47 19 3 4 40 29 83 54 42 25 100 65 127 90 l50 44 -29 54 c-81 149
-251 356 -346 421 -25 17 -60 43 -78 59 -18 15 -36 28 -40 28 -4 0 -31 -18
-61 -40z m-74 -598 c-10 -23 -16 -29 -27 -22 -8 6 -31 10 -50 10 -33 1 -32 2
25 24 33 12 61 22 63 21 1 -1 -4 -16 -11 -33z"/>
<path d="M6825 4020 c3 -5 14 -10 23 -10 15 0 15 2 2 10 -20 13 -33 13 -25 0z"/>
<path d="M2756 3921 c-142 -81 -136 -98 48 -136 71 -15 140 -24 153 -20 41 10
143 87 143 107 0 25 -7 23 -75 -23 -33 -22 -71 -42 -85 -46 -23 -6 -140 14
-225 39 l-40 11 45 9 c25 4 54 5 65 2 15 -4 16 -3 6 4 -22 15 -5 42 26 42 15
0 36 7 46 15 18 13 18 14 -2 24 -27 15 -27 15 -105 -28z"/>
<path d="M3259 3867 c6 -8 8 -16 5 -19 -2 -3 7 -5 21 -5 29 0 30 1 9 21 -20
20 -52 22 -35 3z"/>
<path d="M8929 3840 c-5 -32 -66 -48 -86 -22 -11 15 -11 15 -7 -4 3 -12 1 -25
-5 -28 -7 -5 -7 -15 -1 -32 13 -34 5 -44 -35 -44 -19 0 -37 -4 -40 -10 -3 -5
-15 -10 -26 -10 -24 0 -24 -12 1 -35 11 -10 20 -27 20 -37 0 -12 12 -24 33
-33 31 -14 31 -14 7 -16 -45 -4 -49 -4 -55 -10 -10 -11 38 -19 75 -13 40 7 89
6 101 -2 4 -2 6 -11 3 -18 -3 -8 -1 -17 5 -21 19 -11 12 -25 -11 -25 -22 -1
-22 -1 3 -15 16 -9 40 -12 67 -8 53 7 55 23 2 23 -22 0 -40 5 -40 10 0 6 7 10
16 10 8 0 13 4 9 9 -3 5 -1 12 4 16 5 3 13 -1 18 -9 14 -25 53 -34 89 -21 19
6 37 14 40 18 4 4 18 4 30 1 15 -4 24 -2 24 5 0 6 -9 11 -21 11 -15 0 -20 5
-17 23 2 18 -2 23 -25 25 -15 2 -25 8 -22 13 9 13 43 11 47 -3 3 -7 12 -9 23
-4 16 6 17 9 5 16 -16 10 -8 14 23 10 16 -1 16 1 3 32 -8 18 -17 41 -20 51 -3
11 -15 17 -34 17 -16 0 -36 -8 -45 -17 -13 -15 -14 -21 -2 -37 12 -16 12 -22
-2 -42 -17 -27 -41 -31 -49 -10 -3 8 -12 12 -19 10 -7 -3 -16 -1 -20 5 -3 6 1
11 9 11 9 0 16 3 16 8 0 12 -50 31 -66 25 -22 -8 -44 4 -38 22 10 24 69 19 87
-7 12 -19 17 -21 29 -10 11 11 10 15 -4 26 -9 6 -19 29 -23 49 -5 26 -12 37
-25 37 -13 0 -17 6 -13 18 2 10 -5 29 -15 42 l-20 25 -3 -25z m-51 -93 c2 -28
-1 -37 -12 -37 -12 0 -16 11 -16 41 0 52 24 48 28 -4z m207 -226 c-3 -6 -11
-11 -17 -11 -6 0 -6 6 2 15 14 17 26 13 15 -4z"/>
<path d="M3053 3794 c-66 -29 -143 -84 -143 -104 0 -10 5 -22 10 -25 15 -9
240 -55 269 -55 28 0 160 75 168 95 12 32 -10 33 -60 1 -110 -69 -108 -68
-237 -36 -80 19 -104 28 -80 29 20 1 41 -4 48 -11 9 -9 12 -9 12 1 0 9 9 11
31 6 22 -5 34 -3 40 6 6 11 -2 17 -32 24 -22 6 -40 15 -40 20 0 17 39 17 71 1
17 -8 27 -10 24 -4 -4 6 2 8 17 4 18 -4 17 -2 -5 8 -20 9 -25 15 -15 19 10 4
11 6 1 6 -7 1 -10 6 -7 11 3 6 2 10 -4 10 -5 0 -15 2 -23 4 -7 2 -27 -2 -45
-10z m44 -90 c-3 -3 -12 -4 -19 -1 -8 3 -5 6 6 6 11 1 17 -2 13 -5z"/>
<path d="M3170 3760 c20 -13 33 -13 25 0 -3 6 -14 10 -23 10 -15 0 -15 -2 -2
-10z"/>
<path d="M1040 3719 c-19 -10 -27 -19 -18 -19 8 0 26 9 39 20 30 24 24 24 -21
-1z"/>
<path d="M3156 3715 c4 -8 11 -15 16 -15 6 0 5 6 -2 15 -7 8 -14 15 -16 15 -2
0 -1 -7 2 -15z"/>
<path d="M3572 3655 c-45 -31 -51 -38 -42 -55 9 -17 61 -35 135 -46 30 -5 95
26 95 45 0 18 -39 22 -62 7 -26 -16 -81 -19 -75 -3 2 6 21 16 43 23 21 6 33
12 26 13 -6 1 -22 12 -34 26 -12 14 -24 25 -27 25 -4 0 -30 -16 -59 -35z m82
-10 c3 -8 1 -15 -4 -15 -6 0 -10 7 -10 15 0 8 2 15 4 15 2 0 6 -7 10 -15z"/>
<path d="M9390 3670 c0 -5 5 -10 11 -10 5 0 7 5 4 10 -3 6 -8 10 -11 10 -2 0
-4 -4 -4 -10z"/>
<path d="M2800 3634 c-25 -15 -47 -31 -50 -34 -3 -4 -15 -10 -26 -14 -12 -4
-30 -16 -40 -27 -15 -17 -16 -21 -3 -34 14 -14 244 -75 284 -75 22 0 130 67
159 98 8 10 12 23 8 29 -6 9 -28 -1 -76 -33 -73 -49 -113 -60 -161 -45 l-30 9
30 7 c31 7 66 56 45 63 -6 2 -8 8 -4 13 3 5 -3 9 -12 9 -16 0 -16 1 2 14 25
19 9 36 -42 42 -30 4 -49 -1 -84 -22z m76 -38 c3 -8 1 -23 -5 -33 -10 -17 -10
-17 -11 0 0 10 -8 17 -20 17 -25 0 -26 17 -2 23 30 8 32 7 38 -7z"/>
<path d="M3186 3568 c-58 -39 -76 -56 -74 -72 4 -23 25 -30 221 -76 l138 -33
53 37 c73 50 99 80 92 104 -4 11 -18 23 -31 26 -19 5 -34 -3 -75 -44 -50 -49
-82 -62 -96 -38 -10 15 60 76 100 86 27 8 17 12 -84 35 -63 15 -127 27 -141
27 -14 0 -60 -23 -103 -52z m150 30 c11 -18 -25 -39 -48 -27 -15 8 -17 13 -7
25 14 17 45 18 55 2z m64 -38 c0 -4 -7 -10 -15 -14 -8 -3 -15 -4 -15 -2 0 3
-3 11 -6 19 -4 12 0 14 15 10 12 -3 21 -9 21 -13z m150 -65 c0 -11 -91 -65
-111 -65 -20 0 -18 3 11 18 19 11 49 26 65 35 33 18 35 19 35 12z"/>
<path d="M7450 3520 c-9 -6 -10 -10 -3 -10 6 0 15 5 18 10 8 12 4 12 -15 0z"/>
<path d="M2575 3492 c-80 -45 -145 -96 -145 -114 0 -25 21 -33 175 -67 85 -19
137 -26 152 -20 11 4 51 29 88 56 54 39 65 52 63 72 -3 22 -13 27 -133 57
-149 38 -159 39 -200 16z m76 -52 c11 0 17 -4 14 -10 -7 -12 -75 -14 -75 -2 0
15 13 23 28 17 7 -3 23 -5 33 -5z m203 -30 c-21 -16 -44 -30 -51 -30 -6 0 -13
-5 -15 -10 -2 -6 -13 -12 -25 -14 -12 -3 -31 -9 -42 -15 -27 -15 -31 -14 -25
4 4 8 14 15 23 15 23 0 41 19 34 36 -3 9 2 14 16 14 12 0 21 4 21 8 0 4 17 9
37 10 21 2 39 5 42 7 2 3 9 5 14 5 6 0 -7 -13 -29 -30z"/>
<path d="M9095 3490 c-19 -8 -19 -9 3 -9 12 -1 22 4 22 9 0 6 -1 10 -2 9 -2 0
-12 -4 -23 -9z"/>
<path d="M8890 3415 c0 -9 5 -15 11 -13 6 2 11 8 11 13 0 5 -5 11 -11 13 -6 2
-11 -4 -11 -13z"/>
<path d="M8960 3360 c0 -5 7 -7 15 -4 8 4 15 8 15 10 0 2 -7 4 -15 4 -8 0 -15
-4 -15 -10z"/>
<path d="M2335 3339 c-53 -31 -154 -100 -160 -108 -3 -6 -1 -19 4 -30 8 -14
43 -27 142 -50 72 -17 143 -31 158 -31 30 0 179 93 188 117 12 31 -15 47 -123
75 -135 36 -183 42 -209 27z m136 -69 c28 0 23 -19 -6 -26 -14 -3 -25 -10 -25
-15 0 -12 -24 -11 -55 3 -28 12 -33 28 -10 28 8 0 15 5 15 11 0 8 11 9 31 5
17 -3 40 -6 50 -6z m139 -24 c0 -2 -8 -10 -17 -17 -16 -13 -17 -12 -4 4 13 16
21 21 21 13z"/>
<path d="M9337 3315 c-20 -8 -62 -15 -93 -16 -30 -1 -57 -6 -60 -10 -2 -4 -29
-5 -59 -2 -36 4 -55 2 -55 -5 0 -16 51 -53 82 -59 16 -3 31 -10 34 -14 3 -5
25 -9 50 -9 24 0 44 -4 44 -9 0 -19 40 -22 94 -8 40 11 56 12 60 3 2 -6 5 -4
5 4 1 9 17 24 36 34 34 18 46 36 25 36 -5 0 -10 7 -10 15 0 8 -9 15 -20 15
-10 0 -23 6 -27 14 -12 21 -64 26 -106 11z"/>
<path d="M3624 3210 c-21 -8 -199 -138 -679 -495 -126 -94 -281 -208 -342
-254 -62 -46 -113 -85 -113 -87 0 -9 23 8 782 570 321 238 353 259 401 266 49
7 49 8 12 8 -22 0 -50 -3 -61 -8z"/>
<path d="M9485 3200 c3 -5 12 -10 20 -10 8 0 17 5 20 10 4 6 -5 10 -20 10 -15
0 -24 -4 -20 -10z"/>
<path d="M4028 3143 c7 -3 16 -2 19 1 4 3 -2 6 -13 5 -11 0 -14 -3 -6 -6z"/>
<path d="M4068 3133 c7 -3 16 -2 19 1 4 3 -2 6 -13 5 -11 0 -14 -3 -6 -6z"/>
<path d="M4158 3113 c7 -3 16 -2 19 1 4 3 -2 6 -13 5 -11 0 -14 -3 -6 -6z"/>
<path d="M4198 3103 c7 -3 16 -2 19 1 4 3 -2 6 -13 5 -11 0 -14 -3 -6 -6z"/>
<path d="M4250 3090 c14 -4 34 -8 45 -8 16 0 15 2 -5 8 -14 4 -34 8 -45 8 -16
0 -15 -2 5 -8z"/>
<path d="M4340 3070 c14 -4 34 -8 45 -8 16 0 15 2 -5 8 -14 4 -34 8 -45 8 -16
0 -15 -2 5 -8z"/>
<path d="M7110 2535 c-7 -8 -18 -15 -25 -15 -7 0 -18 -6 -24 -14 -14 -16 4
-26 48 -26 15 0 32 -5 39 -12 17 -17 16 3 -2 47 -17 40 -19 41 -36 20z"/>
<path d="M2449 2343 c-13 -16 -12 -17 4 -4 9 7 17 15 17 17 0 8 -8 3 -21 -13z"/>
<path d="M2339 2263 c-13 -16 -12 -17 4 -4 9 7 17 15 17 17 0 8 -8 3 -21 -13z"/>
<path d="M4640 2076 c-17 -19 -20 -31 -15 -54 5 -25 1 -34 -32 -62 -60 -53
-553 -534 -553 -541 0 -3 10 -5 23 -4 32 3 39 -4 23 -21 -9 -8 -12 -22 -9 -31
4 -11 3 -14 -5 -9 -8 5 -12 -1 -12 -17 0 -13 -12 -37 -26 -52 -22 -24 -46 -57
-89 -123 -5 -9 -23 -31 -40 -50 -41 -48 -65 -77 -95 -115 -14 -18 -240 -247
-502 -509 -263 -262 -478 -480 -478 -483 0 -3 95 -5 210 -5 187 1 238 7 198
23 -7 3 -1 6 14 6 15 1 33 8 42 16 8 8 19 15 25 15 6 0 11 6 11 13 0 18 87 80
100 72 5 -3 10 1 10 9 0 8 11 23 25 34 14 11 25 25 25 32 0 6 5 8 11 5 6 -4
25 8 42 27 18 19 48 45 67 58 19 13 48 38 65 54 16 17 48 46 70 65 34 29 231
216 465 441 319 308 414 397 500 470 36 30 71 62 77 70 16 19 8 117 -19 220
-11 41 -21 103 -23 136 -2 34 -15 99 -30 145 -14 46 -29 106 -32 132 -3 26 -9
50 -13 52 -4 2 -17 -6 -30 -19z"/>
<path d="M520 1772 c-139 -94 -145 -108 -68 -146 29 -14 89 -35 133 -47 44
-12 105 -28 135 -36 99 -28 117 -24 226 49 120 79 131 90 118 126 -8 24 -24
30 -174 74 -253 72 -233 73 -370 -20z m431 -33 c20 -10 20 -11 3 -30 -9 -10
-23 -19 -30 -19 -7 0 -14 -4 -16 -8 -8 -21 -127 -94 -143 -88 -9 3 -15 11 -13
18 5 13 158 136 171 137 5 1 17 -4 28 -10z"/>
<path d="M0 568 l0 -35 123 -36 c67 -20 169 -50 227 -67 119 -35 270 -78 315
-90 17 -4 68 -19 115 -33 47 -14 141 -42 210 -62 69 -19 152 -44 185 -55 33
-11 87 -27 120 -36 33 -9 103 -29 155 -45 52 -16 118 -36 145 -43 28 -8 88
-27 135 -41 60 -19 101 -26 140 -23 l55 3 -135 42 c-607 186 -1758 543 -1772
548 -15 6 -18 1 -18 -27z"/>
<path d="M5190 513 c-66 -38 -182 -135 -286 -236 l-91 -90 -6 -64 c-3 -36 0
-77 6 -94 l11 -29 213 0 c194 0 213 2 222 18 5 10 20 23 33 30 13 7 31 26 40
43 10 16 31 35 48 40 17 6 35 20 41 30 14 27 -13 36 -65 20 -73 -22 -135 -35
-141 -29 -4 3 1 20 10 37 8 17 24 58 34 91 18 59 18 61 1 70 -10 6 -26 10 -35
10 -27 0 -28 28 -1 95 39 97 37 100 -34 58z"/>
</g>
</svg>
