<?xml version="1.0" standalone="no"?>
<!DOCTYPE svg PUBLIC "-//W3C//DTD SVG 20010904//EN"
 "http://www.w3.org/TR/2001/REC-SVG-20010904/DTD/svg10.dtd">
<svg version="1.0" xmlns="http://www.w3.org/2000/svg"
 width="1280.000000pt" height="854.000000pt" viewBox="0 0 1280.000000 854.000000"
 preserveAspectRatio="xMidYMid meet">

<g transform="translate(0.000000,854.000000) scale(0.100000,-0.100000)"
fill="#000000" stroke="none">
<path d="M0 4270 l0 -4270 1139 0 c1075 0 1139 1 1146 18 6 16 7 16 21 -2 8
-11 14 -14 14 -8 0 7 7 12 15 12 8 0 15 -4 15 -10 0 -5 14 -10 30 -10 17 0 30
5 30 10 0 6 -4 10 -10 10 -18 0 -48 37 -40 50 6 9 9 9 15 0 6 -9 10 -9 16 1 7
11 9 11 9 -1 0 -13 1 -13 10 0 8 12 10 9 10 -12 0 -33 20 -49 20 -16 1 22 1
22 15 4 13 -17 15 -18 15 -3 0 21 31 22 70 2 27 -14 30 -14 30 0 0 16 25 21
34 6 7 -11 29 -9 47 5 12 10 31 18 57 26 4 1 16 10 26 20 10 9 23 15 28 12 23
-14 -9 -99 -41 -107 -9 -3 23 -5 71 -6 l86 -1 78 98 c43 53 86 103 96 110 9 7
24 19 32 27 8 8 19 15 24 15 5 0 15 11 22 25 7 14 17 25 22 25 4 0 8 7 8 16 0
20 109 126 122 118 4 -3 8 0 8 7 0 7 3 9 7 6 3 -4 13 -2 20 5 11 9 17 9 24 -3
7 -11 9 -11 9 0 0 10 9 12 38 6 20 -3 40 -10 44 -13 4 -4 8 -40 10 -79 2 -40
7 -73 11 -73 12 0 4 -92 -9 -114 -7 -10 -47 -54 -90 -97 l-77 -79 1522 0
c1329 1 1521 3 1521 15 0 11 -11 15 -38 15 -21 0 -61 6 -88 14 -27 8 -83 17
-124 21 -41 3 -102 10 -135 15 -33 5 -89 12 -125 15 -118 11 -418 51 -1095
145 -115 16 -246 38 -290 49 -44 11 -105 23 -135 26 -123 15 -232 37 -277 56
-43 19 -46 22 -27 29 12 5 25 14 29 20 13 21 60 32 130 31 60 -1 72 1 86 20
14 19 17 19 22 5 4 -9 2 -15 -6 -13 -7 1 -10 -5 -8 -13 2 -8 4 -21 5 -29 2 -8
14 -22 27 -33 13 -10 29 -22 36 -28 8 -7 20 -3 39 15 37 34 70 38 277 32 l182
-6 -128 14 c-138 15 -183 26 -235 57 -36 22 -40 39 -16 63 11 11 16 32 15 66
-1 60 -5 69 -33 69 -21 0 -62 -38 -136 -128 -30 -36 -54 -55 -82 -63 -35 -11
-43 -9 -84 15 -25 15 -46 33 -46 41 0 7 -17 44 -39 82 -49 87 -75 166 -66 201
4 15 10 21 12 15 3 -7 9 -13 15 -13 6 0 7 7 4 15 -5 15 52 113 129 219 42 58
50 85 38 122 -14 41 -26 39 -51 -8 -66 -132 -113 -206 -161 -254 -47 -47 -59
-54 -93 -54 -57 0 -90 22 -162 105 -35 42 -77 85 -92 97 -16 13 -30 26 -32 30
-2 5 -8 8 -14 8 -20 0 -54 35 -50 53 2 9 8 17 14 17 22 0 220 206 239 248 12
27 25 42 37 42 20 0 54 61 67 118 10 45 -24 83 -71 80 -18 -1 -38 2 -46 8 -7
5 -31 16 -53 23 -40 12 -68 23 -114 45 -13 6 -31 22 -40 36 -9 13 -28 38 -43
54 -16 17 -28 38 -28 47 0 9 -7 30 -15 45 -19 37 -19 58 0 74 8 7 15 18 15 25
0 8 20 26 45 42 45 28 59 47 28 36 -10 -3 -83 -37 -162 -74 -79 -38 -147 -69
-152 -69 -9 0 -49 -49 -49 -61 0 -4 19 -2 41 6 62 22 69 20 69 -22 0 -28 3
-34 10 -23 8 13 11 12 24 -5 9 -11 16 -24 16 -28 0 -4 14 -37 30 -72 17 -35
30 -70 30 -78 0 -7 7 -22 15 -33 8 -10 15 -27 15 -36 0 -9 9 -32 19 -50 24
-40 38 -108 23 -108 -6 0 -21 13 -34 29 -13 15 -35 36 -50 46 -16 9 -28 24
-28 31 0 8 -7 14 -15 14 -8 0 -15 6 -15 13 0 8 -4 7 -10 -3 -9 -13 -11 -13
-20 0 -8 12 -10 11 -10 -7 0 -13 4 -23 8 -23 5 0 9 -14 9 -30 0 -28 63 -167
88 -194 41 -46 45 -96 13 -182 -11 -32 -22 -79 -23 -104 -1 -39 -22 -112 -25
-85 0 6 -4 4 -8 -3 -7 -10 -15 -10 -36 -2 -17 6 -25 6 -21 0 4 -6 -10 -10 -33
-10 -34 0 -49 8 -103 57 -73 65 -109 101 -109 111 0 4 -16 25 -35 46 -19 22
-35 44 -35 48 0 5 -11 24 -25 42 -14 18 -25 39 -25 46 0 7 -7 21 -16 31 -12
13 -13 22 -5 38 8 15 8 32 0 63 -25 91 -3 350 34 395 6 9 5 13 -4 13 -12 0
-12 2 0 9 7 5 11 13 7 19 -3 6 -3 13 2 16 4 2 8 19 7 38 0 26 -4 33 -20 33
-14 0 -21 8 -23 25 -2 14 -10 30 -17 36 -28 21 -48 114 -26 114 5 0 11 10 13
23 2 14 9 21 21 21 13 -2 16 3 12 17 -4 10 -3 24 1 31 5 7 8 22 9 32 0 11 6
21 14 24 10 3 12 -1 8 -17 -4 -18 -3 -20 8 -11 8 6 15 30 17 53 2 31 7 42 20
42 27 0 34 15 10 22 -12 3 -22 10 -22 15 0 6 -11 19 -24 29 -14 11 -28 29 -32
41 -3 12 -18 33 -31 47 -14 14 -29 37 -34 50 -5 12 -15 21 -22 18 -11 -4 -26
23 -80 140 -5 12 -7 39 -4 60 l6 38 -25 -30 -25 -30 7 30 c3 17 13 49 20 73 8
24 12 48 9 52 -3 5 6 38 20 73 14 35 25 75 25 90 0 14 5 29 11 32 6 4 8 13 5
20 -3 8 2 19 10 25 8 7 14 23 14 37 0 14 13 37 28 52 15 16 26 34 24 41 -3 8
0 10 7 5 7 -4 10 -13 7 -20 -7 -20 17 -66 32 -60 8 3 12 -6 12 -26 0 -26 3
-29 20 -24 22 7 25 -2 11 -38 -8 -20 -6 -26 8 -30 10 -2 26 -28 40 -63 21 -56
79 -134 100 -134 11 0 25 55 23 92 -1 15 -12 49 -24 75 -12 26 -20 54 -19 62
1 8 -2 17 -8 21 -7 3 -13 22 -16 41 -13 109 -30 179 -42 175 -16 -7 -16 -3 -1
47 11 35 10 41 -6 53 -14 9 -23 10 -36 2 -26 -16 -50 -3 -51 29 -4 67 -1 88
10 86 6 -2 11 8 11 22 0 13 11 41 25 61 14 20 25 42 25 49 0 16 116 125 133
125 7 0 6 4 -3 10 -9 5 -19 5 -26 -1 -8 -7 -16 1 -28 26 -9 19 -16 41 -15 47
5 39 -2 57 -17 51 -15 -5 -16 -1 -10 32 4 21 16 54 27 74 10 20 19 41 19 48 0
8 4 21 9 31 31 59 63 142 71 184 6 27 28 84 50 126 22 42 43 92 46 110 4 19
13 36 21 39 10 4 11 9 2 19 -15 18 -4 85 24 149 11 28 22 52 24 54 1 2 48 -27
103 -65 55 -38 124 -82 153 -98 28 -16 79 -47 112 -69 33 -23 103 -69 155
-103 52 -34 122 -81 155 -104 141 -97 260 -170 277 -170 49 0 133 -45 197
-106 38 -35 71 -60 75 -57 4 4 4 1 1 -8 -3 -9 6 -23 26 -38 18 -13 29 -19 25
-12 -4 6 -1 11 6 12 7 0 4 4 -7 9 -19 8 -19 9 2 9 12 1 24 -5 26 -11 4 -10 6
-10 6 0 1 6 14 12 30 12 17 0 33 5 36 10 4 6 9 8 13 6 4 -2 7 24 8 58 0 40 7
71 18 87 9 15 14 33 10 42 -3 9 3 23 15 34 12 9 21 23 21 29 0 6 11 20 25 30
14 10 25 24 25 31 0 7 5 13 10 13 6 0 10 7 10 16 0 17 27 43 44 44 4 0 6 -6 3
-14 -3 -8 0 -17 7 -19 8 -3 17 -31 21 -64 4 -32 12 -62 19 -66 8 -6 8 -10 -2
-14 -18 -7 -15 -26 4 -19 11 4 14 1 9 -13 -4 -13 5 -29 27 -52 18 -19 33 -40
34 -47 1 -6 2 -19 3 -27 0 -8 17 -22 36 -31 35 -16 36 -16 60 6 29 27 36 90
10 90 -8 0 -15 4 -15 10 0 5 8 6 18 3 14 -6 15 -4 5 8 -9 11 -9 19 -2 26 6 6
8 17 4 23 -6 9 -10 9 -17 -1 -7 -10 -8 -7 -4 11 3 14 6 31 6 39 0 8 7 11 19 8
11 -2 28 3 38 12 10 10 24 16 30 14 19 -7 27 19 9 32 -15 12 -15 13 0 19 10 4
14 13 11 26 -5 19 -2 22 26 24 6 1 15 6 19 11 5 6 8 4 9 -5 1 -8 5 5 8 30 5
36 10 46 28 48 18 3 21 -1 17 -20 -4 -19 -3 -19 6 3 11 26 12 26 52 15 22 -7
47 -21 54 -31 13 -18 14 -18 14 3 0 12 5 22 10 22 6 0 10 -7 10 -15 0 -8 4
-15 9 -15 15 0 20 27 8 39 -9 9 -8 15 6 22 12 7 17 23 17 59 0 38 4 50 15 50
8 0 15 5 15 11 0 6 -7 9 -15 5 -8 -3 -15 -1 -15 4 0 6 -6 10 -13 10 -8 0 -26
14 -40 30 -15 17 -32 30 -38 30 -7 0 -9 10 -5 26 5 19 3 25 -6 22 -20 -7 -35
41 -28 89 4 25 3 43 -3 43 -5 0 -6 8 -2 17 7 17 12 44 18 88 1 15 -3 19 -17
17 -16 -3 -17 1 -12 25 4 15 12 30 17 31 5 2 9 10 9 19 0 8 7 21 16 30 8 9 13
22 10 29 -3 8 -1 14 4 14 5 0 12 11 16 25 3 14 10 25 15 25 5 0 9 5 9 11 0 15
26 39 42 39 7 0 22 7 32 15 11 8 28 15 38 15 28 0 86 34 85 50 -1 11 -10 14
-39 12 -24 -3 -38 0 -38 8 0 6 5 8 10 5 6 -3 10 1 10 11 0 13 3 14 14 5 10 -8
16 -9 21 -1 3 5 15 10 26 10 10 0 19 5 19 10 0 6 -11 10 -24 10 -29 0 -44 19
-25 31 11 7 9 9 -6 9 -23 0 -54 62 -35 68 6 2 8 8 4 13 -3 5 -2 9 3 9 13 0 29
-14 35 -30 4 -10 17 -16 34 -15 24 0 29 5 30 25 2 41 3 43 19 30 21 -17 38 -2
33 31 -3 15 -1 26 4 23 4 -3 9 1 10 8 0 7 2 18 2 23 1 6 9 24 18 42 9 18 12
34 7 37 -5 2 -4 3 3 2 7 -2 29 3 47 11 37 14 78 10 52 -6 -7 -5 -10 -14 -7
-20 10 -16 51 -14 66 4 7 8 22 15 34 15 20 1 20 2 4 14 -26 19 -22 27 8 15 32
-11 42 -5 24 16 -7 9 -8 15 -2 15 6 0 23 -15 38 -32 25 -30 26 -31 19 -8 -6
20 -5 23 6 13 7 -7 21 -13 31 -13 11 0 30 -11 44 -25 13 -14 28 -24 32 -22 12
4 46 -27 64 -58 19 -33 38 -44 38 -22 0 9 -4 17 -10 19 -5 2 0 14 10 28 16 20
20 22 20 8 0 -10 -4 -18 -9 -18 -12 0 -3 -67 21 -165 15 -59 22 -133 28 -287
4 -113 11 -211 15 -218 7 -12 -27 -75 -74 -134 -30 -38 -42 -86 -20 -86 6 0 4
-7 -5 -15 -16 -16 -20 -2 54 -225 50 -150 51 -191 7 -206 -32 -11 -47 -6 -78
27 -26 28 -33 30 -88 27 -33 -1 -63 1 -68 6 -4 4 -7 30 -6 57 1 27 -2 49 -7
49 -6 0 -10 -4 -10 -9 0 -4 -11 -20 -25 -35 -48 -52 -21 -105 58 -115 l42 -6
6 -75 c3 -41 2 -80 -2 -85 -11 -15 -121 -11 -218 8 -79 15 -131 11 -131 -10 0
-5 17 -19 38 -33 20 -14 44 -32 52 -40 12 -12 13 -13 5 -1 -6 8 12 3 42 -13
29 -16 54 -37 57 -49 8 -33 -1 -32 -31 2 -15 17 -34 31 -43 31 -12 -1 -12 -3
3 -14 9 -7 17 -25 17 -39 0 -18 4 -25 14 -21 7 3 16 -2 20 -12 4 -12 2 -15 -9
-10 -20 7 -19 -6 3 -30 15 -16 17 -31 12 -105 -6 -91 -22 -129 -61 -150 -12
-6 -19 -7 -16 -1 4 5 -10 5 -34 -2 -27 -7 -42 -7 -47 0 -4 6 -22 16 -41 24
-19 7 -45 24 -59 37 -14 13 -32 23 -40 23 -8 0 -29 16 -47 35 -41 42 -92 72
-142 81 -21 4 -41 12 -45 18 -6 8 -11 6 -18 -4 -8 -13 -10 -12 -10 3 0 10 -8
17 -20 17 -22 0 -62 38 -54 52 3 4 -9 8 -25 8 -17 0 -32 5 -32 10 -1 6 -3 15
-4 20 -1 6 -3 12 -4 15 0 3 -12 -2 -27 -11 -24 -16 -25 -16 -31 4 -9 35 -36
28 -31 -8 5 -33 -5 -40 -18 -12 -10 23 -11 29 -13 52 -2 39 -17 19 -18 -24 -1
-30 4 -46 14 -50 9 -4 13 -18 11 -43 -2 -27 1 -37 10 -35 10 2 10 -2 2 -19
-11 -19 -10 -20 10 -14 15 5 20 4 16 -4 -4 -6 5 -26 20 -45 29 -35 41 -76 24
-76 -6 0 -10 -7 -10 -15 0 -8 -5 -15 -11 -15 -16 0 -105 -96 -101 -109 2 -6
-3 -11 -12 -11 -9 0 -16 -7 -16 -16 0 -10 -6 -14 -15 -10 -19 7 -19 -5 0 -30
13 -16 16 -17 25 -4 5 8 10 11 10 6 0 -6 7 -1 15 10 23 30 19 -4 -5 -44 -11
-18 -20 -38 -20 -45 1 -16 89 -111 97 -104 3 4 0 13 -7 22 -17 20 -20 104 -5
118 10 9 9 14 -3 23 -14 10 -13 13 6 29 11 10 19 22 16 27 -3 4 -3 8 -1 8 8 0
57 -79 57 -91 0 -6 16 -29 35 -50 45 -50 72 -104 97 -197 26 -98 28 -344 4
-540 -9 -74 -16 -171 -16 -215 0 -74 -8 -219 -29 -532 -12 -178 43 -415 97
-415 12 0 14 2 4 8 -13 9 -20 72 -9 90 5 7 15 7 35 0 24 -9 35 -7 75 16 26 16
47 32 47 37 0 5 7 9 16 9 15 0 16 -19 13 -182 l-4 -181 30 -9 c17 -4 76 -13
133 -19 83 -10 105 -15 113 -30 15 -30 13 -110 -11 -294 -12 -93 -22 -179 -23
-190 -2 -15 5 -21 24 -23 35 -4 42 8 68 118 12 52 31 120 41 150 10 30 25 81
33 112 18 68 10 83 -45 92 l-36 7 24 61 c13 34 24 63 24 65 0 2 9 3 20 3 17 0
20 6 18 38 0 21 4 48 11 61 7 12 10 25 8 28 -3 2 4 29 14 58 10 30 19 71 19
92 0 21 7 65 15 98 8 33 17 101 20 151 2 50 9 103 14 117 7 18 7 60 1 124 -8
86 -7 100 10 133 39 76 61 147 67 213 3 37 8 67 10 67 3 0 49 -43 103 -96 111
-108 128 -137 111 -186 l-11 -32 25 24 c28 26 33 13 14 -36 l-10 -28 21 19
c22 20 22 20 42 -5 34 -42 68 -118 68 -152 0 -21 -13 -52 -35 -85 -34 -51 -44
-86 -27 -97 5 -3 40 -10 78 -15 148 -23 192 -35 289 -82 150 -72 185 -94 245
-153 31 -29 83 -68 117 -85 65 -32 113 -75 113 -101 1 -8 17 -26 38 -38 28
-18 44 -22 72 -18 19 4 217 8 440 10 335 2 417 6 475 20 39 9 80 14 93 11 14
-3 21 -1 20 7 -2 7 18 16 49 22 28 6 60 19 70 28 26 24 104 51 116 39 5 -5 2
-19 -8 -35 -10 -14 -23 -43 -31 -64 -13 -35 -13 -36 -14 -8 0 21 -3 26 -12 18
-7 -5 -33 -13 -57 -17 -42 -7 -43 -6 -36 16 8 24 7 24 -13 5 -12 -10 -28 -16
-36 -13 -8 3 -20 -1 -27 -9 -8 -10 -27 -15 -53 -14 -45 2 -106 -16 -106 -32 0
-5 -9 -7 -20 -3 -15 5 -18 3 -14 -8 4 -10 -3 -13 -26 -12 -16 1 -30 -2 -30 -6
0 -5 -21 -20 -46 -35 -35 -21 -63 -28 -112 -31 -36 -1 -69 -8 -73 -14 -4 -6
-13 -9 -20 -7 -8 3 -25 0 -39 -7 -18 -9 -39 -11 -70 -5 -34 7 -51 5 -69 -7
-13 -9 -26 -11 -30 -6 -9 14 -41 24 -41 13 0 -5 -9 -8 -20 -7 -11 1 -20 7 -20
14 0 18 -17 16 -24 -3 -5 -13 -9 -14 -21 -4 -16 14 -35 5 -35 -16 0 -17 -27
-19 -33 -1 -3 9 -8 8 -22 -3 -10 -8 -20 -14 -21 -13 -2 1 -11 0 -19 -3 -8 -4
-24 -4 -35 -1 -11 3 -20 1 -20 -3 0 -5 -14 -15 -31 -24 l-30 -15 4 47 c4 42 8
57 24 97 3 6 -5 -1 -16 -13 -25 -29 -81 -198 -88 -270 -6 -52 -6 -52 23 -53
16 -1 32 -1 36 0 4 0 46 -8 93 -19 90 -21 146 -26 392 -35 121 -5 164 -3 215
10 84 21 349 120 390 145 41 25 104 26 143 2 17 -10 53 -21 82 -25 28 -3 69
-15 90 -25 70 -36 235 -77 365 -92 42 -4 82 -11 90 -16 51 -30 159 -129 219
-200 40 -47 93 -103 118 -124 25 -21 42 -42 38 -46 -3 -4 -13 -2 -21 5 -11 9
-15 9 -20 -1 -3 -7 -3 -2 0 11 4 17 2 22 -7 19 -8 -3 -13 -13 -11 -22 3 -15 0
-16 -18 -6 -11 6 -18 15 -15 21 8 12 -30 93 -52 111 -15 12 -15 11 -4 -9 10
-20 9 -22 -6 -16 -10 4 -20 9 -23 12 -18 21 -140 93 -174 103 -49 14 -168 14
-234 0 -26 -6 -64 -14 -85 -17 -60 -10 -33 -25 46 -26 74 -1 208 -15 172 -18
-13 0 -21 -9 -22 -21 -2 -21 13 -28 19 -9 2 7 11 5 23 -7 13 -13 20 -15 23 -6
2 7 9 9 15 5 6 -4 8 0 4 9 -4 13 5 12 56 -6 63 -23 93 -52 99 -96 3 -22 0 -25
-32 -23 -19 1 -60 9 -90 17 -49 15 -60 15 -115 0 -33 -9 -97 -18 -143 -21 -45
-3 -85 -10 -88 -14 -3 -5 -18 -9 -34 -9 -19 0 -31 -6 -34 -18 -7 -22 -60 -45
-92 -39 -18 3 -24 0 -24 -13 0 -17 -48 -37 -108 -45 -15 -2 -40 -8 -55 -14
-16 -6 -43 -13 -60 -15 -18 -2 -63 -12 -102 -21 -56 -13 -97 -15 -210 -10
l-140 7 -27 31 c-22 25 -30 29 -37 18 -6 -9 -10 -10 -12 -2 -3 7 -36 14 -84
18 -44 2 -94 11 -111 19 -41 18 -184 19 -211 1 -7 -5 -18 -5 -24 -1 -6 3 -15
1 -19 -5 -4 -7 -18 -13 -31 -14 -13 0 -27 -5 -30 -10 -4 -5 -35 -13 -70 -18
-147 -20 -238 -29 -307 -32 -71 -3 -72 -3 -57 17 9 12 22 35 30 51 12 27 12
32 -5 49 -16 17 -32 19 -132 17 -220 -4 -333 -10 -373 -20 -52 -14 -58 -13
-49 1 4 7 -2 4 -14 -6 -17 -15 -27 -17 -45 -10 -12 5 -45 9 -74 9 -28 0 -49 3
-47 7 2 3 -15 5 -38 3 -28 -2 -49 2 -60 12 -11 10 -26 13 -42 9 -24 -6 -25 -4
-22 25 2 18 10 35 18 40 8 4 52 38 99 76 48 37 100 76 118 85 36 20 38 35 11
87 -37 74 -127 122 -166 90 -15 -12 -22 -8 -56 31 -22 24 -52 63 -67 85 -34
51 -63 56 -102 19 -23 -22 -29 -36 -29 -70 0 -24 5 -55 11 -71 10 -26 8 -31
-26 -60 -32 -28 -37 -37 -33 -65 4 -25 0 -40 -18 -61 -13 -16 -24 -35 -24 -42
0 -7 -3 -21 -6 -29 -5 -12 -2 -15 12 -9 13 5 15 3 8 -8 -12 -20 -11 -42 3 -59
7 -9 11 -25 10 -37 l-1 -22 -39 22 c-23 13 -33 23 -25 27 18 7 23 51 6 48 -7
-2 -16 -10 -20 -18 -4 -10 -7 -6 -7 13 -2 52 -18 27 -50 -76 -47 -156 -17
-143 -294 -123 -131 10 -257 14 -282 10 -34 -5 -50 -3 -63 9 -11 9 -32 14 -57
13 -22 -2 -94 -4 -160 -6 l-120 -2 125 -15 c69 -7 168 -15 220 -17 81 -3 254
-13 513 -30 47 -3 64 -10 92 -35 30 -26 63 -37 97 -32 4 0 22 -6 41 -14 19 -8
37 -12 40 -8 4 3 19 1 34 -6 38 -15 153 -23 153 -11 0 6 21 10 48 9 71 -1 85
1 100 13 20 17 297 14 318 -3 11 -9 17 -9 28 0 16 13 184 4 203 -11 7 -6 25
-3 49 7 22 9 46 12 58 8 12 -4 66 -8 121 -8 208 -3 546 -42 553 -64 2 -6 8 -9
13 -5 5 3 35 0 65 -6 43 -9 58 -9 64 0 5 8 27 9 86 1 75 -9 174 -16 399 -26
167 -7 496 -25 565 -30 36 -3 126 -9 200 -15 192 -14 257 -18 415 -25 254 -10
304 -14 322 -23 10 -5 66 -10 125 -11 59 -1 121 -6 138 -11 18 -5 30 -5 30 1
0 18 75 10 93 -11 22 -27 141 -30 151 -4 5 13 14 15 44 9 20 -4 43 -11 50 -17
9 -8 25 -6 57 7 45 17 123 17 170 1 16 -6 24 0 39 24 12 21 15 35 9 41 -10 10
24 84 117 249 241 428 1136 2101 1177 2199 18 43 63 111 74 111 11 0 -20 -86
-70 -195 -70 -155 -169 -344 -176 -337 -3 3 -3 0 0 -9 3 -8 -8 -40 -25 -70
-17 -29 -47 -88 -67 -129 -53 -108 -64 -124 -75 -108 -6 9 -7 6 -3 -9 6 -21
-42 -122 -131 -278 -13 -22 -69 -125 -125 -229 -80 -148 -99 -190 -88 -197 8
-5 49 -9 92 -9 66 0 77 -2 78 -17 0 -11 3 -13 6 -6 7 18 70 16 77 -2 3 -8 2
-15 -2 -16 -16 -1 -219 -12 -247 -13 -36 -1 -88 -45 -106 -89 -14 -36 -65
-151 -81 -184 -6 -11 -7 -27 -3 -34 5 -7 4 -10 -2 -6 -14 9 -46 -41 -39 -59 3
-9 1 -12 -4 -9 -8 5 -32 -36 -31 -55 0 -3 -9 -8 -19 -12 -19 -7 -140 -212
-140 -237 0 -7 -21 -42 -46 -78 -25 -35 -44 -66 -42 -68 6 -7 122 -15 455 -32
82 -4 158 -10 158 -13 0 -1 160 -9 230 -12 22 -1 110 3 195 8 169 10 224 10
405 -2 66 -4 141 -8 168 -8 30 -1 47 -5 47 -13 0 -12 42 -10 80 4 16 6 132 5
213 -3 l47 -4 -3 1703 c-2 936 -6 1734 -9 1772 -3 39 -8 144 -12 235 -4 91
-11 182 -17 204 -11 42 -54 88 -78 84 -23 -4 -41 10 -41 33 0 10 -5 19 -11 19
-6 0 -8 7 -5 15 3 8 9 22 12 30 6 14 3 14 -20 4 -20 -10 -29 -10 -38 -1 -9 9
-5 12 18 13 16 0 22 3 14 6 -45 15 -45 15 -20 25 19 7 22 11 10 18 -8 5 -22 4
-33 -2 -18 -9 -19 -7 -15 17 5 22 1 28 -21 36 -24 10 -24 11 -8 21 14 7 16 13
6 24 -6 8 -17 14 -25 14 -7 0 -16 9 -19 20 -3 11 -10 20 -15 20 -5 0 -7 7 -4
15 5 11 -1 15 -22 16 -26 0 -27 1 -9 10 16 7 14 9 -13 6 -30 -3 -33 -1 -44 35
-12 42 -31 49 -48 18 -6 -11 -17 -20 -25 -20 -17 0 -21 36 -5 42 12 4 -7 69
-24 81 -7 5 -5 11 7 18 15 8 16 14 6 25 -10 13 -15 12 -32 -7 -16 -17 -27 -20
-58 -15 -37 6 -54 -6 -26 -17 7 -3 4 -6 -6 -6 -16 -1 -17 4 -12 29 7 32 7 32
-50 45 -16 4 -24 10 -18 12 15 5 17 39 4 48 -5 3 -12 -5 -14 -17 l-4 -23 -2
23 c-1 24 -31 31 -31 7 0 -8 -4 -15 -10 -15 -5 0 -10 5 -10 12 0 6 -8 20 -17
30 -16 18 -16 19 3 24 16 4 20 13 20 40 -1 20 -6 34 -13 34 -7 0 -13 7 -13 15
0 8 9 15 19 15 11 0 23 5 26 11 4 6 17 14 29 19 18 8 17 9 -11 9 -17 1 -35 -3
-38 -9 -9 -15 -25 -12 -25 5 0 7 8 19 18 24 15 9 15 12 2 21 -11 7 -16 5 -18
-10 -2 -11 -8 -20 -13 -20 -5 0 -9 -20 -9 -45 0 -32 -4 -45 -14 -45 -19 0 -27
90 -9 97 16 6 17 33 2 33 -6 0 -19 -10 -30 -23 l-18 -22 -1 33 c0 17 -4 32
-10 32 -5 0 -10 -13 -10 -30 0 -16 -4 -30 -10 -30 -5 0 -10 14 -10 30 0 40
-18 38 -23 -2 -4 -32 -4 -32 -5 5 -2 35 -4 37 -36 37 -30 0 -33 -3 -29 -24 3
-13 0 -27 -6 -30 -13 -8 -13 14 -2 90 l7 51 -58 -4 c-55 -3 -58 -2 -57 19 0
13 4 31 8 41 6 17 8 17 20 3 17 -20 45 -21 61 -1 11 13 7 15 -25 15 l-37 0 3
43 c3 62 -5 73 -50 72 -22 0 -46 -6 -54 -13 -12 -10 -16 -10 -21 3 -8 22 4 48
18 36 6 -5 31 -10 56 -11 62 -3 64 -2 49 16 -7 8 -22 13 -33 11 -12 -3 -30 -1
-41 4 -14 6 1 8 45 4 65 -4 65 -4 43 14 -13 11 -23 24 -23 30 0 19 32 29 57
18 25 -11 39 -5 28 13 -4 6 -15 8 -26 5 -21 -7 -25 5 -7 23 9 9 9 12 0 12 -7
0 -12 -3 -12 -7 0 -11 -50 -33 -72 -33 -10 0 -18 5 -18 10 0 6 10 10 21 10 30
0 51 29 33 47 -15 15 -34 17 -34 3 0 -5 -11 -10 -25 -10 -14 0 -25 -4 -25 -9
0 -5 -10 -12 -22 -15 l-23 -6 23 -19 c22 -20 30 -51 12 -51 -5 0 -10 -9 -10
-20 0 -13 -7 -20 -20 -20 -12 0 -20 7 -20 16 0 8 -7 22 -15 30 -8 9 -15 30
-16 47 0 18 -4 41 -8 52 -7 16 -11 9 -25 -37 -17 -59 -36 -85 -36 -49 0 12 5
21 10 21 13 0 3 70 -12 85 -6 6 -7 4 -3 -6 3 -8 -1 -28 -9 -44 -10 -19 -12
-31 -5 -35 5 -4 -4 -7 -21 -7 -17 0 -26 3 -21 6 6 4 4 18 -5 38 -12 23 -20 29
-36 25 -18 -4 -19 -2 -14 24 7 33 10 113 5 130 -2 7 -1 12 4 13 25 3 29 0 16
-16 -15 -18 -15 -18 36 3 18 7 62 -39 82 -85 14 -32 15 -32 34 -15 12 11 19
13 19 5 0 -17 29 -45 38 -37 3 4 2 10 -4 14 -23 15 -34 50 -24 76 11 31 30 34
30 6 0 -24 15 -27 24 -4 8 22 8 24 -9 24 -7 0 -19 8 -24 18 -7 12 -10 13 -11
3 0 -17 -40 -52 -51 -45 -5 3 -9 18 -9 35 0 33 -7 36 -26 12 -13 -17 -13 -17
-14 0 0 12 -8 17 -32 17 -18 0 -43 3 -56 6 -21 6 -21 7 -5 19 17 13 16 14 -7
23 -14 5 -34 12 -45 15 -11 4 3 4 30 1 28 -3 52 -10 53 -15 6 -16 30 -10 46
12 13 20 21 21 98 15 52 -3 74 -2 58 3 -16 6 -19 9 -8 10 34 2 48 -11 48 -46
0 -19 -7 -41 -15 -49 -10 -10 -13 -24 -9 -41 8 -29 -11 -46 -40 -37 -13 4 -17
2 -12 -7 3 -8 9 -22 12 -31 7 -19 34 -25 34 -8 0 6 7 10 15 10 8 0 15 9 15 20
0 22 16 27 23 8 3 -10 9 -8 24 4 11 10 35 18 56 18 39 0 71 24 63 47 -3 8 -6
17 -6 19 0 2 -6 4 -13 4 -18 0 -67 23 -67 32 0 4 9 12 19 18 16 8 23 6 34 -11
11 -15 17 -17 23 -8 4 7 2 15 -4 17 -7 2 -19 10 -27 19 -8 8 -25 13 -37 11
-19 -2 -24 -10 -26 -40 -4 -50 -22 -49 -22 1 0 29 -4 41 -17 44 -15 3 -12 6
10 17 20 10 24 16 15 22 -8 6 -5 7 10 3 14 -4 32 0 47 9 30 20 35 20 35 1 0
-23 12 -18 48 21 25 27 30 39 22 49 -7 9 -6 20 5 41 10 19 15 23 15 12 0 -10
5 -18 11 -18 8 0 7 -5 -1 -16 -11 -12 -10 -18 3 -32 16 -15 18 -15 34 0 13 13
14 20 5 31 -7 8 -9 17 -6 20 4 4 -1 18 -10 31 -21 33 -20 46 4 46 15 0 20 -7
20 -27 0 -16 4 -23 8 -18 12 18 36 11 47 -12 16 -37 23 -26 12 17 -9 32 -16
40 -34 40 -19 0 -23 5 -23 30 0 28 2 30 40 30 37 0 40 2 34 24 -10 42 19 58
91 51 l62 -7 1 37 c1 21 4 46 7 56 4 11 0 18 -11 21 -16 3 -16 4 -1 17 15 12
17 11 17 -3 0 -11 9 -16 27 -16 14 0 35 -7 45 -17 14 -13 18 -13 18 -2 0 19
-12 34 -32 42 -10 3 -18 11 -18 16 0 12 57 41 80 41 12 0 20 15 30 55 7 30 10
58 6 62 -4 4 -9 -3 -13 -15 -3 -12 -9 -22 -14 -22 -5 0 -9 -11 -9 -25 0 -14
-4 -25 -10 -25 -5 0 -10 4 -10 9 0 5 -3 16 -6 25 -4 10 -1 16 7 16 15 0 33 34
45 83 4 16 2 27 -4 27 -6 0 -13 -14 -17 -31 -5 -23 -10 -28 -18 -20 -9 9 -8
14 1 20 8 5 13 11 12 15 -1 3 1 20 5 36 8 35 25 40 26 8 1 -19 4 -16 17 15 10
20 25 40 35 43 28 9 22 44 -8 44 -16 0 -25 6 -25 15 0 10 -12 15 -37 17 -37 1
-37 1 -5 5 29 4 32 8 32 36 0 18 7 43 16 56 13 18 14 25 4 31 -7 5 11 8 41 7
30 0 42 -2 27 -4 -16 -3 -28 -11 -28 -19 0 -8 -4 -14 -10 -14 -5 0 -10 -7 -10
-15 0 -8 -4 -15 -9 -15 -13 0 -22 -28 -10 -35 5 -4 12 2 16 12 3 10 14 26 25
36 17 17 18 17 18 -8 0 -14 -4 -25 -9 -25 -5 0 -4 -11 2 -25 7 -14 15 -25 20
-25 10 0 9 18 -3 25 -16 10 -12 25 6 25 14 0 14 3 4 16 -11 12 -10 18 3 32 16
15 18 15 34 -1 16 -15 16 -18 -1 -35 -15 -18 -15 -20 -1 -26 9 -3 19 -6 21 -6
2 0 4 23 4 50 0 29 5 50 11 50 5 0 8 4 5 9 -3 5 -14 7 -24 4 -10 -2 -24 3 -31
11 -8 9 -21 16 -31 16 -16 0 -17 4 -7 35 10 35 33 51 25 17 -6 -20 14 -42 37
-42 8 0 15 7 15 15 0 8 -7 15 -15 15 -11 0 -15 11 -15 40 0 26 5 40 13 40 9 0
12 -11 9 -37 -4 -37 -3 -37 12 -17 13 18 14 34 7 93 -5 40 -14 78 -21 86 -23
28 -8 47 43 51 36 3 47 0 47 -11 0 -8 7 -15 15 -15 8 0 15 -9 15 -20 0 -23
-18 -27 -26 -5 -4 8 -15 15 -25 15 -10 0 -19 5 -19 10 0 6 -9 10 -20 10 -11 0
-20 -4 -20 -10 0 -5 9 -10 20 -10 13 0 20 -7 20 -20 0 -13 7 -20 20 -21 33 -2
38 -4 46 -11 14 -15 19 -7 20 32 1 30 -2 40 -15 41 -9 0 0 5 19 11 45 12 58
24 42 40 -9 9 -12 8 -12 -5 0 -18 -7 -18 -118 -1 l-33 5 23 24 c16 17 30 22
49 18 15 -3 30 0 33 6 4 7 -1 11 -13 11 -14 0 -21 6 -21 20 0 14 7 20 23 20
12 0 28 4 36 9 22 14 -4 21 -40 11 -46 -13 -92 -13 -83 1 3 6 17 8 29 5 13 -3
27 -2 30 4 3 5 19 10 36 10 16 0 29 5 29 10 0 6 -4 10 -10 10 -18 0 -10 29 10
35 23 7 27 35 5 35 -9 0 -18 7 -21 15 -4 8 -15 15 -25 15 -10 0 -19 6 -19 14
0 25 19 28 32 6 8 -12 23 -20 40 -20 15 0 29 -4 32 -9 3 -5 23 -9 43 -8 20 1
38 -4 41 -11 6 -18 52 -15 52 3 0 8 -9 15 -20 15 -11 0 -20 5 -20 10 0 6 -17
10 -37 10 -33 1 -36 2 -21 13 25 19 35 67 14 67 -19 0 -19 2 -4 35 6 14 18 25
27 25 14 -1 13 -2 -1 -11 -27 -15 -22 -39 7 -39 18 0 23 -4 18 -16 -4 -12 -2
-15 8 -12 8 3 13 14 11 26 -2 12 1 22 7 22 7 0 10 166 11 505 l0 505 -2992 -1
c-2897 0 -2991 -1 -2942 -18 93 -34 113 -61 82 -110 -9 -14 -8 -22 2 -33 12
-13 17 -11 37 13 28 33 28 35 3 42 -11 3 -20 10 -20 17 0 15 96 10 130 -7 14
-7 29 -13 34 -13 18 0 55 -42 49 -56 -3 -8 0 -14 6 -14 6 0 11 -7 11 -16 0 -8
16 -30 35 -48 25 -24 33 -38 28 -54 -3 -12 -1 -22 4 -22 5 0 7 -18 5 -40 -3
-26 -9 -40 -18 -40 -8 0 -14 -7 -14 -16 0 -8 -7 -22 -15 -30 -17 -18 -20 -34
-5 -34 5 0 9 -12 8 -26 -2 -21 -4 -23 -14 -10 -6 9 -21 16 -33 16 -12 0 -31 5
-42 10 -13 8 -19 7 -19 0 0 -6 -4 -8 -10 -5 -18 11 12 45 36 39 27 -7 64 23
63 51 0 11 -3 14 -6 8 -2 -7 -9 -13 -14 -13 -4 0 -6 6 -3 13 5 14 -35 37 -65
37 -10 0 -39 18 -64 40 -34 31 -47 50 -52 80 -5 29 -12 40 -24 40 -19 0 -45
-45 -36 -60 3 -5 -1 -12 -8 -17 -22 -13 -27 -76 -10 -124 9 -28 12 -61 9 -89
-3 -25 -7 -53 -8 -62 -3 -23 -78 -26 -78 -4 0 20 -36 29 -105 26 -47 -1 -69 3
-98 20 -20 12 -34 27 -30 33 4 6 -2 8 -18 4 -13 -4 -29 -7 -36 -7 -15 0 -5
-72 11 -82 6 -4 23 -17 39 -30 69 -56 71 -58 59 -70 -7 -7 -12 -20 -12 -30 0
-10 -4 -18 -10 -18 -5 0 -10 -13 -10 -28 0 -17 -9 -37 -21 -48 -21 -19 -21
-18 -45 9 -13 16 -24 25 -24 21 0 -4 -7 1 -15 12 -8 11 -15 14 -15 7 0 -7 -7
-13 -15 -13 -27 0 -16 -45 26 -106 23 -32 49 -64 57 -70 12 -9 13 -12 2 -19
-8 -5 -15 -4 -18 3 -2 8 -8 8 -18 -2 -18 -19 -18 -77 1 -123 8 -19 15 -39 15
-43 0 -16 -33 -20 -44 -5 -6 8 -20 16 -31 18 -11 1 -32 10 -46 20 -30 20 -65
26 -174 32 -107 6 -125 11 -125 35 0 24 -15 26 -24 4 -10 -25 -7 -32 14 -39
24 -7 27 -25 5 -25 -9 0 -32 -15 -51 -34 -32 -32 -37 -43 -43 -117 -2 -15 -47
-17 -80 -3 -20 9 -66 18 -103 21 -40 4 -79 13 -95 24 -48 32 -56 37 -128 72
-73 36 -96 37 -124 3 -25 -30 -66 -20 -109 29 -36 41 -44 45 -85 45 -50 0 -67
14 -70 56 -2 21 -9 31 -27 36 -106 30 -211 58 -240 63 -31 7 -33 6 -22 -8 8
-9 26 -19 42 -22 16 -4 45 -17 65 -31 20 -13 40 -24 45 -24 6 0 10 -4 10 -9 0
-5 8 -11 18 -15 9 -3 24 -10 32 -15 8 -6 32 -18 52 -27 43 -18 42 -29 -1 -37
-34 -7 -51 -2 -211 60 -110 44 -140 61 -204 116 -16 14 -45 28 -65 32 -81 14
-214 62 -337 121 -72 35 -138 64 -147 64 -10 0 -34 10 -55 23 -20 13 -44 27
-52 30 -8 4 -33 18 -55 31 -23 14 -55 24 -76 24 -40 0 -97 26 -116 53 -15 20
-123 99 -171 123 -19 10 -38 29 -43 46 -13 36 -41 43 -122 31 -105 -16 -146
-8 -285 58 -70 33 -163 74 -207 92 -116 46 -131 55 -156 95 -42 68 58 64
-1509 64 l-1420 0 0 -4270z m7578 3752 c2 -6 -4 -12 -13 -12 -9 0 -31 -7 -48
-16 -18 -9 -40 -21 -49 -25 -19 -10 -68 -12 -68 -4 0 8 29 75 32 75 2 0 21 7
43 14 36 13 43 13 69 -2 16 -10 31 -23 34 -30z m496 6 c-4 -13 -9 -29 -12 -36
-3 -9 2 -11 21 -7 40 10 40 -9 0 -58 -37 -45 -38 -46 -50 -24 -7 12 -10 30 -7
40 7 23 -9 22 -31 -3 -22 -24 -63 -26 -72 -4 -7 18 43 83 78 101 13 7 37 13
52 13 25 0 27 -3 21 -22z m-191 -65 c-5 -15 -16 -28 -24 -28 -21 0 -23 40 -3
59 23 24 39 6 27 -31z m-253 7 c0 -5 -4 -10 -10 -10 -5 0 -10 5 -10 10 0 6 5
10 10 10 6 0 10 -4 10 -10z m-32 -28 c3 -9 -2 -13 -14 -10 -9 1 -19 9 -22 16
-3 9 2 13 14 10 9 -1 19 -9 22 -16z m70 -75 c22 -17 13 -42 -28 -83 -22 -21
-53 -58 -68 -81 -16 -26 -46 -53 -75 -68 -32 -18 -53 -39 -65 -62 -10 -22 -32
-44 -54 -56 -21 -10 -38 -22 -38 -25 0 -4 -15 -8 -34 -9 -39 -3 -59 15 -58 55
0 15 -4 35 -9 44 -12 23 19 74 53 89 14 6 40 33 57 60 19 31 37 49 49 49 11 0
39 18 62 40 43 41 49 43 86 41 12 -1 24 5 27 13 5 11 15 13 44 9 21 -3 44 -10
51 -16z m440 -5 c-20 -26 -81 -83 -85 -79 -10 11 24 72 50 87 35 21 54 17 35
-8z m-1268 -17 c16 -8 33 -14 37 -13 14 3 77 -28 91 -45 20 -24 8 -34 -40 -33
-37 1 -43 4 -46 24 -2 12 -8 20 -13 17 -5 -4 -9 1 -9 9 0 9 -7 16 -15 16 -23
0 -65 22 -59 31 7 13 21 11 54 -6z m1165 6 c8 -13 -23 -41 -46 -41 -21 0 -25
20 -7 38 14 14 44 16 53 3z m-1215 -87 c8 -19 7 -37 -2 -63 -17 -47 -36 -61
-78 -58 -30 2 -36 6 -41 32 -7 39 9 85 29 85 10 0 26 7 36 15 29 22 45 18 56
-11z m-2915 -74 c3 -5 -1 -10 -10 -10 -9 0 -13 5 -10 10 3 6 8 10 10 10 2 0 7
-4 10 -10z m8905 -20 c0 -5 -5 -10 -11 -10 -5 0 -7 5 -4 10 3 6 8 10 11 10 2
0 4 -4 4 -10z m-8770 -4 c0 -3 -4 -8 -10 -11 -5 -3 -10 -1 -10 4 0 6 5 11 10
11 6 0 10 -2 10 -4z m8770 -77 c0 -5 -7 -9 -15 -9 -15 0 -20 12 -9 23 8 8 24
-1 24 -14z m-5558 -1 c4 -10 -32 -38 -48 -38 -13 0 -1 39 14 43 29 8 30 7 34
-5z m5432 -13 c-4 -8 -8 -15 -10 -15 -2 0 -4 7 -4 15 0 8 4 15 10 15 5 0 7 -7
4 -15z m-17 -67 c-3 -8 -6 -5 -6 6 -1 11 2 17 5 13 3 -3 4 -12 1 -19z m-5886
-16 c-7 -2 -18 1 -23 6 -8 8 -4 9 13 5 13 -4 18 -8 10 -11z m5749 -2 c0 -5 -4
-10 -10 -10 -5 0 -10 5 -10 10 0 6 5 10 10 10 6 0 10 -4 10 -10z m-5270 -42
c0 -15 -41 -8 -47 8 -9 24 19 37 35 17 6 -9 12 -20 12 -25z m5370 22 c0 -5 -4
-10 -10 -10 -5 0 -10 5 -10 10 0 6 5 10 10 10 6 0 10 -4 10 -10z m100 3 c0
-15 -45 -53 -63 -53 -16 0 -17 3 -7 15 7 8 18 15 25 15 7 0 15 7 19 15 5 15
26 21 26 8z m-6496 -38 c-9 -23 35 -47 99 -54 41 -4 74 -14 95 -29 33 -24 39
-40 23 -70 -6 -9 -16 -37 -23 -62 -20 -67 -42 -75 -197 -64 l-126 9 2 25 c10
115 16 147 29 161 8 9 14 30 12 45 -3 25 0 29 22 29 16 0 30 9 39 24 10 18 15
20 21 11 5 -7 6 -18 4 -25z m496 -11 c0 -32 -18 -38 -61 -20 -19 9 -26 15 -16
16 10 0 27 9 39 20 25 23 38 18 38 -16z m565 -4 c-3 -5 -10 -10 -16 -10 -5 0
-9 5 -9 10 0 6 7 10 16 10 8 0 12 -4 9 -10z m-1613 -50 c48 -34 103 -99 92
-110 -8 -8 -89 14 -119 31 -5 4 -26 12 -46 18 -20 6 -49 25 -65 42 -24 25 -26
32 -14 40 26 17 116 5 152 -21z m6854 9 c3 -6 -1 -18 -10 -27 -15 -15 -16 -14
-16 11 0 27 13 36 26 16z m58 -64 c-4 -8 -11 -12 -16 -9 -6 4 -5 10 3 15 19
12 19 11 13 -6z m-1394 -5 c0 -5 -5 -10 -11 -10 -5 0 -7 5 -4 10 3 6 8 10 11
10 2 0 4 -4 4 -10z m1355 0 c-3 -5 -10 -10 -16 -10 -5 0 -9 5 -9 10 0 6 7 10
16 10 8 0 12 -4 9 -10z m-88 -88 c-12 -13 -14 -21 -6 -29 12 -12 4 -33 -13
-33 -5 0 -8 6 -5 14 3 7 1 18 -5 24 -12 12 9 41 31 42 11 0 11 -4 -2 -18z m94
4 c-10 -12 -61 -29 -61 -20 0 20 17 34 42 34 25 0 28 -3 19 -14z m-5844 -41
c8 -22 -4 -30 -21 -16 -8 7 -15 8 -18 2 -1 -5 -12 -3 -23 6 -20 15 -20 15 2
10 13 -3 26 -1 29 4 8 14 24 11 31 -6z m-148 -52 c1 -28 -2 -54 -7 -57 -5 -3
-25 -3 -45 1 -25 4 -37 12 -41 26 -8 30 4 67 20 67 8 0 14 4 14 9 0 4 13 8 28
7 27 -1 29 -3 31 -53z m2561 37 c0 -11 -4 -20 -10 -20 -5 0 -10 9 -10 20 0 11
5 20 10 20 6 0 10 -9 10 -20z m-2252 -51 c12 -10 18 -26 15 -37 -10 -39 17
-44 153 -33 152 13 144 18 205 -107 48 -97 115 -172 154 -172 32 0 63 -34 76
-85 6 -22 20 -56 32 -75 12 -19 33 -56 47 -83 13 -26 31 -47 38 -47 7 0 33
-21 57 -47 37 -39 50 -64 80 -156 45 -140 46 -241 3 -287 -17 -18 -22 -19 -35
-8 -9 7 -26 13 -37 13 -16 0 -20 5 -18 21 2 15 -5 25 -26 33 -16 7 -46 30 -68
52 -41 42 -54 48 -54 25 0 -8 -11 -28 -25 -44 -14 -17 -25 -35 -25 -40 0 -17
-37 -24 -93 -17 -65 8 -131 -14 -125 -42 3 -13 12 -17 35 -16 18 2 35 -2 38
-7 4 -6 -15 -10 -49 -10 -58 0 -86 -16 -86 -49 0 -13 -21 -28 -71 -50 -62 -28
-70 -35 -66 -54 4 -19 -3 -26 -55 -51 -43 -20 -63 -37 -75 -61 -15 -31 -127
-125 -187 -155 -15 -8 -42 -35 -59 -60 -17 -25 -37 -49 -43 -55 -7 -5 -33 -55
-58 -110 -25 -55 -55 -107 -67 -115 -21 -14 -21 -13 -15 27 4 22 3 44 -2 47
-9 5 -7 700 2 781 3 22 8 165 12 317 6 246 5 283 -10 331 -13 40 -16 79 -13
147 5 111 11 119 120 150 40 11 80 25 89 30 10 6 29 10 43 10 18 0 32 11 50
40 14 22 25 48 25 58 0 15 6 17 34 14 19 -2 43 -12 54 -23z m4222 21 c0 -5 -5
-10 -11 -10 -5 0 -7 5 -4 10 3 6 8 10 11 10 2 0 4 -4 4 -10z m40 6 c0 -3 -4
-8 -10 -11 -5 -3 -10 -1 -10 4 0 6 5 11 10 11 6 0 10 -2 10 -4z m1290 -6 c0
-5 -4 -10 -9 -10 -6 0 -13 5 -16 10 -3 6 1 10 9 10 9 0 16 -4 16 -10z m-3866
-51 c29 -8 45 -8 62 2 20 10 30 8 78 -21 30 -19 60 -45 66 -59 17 -43 41 -182
41 -246 0 -75 6 -95 26 -95 9 0 59 -23 112 -51 52 -28 115 -59 140 -69 155
-62 633 -310 966 -499 138 -79 274 -157 304 -173 30 -16 143 -85 251 -154 109
-68 215 -131 236 -139 22 -9 47 -20 57 -26 10 -5 27 -7 37 -4 10 3 21 1 25 -5
4 -6 18 -15 32 -21 13 -5 21 -13 18 -19 -4 -6 10 -10 34 -10 23 0 41 -4 41
-10 0 -5 -4 -10 -10 -10 -17 0 -11 -17 8 -24 9 -3 31 -14 47 -25 35 -23 46
-25 43 -10 -4 18 19 21 26 4 4 -11 -4 -21 -24 -33 -32 -18 -36 -27 -18 -38 6
-4 16 0 23 9 7 10 16 13 25 7 10 -6 11 -12 2 -22 -8 -10 -7 -22 5 -46 12 -26
13 -35 3 -47 -18 -22 -29 -19 -28 8 4 61 -2 77 -25 77 -13 0 -28 5 -34 11 -7
7 -12 6 -17 -6 -3 -9 0 -18 9 -21 19 -8 19 -24 0 -24 -8 0 -15 -4 -15 -10 0
-21 39 -10 43 13 3 19 4 20 11 4 9 -19 0 -68 -12 -66 -38 6 -43 -23 -9 -52 13
-11 16 -17 6 -14 -13 5 -17 -5 -23 -52 -4 -32 -7 -67 -6 -78 3 -33 2 -48 -5
-90 -5 -31 -3 -44 9 -54 14 -12 14 -15 2 -25 -8 -6 -16 -37 -19 -76 -3 -36 -8
-78 -12 -95 -12 -63 -39 -708 -30 -742 3 -13 1 -41 -5 -61 -5 -21 -12 -114
-15 -208 -5 -148 -9 -232 -14 -310 -1 -19 -6 -22 -43 -19 -75 4 -251 42 -303
65 -33 15 -145 40 -178 40 -36 0 -130 21 -242 55 -134 40 -270 75 -292 75 -25
0 -30 -14 -63 -165 -37 -169 -124 -401 -161 -432 -12 -10 -14 -3 -14 44 1 47
-2 56 -20 63 -18 7 -24 22 -34 94 -10 66 -18 89 -32 97 -26 13 -24 35 6 63 18
17 21 26 13 34 -17 17 0 28 22 14 12 -7 20 -8 20 -2 0 6 17 17 38 25 24 10 48
32 69 63 30 44 68 132 58 132 -3 0 4 9 15 20 11 11 20 31 20 44 0 14 5 28 10
31 6 3 10 19 10 34 0 16 7 48 16 72 9 24 17 51 19 59 1 8 6 23 10 33 4 10 5
21 1 24 -3 3 -1 12 5 20 9 9 8 13 0 13 -6 0 -11 5 -11 10 0 6 6 10 14 10 15 0
20 30 31 170 3 41 8 93 11 115 l6 40 -25 -25 c-14 -14 -40 -54 -58 -90 -38
-75 -89 -149 -104 -150 -5 0 -25 -23 -43 -51 -37 -57 -62 -58 -32 -1 11 20 20
47 20 60 0 13 4 20 10 17 19 -12 48 15 75 72 15 32 30 60 34 63 3 3 19 29 35
59 16 29 47 80 68 113 49 73 87 155 95 202 4 24 -3 60 -21 113 -14 43 -37 130
-50 193 -14 63 -34 156 -45 206 -12 50 -21 107 -21 125 0 39 -21 124 -40 159
-17 32 -113 164 -122 168 -5 2 -8 10 -8 18 0 9 -4 13 -9 10 -10 -7 -33 18 -25
27 13 13 -91 150 -150 197 -66 54 -102 62 -130 31 -22 -24 -49 -17 -41 10 6
19 -2 26 -40 32 -11 1 -33 12 -50 22 -19 14 -46 20 -81 20 -45 0 -55 4 -73 27
-12 14 -43 34 -69 44 -54 20 -100 49 -123 79 -22 27 -142 87 -161 80 -9 -4
-19 4 -27 22 l-13 28 -28 -34 -29 -34 -7 39 c-5 22 -7 42 -6 47 1 4 -1 7 -6 7
-17 -1 -30 -18 -55 -73 -14 -31 -51 -92 -82 -135 -31 -42 -70 -99 -88 -126
-42 -63 -78 -78 -113 -45 -31 29 -32 67 0 78 39 15 77 56 64 69 -23 23 37 126
79 137 18 4 23 11 21 28 -3 21 -9 22 -85 23 -89 2 -103 6 -103 32 0 31 35 101
52 106 19 4 35 33 24 43 -4 4 -20 2 -36 -4 -24 -9 -32 -8 -48 7 -16 15 -20 38
-26 132 -4 62 -11 140 -17 173 -15 82 -3 215 19 215 13 0 12 3 -4 15 -18 14
-17 17 39 70 32 31 55 60 52 65 -3 5 9 7 27 5 24 -4 29 -2 20 7 -38 38 15 58
92 37z m3786 -11 c0 -12 -1 -19 -3 -17 -1 2 -9 12 -16 22 -12 14 -11 17 3 17
10 0 16 -8 16 -22z m-6080 -24 c0 -2 -7 -4 -15 -4 -8 0 -15 4 -15 10 0 5 7 7
15 4 8 -4 15 -8 15 -10z m6060 -4 c0 -5 -4 -10 -10 -10 -5 0 -10 5 -10 10 0 6
5 10 10 10 6 0 10 -4 10 -10z m120 -16 c0 -8 -4 -14 -10 -14 -5 0 -10 9 -10
21 0 11 5 17 10 14 6 -3 10 -13 10 -21z m60 -44 c0 -5 -18 -10 -40 -10 -22 0
-40 5 -40 10 0 6 18 10 40 10 22 0 40 -4 40 -10z m-119 -133 c-17 -17 -18 -6
-7 43 l10 45 4 -39 c2 -21 -1 -43 -7 -49z m69 68 c0 -8 -4 -15 -10 -15 -5 0
-10 7 -10 15 0 8 5 15 10 15 6 0 10 -7 10 -15z m-100 -42 c0 -26 -1 -26 -14
-8 -14 20 -12 35 5 35 5 0 9 -12 9 -27z m-4056 -4 c-3 -5 -10 -7 -15 -3 -5 3
-7 10 -3 15 3 5 10 7 15 3 5 -3 7 -10 3 -15z m2980 -8 c3 -5 -1 -12 -10 -15
-27 -11 -37 -7 -24 9 14 17 26 19 34 6z m106 -1 c0 -5 -5 -10 -11 -10 -5 0 -7
5 -4 10 3 6 8 10 11 10 2 0 4 -4 4 -10z m1002 -52 c-9 -9 -15 -9 -24 0 -9 9
-7 12 12 12 19 0 21 -3 12 -12z m-7756 -43 c26 -13 26 -15 7 -15 -28 0 -53 10
-53 21 0 13 14 11 46 -6z m7164 -5 c0 -5 -7 -7 -15 -4 -8 4 -15 8 -15 10 0 2
7 4 15 4 8 0 15 -4 15 -10z m-486 -26 c5 -14 4 -15 -9 -4 -17 14 -19 20 -6 20
5 0 12 -7 15 -16z m-6763 -21 c-9 -12 -20 -18 -26 -13 -12 10 -65 -11 -84 -33
-12 -15 -11 -17 4 -17 28 0 10 -12 -32 -20 -21 -5 -48 -12 -60 -15 -13 -4 -23
-3 -23 2 0 12 45 33 70 33 11 0 20 5 20 10 0 12 -2 12 -34 0 -17 -6 -27 -6
-32 1 -4 7 -12 5 -22 -4 -10 -8 -29 -17 -44 -21 -14 -3 -34 -8 -45 -12 -10 -3
-7 1 7 10 14 8 33 15 43 16 10 0 15 4 12 10 -6 10 18 18 74 24 19 2 40 11 46
20 7 9 25 16 41 16 16 0 34 4 41 8 6 4 22 7 36 7 23 0 23 -1 8 -22z m6719 12
c0 -8 -7 -15 -15 -15 -26 0 -18 20 13 29 1 1 2 -6 2 -14z m-6221 -44 c10 -6
10 -10 1 -16 -7 -4 -19 0 -28 9 -14 13 -14 16 -2 16 8 0 21 -4 29 -9z m6344 2
c-7 -2 -19 -2 -25 0 -7 3 -2 5 12 5 14 0 19 -2 13 -5z m940 0 c-7 -2 -19 -2
-25 0 -7 3 -2 5 12 5 14 0 19 -2 13 -5z m-7193 -63 c0 -5 -4 -10 -10 -10 -5 0
-10 5 -10 10 0 6 5 10 10 10 6 0 10 -4 10 -10z m-820 -10 c0 -5 -4 -10 -10
-10 -5 0 -10 5 -10 10 0 6 5 10 10 10 6 0 10 -4 10 -10z m728 3 c-10 -2 -28
-2 -40 0 -13 2 -5 4 17 4 22 1 32 -1 23 -4z m7286 1 c18 -7 23 -64 6 -64 -5 0
-10 14 -10 30 0 21 -5 30 -16 30 -8 0 -12 -4 -9 -10 3 -5 1 -10 -4 -10 -12 0
-14 13 -4 23 8 9 17 9 37 1z m-1014 -13 c0 -5 -9 -7 -20 -4 -11 3 -20 7 -20 9
0 2 9 4 20 4 11 0 20 -4 20 -9z m540 -42 c0 -6 -4 -7 -10 -4 -5 3 -10 11 -10
16 0 6 5 7 10 4 6 -3 10 -11 10 -16z m-7740 -13 c0 -3 -4 -8 -10 -11 -5 -3
-10 -1 -10 4 0 6 5 11 10 11 6 0 10 -2 10 -4z m8070 -56 c0 -11 -4 -20 -10
-20 -5 0 -10 9 -10 20 0 11 5 20 10 20 6 0 10 -9 10 -20z m93 -18 c-3 -13 -13
-17 -34 -16 -17 1 -33 4 -36 7 -12 13 11 27 42 27 27 0 32 -3 28 -18z m-158
-32 c3 -5 1 -10 -4 -10 -6 0 -11 5 -11 10 0 6 2 10 4 10 3 0 8 -4 11 -10z m65
-6 c0 -8 -5 -12 -10 -9 -6 4 -8 11 -5 16 9 14 15 11 15 -7z m-963 -36 c-3 -7
-5 -2 -5 12 0 14 2 19 5 13 2 -7 2 -19 0 -25z m1049 -1 c2 -7 0 -24 -5 -38 -7
-17 -10 -19 -10 -6 -1 9 -8 17 -16 17 -18 0 -19 12 -3 28 16 16 27 15 34 -1z
m-6686 -77 c0 -5 -7 -7 -15 -4 -8 4 -15 8 -15 10 0 2 7 4 15 4 8 0 15 -4 15
-10z m6650 -20 c0 -5 -5 -10 -11 -10 -5 0 -7 5 -4 10 3 6 8 10 11 10 2 0 4 -4
4 -10z m-930 -50 c0 -5 -4 -10 -10 -10 -5 0 -10 5 -10 10 0 6 5 10 10 10 6 0
10 -4 10 -10z m760 -30 c0 -5 -4 -10 -10 -10 -5 0 -10 5 -10 10 0 6 5 10 10
10 6 0 10 -4 10 -10z m-3750 -15 c10 -13 9 -15 -9 -15 -12 0 -21 6 -21 15 0 8
4 15 9 15 5 0 14 -7 21 -15z m3477 -7 c-3 -8 -6 -5 -6 6 -1 11 2 17 5 13 3 -3
4 -12 1 -19z m218 12 c7 0 16 -7 19 -16 5 -14 4 -15 -8 -5 -7 6 -20 9 -28 6
-9 -4 -18 1 -22 11 -5 12 -2 15 10 10 8 -3 22 -6 29 -6z m-733 -12 c-9 -9 -15
-9 -24 0 -9 9 -7 12 12 12 19 0 21 -3 12 -12z m-65 -20 c-3 -8 -6 -5 -6 6 -1
11 2 17 5 13 3 -3 4 -12 1 -19z m341 -6 c3 -9 -3 -13 -19 -10 -12 1 -24 9 -27
16 -3 9 3 13 19 10 12 -1 24 -9 27 -16z m52 -2 c0 -5 -5 -10 -11 -10 -5 0 -7
5 -4 10 3 6 8 10 11 10 2 0 4 -4 4 -10z m-197 -23 c-12 -5 -30 -6 -40 -2 -17
7 -17 8 2 15 11 4 29 5 39 2 19 -5 19 -6 -1 -15z m697 3 c0 -15 -7 -20 -25
-20 -40 0 -25 27 23 39 1 1 2 -8 2 -19z m-310 -11 c0 -5 -10 -9 -21 -9 -18 0
-19 2 -9 15 12 15 30 12 30 -6z m143 14 c-7 -2 -19 -2 -25 0 -7 3 -2 5 12 5
14 0 19 -2 13 -5z m47 -8 c10 -12 10 -15 -4 -15 -9 0 -16 7 -16 15 0 8 2 15 4
15 2 0 9 -7 16 -15z m-580 -31 c0 -7 -4 -16 -10 -19 -5 -3 -10 -1 -10 6 0 7
-6 5 -13 -6 -15 -20 -31 -7 -21 18 7 18 54 19 54 1z m740 12 c0 -11 -19 -15
-25 -6 -3 5 1 10 9 10 9 0 16 -2 16 -4z m-440 -36 c0 -5 -13 -10 -30 -10 -16
0 -30 5 -30 10 0 6 14 10 30 10 17 0 30 -4 30 -10z m247 -32 c-3 -8 -6 -5 -6
6 -1 11 2 17 5 13 3 -3 4 -12 1 -19z m-491 -15 c-10 -10 -19 5 -10 18 6 11 8
11 12 0 2 -7 1 -15 -2 -18z m84 -5 c0 -23 -3 -29 -11 -21 -6 6 -8 20 -4 32 9
30 15 26 15 -11z m-397 -42 c3 -30 1 -43 -4 -35 -8 13 -13 97 -5 88 2 -2 6
-26 9 -53z m636 50 c-10 -9 -109 -14 -109 -6 0 6 26 10 57 10 31 0 54 -2 52
-4z m141 0 c0 -3 -5 -17 -10 -32 -10 -26 -11 -26 -30 -9 -29 27 -25 45 10 45
17 0 30 -2 30 -4z m-257 -15 c20 -2 4 -21 -18 -21 -15 0 -25 6 -25 14 0 8 8
13 18 11 9 -2 20 -4 25 -4z m-263 -21 c0 -5 -4 -10 -10 -10 -5 0 -10 5 -10 10
0 6 5 10 10 10 6 0 10 -4 10 -10z m300 -15 c0 -26 -14 -33 -25 -15 -9 14 1 40
15 40 5 0 10 -11 10 -25z m-387 -10 c-7 -21 -13 -19 -13 6 0 11 4 18 10 14 5
-3 7 -12 3 -20z m57 11 c0 -3 -4 -8 -10 -11 -5 -3 -10 -1 -10 4 0 6 5 11 10
11 6 0 10 -2 10 -4z m230 -46 c0 -5 -4 -10 -10 -10 -5 0 -10 7 -10 15 0 8 -4
15 -10 15 -5 0 -10 8 -10 17 0 14 3 14 20 -5 11 -12 20 -26 20 -32z m-106 31
c5 -8 -29 -19 -86 -27 -16 -2 -28 1 -28 6 0 6 12 10 28 10 15 0 34 5 42 10 19
12 37 13 44 1z m176 -10 c-1 -11 -50 -42 -50 -31 0 5 5 10 10 10 6 0 10 5 10
10 0 6 -7 10 -15 10 -8 0 -15 4 -15 8 0 5 14 7 30 4 17 -2 30 -7 30 -11z m120
-23 c0 -9 3 -24 6 -33 6 -14 8 -14 25 1 18 16 19 16 19 -8 0 -16 -7 -27 -18
-30 -22 -6 -42 14 -42 42 0 18 -3 19 -21 9 -15 -7 -18 -14 -11 -21 6 -6 8 -17
5 -24 -3 -9 2 -14 15 -14 15 0 18 -5 14 -25 -2 -15 0 -25 7 -25 6 0 11 7 11
15 0 16 16 20 24 6 13 -20 -24 -32 -91 -29 -59 3 -64 5 -35 12 28 8 47 36 23
36 -5 0 -16 2 -23 5 -8 3 -25 -3 -38 -15 -29 -25 -40 -25 -40 0 0 11 12 25 26
33 17 9 23 17 15 21 -15 10 -14 26 3 26 7 0 16 -9 19 -21 5 -18 8 -19 26 -7
21 13 21 13 1 20 -20 7 -26 28 -13 42 4 3 26 5 50 4 32 -2 43 -7 43 -20z m70
7 c0 -8 -4 -15 -10 -15 -5 0 -10 7 -10 15 0 8 5 15 10 15 6 0 10 -7 10 -15z
m-320 -25 c0 -11 -7 -20 -15 -20 -8 0 -15 9 -15 20 0 11 7 20 15 20 8 0 15 -9
15 -20z m-106 1 c4 -1 6 -10 3 -21 -3 -13 0 -20 9 -20 8 0 14 5 14 10 0 6 9
10 20 10 19 0 28 -15 12 -22 -4 -1 -5 -19 -1 -38 5 -34 9 -32 23 14 4 12 10
12 30 3 31 -14 34 -32 5 -24 -18 5 -20 2 -15 -18 5 -19 3 -23 -9 -19 -10 4
-15 0 -15 -15 0 -12 -6 -21 -12 -20 -7 1 -28 1 -45 0 -26 -1 -33 -5 -33 -21 0
-17 -6 -20 -37 -19 -21 1 -30 3 -20 6 9 2 17 9 17 15 0 6 -8 17 -17 24 -17 13
-17 13 0 14 9 0 17 -4 17 -10 0 -5 9 -10 20 -10 13 0 20 7 20 20 0 14 7 20 24
20 13 0 26 -6 29 -12 2 -7 8 -9 13 -5 5 4 3 12 -4 16 -7 4 -12 14 -10 22 2 10
-10 15 -44 17 -39 3 -48 7 -48 22 0 10 8 21 18 23 13 3 9 8 -15 18 -57 23 -39
30 51 20z m146 -26 c0 -8 -4 -15 -10 -15 -5 0 -10 7 -10 15 0 8 5 15 10 15 6
0 10 -7 10 -15z m45 -14 c-3 -6 -14 -10 -23 -10 -15 1 -15 2 1 6 9 2 17 9 17
15 0 6 3 9 6 5 3 -3 3 -10 -1 -16z m-408 -27 c-3 -3 -12 -4 -19 -1 -8 3 -5 6
6 6 11 1 17 -2 13 -5z m403 -59 c0 -8 -5 -15 -11 -15 -5 0 -8 4 -5 9 4 5 0 12
-6 14 -8 3 -6 6 5 6 9 1 17 -6 17 -14z m-343 -1 c-3 -3 -12 -4 -19 -1 -8 3 -5
6 6 6 11 1 17 -2 13 -5z m50 0 c-3 -3 -12 -4 -19 -1 -8 3 -5 6 6 6 11 1 17 -2
13 -5z m248 -29 c-11 -8 -25 -19 -32 -25 -16 -13 -83 -13 -83 1 0 6 15 9 38 7
31 -2 37 0 34 15 -2 13 4 17 30 17 31 -1 32 -1 13 -15z m-257 -23 c-10 -2 -18
-8 -18 -13 0 -5 -6 -9 -14 -9 -8 0 -17 -6 -19 -12 -4 -10 -8 -9 -16 2 -8 12
-5 17 14 23 14 5 25 15 25 23 0 12 4 13 23 2 19 -10 20 -13 5 -16z m-5503 -14
c-6 -19 -5 -21 6 -10 16 14 53 16 44 2 -4 -6 -10 -8 -14 -5 -5 2 -18 -6 -30
-19 -14 -15 -18 -25 -11 -28 22 -7 -3 -38 -36 -44 -39 -7 -56 2 -34 17 12 8
10 10 -7 6 -27 -6 -28 1 -9 39 8 15 13 30 11 33 -1 3 11 7 28 7 17 1 33 6 35
13 7 22 23 11 17 -11z m5405 -3 c0 -8 -4 -15 -10 -15 -5 0 -7 7 -4 15 4 8 8
15 10 15 2 0 4 -7 4 -15z m-53 -11 c-3 -3 -12 -4 -19 -1 -8 3 -5 6 6 6 11 1
17 -2 13 -5z m53 -34 c0 -5 -10 -10 -22 -10 -19 0 -20 2 -8 10 19 13 30 13 30
0z m90 -20 c-9 -6 -9 -9 1 -13 10 -4 9 -6 -3 -6 -20 -1 -21 0 -12 23 3 9 11
13 16 10 6 -4 6 -9 -2 -14z m-110 -19 c0 -17 -18 -21 -24 -6 -3 9 0 15 9 15 8
0 15 -4 15 -9z m580 -26 c0 -11 -11 -15 -40 -15 -29 0 -40 4 -40 15 0 11 11
15 40 15 29 0 40 -4 40 -15z m-4868 -25 c-23 -17 -42 -35 -42 -40 0 -6 -12
-10 -27 -10 -33 0 -24 11 44 51 63 37 77 37 25 -1z m4318 -21 c0 -5 -4 -9 -10
-9 -5 0 -10 7 -10 16 0 8 5 12 10 9 6 -3 10 -10 10 -16z m50 0 c0 -5 -4 -9
-10 -9 -5 0 -10 7 -10 16 0 8 5 12 10 9 6 -3 10 -10 10 -16z m20 -47 c0 -24
-7 -46 -20 -60 -11 -12 -20 -26 -20 -31 0 -23 -19 -18 -54 12 -20 18 -33 36
-30 40 14 14 43 7 54 -13 13 -24 30 -26 30 -5 0 8 7 15 15 15 11 0 15 11 15
40 0 22 2 40 5 40 3 0 5 -17 5 -38z m-80 18 c0 -5 -4 -10 -10 -10 -5 0 -10 5
-10 10 0 6 5 10 10 10 6 0 10 -4 10 -10z m-4410 -10 c0 -5 -4 -10 -10 -10 -5
0 -10 5 -10 10 0 6 5 10 10 10 6 0 10 -4 10 -10z m4350 -30 c0 -5 -4 -10 -10
-10 -5 0 -10 5 -10 10 0 6 5 10 10 10 6 0 10 -4 10 -10z m170 -5 c0 -8 -4 -15
-10 -15 -5 0 -10 7 -10 15 0 8 5 15 10 15 6 0 10 -7 10 -15z m-177 -46 c5 -4
7 -12 3 -17 -4 -8 -13 -6 -26 5 -15 13 -17 20 -8 31 10 12 13 12 17 1 2 -8 8
-17 14 -20z m-4433 4 c-1 -33 -16 -53 -47 -64 -40 -13 -49 -8 -34 20 16 28 81
64 81 44z m4600 -2 c0 -6 -4 -13 -10 -16 -5 -3 -10 1 -10 9 0 9 5 16 10 16 6
0 10 -4 10 -9z m51 -26 c-1 -15 -24 -12 -29 3 -3 9 2 13 12 10 10 -1 17 -7 17
-13z m-79 -42 c-3 -16 -7 -22 -10 -15 -4 13 4 42 11 42 2 0 2 -12 -1 -27z
m-45 -20 c-3 -10 -5 -4 -5 12 0 17 2 24 5 18 2 -7 2 -21 0 -30z m119 10 c-10
-10 -19 5 -10 18 6 11 8 11 12 0 2 -7 1 -15 -2 -18z m-37 -78 c0 -18 -1 -17
-14 5 -8 14 -14 36 -14 50 1 24 1 24 14 -5 8 -16 14 -39 14 -50z m81 55 c0
-11 5 -20 10 -20 6 0 10 9 10 20 0 11 5 20 10 20 6 0 10 -9 10 -19 0 -11 4
-23 10 -26 5 -3 9 -32 8 -63 -1 -31 -3 -49 -6 -39 -6 27 -22 20 -22 -10 -1
-28 -1 -28 -15 6 -22 51 -20 71 10 71 16 0 25 6 25 15 0 10 -10 15 -30 15 -16
0 -30 -5 -30 -11 0 -6 -6 -17 -14 -25 -13 -12 -16 -11 -21 7 -5 15 -2 25 9 31
9 5 16 18 16 28 0 11 5 20 10 20 6 0 10 -9 10 -20z m100 -50 c0 -22 -4 -40
-10 -40 -11 0 -13 39 -4 64 10 26 14 19 14 -24z m-247 6 c6 -15 -1 -26 -15
-26 -4 0 -8 9 -8 20 0 23 15 27 23 6z m292 -46 c-6 -29 -6 -30 27 -24 30 5 31
4 16 -9 -10 -8 -18 -22 -18 -31 0 -19 30 -22 30 -3 1 6 8 3 18 -9 10 -11 23
-23 30 -25 10 -3 9 -9 -2 -24 -15 -20 -15 -20 -16 1 0 20 -4 21 -47 16 -27 -3
-51 -10 -55 -16 -5 -8 -10 -8 -19 1 -8 8 -3 13 20 18 31 7 40 19 22 29 -13 9
-32 102 -24 122 10 27 26 -11 18 -46z m-195 -11 c0 -5 -4 -9 -10 -9 -5 0 -10
7 -10 16 0 8 5 12 10 9 6 -3 10 -10 10 -16z m-61 -5 c2 -2 -12 -4 -33 -4 -22
0 -35 4 -31 10 5 9 52 4 64 -6z m401 -19 c0 -19 -4 -23 -17 -18 -10 3 -22 11
-28 18 -5 6 -17 14 -25 18 -8 3 4 6 28 6 38 1 42 -1 42 -24z m-295 -27 c-1
-57 -20 -60 -20 -3 0 25 5 45 11 45 5 0 10 -19 9 -42z m115 20 c0 -19 -2 -20
-10 -8 -13 19 -13 30 0 30 6 0 10 -10 10 -22z m-143 -20 c-3 -8 -6 -5 -6 6 -1
11 2 17 5 13 3 -3 4 -12 1 -19z m-191 -2 c8 -8 14 -21 14 -28 0 -8 -4 -7 -11
5 -5 9 -17 17 -25 17 -8 0 -12 5 -9 10 8 13 14 13 31 -4z m149 -26 c3 -5 -3
-10 -14 -10 -12 0 -21 5 -21 10 0 6 6 10 14 10 8 0 18 -4 21 -10z m-6295 -27
c36 -21 71 -82 63 -111 -6 -24 -18 -16 -42 30 -14 27 -55 48 -94 48 -29 0 -79
-42 -102 -86 -19 -37 -36 -57 -43 -50 -8 8 46 86 92 133 55 56 81 63 126 36z
m1430 -3 c0 -5 -4 -10 -10 -10 -5 0 -10 5 -10 10 0 6 5 10 10 10 6 0 10 -4 10
-10z m4720 0 c0 -5 -7 -10 -16 -10 -8 0 -12 5 -9 10 3 6 10 10 16 10 5 0 9 -4
9 -10z m194 -15 c9 -14 12 -25 6 -25 -5 0 -10 5 -10 10 0 6 -13 10 -30 10 -29
0 -38 9 -23 23 14 15 41 6 57 -18z m91 -5 c3 -5 1 -10 -4 -10 -6 0 -11 5 -11
10 0 6 2 10 4 10 3 0 8 -4 11 -10z m152 -15 c8 -9 12 -19 9 -23 -4 -3 -11 0
-15 7 -6 9 -23 12 -50 9 -39 -3 -49 1 -34 15 12 13 74 7 90 -8z m-432 -5 c-3
-5 -10 -10 -16 -10 -5 0 -9 5 -9 10 0 6 7 10 16 10 8 0 12 -4 9 -10z m175 -10
c12 -8 11 -10 -8 -10 -19 0 -21 -3 -13 -19 11 -20 5 -31 -16 -31 -8 0 -13 11
-13 28 0 42 18 53 50 32z m128 -6 c12 -4 22 -10 22 -15 0 -13 -23 -10 -44 6
-21 16 -15 18 22 9z m262 -20 c11 -12 10 -18 -3 -32 -16 -15 -18 -15 -34 0
-13 14 -14 20 -3 32 7 9 16 16 20 16 4 0 13 -7 20 -16z m-6807 -28 c-4 -27 -1
-36 18 -49 17 -12 19 -17 8 -21 -8 -2 -30 -10 -50 -16 -42 -12 -57 -40 -58
-106 -1 -43 15 -66 55 -78 13 -4 25 -21 33 -46 8 -27 21 -45 41 -55 29 -15 30
-15 36 11 4 14 2 30 -5 37 -24 24 1 137 30 137 24 0 42 -26 34 -50 -3 -11 -2
-20 3 -20 6 0 9 -10 6 -22 -2 -13 -6 -44 -10 -70 -4 -28 -12 -48 -19 -48 -20
0 -40 -29 -28 -41 17 -17 2 -58 -26 -75 -14 -9 -37 -31 -49 -51 -13 -19 -26
-32 -29 -29 -3 3 0 12 7 21 13 16 22 95 11 95 -3 0 -12 -9 -19 -20 -17 -27
-41 -14 -67 37 -11 21 -33 59 -48 84 -44 71 -53 245 -15 284 6 6 7 -4 1 -30
-14 -69 -7 -112 27 -165 18 -27 36 -47 41 -44 5 3 -2 22 -16 42 -41 63 -43
114 -4 207 4 11 10 30 14 42 9 33 44 73 65 73 16 0 18 -6 13 -34z m6647 -56
c0 -5 -4 -10 -10 -10 -5 0 -10 5 -10 10 0 6 5 10 10 10 6 0 10 -4 10 -10z
m-2510 -10 c25 -6 62 -18 82 -26 41 -18 42 -19 57 -159 23 -204 23 -202 8
-216 -21 -21 -37 -55 -37 -78 0 -11 -5 -32 -10 -46 -9 -23 -13 -25 -25 -15
-24 20 -332 32 -366 14 -15 -7 -55 -18 -89 -23 -74 -12 -86 -6 -96 46 -5 28
-2 39 17 60 l24 25 -54 -3 -54 -4 -14 50 c-7 28 -14 88 -16 134 -3 72 -6 86
-25 102 l-22 17 50 31 c28 17 57 31 66 31 8 0 70 11 137 25 111 23 233 41 297
43 14 1 45 -3 70 -8z m-5912 -66 c28 -19 26 -51 -5 -79 -11 -11 -26 -39 -32
-62 -6 -23 -16 -45 -21 -48 -6 -3 -10 -18 -10 -32 0 -16 -7 -27 -19 -30 -17
-4 -18 -9 -10 -30 6 -17 6 -30 -1 -38 -5 -6 -8 -14 -5 -17 3 -3 -1 -11 -10
-18 -18 -15 -20 -90 -2 -109 10 -11 9 -12 -3 -6 -10 6 -9 1 4 -13 21 -24 15
-52 -11 -52 -15 0 -16 -2 -3 -10 13 -9 13 -10 0 -11 -8 -1 -18 -1 -23 0 -4 1
-11 -10 -16 -23 -5 -13 -36 -43 -69 -67 l-59 -44 5 -51 c5 -51 -19 -124 -40
-124 -5 0 -7 -4 -3 -9 8 -14 -35 -35 -46 -24 -16 16 -38 167 -27 181 7 7 7 17
1 25 -6 7 -5 25 3 47 7 19 13 32 13 28 1 -10 41 24 41 34 0 4 -7 5 -15 2 -13
-5 -14 -2 -4 22 14 36 17 94 6 94 -5 0 -7 -13 -5 -30 3 -20 0 -30 -9 -30 -7 0
-13 -10 -14 -22 0 -13 -3 -17 -6 -11 -5 15 64 227 103 314 15 32 35 61 44 64
10 3 24 13 32 22 9 12 9 15 1 9 -23 -13 -14 20 16 61 62 85 148 123 199 87z
m8685 -14 c3 -11 1 -18 -4 -14 -5 3 -9 12 -9 20 0 20 7 17 13 -6z m72 -32 c12
-24 12 -28 2 -15 -8 9 -19 17 -26 17 -12 0 -15 13 -4 23 10 11 11 9 28 -25z
m-105 12 c0 -5 -4 -10 -10 -10 -5 0 -10 5 -10 10 0 6 5 10 10 10 6 0 10 -4 10
-10z m-3567 -75 c-22 -16 -83 -32 -83 -22 0 27 16 37 58 37 44 0 45 -1 25 -15z
m-1923 -40 c-7 -8 -16 -15 -21 -15 -15 0 -10 22 9 43 15 17 17 17 20 3 2 -9
-2 -23 -8 -31z m1958 -42 c22 -24 31 -73 13 -73 -5 0 -20 4 -34 9 -24 9 -52 1
-45 -14 5 -14 -75 -36 -115 -32 -24 3 -43 -1 -52 -9 -7 -8 -19 -14 -25 -14
-14 0 -40 -25 -40 -38 0 -5 9 -17 20 -27 17 -15 26 -16 62 -7 108 27 237 23
276 -8 19 -16 21 -22 12 -46 -13 -32 -6 -42 15 -24 12 10 19 10 27 2 19 -19
-14 -24 -78 -13 -45 9 -63 8 -84 -2 -15 -8 -38 -13 -51 -11 -13 1 -33 3 -44 3
-11 1 -33 12 -49 26 l-29 25 -30 -35 c-16 -19 -33 -32 -39 -29 -6 4 -40 9 -77
11 -36 3 -68 8 -71 12 -3 4 -13 10 -22 14 -27 10 -21 35 13 56 17 11 39 33 50
50 18 31 18 31 -1 31 -16 0 -20 7 -20 30 0 20 -5 30 -15 30 -8 0 -15 4 -15 10
0 20 49 41 165 70 65 17 120 32 123 35 2 2 34 2 71 -1 53 -5 70 -11 89 -31z
m-4717 17 c10 -6 19 -15 19 -20 0 -17 -26 -11 -45 10 -20 22 -7 27 26 10z
m4827 -17 c4 -27 -22 -31 -53 -7 -17 13 -18 16 -5 24 25 16 55 7 58 -17z
m3866 -127 c-3 -8 -13 -12 -25 -9 -27 7 -24 23 6 23 17 0 23 -4 19 -14z m-64
-45 l0 -26 -15 29 c-19 35 -19 37 0 30 8 -4 15 -18 15 -33z m-3770 -22 c0 -23
-33 -25 -68 -5 -19 10 -21 15 -10 23 34 28 78 18 78 -18z m3835 -1 c10 -2 12
-8 6 -17 -15 -23 -45 13 -35 41 l8 23 4 -22 c2 -12 10 -23 17 -25z m-6970 -8
c-3 -5 -12 -10 -18 -10 -7 0 -6 4 3 10 19 12 23 12 15 0z m190 -50 c-3 -5 -13
-10 -21 -10 -8 0 -14 5 -14 10 0 6 9 10 21 10 11 0 17 -4 14 -10z m-237 -45
c15 -32 15 -35 2 -35 -5 0 -10 9 -10 20 0 11 -4 20 -10 20 -5 0 -10 5 -10 10
0 19 17 10 28 -15z m52 -5 c0 -11 -4 -20 -8 -20 -4 0 -8 9 -8 20 0 11 4 20 8
20 4 0 8 -9 8 -20z m7155 0 c4 -6 -5 -10 -20 -10 -15 0 -24 4 -20 10 3 6 12
10 20 10 8 0 17 -4 20 -10z m-4082 -50 c14 -11 31 -20 39 -20 38 0 54 -71 19
-89 -14 -8 -25 -6 -42 8 -41 31 -66 35 -95 12 -22 -17 -41 -21 -101 -21 -48 0
-85 -6 -104 -16 -23 -11 -38 -13 -58 -6 -17 6 -34 6 -44 0 -23 -12 -57 7 -57
33 0 12 7 37 16 56 l17 34 72 -6 c51 -5 94 -2 146 9 41 9 92 17 114 19 22 2
43 4 46 5 4 1 18 -7 32 -18z m4117 12 c0 -5 -13 -7 -30 -4 -16 2 -30 6 -30 8
0 2 14 4 30 4 17 0 30 -4 30 -8z m-3785 -42 c27 -7 25 -8 -15 -8 -25 0 -56 4
-70 8 -21 7 -19 8 15 8 22 0 54 -4 70 -8z m3785 0 c0 -13 -20 -13 -40 0 -12 8
-9 10 13 10 15 0 27 -4 27 -10z m-9730 -47 c-19 -57 -34 -86 -38 -74 -2 7 6
32 17 56 12 25 21 50 21 57 0 6 3 9 6 5 3 -3 0 -23 -6 -44z m2440 -13 c0 -5
-4 -10 -9 -10 -6 0 -13 5 -16 10 -3 6 1 10 9 10 9 0 16 -4 16 -10z m3200 -78
c0 -14 -68 -66 -115 -88 -47 -21 -72 -26 -133 -25 -83 1 -97 8 -111 58 l-9 31
77 7 c42 4 93 10 112 15 31 8 179 9 179 2z m-2390 -140 c0 -5 14 -7 30 -6 33
2 33 2 24 -20 -5 -14 -9 -14 -34 -1 -31 16 -48 35 -31 35 6 0 11 -4 11 -8z
m65 -102 c-3 -5 -10 -10 -16 -10 -5 0 -9 5 -9 10 0 6 7 10 16 10 8 0 12 -4 9
-10z m3625 -66 c0 -8 -5 -12 -10 -9 -6 4 -8 11 -5 16 9 14 15 11 15 -7z m-20
-73 c16 -31 -33 -230 -59 -239 -6 -2 -11 -14 -11 -26 0 -19 -5 -22 -39 -22
-25 1 -50 9 -67 24 -16 12 -35 22 -44 22 -24 0 -40 21 -40 50 0 18 3 21 9 11
6 -10 19 -12 41 -8 28 6 31 5 25 -13 -5 -15 -2 -20 10 -20 11 0 15 -5 12 -14
-3 -8 2 -17 11 -21 9 -3 14 -3 10 0 -3 3 12 24 34 45 21 22 34 40 29 40 -13 0
8 73 24 82 7 5 19 30 26 58 7 27 14 50 16 50 1 0 7 -9 13 -19z m2440 -119 c-8
-2 -21 -11 -27 -20 -7 -9 -13 -11 -13 -5 0 18 31 44 43 36 7 -4 6 -8 -3 -11z
m273 -4 c98 -12 131 -28 57 -28 -24 0 -40 -5 -40 -12 0 -6 -6 -3 -14 8 -12 15
-17 16 -27 7 -9 -9 -16 -10 -26 -2 -10 9 -13 6 -14 -12 0 -22 -1 -23 -9 -4 -5
11 -9 14 -9 8 -1 -19 -21 -16 -21 3 0 14 -3 14 -15 4 -12 -10 -15 -10 -15 0 0
8 -3 10 -7 7 -3 -4 -12 -2 -20 4 -38 32 4 36 160 17z m-2837 -254 c5 -36 4
-42 -15 -47 -14 -3 -21 0 -21 10 0 8 5 11 11 7 8 -4 10 7 8 39 -5 55 7 49 17
-9z m-26 6 c0 -5 -4 -10 -10 -10 -5 0 -10 5 -10 10 0 6 5 10 10 10 6 0 10 -4
10 -10z m60 -31 c0 -5 -4 -9 -10 -9 -5 0 -10 7 -10 16 0 8 5 12 10 9 6 -3 10
-10 10 -16z m20 -34 c0 -8 -9 -15 -19 -15 -11 0 -23 -4 -26 -10 -3 -5 -13 -10
-21 -10 -8 0 -14 5 -14 10 0 6 7 10 16 10 8 0 22 7 30 15 9 8 20 15 25 15 5 0
9 -7 9 -15z m-1980 -74 c0 -5 -7 -11 -15 -15 -15 -5 -20 5 -8 17 9 10 23 9 23
-2z m1919 -543 c20 -81 25 -241 12 -322 -7 -39 -22 -115 -33 -170 -18 -85 -24
-186 -18 -276 1 -14 0 -83 -2 -155 -5 -141 -18 -190 -59 -219 -23 -16 -25 -16
-46 9 -13 14 -23 33 -23 41 0 8 -4 14 -9 14 -5 0 -11 26 -14 58 -7 75 16 178
59 261 19 36 34 75 34 87 0 11 4 24 9 30 6 5 19 43 29 84 39 147 45 213 37
417 -7 198 0 241 24 141z m-3250 -2 c30 -32 21 -48 -19 -34 -22 7 -30 16 -30
34 0 31 20 31 49 0z m-407 -343 c-1 -27 2 -54 7 -62 5 -7 5 -28 1 -45 -5 -17
-11 -52 -14 -77 -4 -27 -12 -46 -19 -46 -10 0 -12 36 -10 151 1 83 2 153 3
156 0 2 8 -3 17 -13 12 -12 16 -31 15 -64z m298 3 c0 -66 -16 -75 -23 -14 -4
29 -7 62 -7 73 1 20 1 20 15 1 8 -11 15 -38 15 -60z m2911 -9 c-13 -13 -26 -3
-16 12 3 6 11 8 17 5 6 -4 6 -10 -1 -17z m-7988 -1 c3 -8 3 -17 -1 -20 -7 -8
-10 -27 -14 -78 -2 -45 -24 -56 -66 -34 -31 16 -57 69 -45 90 4 6 8 16 9 21 0
6 2 16 2 23 3 18 108 16 115 -2z m57 -12 c0 -8 -2 -14 -4 -14 -2 0 -11 -3 -20
-6 -19 -7 -22 16 -4 34 13 13 28 7 28 -14z m9820 -79 c0 -14 -5 -25 -11 -25
-5 0 -8 -4 -5 -9 8 -13 -4 -41 -17 -41 -8 0 -8 3 0 11 6 6 9 28 6 50 -5 32 -3
39 11 39 10 0 16 -9 16 -25z m1354 -63 c6 -5 23 -12 39 -16 15 -3 27 -10 27
-16 0 -18 -105 -35 -125 -20 -5 4 -27 10 -47 14 -41 7 -41 7 -33 28 6 16 120
24 139 10z m-3365 -64 c1 -4 -5 -5 -13 -2 -12 5 -14 18 -6 44 2 6 18 -31 19
-42z m-3456 -149 c-4 -79 -11 -125 -20 -137 -12 -15 -13 4 -11 133 2 83 7 157
13 165 17 27 24 -38 18 -161z m6664 -12 c19 -19 29 -41 33 -74 4 -40 9 -49 27
-51 16 -2 26 5 37 26 8 16 12 32 9 36 -11 10 77 7 98 -4 22 -13 26 -68 7 -101
-10 -17 -10 -23 0 -26 6 -3 12 -11 12 -18 0 -7 4 -15 10 -17 12 -4 28 -87 24
-124 -1 -14 -5 -85 -9 -157 -3 -73 -8 -174 -10 -225 -3 -51 -7 -166 -11 -255
-3 -89 -11 -259 -18 -377 -7 -118 -13 -239 -12 -268 1 -45 -1 -52 -19 -52 -17
0 -301 65 -448 103 l-49 12 -4 270 c-5 327 -6 503 -5 915 0 173 -1 330 -1 348
-2 44 22 59 101 61 36 1 68 4 71 7 3 3 33 4 68 2 51 -3 67 -9 89 -31z m-6161
-64 c-5 -99 -21 -186 -36 -191 -6 -2 -8 -8 -4 -13 3 -5 1 -9 -5 -9 -15 0 -23
19 -16 38 4 9 8 31 10 47 3 42 33 194 40 205 13 21 15 7 11 -77z m-352 -157
l1 -80 -39 -7 -39 -6 7 59 c3 32 15 79 27 105 19 41 22 44 32 28 5 -10 11 -55
11 -99z m266 -136 c0 -5 -2 -10 -4 -10 -3 0 -8 5 -11 10 -3 6 -1 10 4 10 6 0
11 -4 11 -10z m-56 -96 c-6 -24 -5 -26 17 -19 13 4 30 14 36 23 24 30 23 5 -2
-72 -14 -42 -25 -83 -25 -92 0 -28 -60 28 -82 76 -11 25 -22 48 -24 51 -2 3 8
5 21 3 21 -2 25 2 25 22 0 14 4 22 10 19 6 -3 10 -1 10 4 0 6 5 11 10 11 6 0
8 -11 4 -26z m46 5 c0 -5 -4 -9 -10 -9 -5 0 -10 7 -10 16 0 8 5 12 10 9 6 -3
10 -10 10 -16z m2911 -50 c19 -7 52 -28 74 -48 37 -33 38 -34 11 -4 -42 46
-27 50 24 8 34 -29 49 -35 69 -30 38 10 242 24 258 18 9 -3 13 3 13 21 0 26
30 51 52 44 7 -3 17 -20 23 -39 l12 -34 234 2 c129 1 297 9 375 17 77 8 151
12 165 9 29 -8 217 -133 200 -133 -7 0 -20 4 -29 9 -18 9 -85 22 -115 22 -10
0 -30 4 -43 9 -22 9 -24 8 -14 -10 9 -17 8 -20 -13 -20 -17 0 -27 7 -32 23 -3
12 -9 17 -11 11 -3 -7 -14 -10 -24 -7 -13 3 -20 0 -20 -8 -1 -10 -4 -8 -11 4
-5 9 -15 17 -21 17 -7 0 -6 -5 2 -15 16 -19 5 -49 -15 -41 -8 3 -15 2 -15 -2
0 -9 43 -47 50 -43 3 1 8 -8 11 -21 3 -15 12 -22 22 -20 10 2 17 -4 17 -13 0
-13 19 -20 44 -16 15 3 25 -23 14 -36 -13 -17 -58 -17 -59 0 0 8 -2 8 -5 1 -7
-17 -46 -4 -40 12 6 16 -10 19 -19 4 -4 -6 -1 -17 5 -25 11 -14 9 -19 -6 -12
-3 1 -10 -6 -16 -16 -8 -16 -18 -17 -71 -12 -63 7 -97 19 -97 35 0 5 -7 7 -15
4 -8 -4 -15 -11 -14 -18 0 -12 81 -78 163 -134 28 -19 41 -31 29 -28 -14 5
-23 3 -23 -4 0 -7 -6 -8 -19 -1 -10 6 -22 7 -26 3 -5 -4 -6 0 -2 9 4 12 -8 22
-46 39 -29 12 -63 23 -77 25 -13 1 -35 16 -49 31 -13 16 -30 28 -38 26 -7 -2
-13 2 -13 8 0 5 5 10 10 10 6 0 10 5 10 11 0 8 -5 7 -16 -2 -9 -8 -18 -9 -22
-3 -16 23 -168 49 -179 31 -6 -11 17 -38 27 -32 5 3 22 -11 39 -32 17 -20 43
-42 58 -49 28 -12 28 -12 -14 -13 -23 -1 -44 3 -47 8 -3 4 -25 11 -49 13 -48
6 -81 28 -104 72 -14 27 -14 31 3 43 12 9 20 10 22 3 2 -5 8 -10 14 -10 6 0 7
8 4 17 -4 9 -1 20 5 24 8 4 4 11 -11 19 -20 11 -25 10 -37 -6 -7 -10 -13 -15
-13 -11 0 4 -11 2 -25 -3 -19 -7 -25 -6 -25 4 0 10 -11 14 -35 13 -19 -1 -35
-5 -35 -10 0 -4 -7 -1 -16 7 -8 9 -24 16 -35 16 -11 0 -27 4 -37 9 -19 11 -49
21 -58 20 -4 0 -11 5 -15 13 -7 10 -9 10 -9 0 0 -17 -87 -13 -101 5 -6 7 -16
10 -21 7 -6 -4 -14 -1 -18 5 -4 7 -36 13 -72 15 -35 1 -69 6 -75 9 -6 4 -23 8
-37 9 -30 3 -32 14 -10 46 12 17 25 22 59 22 52 0 68 16 25 25 -33 7 -37 14
-18 33 7 7 8 12 4 12 -5 0 -14 -7 -21 -16 -10 -15 -13 -15 -29 1 -15 15 -23
16 -55 6 -21 -6 -44 -11 -51 -11 -27 0 13 30 59 44 25 8 46 15 47 15 1 1 16
-4 35 -10z m1359 -159 c0 -5 -7 -7 -15 -4 -8 4 -15 8 -15 10 0 2 7 4 15 4 8 0
15 -4 15 -10z m223 -17 c-7 -2 -21 -2 -30 0 -10 3 -4 5 12 5 17 0 24 -2 18 -5z
m-288 -13 c-3 -5 -10 -10 -16 -10 -5 0 -9 5 -9 10 0 6 7 10 16 10 8 0 12 -4 9
-10z m124 -3 c6 -8 7 -18 3 -22 -4 -5 -1 -5 6 -1 13 8 42 -10 42 -26 0 -5 -9
-7 -20 -3 -18 6 -19 2 -14 -52 5 -56 5 -57 -11 -35 -18 25 -40 30 -32 7 4 -8
2 -17 -4 -21 -6 -3 -13 3 -16 15 -3 12 -12 21 -19 21 -19 0 -18 30 2 58 8 12
14 30 13 40 -1 9 -1 20 0 25 2 12 38 8 50 -6z m296 3 c3 -5 2 -10 -4 -10 -5 0
-13 5 -16 10 -3 6 -2 10 4 10 5 0 13 -4 16 -10z m-4688 -22 c-3 -8 -6 -5 -6 6
-1 11 2 17 5 13 3 -3 4 -12 1 -19z m4751 15 c-10 -2 -26 -2 -35 0 -10 3 -2 5
17 5 19 0 27 -2 18 -5z m607 -14 c9 -27 -11 -74 -40 -93 -35 -23 -125 -46
-190 -47 -33 -1 -64 -5 -70 -9 -11 -9 -94 -26 -172 -35 -47 -6 -53 -9 -53 -31
0 -21 5 -24 38 -26 20 -1 46 -1 57 -1 36 2 409 -18 413 -22 7 -7 -39 -75 -47
-71 -4 3 -109 7 -233 10 -171 4 -228 2 -232 -7 -2 -7 -5 17 -5 53 -1 36 -4 74
-7 85 -4 17 0 21 27 23 18 1 37 6 43 11 6 5 29 14 51 20 22 7 50 17 63 24 18
8 28 8 42 -1 28 -17 34 -16 82 17 24 16 57 33 73 37 37 8 95 42 115 66 20 24
37 23 45 -3z m-2498 -26 c-3 -10 -5 -4 -5 12 0 17 2 24 5 18 2 -7 2 -21 0 -30z
m-6590 -65 c7 -13 14 -49 16 -79 2 -30 7 -61 12 -69 6 -9 4 -12 -6 -8 -11 4
-14 -4 -14 -33 0 -22 3 -39 7 -39 3 0 11 -13 16 -29 9 -24 8 -29 -3 -25 -7 3
-16 12 -19 20 -3 8 -11 14 -18 14 -17 0 -58 41 -58 57 0 8 5 11 10 8 6 -3 10
-2 10 4 0 5 -5 11 -10 13 -6 2 -15 30 -20 63 -15 88 -13 98 10 92 11 -3 20 0
20 6 1 7 7 1 14 -12 9 -16 15 -20 21 -12 4 7 0 20 -9 30 -19 21 -21 34 -3 29
6 -3 18 -16 24 -30z m8177 16 c4 -10 1 -14 -6 -12 -15 5 -23 28 -10 28 5 0 13
-7 16 -16z m-1575 -98 c-2 -2 -17 -6 -34 -9 l-30 -6 30 13 c26 12 47 13 34 2z
m1403 -18 c-6 -6 -15 -8 -19 -4 -4 4 -1 11 7 16 19 12 27 3 12 -12z m-2597 2
c3 -5 1 -10 -4 -10 -6 0 -11 5 -11 10 0 6 2 10 4 10 3 0 8 -4 11 -10z m3120 0
c3 -6 -5 -10 -19 -10 -14 0 -28 5 -31 10 -3 6 5 10 19 10 14 0 28 -4 31 -10z
m-2010 -10 c-27 -12 -43 -12 -25 0 8 5 22 9 30 9 10 0 8 -3 -5 -9z m1406 -57
c-9 -16 -10 -16 -11 4 0 12 3 30 7 40 7 16 8 16 11 -4 2 -12 -1 -30 -7 -40z
m-3919 -92 c-18 -11 -17 -35 2 -63 10 -16 25 -28 32 -28 8 0 14 -7 14 -15 0
-9 7 -18 15 -21 30 -12 15 -42 -40 -79 -45 -29 -59 -34 -70 -25 -8 7 -22 10
-30 6 -22 -8 -18 3 16 41 19 23 28 41 24 52 -4 9 -9 39 -12 67 -5 45 -3 53 17
67 13 9 28 14 33 10 5 -3 5 -8 -1 -12z m-4746 -10 c-7 -11 -175 -36 -183 -27
-3 3 9 12 28 20 37 16 164 22 155 7z m8914 -50 c0 -5 -7 -14 -15 -21 -16 -14
-18 -10 -9 14 6 17 24 22 24 7z m15 -42 c-9 -17 -19 -28 -22 -25 -8 8 17 56
29 56 5 0 1 -14 -7 -31z m353 -20 c-3 -8 -7 -3 -11 10 -4 17 -3 21 5 13 5 -5
8 -16 6 -23z m-393 -9 c3 -5 1 -10 -4 -10 -6 0 -11 5 -11 10 0 6 2 10 4 10 3
0 8 -4 11 -10z m359 -34 c-3 -9 -10 -16 -15 -16 -5 0 -4 9 3 20 14 22 21 20
12 -4z m-96 -28 c9 -33 -8 -78 -28 -78 -13 0 -16 52 -5 83 12 36 23 34 33 -5z
m-4139 -25 c15 -33 0 -46 -43 -38 -33 6 -66 -17 -66 -45 0 -12 -7 -16 -28 -12
-19 2 -35 -4 -56 -23 -31 -29 -49 -26 -22 4 9 10 16 24 14 31 -2 7 6 16 17 19
26 8 133 70 141 82 10 17 31 9 43 -18z m4207 18 c-3 -5 -15 -11 -26 -14 -17
-4 -19 -3 -9 9 12 15 44 20 35 5z m883 -7 c7 -7 -25 -26 -59 -36 -17 -5 -30
-2 -43 9 -17 16 -17 18 -1 30 17 12 90 10 103 -3z m-799 -4 c8 -5 12 -10 7
-10 -4 0 -1 -11 8 -24 13 -20 13 -25 1 -35 -7 -6 -21 -8 -30 -5 -9 4 -16 3
-14 -2 2 -5 -1 -10 -7 -11 -5 -2 -11 2 -11 7 -3 23 -5 24 -12 14 -4 -6 -36
-14 -72 -18 l-65 -6 75 33 c41 19 79 41 84 50 13 20 16 20 36 7z m480 0 c0 -5
-5 -10 -11 -10 -5 0 -7 5 -4 10 3 6 8 10 11 10 2 0 4 -4 4 -10z m-720 -10 c0
-5 -5 -10 -11 -10 -5 0 -7 5 -4 10 3 6 8 10 11 10 2 0 4 -4 4 -10z m556 -33
c13 16 13 15 2 -10 -8 -20 -14 -24 -20 -15 -6 10 -8 10 -8 -1 0 -8 -2 -12 -5
-10 -2 3 -1 16 2 29 6 20 8 22 11 7 4 -18 4 -18 18 0z m-130 -44 c-7 -7 -26 7
-26 19 0 6 6 6 15 -2 9 -7 13 -15 11 -17z m-8487 -16 c3 5 18 13 34 17 20 5
27 3 27 -9 0 -8 -7 -15 -16 -15 -8 0 -12 -5 -9 -11 4 -6 13 -8 21 -5 7 3 19
-1 26 -8 7 -7 19 -11 26 -8 8 2 12 -9 12 -37 0 -30 5 -43 17 -48 15 -6 15 -7
-2 -13 -12 -4 -23 -23 -30 -48 l-10 -42 -29 15 c-32 17 -36 18 -36 7 0 -4 10
-12 21 -17 51 -23 3 -39 -65 -21 -25 6 -33 3 -47 -16 -10 -12 -21 -19 -26 -14
-4 5 -2 11 5 13 6 3 12 17 13 31 0 15 3 21 6 15 2 -7 21 -13 40 -13 30 0 34 2
23 15 -6 8 -17 13 -23 12 -8 -1 -12 14 -12 43 0 33 4 44 14 42 10 -2 12 4 8
20 -4 12 -1 28 5 35 7 8 7 13 0 13 -13 0 -25 48 -15 63 5 8 9 6 11 -7 2 -10 7
-14 11 -9z m9121 -57 c-19 -13 -30 -13 -30 0 0 6 10 10 23 10 18 0 19 -2 7
-10z m-577 -34 c-3 -4 -9 -2 -14 5 -13 22 -11 31 5 17 8 -7 12 -17 9 -22z
m614 12 c-3 -8 -6 -5 -6 6 -1 11 2 17 5 13 3 -3 4 -12 1 -19z m-2037 -8 c5 0
12 -9 15 -20 4 -11 10 -18 13 -16 4 2 15 -9 24 -25 l17 -29 -29 0 c-17 0 -30
5 -30 11 0 7 -10 9 -25 7 -25 -5 -36 7 -13 14 7 3 8 9 3 19 -17 27 -17 52 1
45 8 -3 19 -6 24 -6z m60 -11 c0 -6 -4 -7 -10 -4 -5 3 -10 11 -10 16 0 6 5 7
10 4 6 -3 10 -11 10 -16z m1885 2 c3 -5 1 -12 -5 -16 -5 -3 -10 1 -10 9 0 18
6 21 15 7z m65 -21 c0 -26 -3 -30 -27 -29 -26 1 -27 1 -5 7 13 4 23 10 23 15
-2 22 0 37 4 37 3 0 5 -13 5 -30z m-1850 -64 c0 -3 -4 -8 -10 -11 -5 -3 -10
-1 -10 4 0 6 5 11 10 11 6 0 10 -2 10 -4z m-2596 -56 c34 -12 33 -23 -6 -66
-40 -43 -88 -54 -88 -19 0 12 7 28 15 35 16 13 20 40 7 40 -5 0 -17 -9 -27
-20 -13 -14 -31 -20 -64 -20 -25 0 -62 -4 -82 -9 -33 -8 -39 -6 -62 20 l-25
29 26 1 c102 6 268 16 274 17 4 1 18 -2 32 -8z m-362 -32 c-7 -7 -12 -8 -12
-2 0 14 12 26 19 19 2 -3 -1 -11 -7 -17z m-4312 2 c0 -5 -4 -10 -9 -10 -6 0
-13 5 -16 10 -3 6 1 10 9 10 9 0 16 -4 16 -10z m6849 -37 c13 -11 13 -13 0
-13 -8 0 -23 15 -33 33 -18 31 -18 32 0 12 11 -11 25 -26 33 -32z m-2649 27
c-8 -5 -19 -10 -25 -10 -5 0 -3 5 5 10 8 5 20 10 25 10 6 0 3 -5 -5 -10z
m-4183 -25 c-8 -8 -14 -9 -18 -3 -4 6 -17 7 -30 3 -16 -5 -21 -4 -14 3 12 12
45 20 62 14 9 -3 9 -7 0 -17z m-89 -10 c0 -23 -2 -24 -13 -8 -11 15 -6 31 11
33 1 0 2 -11 2 -25z m179 -7 c-3 -8 -6 -5 -6 6 -1 11 2 17 5 13 3 -3 4 -12 1
-19z m6843 8 c0 -7 -112 -38 -117 -32 -3 3 5 9 18 14 13 5 31 12 39 15 18 7
60 9 60 3z m850 -26 c0 -5 -4 -10 -9 -10 -5 0 -18 -3 -28 -6 -16 -5 -16 -4 1
10 23 18 36 20 36 6z m195 -9 c7 -12 -35 -42 -47 -35 -4 3 -6 10 -2 15 3 5 10
7 15 3 5 -3 9 -2 8 3 -4 23 14 33 26 14z m201 -1 c30 0 54 -4 54 -8 0 -5 -6
-9 -12 -9 -7 0 -47 -3 -88 -7 l-75 -8 20 22 c10 11 25 18 33 15 7 -3 38 -5 68
-5z m1999 -50 c33 -35 28 -51 -7 -21 -12 11 -32 27 -43 35 -20 15 -20 15 1 16
11 0 33 -13 49 -30z m-10148 14 c-3 -3 -12 -4 -19 -1 -8 3 -5 6 6 6 11 1 17
-2 13 -5z m6428 -18 c348 -16 884 -31 1425 -41 168 -3 315 -8 327 -10 18 -4
22 -13 25 -56 2 -35 -1 -53 -10 -56 -6 -3 -121 2 -255 11 -133 9 -354 23 -492
31 -862 52 -1930 125 -1965 135 -51 13 535 5 945 -14z m-6457 -23 c-2 -14 4
-18 33 -18 20 0 42 -6 48 -12 9 -10 8 -13 -4 -13 -17 0 -20 -21 -4 -37 8 -8 8
-13 0 -17 -6 -4 -11 -1 -11 7 0 7 -11 19 -25 25 -14 6 -25 17 -25 23 0 7 -11
8 -29 4 -20 -4 -34 -1 -45 10 -23 23 -20 25 16 18 26 -5 30 -4 25 10 -4 11 -1
17 9 17 9 0 14 -7 12 -17z m-128 -53 c0 -5 -4 -10 -10 -10 -5 0 -10 5 -10 10
0 6 5 10 10 10 6 0 10 -4 10 -10z m9664 -3 c33 -7 61 -17 63 -23 5 -16 -149 3
-166 21 -14 13 -12 15 14 15 17 -1 57 -6 89 -13z m-9514 -67 c0 -5 -4 -10 -10
-10 -5 0 -10 5 -10 10 0 6 5 10 10 10 6 0 10 -4 10 -10z m35 0 c3 -5 1 -10 -4
-10 -6 0 -11 5 -11 10 0 6 2 10 4 10 3 0 8 -4 11 -10z"/>
<path d="M8630 6953 c-43 -7 -93 -25 -168 -60 -39 -18 -76 -33 -81 -33 -7 0
-21 -23 -21 -35 0 -3 9 -13 21 -24 17 -16 19 -23 9 -41 -9 -17 -9 -25 4 -39 9
-10 16 -27 16 -39 0 -27 38 -52 88 -59 42 -6 95 15 163 63 41 29 42 49 3 77
-23 18 -26 18 -37 2 -14 -18 -47 -11 -47 9 0 7 -11 19 -25 26 -14 7 -25 21
-25 30 0 19 30 50 48 50 11 0 80 28 120 48 40 20 -5 36 -68 25z"/>
<path d="M11040 5425 c0 -8 6 -12 14 -9 8 3 16 -3 19 -15 5 -21 27 -30 27 -11
0 11 -40 50 -52 50 -4 0 -8 -7 -8 -15z"/>
<path d="M11111 5404 c0 -11 3 -14 6 -6 3 7 2 16 -1 19 -3 4 -6 -2 -5 -13z"/>
<path d="M10523 3620 c-28 -12 -31 -60 -5 -82 9 -9 42 -18 73 -21 31 -3 74
-14 95 -25 22 -11 60 -23 84 -27 58 -8 82 9 86 59 3 34 0 39 -29 51 -19 8 -58
16 -88 19 -30 3 -72 11 -94 17 -61 17 -98 20 -122 9z"/>
<path d="M2950 4748 c0 -9 5 -20 11 -23 17 -11 18 -2 3 19 -12 17 -14 17 -14
4z"/>
<path d="M7978 4323 c7 -3 16 -2 19 1 4 3 -2 6 -13 5 -11 0 -14 -3 -6 -6z"/>
<path d="M12337 1886 c-7 -19 11 -32 24 -19 6 6 5 14 -4 22 -12 9 -16 8 -20
-3z"/>
<path d="M9752 1336 c7 -8 17 -12 22 -9 4 3 2 9 -5 14 -22 13 -31 11 -17 -5z"/>
<path d="M9940 1346 c0 -2 7 -6 15 -10 8 -3 15 -1 15 4 0 6 -7 10 -15 10 -8 0
-15 -2 -15 -4z"/>
<path d="M9718 1323 c7 -3 16 -2 19 1 4 3 -2 6 -13 5 -11 0 -14 -3 -6 -6z"/>
<path d="M9670 1270 c-9 -6 -10 -10 -3 -10 6 0 15 5 18 10 8 12 4 12 -15 0z"/>
<path d="M10650 729 c0 -5 5 -7 10 -4 6 3 10 8 10 11 0 2 -4 4 -10 4 -5 0 -10
-5 -10 -11z"/>
<path d="M10680 719 c0 -5 5 -7 10 -4 6 3 10 8 10 11 0 2 -4 4 -10 4 -5 0 -10
-5 -10 -11z"/>
<path d="M2475 610 c3 -5 8 -10 11 -10 2 0 4 5 4 10 0 6 -5 10 -11 10 -5 0 -7
-4 -4 -10z"/>
<path d="M6562 8363 c2 -10 12 -19 23 -21 11 -2 28 -11 38 -20 16 -14 17 -13
17 7 0 16 -8 23 -30 28 -16 3 -30 9 -30 14 0 5 -5 9 -11 9 -6 0 -9 -8 -7 -17z"/>
<path d="M6998 8373 c7 -3 16 -2 19 1 4 3 -2 6 -13 5 -11 0 -14 -3 -6 -6z"/>
<path d="M6788 8293 c7 -3 16 -2 19 1 4 3 -2 6 -13 5 -11 0 -14 -3 -6 -6z"/>
<path d="M6835 8250 c4 -6 11 -8 16 -5 14 9 11 15 -7 15 -8 0 -12 -5 -9 -10z"/>
<path d="M6370 8150 c-11 -7 -11 -10 -2 -10 7 0 10 -5 7 -11 -18 -27 67 -69
109 -53 29 11 17 30 -38 57 -63 31 -57 30 -76 17z"/>
<path d="M4115 8051 c-3 -6 -17 -11 -31 -11 -21 0 -23 -2 -12 -19 14 -23 86
-47 100 -33 10 10 0 62 -12 62 -5 0 -15 3 -23 6 -8 3 -18 1 -22 -5z"/>
<path d="M4235 7971 c-18 -7 -15 -10 19 -25 56 -24 65 -21 50 18 -7 17 -36 20
-69 7z"/>
<path d="M5450 7915 c-17 -21 -6 -41 24 -47 31 -6 40 4 32 38 -7 27 -37 32
-56 9z"/>
<path d="M5741 7886 c-15 -18 -107 -31 -124 -18 -8 7 -19 5 -35 -8 l-22 -19
33 -25 c19 -14 42 -26 51 -26 9 0 30 -7 46 -15 46 -24 120 -46 130 -40 5 3 22
-5 37 -19 15 -15 36 -26 47 -26 11 0 16 3 12 8 -4 4 -13 7 -19 7 -7 0 -13 6
-13 13 -1 6 -2 17 -3 23 0 5 -5 7 -11 4 -19 -12 -78 47 -84 84 -4 20 -12 44
-20 54 -11 15 -15 15 -25 3z"/>
<path d="M6288 7892 c-24 -3 -27 -7 -26 -38 2 -50 34 -70 83 -54 35 12 39 19
29 56 -6 23 -47 41 -86 36z"/>
<path d="M4528 7843 c7 -3 16 -2 19 1 4 3 -2 6 -13 5 -11 0 -14 -3 -6 -6z"/>
<path d="M12736 7455 c4 -8 8 -15 10 -15 2 0 4 7 4 15 0 8 -4 15 -10 15 -5 0
-7 -7 -4 -15z"/>
<path d="M12664 7345 c-3 -8 -3 -19 1 -25 3 -5 -1 -13 -9 -16 -29 -11 -18 -31
14 -26 17 2 37 -1 45 -8 13 -11 15 -7 15 29 0 22 1 44 3 47 1 4 -13 8 -31 10
-22 3 -34 -1 -38 -11z m56 -25 c0 -19 -11 -26 -23 -14 -8 8 3 34 14 34 5 0 9
-9 9 -20z"/>
<path d="M12633 7245 c-16 -18 -16 -22 1 -28 9 -4 16 3 19 19 5 27 -2 30 -20
9z"/>
<path d="M12680 7238 c0 -19 2 -20 10 -8 13 19 13 30 0 30 -5 0 -10 -10 -10
-22z"/>
<path d="M12670 7196 c0 -9 5 -16 10 -16 6 0 10 4 10 9 0 6 -4 13 -10 16 -5 3
-10 -1 -10 -9z"/>
<path d="M12710 7195 c0 -8 5 -15 10 -15 6 0 10 7 10 15 0 8 -4 15 -10 15 -5
0 -10 -7 -10 -15z"/>
<path d="M12568 7173 c7 -3 16 -2 19 1 4 3 -2 6 -13 5 -11 0 -14 -3 -6 -6z"/>
<path d="M12632 7080 c0 -14 2 -19 5 -12 2 6 2 18 0 25 -3 6 -5 1 -5 -13z"/>
<path d="M12662 7089 c2 -6 8 -10 13 -10 5 0 11 4 13 10 2 6 -4 11 -13 11 -9
0 -15 -5 -13 -11z"/>
<path d="M12625 7030 c-3 -5 1 -10 9 -10 9 0 16 5 16 10 0 6 -4 10 -9 10 -6 0
-13 -4 -16 -10z"/>
<path d="M12576 7001 c-16 -6 -10 -10 29 -23 37 -13 52 -14 67 -5 10 7 18 15
18 19 0 12 -25 9 -38 -4 -9 -9 -12 -8 -12 5 0 18 -29 22 -64 8z"/>
<path d="M12700 6960 c0 -5 -7 -10 -17 -10 -9 0 -14 -3 -10 -6 8 -8 47 5 47
17 0 5 -4 9 -10 9 -5 0 -10 -4 -10 -10z"/>
<path d="M12596 6951 c-20 -8 -20 -8 0 -13 23 -6 44 0 44 13 0 11 -17 11 -44
0z"/>
<path d="M12605 6890 c-3 -5 -1 -10 4 -10 6 0 11 5 11 10 0 6 -2 10 -4 10 -3
0 -8 -4 -11 -10z"/>
<path d="M12510 6875 c-10 -13 -9 -15 9 -15 12 0 21 6 21 15 0 8 -4 15 -9 15
-5 0 -14 -7 -21 -15z"/>
<path d="M12573 6849 c14 -8 22 -8 30 0 8 8 3 11 -18 11 -26 -1 -28 -2 -12
-11z"/>
<path d="M12690 6845 c0 -8 5 -15 10 -15 6 0 10 7 10 15 0 8 -4 15 -10 15 -5
0 -10 -7 -10 -15z"/>
<path d="M12550 6795 c-17 -21 -8 -28 15 -11 11 8 14 15 8 19 -6 4 -16 0 -23
-8z"/>
<path d="M12670 6800 c0 -5 5 -10 10 -10 6 0 10 5 10 10 0 6 -4 10 -10 10 -5
0 -10 -4 -10 -10z"/>
<path d="M12625 6790 c4 -6 11 -8 16 -5 14 9 11 15 -7 15 -8 0 -12 -5 -9 -10z"/>
<path d="M12588 6703 c6 -2 18 -2 25 0 6 3 1 5 -13 5 -14 0 -19 -2 -12 -5z"/>
<path d="M12590 6630 c0 -5 7 -10 16 -10 8 0 12 5 9 10 -3 6 -10 10 -16 10 -5
0 -9 -4 -9 -10z"/>
<path d="M12440 6610 c0 -5 6 -10 14 -10 8 0 17 -6 19 -12 3 -7 6 -3 6 10 1
16 -5 22 -19 22 -11 0 -20 -4 -20 -10z"/>
<path d="M12496 6596 c3 -13 1 -33 -5 -45 -10 -17 -9 -20 4 -15 17 7 22 84 5
84 -6 0 -8 -10 -4 -24z"/>
<path d="M12416 6592 c-3 -6 -1 -14 5 -17 15 -10 25 3 12 16 -7 7 -13 7 -17 1z"/>
<path d="M12392 6545 c0 -16 2 -22 5 -12 2 9 2 23 0 30 -3 6 -5 -1 -5 -18z"/>
<path d="M12560 6556 c0 -9 5 -16 10 -16 6 0 10 4 10 9 0 6 -4 13 -10 16 -5 3
-10 -1 -10 -9z"/>
<path d="M12447 6546 c-6 -15 1 -26 15 -26 11 0 10 27 -1 34 -5 3 -11 0 -14
-8z"/>
<path d="M12350 6530 c0 -5 5 -10 10 -10 6 0 10 5 10 10 0 6 -4 10 -10 10 -5
0 -10 -4 -10 -10z"/>
<path d="M12470 6460 c-9 -6 -10 -10 -3 -10 6 0 15 5 18 10 8 12 4 12 -15 0z"/>
<path d="M12320 6440 c0 -5 19 -10 43 -10 31 0 38 3 27 10 -20 13 -70 13 -70
0z"/>
<path d="M12371 6344 c0 -11 3 -14 6 -6 3 7 2 16 -1 19 -3 4 -6 -2 -5 -13z"/>
<path d="M12323 6331 c1 -14 9 -26 17 -28 10 -3 11 -2 4 4 -7 4 -14 17 -17 28
-5 16 -5 15 -4 -4z"/>
<path d="M12270 6218 c0 -2 6 -20 14 -41 9 -26 15 -34 19 -24 6 17 -13 67 -25
67 -5 0 -8 -1 -8 -2z"/>
<path d="M12245 6150 c-3 -5 1 -10 9 -10 9 0 16 5 16 10 0 6 -4 10 -9 10 -6 0
-13 -4 -16 -10z"/>
<path d="M12160 6117 c0 -13 -3 -27 -6 -30 -11 -11 -15 -87 -4 -87 6 0 10 14
10 30 0 17 4 30 9 30 5 0 7 -9 4 -20 -4 -14 0 -20 10 -20 20 0 31 16 17 25 -5
3 -10 26 -10 51 0 32 -4 44 -15 44 -9 0 -15 -9 -15 -23z"/>
<path d="M12004 6028 c0 -62 7 -78 36 -78 13 0 13 2 1 9 -8 5 -16 30 -18 55
-4 37 -1 46 11 46 12 0 16 -10 16 -39 0 -27 5 -41 16 -45 9 -4 19 -4 22 -1 3
3 0 5 -6 5 -7 0 -12 16 -12 38 0 31 -5 41 -29 55 -16 9 -31 17 -33 17 -2 0 -3
-28 -4 -62z"/>
<path d="M12082 6048 c-2 -40 -2 -41 18 -23 26 23 27 65 2 65 -15 0 -19 -8
-20 -42z"/>
<path d="M12232 6055 c-6 -13 -7 -27 -3 -30 5 -2 11 8 14 23 7 35 3 38 -11 7z"/>
<path d="M12280 6070 c0 -5 5 -10 10 -10 6 0 10 5 10 10 0 6 -4 10 -10 10 -5
0 -10 -4 -10 -10z"/>
<path d="M12170 5980 c-8 -5 -11 -12 -7 -16 4 -4 13 -2 19 4 15 15 7 24 -12
12z"/>
<path d="M12128 5973 c7 -3 16 -2 19 1 4 3 -2 6 -13 5 -11 0 -14 -3 -6 -6z"/>
<path d="M12063 5927 c-4 -8 -15 -17 -23 -20 -9 -3 -4 -6 11 -6 15 -1 29 6 32
14 8 19 -9 29 -20 12z"/>
<path d="M12002 5853 c-2 -28 -6 -33 -26 -33 -19 0 -22 -4 -18 -25 5 -30 10
-31 28 -7 12 16 13 15 14 -5 0 -13 5 -23 11 -23 6 0 9 6 6 13 -21 51 -21 52
-5 39 11 -9 18 -10 23 -2 3 5 -1 10 -9 10 -9 0 -16 12 -19 33 l-4 32 -1 -32z"/>
<path d="M12130 5843 c0 -13 5 -23 10 -23 13 0 13 11 0 30 -8 12 -10 11 -10
-7z"/>
<path d="M12065 5810 c3 -5 8 -10 11 -10 2 0 4 5 4 10 0 6 -5 10 -11 10 -5 0
-7 -4 -4 -10z"/>
<path d="M11880 5795 c0 -8 5 -15 10 -15 6 0 10 7 10 15 0 8 -4 15 -10 15 -5
0 -10 -7 -10 -15z"/>
<path d="M11841 5739 c-1 -48 -4 -58 -23 -67 -23 -10 -23 -11 5 -11 15 -1 27
-6 27 -12 0 -5 4 -8 9 -4 6 3 6 18 0 38 -14 48 -11 57 17 57 14 0 23 4 19 10
-3 6 -15 10 -25 10 -10 0 -21 8 -23 18 -3 9 -5 -8 -6 -39z"/>
<path d="M11922 5765 c0 -16 2 -22 5 -12 2 9 2 23 0 30 -3 6 -5 -1 -5 -18z"/>
<path d="M12040 5780 c0 -5 10 -14 22 -21 18 -10 20 -9 15 6 -4 9 -7 19 -7 21
0 2 -7 4 -15 4 -8 0 -15 -4 -15 -10z"/>
<path d="M11972 5708 c6 -18 28 -21 28 -4 0 9 -7 16 -16 16 -9 0 -14 -5 -12
-12z"/>
<path d="M11888 5705 c-10 -17 -4 -120 7 -117 6 1 10 16 11 33 1 43 -10 96
-18 84z"/>
<path d="M11520 5685 c0 -11 11 -15 40 -15 29 0 40 4 40 15 0 11 -11 15 -40
15 -29 0 -40 -4 -40 -15z"/>
<path d="M5835 5680 c3 -5 8 -10 11 -10 2 0 4 5 4 10 0 6 -5 10 -11 10 -5 0
-7 -4 -4 -10z"/>
<path d="M12020 5670 c0 -5 5 -10 10 -10 6 0 10 5 10 10 0 6 -4 10 -10 10 -5
0 -10 -4 -10 -10z"/>
<path d="M11920 5650 c0 -11 2 -20 5 -20 2 0 9 9 15 20 9 16 8 20 -5 20 -8 0
-15 -9 -15 -20z"/>
<path d="M11505 5650 c3 -5 8 -10 11 -10 2 0 4 5 4 10 0 6 -5 10 -11 10 -5 0
-7 -4 -4 -10z"/>
<path d="M11850 5605 c0 -8 5 -15 10 -15 6 0 10 7 10 15 0 8 -4 15 -10 15 -5
0 -10 -7 -10 -15z"/>
<path d="M11365 5602 c-6 -4 -12 -24 -14 -44 l-2 -37 35 10 c20 6 41 7 46 4 6
-3 10 -2 10 3 0 11 -58 24 -71 16 -5 -3 -9 2 -9 11 0 10 7 15 18 13 9 -2 17 3
17 11 0 17 -16 24 -30 13z"/>
<path d="M11680 5567 c0 -8 -12 -18 -27 -22 -15 -3 -40 -18 -57 -32 l-31 -26
35 8 c19 4 38 13 42 19 5 7 16 6 37 -7 36 -21 37 -21 46 1 20 50 23 72 10 72
-9 0 -15 -14 -18 -37 l-3 -38 -8 33 c-9 34 -26 53 -26 29z"/>
<path d="M11885 5559 c-4 -6 -5 -13 -2 -16 8 -8 67 7 67 18 0 13 -57 11 -65
-2z"/>
<path d="M11780 5554 c0 -10 31 -36 37 -31 3 3 -2 13 -10 22 -16 15 -27 19
-27 9z"/>
<path d="M11920 5520 c0 -5 -10 -10 -22 -10 -12 0 -19 -3 -15 -6 9 -9 57 5 57
16 0 6 -4 10 -10 10 -5 0 -10 -4 -10 -10z"/>
<path d="M11368 5503 c6 -2 18 -2 25 0 6 3 1 5 -13 5 -14 0 -19 -2 -12 -5z"/>
<path d="M11520 5480 c0 -19 20 -27 33 -13 8 7 -11 33 -24 33 -5 0 -9 -9 -9
-20z"/>
<path d="M11528 5423 c6 -2 12 -13 12 -24 0 -12 7 -19 20 -19 28 0 26 36 -2
44 -27 7 -48 7 -30 -1z"/>
<path d="M11800 5409 c0 -5 5 -7 10 -4 6 3 10 8 10 11 0 2 -4 4 -10 4 -5 0
-10 -5 -10 -11z"/>
<path d="M11840 5405 c0 -8 2 -15 4 -15 2 0 6 7 10 15 3 8 1 15 -4 15 -6 0
-10 -7 -10 -15z"/>
<path d="M11906 5355 c-3 -8 -1 -15 4 -15 6 0 10 7 10 15 0 8 -2 15 -4 15 -2
0 -6 -7 -10 -15z"/>
<path d="M12051 5354 c0 -11 3 -14 6 -6 3 7 2 16 -1 19 -3 4 -6 -2 -5 -13z"/>
<path d="M11810 5350 c0 -5 5 -10 11 -10 5 0 7 5 4 10 -3 6 -8 10 -11 10 -2 0
-4 -4 -4 -10z"/>
<path d="M11940 5330 c0 -5 5 -10 10 -10 6 0 10 5 10 10 0 6 -4 10 -10 10 -5
0 -10 -4 -10 -10z"/>
<path d="M11725 5310 c3 -5 8 -10 11 -10 2 0 4 5 4 10 0 6 -5 10 -11 10 -5 0
-7 -4 -4 -10z"/>
<path d="M11921 5274 c0 -11 3 -14 6 -6 3 7 2 16 -1 19 -3 4 -6 -2 -5 -13z"/>
<path d="M11911 5178 c-1 -23 15 -31 36 -19 16 9 16 10 -4 11 -12 0 -24 6 -26
13 -3 7 -6 6 -6 -5z"/>
<path d="M11760 5150 c0 -5 4 -10 9 -10 6 0 13 5 16 10 3 6 -1 10 -9 10 -9 0
-16 -4 -16 -10z"/>
<path d="M11920 5120 c0 -5 10 -10 23 -10 18 0 19 2 7 10 -19 13 -30 13 -30 0z"/>
<path d="M11840 5036 c0 -10 9 -16 21 -16 24 0 21 23 -4 28 -10 2 -17 -3 -17
-12z"/>
<path d="M6033 5014 c-16 -12 -14 -13 17 -14 42 0 90 -28 121 -69 30 -41 99
-77 111 -59 26 39 31 52 19 56 -6 2 -11 9 -11 16 0 20 -79 53 -162 69 -65 12
-80 12 -95 1z"/>
<path d="M11921 5014 c0 -11 3 -14 6 -6 3 7 2 16 -1 19 -3 4 -6 -2 -5 -13z"/>
<path d="M12006 5021 c-4 -5 3 -7 14 -4 23 6 26 13 6 13 -8 0 -17 -4 -20 -9z"/>
<path d="M12108 5018 c5 -5 16 -8 23 -6 8 3 3 7 -10 11 -17 4 -21 3 -13 -5z"/>
<path d="M5974 5005 c-18 -14 -18 -14 4 -8 12 3 22 9 22 14 0 12 -3 11 -26 -6z"/>
<path d="M12070 4970 c0 -5 5 -10 11 -10 5 0 7 5 4 10 -3 6 -8 10 -11 10 -2 0
-4 -4 -4 -10z"/>
<path d="M12100 4970 c0 -5 5 -10 10 -10 6 0 10 5 10 10 0 6 -4 10 -10 10 -5
0 -10 -4 -10 -10z"/>
<path d="M12050 4882 c0 -4 4 -12 9 -17 5 -6 11 -19 14 -30 3 -11 5 -4 6 18 1
27 -3 37 -14 37 -8 0 -15 -4 -15 -8z"/>
<path d="M12160 4880 c0 -5 5 -10 10 -10 6 0 10 5 10 10 0 6 -4 10 -10 10 -5
0 -10 -4 -10 -10z"/>
<path d="M5860 4827 c0 -8 15 -21 33 -28 17 -7 39 -22 48 -34 9 -11 37 -31 63
-43 25 -13 48 -27 51 -33 7 -11 65 -12 65 -1 0 4 -4 14 -10 22 -11 18 5 30 42
30 15 0 30 5 33 10 3 6 -3 10 -14 10 -10 0 -32 7 -48 15 -15 8 -50 17 -77 21
-35 4 -45 8 -35 15 8 5 28 6 44 3 17 -3 38 -6 48 -8 10 -1 23 -9 28 -17 6 -9
12 -10 17 -4 4 6 14 10 22 10 8 0 17 11 18 24 3 20 1 22 -15 16 -10 -4 -25 -7
-33 -7 -8 1 -75 4 -147 7 -112 5 -133 4 -133 -8z"/>
<path d="M12153 4745 c-3 -9 -3 -18 -1 -21 3 -3 8 4 11 16 6 23 -1 27 -10 5z"/>
<path d="M12240 4700 c0 -18 3 -19 20 -8 14 9 16 14 7 20 -20 13 -27 9 -27
-12z"/>
<path d="M12108 4703 c7 -3 16 -2 19 1 4 3 -2 6 -13 5 -11 0 -14 -3 -6 -6z"/>
<path d="M5480 4695 c0 -5 5 -17 10 -25 5 -8 10 -10 10 -5 0 6 -5 17 -10 25
-5 8 -10 11 -10 5z"/>
<path d="M12400 4660 c0 -5 7 -10 15 -10 8 0 15 5 15 10 0 6 -7 10 -15 10 -8
0 -15 -4 -15 -10z"/>
<path d="M5990 4654 c0 -9 40 -23 44 -15 3 5 -5 11 -19 13 -14 3 -25 4 -25 2z"/>
<path d="M12306 4631 c-3 -5 1 -11 9 -14 9 -4 12 -1 8 9 -6 16 -10 17 -17 5z"/>
<path d="M12445 4520 c-3 -5 -15 -10 -26 -10 -10 0 -19 -4 -19 -10 0 -5 6 -10
14 -10 8 0 18 5 21 10 3 6 15 10 26 10 10 0 19 5 19 10 0 6 -6 10 -14 10 -8 0
-18 -4 -21 -10z"/>
<path d="M6155 4450 c-3 -5 1 -10 9 -10 9 0 16 5 16 10 0 6 -4 10 -9 10 -6 0
-13 -4 -16 -10z"/>
<path d="M5310 4418 c0 -19 2 -20 10 -8 13 19 13 30 0 30 -5 0 -10 -10 -10
-22z"/>
<path d="M5340 4390 c0 -5 5 -10 10 -10 6 0 10 5 10 10 0 6 -4 10 -10 10 -5 0
-10 -4 -10 -10z"/>
<path d="M5253 4350 c0 -28 1 -29 14 -10 8 11 11 25 8 30 -12 19 -22 10 -22
-20z"/>
<path d="M12560 4345 c0 -8 2 -15 4 -15 2 0 6 7 10 15 3 8 1 15 -4 15 -6 0
-10 -7 -10 -15z"/>
<path d="M4668 3973 c7 -3 16 -2 19 1 4 3 -2 6 -13 5 -11 0 -14 -3 -6 -6z"/>
<path d="M5080 3492 c6 -13 14 -21 18 -18 3 4 -2 14 -12 24 -18 16 -18 16 -6
-6z"/>
<path d="M5315 3270 c3 -19 9 -57 12 -85 l6 -50 -22 20 c-22 19 -22 17 4 -40
38 -83 54 -132 61 -190 4 -27 9 -44 11 -36 9 23 -17 233 -39 311 -23 84 -43
127 -33 70z"/>
<path d="M11796 2073 c-6 -14 -5 -15 5 -6 7 7 10 15 7 18 -3 3 -9 -2 -12 -12z"/>
<path d="M11751 1988 c-18 -35 -45 -85 -61 -113 -29 -51 -38 -77 -21 -60 16
16 123 227 118 232 -3 2 -19 -24 -36 -59z"/>
<path d="M11630 1755 c-7 -9 -10 -18 -7 -21 3 -3 10 4 17 15 13 25 8 27 -10 6z"/>
<path d="M5080 1499 c0 -5 5 -7 10 -4 6 3 10 8 10 11 0 2 -4 4 -10 4 -5 0 -10
-5 -10 -11z"/>
<path d="M6306 1486 c-13 -21 -14 -26 -2 -26 21 0 41 29 29 41 -7 7 -16 2 -27
-15z"/>
<path d="M6295 1100 c3 -5 -1 -10 -9 -10 -9 0 -16 -4 -16 -10 0 -5 26 -10 58
-10 56 0 110 -14 164 -43 27 -13 27 -15 10 -30 -13 -12 -21 -14 -29 -6 -14 14
-43 -1 -77 -42 -43 -50 -12 -64 77 -33 50 17 62 34 25 34 -18 1 -13 6 21 24
42 22 48 22 85 9 106 -36 146 -75 146 -145 0 -36 46 -148 61 -148 4 0 10 11
13 24 5 20 12 24 39 23 36 -2 37 2 6 74 -14 30 -31 51 -52 63 -26 13 -27 15
-7 10 41 -10 192 -86 211 -107 17 -18 45 -15 34 4 -4 5 5 24 18 41 32 44 40
68 26 84 -9 11 -8 18 1 29 18 22 4 31 -16 10 -10 -10 -26 -15 -38 -12 -81 20
-99 27 -109 41 -8 11 -48 20 -127 31 -140 18 -131 18 -124 0 4 -8 -1 -17 -9
-21 -22 -8 -52 11 -52 32 0 9 -6 19 -14 22 -8 3 -11 0 -7 -6 7 -12 -19 -23
-38 -16 -8 3 -13 11 -10 18 6 15 -49 41 -65 32 -9 -6 -92 13 -144 33 -35 14
-60 14 -52 1z m568 -147 c84 -42 52 -56 -57 -26 -75 20 -91 30 -75 50 15 18
68 8 132 -24z m167 -58 c7 -8 9 -22 6 -31 -4 -11 1 -18 14 -21 16 -4 18 -8 9
-19 -9 -11 -15 -11 -25 -3 -10 8 -14 8 -14 0 0 -21 -21 -11 -63 29 -35 33 -39
42 -27 50 23 15 86 12 100 -5z m-175 -106 c11 -17 -1 -21 -15 -4 -8 9 -8 15
-2 15 6 0 14 -5 17 -11z"/>
<path d="M9253 873 c9 -2 25 -2 35 0 9 3 1 5 -18 5 -19 0 -27 -2 -17 -5z"/>
<path d="M5925 630 c-3 -5 -1 -10 4 -10 6 0 11 5 11 10 0 6 -2 10 -4 10 -3 0
-8 -4 -11 -10z"/>
<path d="M6008 223 c7 -3 16 -2 19 1 4 3 -2 6 -13 5 -11 0 -14 -3 -6 -6z"/>
<path d="M6145 210 c3 -5 8 -10 11 -10 2 0 4 5 4 10 0 6 -5 10 -11 10 -5 0 -7
-4 -4 -10z"/>
<path d="M2481 34 c0 -11 3 -14 6 -6 3 7 2 16 -1 19 -3 4 -6 -2 -5 -13z"/>
<path d="M6330 10 c0 -5 7 -10 15 -10 8 0 15 5 15 10 0 6 -7 10 -15 10 -8 0
-15 -4 -15 -10z"/>
</g>
</svg>
