<?xml version="1.0" standalone="no"?>
<!DOCTYPE svg PUBLIC "-//W3C//DTD SVG 20010904//EN"
 "http://www.w3.org/TR/2001/REC-SVG-20010904/DTD/svg10.dtd">
<svg version="1.0" xmlns="http://www.w3.org/2000/svg"
 width="1280.000000pt" height="720.000000pt" viewBox="0 0 1280.000000 720.000000"
 preserveAspectRatio="xMidYMid meet">

<g transform="translate(0.000000,720.000000) scale(0.100000,-0.100000)"
fill="#000000" stroke="none">
<path d="M0 3600 l0 -3600 3900 0 c3113 0 3900 3 3900 13 0 8 -14 12 -42 11
l-43 -2 3 59 4 59 39 0 39 0 -2 153 c0 83 -3 137 -5 119 -4 -27 -8 -33 -23
-29 -13 3 -17 1 -13 -10 3 -8 12 -12 19 -9 8 3 14 1 14 -4 0 -6 -6 -10 -12
-10 -9 0 -8 -4 2 -10 11 -7 5 -10 -22 -10 l-38 0 0 119 c0 66 -3 127 -7 136
-5 15 0 17 40 14 47 -4 47 -4 47 28 0 36 -20 44 -80 31 -39 -8 -52 -2 -30 13
13 9 12 10 -2 6 -9 -3 -34 -8 -55 -12 -29 -4 -33 -3 -18 4 16 8 11 10 -25 9
-25 -1 -59 2 -76 6 -28 6 -32 4 -36 -18 -4 -18 1 -27 19 -37 43 -23 24 -29
-81 -27 l-105 3 -6 34 c-5 29 -2 38 26 67 17 18 45 38 61 45 27 11 28 13 13
35 -8 13 -15 34 -15 46 0 18 -54 -31 -239 -216 -219 -219 -239 -242 -234 -267
4 -22 -1 -35 -25 -59 -17 -16 -37 -30 -46 -30 -48 0 -95 55 -82 97 5 14 -44
68 -208 232 -200 200 -214 212 -234 200 -17 -11 -28 -11 -54 -1 l-33 12 -207
-207 c-204 -204 -207 -208 -202 -243 15 -93 -114 -129 -145 -40 -20 58 20 107
80 98 25 -4 49 17 241 209 180 181 213 218 214 244 2 36 27 65 66 74 36 9 91
-42 86 -80 -2 -21 32 -60 211 -239 199 -200 216 -213 238 -203 16 7 30 7 46 0
22 -10 41 6 277 242 161 161 250 257 245 265 -8 14 35 62 83 92 l33 20 -27 14
c-44 23 -53 44 -54 116 0 76 4 83 78 117 40 19 52 30 52 47 0 43 18 70 64 95
42 22 46 27 46 60 0 23 7 42 20 54 30 27 25 37 -30 67 -52 29 -70 64 -70 138
0 42 6 52 44 68 l29 13 -54 25 c-85 40 -99 57 -99 125 0 63 14 82 82 109 18 8
35 15 37 16 2 2 -8 17 -23 34 -21 26 -26 42 -26 89 0 73 17 96 85 117 50 16
53 18 32 29 -17 8 -23 23 -29 65 -7 60 7 90 44 90 27 0 17 -23 -13 -30 -22 -6
-23 -7 -4 -13 37 -12 189 -27 267 -27 l78 0 0 -54 c0 -44 4 -55 18 -59 9 -3 2
-5 -15 -6 l-33 -1 0 55 c0 52 -1 55 -25 55 -23 0 -25 -3 -25 -49 0 -30 5 -51
13 -54 6 -3 2 -6 -10 -6 -42 -2 -53 9 -53 54 0 25 5 45 13 48 6 3 0 6 -15 6
-16 1 -28 -5 -29 -11 0 -7 -2 -24 -5 -37 -2 -13 1 -29 6 -36 8 -10 7 -14 -6
-17 -11 -2 -4 -8 20 -19 19 -9 33 -12 30 -8 -6 11 97 12 214 2 58 -4 82 -10
82 -19 0 -21 -38 -26 -118 -16 -59 7 -72 6 -68 -5 7 -16 -5 -16 -78 -1 -47 9
-59 9 -66 -2 -12 -19 -5 -27 43 -50 28 -14 63 -20 111 -21 63 -1 66 -2 31 -9
-22 -4 -45 -5 -52 -3 -10 4 -13 -9 -11 -48 1 -51 2 -51 5 -11 3 28 9 42 19 42
8 0 14 -9 14 -20 0 -11 5 -20 11 -20 6 0 8 9 4 23 -4 15 -3 18 3 8 8 -11 10
-11 15 0 3 8 6 3 7 -11 l2 -25 8 25 c6 20 8 15 9 -24 l1 -49 -25 23 c-26 25
-42 22 -31 -6 3 -9 12 -14 20 -11 8 3 17 3 21 -1 14 -14 55 -9 56 7 0 12 3 11
9 -4 7 -16 9 -12 11 20 l2 40 6 -36 6 -35 80 0 c44 1 85 4 92 9 6 4 14 3 18
-3 4 -6 37 -8 88 -4 45 3 93 7 107 7 14 1 28 9 32 17 5 12 7 10 7 -5 1 -17 3
-17 11 -5 5 8 10 10 10 3 0 -26 35 -5 38 23 2 16 9 32 15 36 20 13 37 9 37 -8
0 -11 -6 -14 -23 -10 l-22 6 23 -11 c12 -7 22 -17 22 -24 0 -6 7 -12 15 -12 8
0 15 5 15 11 0 6 5 4 10 -4 8 -12 10 -10 11 10 l1 25 8 -25 c7 -21 8 -22 10
-5 l1 20 9 -20 c5 -11 9 -15 9 -10 1 6 10 16 22 23 14 9 19 10 14 2 -4 -7 4
-5 18 4 20 14 26 14 31 4 3 -7 4 2 2 19 -3 18 0 33 6 33 6 0 8 -7 4 -15 -3 -8
-1 -15 5 -15 5 0 14 10 19 23 8 21 9 20 11 -8 l1 -30 8 30 c4 17 8 26 9 20 1
-5 6 -3 11 5 8 13 11 11 16 -8 4 -12 13 -22 21 -22 12 0 12 3 -2 16 -20 20
-15 26 27 31 141 16 180 25 228 49 26 14 31 19 17 22 -15 3 -15 6 5 23 l23 19
-45 -6 c-25 -4 -52 -10 -61 -15 -20 -10 -243 -49 -273 -48 -17 1 82 26 121 31
7 1 10 5 7 9 -2 4 5 10 16 14 11 3 20 11 20 17 0 5 -7 8 -15 4 -8 -3 -15 -1
-15 4 0 5 -46 8 -105 7 -105 -2 -138 7 -67 18 118 20 117 19 118 45 1 14 -7
33 -17 43 -10 10 -19 28 -19 40 1 20 2 20 16 -5 8 -16 16 -28 17 -28 2 0 1 16
-1 35 -2 20 -10 35 -17 35 -15 0 -14 16 2 45 9 16 14 17 27 6 16 -14 60 -6 51
10 -4 5 1 9 9 9 9 0 16 5 16 11 0 8 -15 10 -47 5 -150 -19 -486 -36 -743 -37
-162 -1 -286 -4 -275 -8 20 -6 31 -41 14 -41 -5 0 -9 5 -9 10 0 6 -7 10 -16
10 -10 0 -14 -6 -10 -15 8 -21 -10 -19 -19 3 -7 16 -8 15 -15 -3 l-9 -20 0 20
c-1 17 -3 17 -11 5 -8 -13 -10 -12 -10 3 0 13 -8 17 -36 17 -19 0 -33 -4 -30
-9 3 -5 -5 -11 -19 -13 -14 -3 -25 -1 -25 4 0 4 -11 6 -25 2 -39 -10 -73 3
-77 28 -3 25 -27 33 -121 43 -95 11 -140 69 -118 152 4 15 4 43 -2 62 -5 19
-6 53 -3 76 7 41 8 42 64 58 31 9 91 21 132 27 41 6 76 13 78 15 3 2 7 25 10
50 3 33 8 45 18 41 13 -5 48 -10 144 -21 19 -2 56 -4 83 -4 36 -1 47 -5 47
-17 0 -14 -13 -16 -117 -10 -65 4 -127 9 -138 12 l-20 5 20 -13 c20 -12 25
-14 57 -16 13 -2 15 -7 8 -31 -4 -16 -5 -33 -2 -36 4 -4 -16 -4 -45 0 l-52 7
2 -34 c2 -42 11 -48 73 -48 28 0 73 -3 100 -7 l49 -8 -45 -5 -45 -5 -3 -52 -3
-53 35 0 c27 0 36 4 37 18 1 11 4 9 9 -8 7 -21 8 -18 11 20 l2 45 7 -45 c4
-25 8 -36 9 -25 1 17 3 18 12 5 7 -11 9 -6 6 21 -3 20 -7 41 -11 47 -3 5 1 13
10 16 23 9 27 8 20 -10 -3 -8 -2 -12 4 -9 6 4 10 -10 10 -34 l0 -39 77 -7 c72
-7 469 0 543 10 19 2 71 7 115 10 147 10 168 13 175 25 6 10 9 9 12 0 3 -10
19 -10 78 1 41 7 77 13 80 14 3 1 19 5 35 10 44 11 47 15 30 31 -17 17 -20 54
-5 54 6 0 10 9 10 20 0 22 5 22 -110 -5 -30 -8 -95 -18 -145 -24 -103 -12
-443 -26 -435 -19 3 3 66 9 140 12 74 4 151 9 170 11 277 30 259 26 274 57 8
15 11 30 6 33 -5 3 -11 -1 -13 -7 -3 -7 -6 9 -6 35 l-1 49 -42 -6 c-24 -3 -37
-3 -31 0 7 3 13 15 13 26 0 19 -4 20 -47 14 -27 -4 -73 -9 -103 -11 l-55 -4
55 9 c76 13 130 31 124 41 -3 5 2 9 10 9 9 0 16 7 16 15 0 8 -6 15 -12 15 -9
0 -8 4 2 10 23 15 32 12 25 -9 -9 -28 11 -67 44 -87 22 -13 32 -28 36 -55 6
-34 10 -38 45 -44 66 -11 68 -17 75 -154 l6 -123 -34 -32 c-39 -36 -57 -66
-57 -93 0 -14 -12 -22 -44 -31 -24 -6 -53 -10 -64 -7 -13 2 -23 -4 -30 -20
-10 -21 -8 -23 26 -29 20 -3 55 -6 76 -6 50 0 156 -28 178 -47 14 -12 17 -34
17 -121 0 -143 -1 -146 -61 -171 -28 -12 -57 -21 -64 -21 -8 0 -14 -4 -14 -10
0 -5 7 -10 15 -10 57 0 78 -131 30 -188 -31 -37 -31 -39 -2 -44 22 -4 34 16
166 281 136 275 141 288 135 332 -5 40 -3 49 17 68 12 11 32 21 43 21 12 0 46
10 78 23 51 21 55 24 37 35 -39 25 -59 73 -59 143 0 69 15 94 65 114 16 6 4
12 -55 31 -41 13 -82 33 -91 43 -21 25 -37 295 -19 316 25 30 234 83 334 85
15 0 17 5 11 28 -8 32 -22 49 -32 38 -4 -4 -1 -12 7 -17 12 -8 11 -9 -5 -6
-11 3 -48 11 -82 17 -61 12 -63 14 -74 52 -5 21 -18 45 -27 53 -86 70 -78 53
-84 177 -3 62 -3 136 1 163 l6 50 63 20 62 19 0 43 c0 36 5 46 35 68 37 29 49
55 47 98 -2 23 1 27 25 27 24 -1 25 -2 11 -11 -26 -14 -22 -34 9 -55 34 -22
38 -23 138 -30 127 -10 102 -17 -33 -11 -106 5 -123 4 -118 -8 3 -8 0 -15 -7
-15 -7 0 -3 -8 8 -16 19 -15 17 -16 -27 -9 l-48 6 0 -57 c0 -49 -2 -55 -15
-44 -12 10 -15 10 -15 -3 0 -9 6 -20 13 -24 6 -4 12 -15 12 -23 0 -23 95 -29
455 -32 260 -2 295 -3 200 -10 -254 -17 -499 -10 -720 21 -35 5 -68 7 -72 5
-15 -10 -8 -25 17 -36 31 -14 32 -31 3 -60 -20 -20 -20 -22 -3 -34 10 -7 22
-11 27 -8 5 3 15 0 23 -6 9 -8 54 -13 115 -14 59 0 100 -5 100 -11 0 -5 5 -3
10 5 5 8 10 10 10 4 0 -17 44 -11 52 6 6 13 7 12 7 -2 1 -11 8 -15 26 -13 14
1 25 -3 26 -9 0 -6 4 -2 9 9 l9 20 0 -20 c1 -11 4 -16 9 -10 6 9 26 12 35 5 9
-7 37 -6 37 2 0 6 6 5 15 -2 12 -10 15 -10 15 1 0 11 2 11 10 -1 5 -8 10 -10
10 -4 0 14 32 13 42 -1 5 -6 8 -5 8 4 0 9 4 10 13 4 6 -5 41 -8 77 -6 107 5
114 5 148 0 17 -2 32 -2 32 2 0 3 44 6 98 7 100 1 240 10 327 21 28 3 59 7 70
7 17 1 20 8 20 56 0 57 11 75 40 64 13 -5 15 -14 11 -37 -3 -16 -2 -35 3 -41
5 -6 11 -20 14 -31 4 -19 5 -18 6 2 1 30 21 40 23 11 1 -13 4 2 8 32 l7 55 1
-53 c1 -35 6 -51 13 -47 6 4 9 27 6 56 -3 27 -1 46 4 43 5 -3 9 -25 9 -50 0
-42 1 -44 29 -44 l30 0 -6 58 c-6 60 -16 74 -47 69 -11 -1 -21 3 -23 8 -2 6 7
11 19 13 13 1 52 6 88 12 36 6 74 11 84 13 21 2 32 42 16 52 -6 4 -8 10 -5 15
3 4 -4 10 -15 13 -11 3 -20 0 -20 -6 0 -6 -3 -7 -6 -4 -4 3 -15 2 -25 -3 -12
-7 -19 -6 -22 3 -4 9 -8 9 -14 1 -7 -11 -77 -13 -87 -3 -2 2 -7 18 -10 36 -8
33 3 42 64 49 56 8 91 17 97 27 4 6 -6 8 -28 4 -19 -4 -74 -11 -124 -17 -49
-6 -106 -12 -125 -15 -30 -4 -36 -2 -36 15 0 21 5 22 157 40 84 10 189 36 189
46 0 3 -9 2 -20 -1 -11 -4 -33 -8 -48 -10 -15 -2 -58 -9 -97 -15 -107 -18
-205 -24 -205 -12 0 5 19 10 43 11 80 4 224 26 258 41 20 8 18 9 -16 5 -199
-27 -256 -31 -266 -19 -5 7 -6 14 -2 17 13 8 108 19 169 19 57 1 175 36 181
54 2 5 -35 9 -82 9 -47 0 -85 -3 -85 -7 0 -5 -11 -8 -25 -8 -14 0 -25 5 -25
10 0 6 5 10 10 10 7 0 7 7 0 20 -6 12 -9 29 -5 39 6 21 -18 46 -35 36 -8 -5
-10 -26 -5 -64 l6 -57 -35 -2 c-33 -2 -35 -1 -30 25 3 16 9 42 13 58 l8 30
-413 0 c-226 0 -410 -3 -407 -7 2 -5 13 -8 23 -8 10 0 22 -4 25 -10 8 -13
-307 -12 -388 1 -33 6 -73 7 -89 3 -29 -6 -30 -8 -26 -55 1 -26 -1 -44 -5 -40
-5 5 -7 32 -5 62 l3 53 80 24 c44 13 88 29 98 34 21 10 50 -3 53 -26 1 -9 -5
-16 -14 -17 -50 -3 45 -17 121 -18 71 -1 87 2 87 14 0 10 11 15 38 16 46 2
264 -1 315 -4 20 -1 37 1 37 6 0 4 5 5 11 1 13 -7 178 -7 324 1 50 2 149 7
220 11 72 3 138 8 147 9 10 2 61 6 115 9 157 10 151 7 156 79 l3 62 2 -62 c2
-56 4 -61 22 -56 22 6 24 17 13 78 l-8 40 -6 -45 -6 -45 -1 47 c-2 42 -5 48
-24 48 -13 -1 -61 0 -108 2 -85 2 -204 -4 -426 -21 -66 -6 -234 -13 -374 -16
-140 -4 -262 -8 -270 -11 -15 -3 -206 10 -322 22 -66 7 -91 -5 -82 -40 3 -12
1 -33 -5 -46 -10 -25 -10 -25 -10 5 -1 17 -4 46 -7 67 -8 45 3 52 120 73 111
19 624 61 921 74 127 6 318 16 425 22 107 6 258 9 335 6 148 -7 312 -30 329
-47 5 -5 12 -39 14 -74 4 -59 2 -67 -22 -89 -33 -31 -76 -43 -221 -61 -94 -12
-426 -46 -450 -46 -3 0 -5 -20 -5 -44 0 -35 -4 -46 -19 -51 -14 -4 -20 -17
-23 -47 -4 -48 9 -179 20 -190 4 -4 52 -10 107 -14 55 -3 126 -13 159 -22 70
-20 77 -34 77 -142 -1 -41 2 -105 5 -142 4 -45 3 -68 -4 -68 -6 0 -13 -9 -17
-19 -7 -25 -61 -46 -165 -65 -45 -9 -84 -16 -86 -16 -2 0 -4 -13 -4 -30 0 -39
-20 -48 -113 -54 -70 -5 -76 -3 -82 15 -7 20 -7 20 -26 -2 -10 -12 -19 -17
-19 -11 0 7 -4 12 -10 12 -5 0 -7 -7 -4 -15 4 -8 1 -15 -5 -15 -6 0 -11 5 -11
10 0 6 -9 10 -20 10 -11 0 -20 -5 -20 -11 0 -8 -4 -8 -15 1 -8 6 -20 10 -27 8
-7 -3 -21 4 -30 14 -17 19 -20 19 -235 2 -162 -14 -322 -19 -625 -19 -223 0
-404 -3 -401 -7 2 -5 14 -8 26 -8 18 0 19 -2 7 -10 -12 -8 -11 -10 7 -10 12 0
28 -3 37 -6 11 -4 16 -1 16 10 0 9 7 16 15 16 8 0 12 -6 9 -13 -3 -8 5 -18 18
-25 13 -6 17 -11 11 -11 -27 -2 -11 -20 20 -24 26 -3 24 -4 -13 -5 l-45 -2 1
-88 1 -87 88 -8 c128 -12 141 -26 24 -27 -89 0 -113 -5 -156 -33 -9 -6 -10
-14 -1 -32 9 -20 19 -25 52 -26 23 0 61 -4 86 -9 38 -7 30 -8 -44 -7 -61 1
-91 6 -94 15 -2 7 -13 10 -28 6 -25 -6 -188 13 -214 25 -8 4 -28 5 -45 1 l-30
-5 41 -17 c92 -37 349 -58 749 -60 195 -1 245 -3 180 -8 -138 -11 -484 -11
-634 0 -73 6 -168 19 -209 30 -83 22 -102 24 -102 12 0 -5 29 -20 64 -34 46
-18 63 -22 59 -12 -4 12 0 12 23 3 16 -7 64 -13 106 -14 46 -1 83 -7 92 -14
13 -11 16 -11 16 0 0 8 6 5 14 -7 13 -17 15 -17 21 -3 11 30 45 11 45 -25 0
-33 19 -75 21 -46 0 10 3 8 9 -5 8 -18 9 -18 10 5 l2 25 8 -25 c7 -21 8 -16
11 25 2 42 3 45 6 15 3 -19 8 -39 13 -44 4 -4 6 8 3 28 -3 22 0 36 6 36 6 0
12 -17 12 -37 l2 -38 7 40 7 40 2 -40 c2 -32 4 -36 11 -20 8 21 8 21 23 -25 3
-8 6 1 7 20 1 19 4 28 7 20 2 -8 7 -22 9 -30 5 -13 6 -13 14 0 8 12 10 11 10
-5 0 -17 2 -17 10 -5 9 13 11 13 20 0 9 -13 10 -13 10 0 0 13 1 13 10 0 8 -12
10 -11 10 7 0 14 9 25 28 32 l27 11 -27 -4 c-24 -3 -28 0 -28 23 0 19 3 22 9
12 5 -7 13 -11 19 -7 17 10 42 -23 42 -55 0 -19 4 -28 11 -24 6 4 8 13 5 21
-3 8 -1 14 4 14 6 0 10 -10 10 -22 1 -22 1 -23 15 -4 15 20 15 20 16 0 1 -10
5 -1 9 21 l7 40 2 -37 c0 -21 6 -38 11 -38 6 0 10 6 10 13 0 7 3 8 8 2 9 -13
42 -15 42 -3 0 6 6 5 15 -2 12 -10 15 -10 15 1 0 11 2 11 10 -1 9 -13 11 -13
20 0 6 10 10 11 10 3 0 -7 9 -13 20 -13 11 0 20 5 20 11 0 8 5 8 15 -1 13 -11
15 1 15 99 l0 111 275 0 c177 0 275 -4 275 -10 0 -5 15 -10 33 -9 30 1 31 1 7
9 -14 4 -19 8 -12 9 7 1 25 12 40 26 21 19 24 27 14 37 -9 9 -28 8 -84 -5 -84
-20 -91 -20 -83 -8 8 15 -15 25 -28 12 -8 -8 -8 -11 2 -11 7 0 9 -4 6 -10 -11
-17 -35 -12 -28 7 6 14 1 15 -33 9 -21 -4 -63 -9 -91 -13 -49 -5 -53 -4 -62
18 -8 23 -6 24 38 30 25 4 111 12 191 19 80 7 168 19 195 26 43 12 45 14 12
10 -35 -4 -37 -3 -32 16 11 33 -4 108 -21 108 -12 0 -15 -13 -13 -67 l3 -68
-35 -3 -34 -3 3 66 4 65 -36 0 -36 0 6 -57 c3 -32 7 -64 10 -70 2 -9 -10 -13
-38 -13 -23 0 -38 3 -34 8 4 4 13 7 19 7 15 0 10 107 -6 117 -11 7 21 12 178
28 55 6 118 15 140 21 62 17 123 40 93 34 -22 -4 -28 -2 -28 12 0 37 14 43 48
23 31 -19 32 -22 32 -89 0 -64 -2 -70 -27 -86 l-27 -18 69 -19 c92 -25 104
-41 105 -139 0 -65 -3 -80 -25 -109 -14 -18 -24 -35 -22 -36 1 -1 20 -9 42
-17 22 -8 47 -17 55 -21 20 -8 48 50 31 67 -33 33 15 107 69 107 43 0 84 -41
78 -80 -4 -25 6 -40 79 -112 l83 -83 0 243 0 242 275 0 275 0 0 -1670 0 -1670
115 0 115 0 0 3600 0 3600 -6400 0 -6400 0 0 -3600z m1576 2655 c48 -37 64
-79 64 -167 0 -131 -59 -193 -180 -193 -81 1 -121 21 -155 78 -20 36 -25 57
-25 116 0 82 22 137 67 169 39 27 58 31 131 28 49 -3 70 -9 98 -31z m685 23
c42 -12 49 -30 25 -63 -12 -16 -18 -17 -60 -6 -83 21 -116 -22 -48 -64 18 -11
52 -34 75 -50 69 -51 72 -128 7 -177 -34 -25 -115 -33 -165 -16 -36 12 -40 17
-43 51 -2 20 0 37 3 37 4 0 31 -7 60 -15 107 -32 146 25 51 76 -80 44 -106 74
-106 124 0 93 87 138 201 103z m1299 -8 c16 -29 130 -353 130 -367 0 -2 -20
-3 -44 -3 -43 0 -45 1 -58 43 l-15 42 -66 3 -67 3 -12 -46 -12 -45 -49 0 c-43
0 -48 2 -42 18 4 9 11 28 15 42 19 58 110 312 115 321 4 5 26 9 50 9 34 0 47
-5 55 -20z m768 -17 c41 -33 71 -98 71 -154 1 -60 -26 -135 -60 -163 -85 -71
-240 -51 -286 37 -25 49 -29 158 -8 212 17 45 60 88 100 98 11 3 48 4 83 3 53
-3 70 -9 100 -33z m928 16 c53 -25 83 -73 90 -148 13 -121 -45 -212 -143 -226
-66 -9 -109 0 -152 32 -113 86 -85 315 44 352 53 16 117 12 161 -10z m-4546
-179 l0 -190 -45 0 -45 0 0 190 0 190 45 0 45 0 0 -190z m180 0 l0 -190 -45 0
-45 0 0 190 0 190 45 0 45 0 0 -190z m175 0 l0 -190 -42 0 -43 0 0 190 0 190
43 0 42 0 0 -190z m884 175 c53 -27 64 -102 21 -145 -19 -19 -19 -20 -1 -30
29 -15 43 -66 30 -112 -16 -62 -52 -78 -176 -78 l-103 0 0 190 0 190 100 0
c69 0 110 -5 129 -15z m649 -17 l-3 -33 -67 -3 -68 -3 0 -34 0 -34 63 -3 62
-3 0 -35 0 -35 -62 -3 -63 -3 0 -44 0 -45 70 0 70 0 0 -35 0 -35 -115 0 -115
0 0 190 0 190 116 0 115 0 -3 -32z m282 17 c66 -34 78 -114 26 -169 l-33 -36
54 -80 53 -80 -49 0 -49 0 -43 70 c-28 44 -50 70 -61 70 -16 0 -18 -10 -18
-70 l0 -70 -45 0 -45 0 0 190 0 190 90 0 c62 0 100 -5 120 -15z m188 -12 c14
-36 69 -212 75 -238 5 -24 1 -32 54 135 l39 125 42 3 c23 2 42 0 42 -5 0 -4
-27 -90 -61 -190 l-62 -183 -48 0 c-27 0 -49 1 -49 3 0 1 -29 86 -64 190 l-64
187 43 0 c37 0 44 -3 53 -27z m922 -8 l0 -35 -50 0 -50 0 0 -155 0 -155 -45 0
-45 0 0 155 0 155 -50 0 -50 0 0 35 0 35 145 0 145 0 0 -35z m698 15 c61 -38
70 -110 18 -164 l-33 -36 54 -80 53 -80 -49 0 -49 0 -43 70 c-28 44 -50 70
-61 70 -16 0 -18 -10 -18 -70 l0 -70 -45 0 -45 0 0 190 0 190 93 0 c74 0 98
-4 125 -20z m222 -170 l0 -190 -45 0 -45 0 0 190 0 190 45 0 45 0 0 -190z
m-2940 -520 c10 -30 39 -113 64 -184 25 -71 46 -133 46 -138 0 -4 -20 -8 -44
-8 -43 0 -44 1 -58 43 l-13 42 -67 3 -67 3 -12 -46 -11 -45 -49 0 -48 0 58
168 c87 249 72 224 132 220 l52 -3 17 -55z m363 41 c27 -11 27 -11 12 -41 -17
-32 -29 -36 -71 -19 -36 13 -70 4 -77 -20 -6 -23 8 -36 75 -74 59 -34 88 -71
88 -113 0 -71 -84 -123 -178 -110 -65 9 -82 21 -82 61 0 19 2 35 5 35 2 0 29
-7 60 -15 65 -16 105 -7 105 24 0 19 -28 43 -83 71 -77 38 -100 121 -52 179
14 16 36 32 48 35 32 7 118 -1 150 -13z m1338 -36 c10 -27 40 -114 68 -192
l50 -143 -48 0 -49 0 -11 45 -12 46 -67 -3 -67 -3 -13 -42 c-14 -42 -15 -43
-58 -43 -24 0 -44 4 -44 9 0 5 21 67 46 138 25 70 52 148 60 173 8 25 17 51
19 58 3 9 21 12 57 10 l52 -3 17 -50z m1099 33 c5 -13 34 -93 64 -178 30 -85
58 -163 61 -172 6 -16 1 -18 -42 -18 l-49 0 -12 45 -12 45 -68 0 -68 0 -12
-45 c-12 -45 -12 -45 -57 -45 -25 0 -45 4 -45 8 0 7 49 150 107 310 l26 72 49
0 c41 0 50 -4 58 -22z m352 12 c46 -13 51 -21 37 -54 -14 -29 -19 -30 -71 -16
-47 13 -81 -1 -76 -33 2 -14 23 -32 63 -53 77 -42 95 -65 95 -121 0 -94 -98
-135 -232 -97 -14 4 -18 16 -18 48 l0 43 53 -18 c59 -20 103 -15 110 11 6 25
-1 33 -63 67 -89 49 -118 109 -84 174 26 52 103 72 186 49z m-4279 -15 c54
-22 94 -77 101 -139 11 -96 -18 -162 -90 -203 -33 -19 -54 -23 -136 -23 l-98
0 0 190 0 190 94 0 c60 0 106 -5 129 -15z m399 -20 l-4 -35 -64 0 -64 0 0 -35
0 -34 63 -3 62 -3 3 -37 3 -38 -65 0 -66 0 0 -45 0 -45 65 0 65 0 0 -35 0 -35
-110 0 -110 0 0 190 0 190 113 0 113 0 -4 -35z m298 -120 l0 -155 80 0 80 0 0
-35 0 -35 -120 0 -120 0 0 190 0 190 40 0 40 0 0 -155z m1240 120 l0 -35 -70
0 -70 0 0 -45 0 -44 68 -3 67 -3 3 -32 3 -32 -68 -3 -68 -3 -3 -72 -3 -73 -39
0 -40 0 0 190 0 190 110 0 110 0 0 -35z m160 -155 l0 -190 -45 0 -45 0 0 190
0 190 45 0 45 0 0 -190z m230 133 c19 -32 51 -87 72 -122 21 -34 38 -67 38
-71 0 -5 3 -11 8 -14 4 -2 6 56 4 130 l-4 134 41 0 41 0 0 -190 0 -190 -53 0
c-60 0 -47 -14 -147 162 l-67 118 5 -140 5 -140 -42 0 -41 0 0 190 0 190 53 0
53 0 34 -57z m788 27 c9 -17 45 -79 80 -138 l62 -107 -2 138 -3 137 43 0 42 0
0 -190 0 -190 -58 0 -58 0 -74 131 -75 131 -3 -131 -3 -131 -39 0 -40 0 0 190
0 190 55 0 c52 0 57 -2 73 -30z m562 9 c0 -11 -33 -68 -72 -125 -40 -58 -81
-118 -91 -135 l-19 -29 91 0 91 0 0 -35 0 -35 -145 0 -145 0 0 29 c0 19 26 65
85 147 46 65 85 122 85 126 0 4 -37 8 -82 10 l-83 3 -3 33 -3 32 145 0 c141 0
146 -1 146 -21z m-870 -929 c0 -7 -518 -10 -1535 -10 -1017 0 -1535 3 -1535
10 0 7 518 10 1535 10 1017 0 1535 -3 1535 -10z m7847 -162 c-2 -13 -4 -5 -4
17 -1 22 1 32 4 23 2 -10 2 -28 0 -40z m-147 17 c5 3 11 1 15 -5 3 -5 -3 -10
-14 -10 -12 0 -21 -6 -21 -14 0 -8 -6 -18 -12 -22 -7 -4 -10 -4 -6 1 4 4 3 16
-3 26 -7 15 -6 19 6 19 8 0 16 8 16 18 1 16 2 16 6 -1 2 -9 8 -15 13 -12z
m-1310 5 c0 -5 -2 -10 -4 -10 -3 0 -8 5 -11 10 -3 6 -1 10 4 10 6 0 11 -4 11
-10z m947 -7 c2 -6 -7 -8 -21 -6 -14 3 -24 9 -21 13 7 11 38 6 42 -7z m-698
-41 c1 -8 -8 -11 -25 -8 -38 7 -42 16 -8 16 20 0 25 3 15 9 -8 5 -10 14 -6 22
6 9 10 8 16 -7 4 -10 8 -25 8 -32z m317 33 c-10 -8 -24 -11 -29 -8 -6 4 -2 10
9 14 31 12 40 9 20 -6z m921 -37 c-3 -7 -5 -2 -5 12 0 14 2 19 5 13 2 -7 2
-19 0 -25z m-903 13 c3 -5 -1 -12 -10 -15 -20 -8 -29 -1 -19 13 8 13 22 14 29
2z m346 5 c0 -2 -8 -10 -17 -17 -16 -13 -17 -12 -4 4 13 16 21 21 21 13z
m-403 -12 c-3 -3 -12 -4 -19 -1 -8 3 -5 6 6 6 11 1 17 -2 13 -5z m830 -16 c-3
-8 -6 -5 -6 6 -1 11 2 17 5 13 3 -3 4 -12 1 -19z m-410 -4 c-3 -3 -12 -4 -19
-1 -8 3 -5 6 6 6 11 1 17 -2 13 -5z m-844 -61 c-7 -2 -19 -2 -25 0 -7 3 -2 5
12 5 14 0 19 -2 13 -5z m27 -8 c0 -8 -7 -15 -15 -15 -13 0 -14 3 -3 15 16 18
18 18 18 0z m760 -86 c0 -31 -4 -48 -10 -44 -11 7 -13 54 -4 79 10 27 14 18
14 -35z m-1140 7 c0 -14 5 -37 10 -52 7 -18 7 -31 1 -37 -6 -6 -12 -2 -15 14
-10 46 -12 99 -4 99 4 0 8 -11 8 -24z m355 -96 c4 -6 -6 -10 -22 -9 -25 0 -26
1 -8 9 11 5 21 9 22 9 1 1 5 -3 8 -9z m88 -40 c116 0 208 -2 205 -5 -10 -10
-502 -5 -538 5 -28 8 -19 9 44 5 43 -3 174 -5 289 -5z m-8303 -129 l0 -130
-32 -1 c-86 -3 -92 -2 -110 20 -23 28 -24 107 -2 138 17 25 81 31 102 10 9 -9
12 0 12 40 0 40 4 52 15 52 13 0 15 -21 15 -129z m1550 0 l0 -130 -32 -1 c-86
-3 -92 -2 -110 20 -26 32 -24 109 2 138 23 25 95 31 103 10 3 -7 6 11 6 40 1
39 5 52 16 52 13 0 15 -21 15 -129z m-2720 100 c0 -5 -22 -58 -49 -118 -37
-82 -54 -109 -69 -111 -20 -3 -20 -2 -7 25 7 15 29 63 49 106 l35 77 -65 0
c-50 0 -64 3 -64 15 0 12 16 15 85 15 47 0 85 -4 85 -9z m334 -7 c22 -21 20
-61 -3 -81 -19 -16 -19 -17 5 -35 45 -36 25 -97 -36 -113 -28 -7 -80 9 -92 28
-14 22 -8 64 12 82 19 17 19 18 0 43 -24 30 -25 41 -4 70 19 27 93 31 118 6z
m532 -5 c28 -31 27 -147 -2 -185 -22 -31 -66 -47 -101 -39 -31 7 -29 25 3 25
20 0 56 12 72 25 1 1 7 17 12 34 8 27 7 31 -5 21 -24 -20 -77 -15 -97 10 -22
27 -23 78 -2 108 21 30 93 31 120 1z m2310 -4 c24 -36 9 -79 -45 -136 l-47
-49 58 0 c45 0 58 -3 58 -15 0 -12 -16 -15 -85 -15 -47 0 -85 4 -85 10 0 5 10
20 23 32 99 103 119 146 77 168 -15 8 -27 7 -49 -5 -20 -10 -32 -11 -36 -5
-13 22 17 40 66 40 41 0 51 -4 65 -25z m189 1 c25 -37 30 -124 12 -169 -24
-57 -90 -72 -124 -28 -37 48 -37 150 -1 196 27 35 91 35 113 1z m191 -1 c23
-35 10 -76 -43 -135 l-45 -50 56 0 c43 0 56 -3 56 -15 0 -12 -16 -15 -80 -15
-58 0 -80 4 -80 13 1 6 25 39 55 72 38 42 55 68 55 87 0 36 -24 48 -66 35 -19
-6 -37 -7 -41 -3 -14 14 31 36 74 36 34 0 46 -5 59 -25z m186 8 c24 -21 23
-58 -1 -82 -19 -19 -19 -20 -1 -26 39 -12 35 -84 -7 -106 -30 -16 -109 -17
-125 -1 -20 20 0 31 37 19 50 -15 87 3 83 41 -3 23 -9 28 -45 36 -46 11 -59
36 -19 36 41 0 56 11 56 40 0 33 -27 44 -71 28 -35 -12 -47 -5 -29 17 17 21
98 20 122 -2z m5461 -10 c-7 -2 -19 -2 -25 0 -7 3 -2 5 12 5 14 0 19 -2 13 -5z
m-8681 -105 l25 -71 23 71 c18 54 28 72 42 72 22 0 22 2 -3 -62 -11 -29 -28
-73 -36 -98 -24 -69 -49 -100 -84 -100 -19 0 -29 5 -29 15 0 9 6 15 13 14 28
-3 38 2 47 26 8 21 3 43 -25 112 -19 48 -35 88 -35 90 0 2 8 3 18 3 14 0 25
-18 44 -72z m824 57 c9 -8 18 -31 21 -50 l6 -35 -62 0 c-65 0 -77 -12 -44 -45
12 -13 26 -15 55 -11 51 8 54 -19 3 -28 -43 -8 -84 9 -103 44 -16 32 -9 95 14
121 21 23 89 26 110 4z m174 3 c0 -9 3 -9 12 0 15 15 84 16 93 2 5 -8 11 -8
20 0 8 6 31 10 52 8 48 -4 63 -31 63 -115 0 -56 -2 -63 -20 -63 -18 0 -20 7
-20 69 0 82 -15 103 -55 77 -22 -15 -25 -23 -25 -81 0 -51 -3 -65 -15 -65 -12
0 -15 14 -15 64 0 62 -14 96 -40 96 -26 0 -40 -34 -40 -96 0 -50 -3 -64 -15
-64 -12 0 -15 17 -15 90 0 53 4 90 10 90 6 0 10 -5 10 -12z m410 -7 c5 -11 10
-51 10 -90 0 -56 -3 -71 -15 -71 -8 0 -15 6 -15 13 0 8 -3 7 -9 -2 -14 -22
-80 -19 -97 4 -33 44 -7 85 59 92 50 6 56 13 31 37 -18 19 -16 19 -48 6 -16
-6 -27 -6 -31 0 -12 20 7 30 55 30 39 0 52 -4 60 -19z m90 7 c0 -9 3 -9 12 0
16 16 71 16 66 0 -3 -7 -17 -15 -33 -20 -38 -10 -45 -23 -45 -90 0 -45 -3 -58
-15 -58 -12 0 -15 17 -15 90 0 73 3 90 15 90 8 0 15 -5 15 -12z m220 -3 c0 -8
-20 -43 -45 -78 l-46 -62 51 -3 c76 -5 60 -22 -20 -22 -38 0 -70 4 -70 10 0 5
20 38 45 73 25 36 45 67 45 69 0 2 -18 2 -40 0 -32 -3 -40 -1 -40 12 0 13 12
16 60 16 47 0 60 -3 60 -15z m177 -7 c34 -32 33 -105 -2 -138 -34 -32 -87 -32
-118 -2 -29 30 -31 110 -3 141 26 29 91 29 123 -1z m483 2 c11 -11 20 -33 20
-50 l0 -30 -60 0 c-65 0 -76 -12 -40 -45 14 -13 28 -16 55 -11 27 5 35 4 35
-7 0 -17 -44 -28 -84 -20 -32 7 -66 54 -66 93 0 14 9 40 20 58 17 27 25 32 60
32 27 0 47 -7 60 -20z m6452 8 c-9 -9 -15 -9 -24 0 -9 9 -7 12 12 12 19 0 21
-3 12 -12z m128 0 c0 -5 -25 -8 -55 -8 -30 0 -55 4 -55 8 0 5 25 8 55 8 30 -1
55 -4 55 -8z m871 -23 c5 -76 3 -80 -24 -83 -22 -3 -27 1 -32 25 -4 15 -8 34
-11 41 -2 6 5 12 16 12 10 0 22 5 25 10 9 15 25 12 26 -5z m-1018 -22 c-24 -2
-62 -2 -85 0 -24 2 -5 4 42 4 47 0 66 -2 43 -4z m114 1 c-3 -3 -12 -4 -19 -1
-8 3 -5 6 6 6 11 1 17 -2 13 -5z m96 -1 c-13 -2 -35 -2 -50 0 -16 2 -5 4 22 4
28 0 40 -2 28 -4z m75 0 c-10 -2 -26 -2 -35 0 -10 3 -2 5 17 5 19 0 27 -2 18
-5z m620 -24 c2 -15 -4 -34 -13 -43 -18 -18 -35 -21 -35 -6 0 6 7 10 15 10 8
0 15 2 15 4 0 2 3 11 6 20 3 9 1 16 -5 16 -6 0 -10 -4 -8 -9 1 -5 -2 -10 -8
-10 -5 -1 -11 10 -13 24 -3 23 0 26 20 23 16 -2 24 -11 26 -29z m-1105 14 c-7
-2 -19 -2 -25 0 -7 3 -2 5 12 5 14 0 19 -2 13 -5z m-9070 -118 c-22 -66 -51
-59 -32 8 7 26 16 37 29 37 18 0 18 -2 3 -45z m10292 -15 c4 -6 -9 -10 -32 -9
-34 1 -35 2 -13 9 35 11 38 11 45 0z m-1018 -14 c9 -9 -146 -6 -192 4 -28 6
-7 7 73 5 62 -1 116 -5 119 -9z m83 -2 c0 -2 -12 -4 -27 -4 -21 0 -24 3 -14 9
13 8 41 5 41 -5z m373 -21 c-7 -2 -19 -2 -25 0 -7 3 -2 5 12 5 14 0 19 -2 13
-5z m614 -55 c-2 -13 -4 -3 -4 22 0 25 2 35 4 23 2 -13 2 -33 0 -45z m20 10
c-2 -13 -4 -5 -4 17 -1 22 1 32 4 23 2 -10 2 -28 0 -40z m-1450 -8 c2 -39 -10
-60 -23 -39 -3 6 0 15 7 20 10 6 11 9 2 9 -7 0 -13 11 -13 25 0 42 25 29 27
-15z m978 20 c4 -7 -2 -9 -19 -4 -18 4 -26 2 -26 -7 0 -7 -3 -10 -6 -6 -10 10
6 27 26 27 10 0 22 -5 25 -10z m385 -16 c0 -8 -4 -14 -10 -14 -5 0 -10 9 -10
21 0 11 5 17 10 14 6 -3 10 -13 10 -21z m-1110 -5 c0 -5 5 -7 10 -4 6 3 10 0
10 -8 0 -9 -11 -13 -35 -13 -40 1 -42 4 -17 22 21 16 32 17 32 3z m977 -36
c-3 -10 -5 -2 -5 17 0 19 2 27 5 18 2 -10 2 -26 0 -35z m-622 27 c11 -5 14 -9
8 -9 -7 -1 -13 -13 -14 -28 0 -16 -3 -23 -5 -16 -3 7 -12 9 -20 6 -11 -4 -15
0 -12 13 2 13 -3 19 -14 18 -21 -2 -24 12 -5 19 18 8 39 7 62 -3z m347 -2
c-18 -18 -14 -27 11 -21 12 3 19 2 15 -2 -11 -12 -58 -15 -58 -4 0 13 23 38
35 39 5 0 4 -5 -3 -12z m-696 -44 c2 -11 -1 -12 -10 -5 -7 6 -16 8 -19 4 -4
-3 -7 -1 -7 5 0 11 22 22 29 15 3 -2 6 -10 7 -19z m-1326 -233 c96 -5 187 -14
203 -20 25 -10 27 -15 27 -62 0 -52 -9 -63 -14 -17 -5 53 -32 59 -141 33 -33
-8 -74 -15 -92 -15 -26 0 -31 -3 -27 -17 5 -17 5 -17 -9 -1 -8 10 -16 15 -19
13 -3 -3 -214 -8 -469 -11 -255 -4 -484 -7 -509 -9 -73 -3 -80 -10 -79 -69 2
-48 2 -49 9 -16 l7 35 2 -32 1 -32 93 -3 c130 -5 598 0 687 6 41 4 100 8 130
11 30 3 95 7 145 11 49 3 93 7 96 10 4 2 10 0 13 -5 14 -22 -192 -44 -541 -57
-175 -7 -182 -8 -172 -26 17 -32 7 -73 -19 -76 -12 -2 -22 0 -21 5 1 4 1 27 0
51 -1 34 -5 42 -20 42 -21 0 -34 -23 -21 -36 13 -13 0 -54 -16 -54 -8 0 -14 6
-15 13 0 10 -2 10 -6 0 -6 -17 -130 -17 -160 0 -23 13 -23 13 -23 50 l0 23
-244 12 c-262 12 -319 23 -332 65 -10 30 -8 107 3 117 20 20 237 53 383 60
236 10 953 10 1150 1z m2400 -46 c0 -2 -7 -5 -15 -9 -9 -3 -15 0 -15 9 0 9 6
12 15 9 8 -4 15 -7 15 -9z m30 5 c0 -5 -5 -10 -11 -10 -5 0 -7 5 -4 10 3 6 8
10 11 10 2 0 4 -4 4 -10z m50 0 c0 -5 -4 -10 -10 -10 -5 0 -10 5 -10 10 0 6 5
10 10 10 6 0 10 -4 10 -10z m-2793 -90 c-1 -21 -12 -26 -22 -10 -3 6 -1 10 5
10 6 0 8 5 5 10 -3 6 -2 10 4 10 5 0 9 -9 8 -20z m290 -1 c-8 -5 -24 -6 -34
-2 -16 6 -15 8 7 13 31 8 48 0 27 -11z m1420 15 c-3 -3 -12 -4 -19 -1 -8 3 -5
6 6 6 11 1 17 -2 13 -5z m-1997 -8 c0 -2 -9 -6 -20 -9 -11 -3 -20 -1 -20 4 0
5 9 9 20 9 11 0 20 -2 20 -4z m-307 -44 c-4 -10 -8 -12 -11 -4 -2 7 -11 12
-20 12 -14 0 -14 2 -3 9 20 13 41 2 34 -17z m1141 19 c3 -4 23 -11 43 -15 85
-14 113 -26 113 -49 0 -18 -2 -19 -10 -7 -7 11 -9 4 -9 -25 1 -35 2 -37 9 -15
7 20 8 21 9 5 0 -19 -20 -55 -32 -55 -3 0 -3 25 0 57 6 56 6 56 -18 49 -34
-10 -265 -36 -324 -35 -71 0 -36 17 51 24 121 10 134 14 134 35 0 11 5 20 11
20 5 0 7 5 4 10 -3 6 -2 10 4 10 5 0 12 -4 15 -9z m1036 -27 c0 -9 -7 -23 -16
-31 -14 -14 -15 -13 -11 18 3 19 6 35 6 37 3 10 21 -12 21 -24z m167 10 c-3
-3 -12 -4 -19 -1 -8 3 -5 6 6 6 11 1 17 -2 13 -5z m178 -4 l30 -8 -28 -1 c-16
0 -26 -5 -22 -11 3 -5 0 -10 -7 -10 -10 0 -10 -2 1 -9 8 -5 14 -24 13 -43 -1
-29 3 -36 26 -45 23 -9 18 -11 -38 -11 -36 0 -57 2 -47 5 13 3 17 15 17 52 0
26 5 52 12 59 9 9 8 12 -3 16 -8 2 -21 7 -29 9 -24 8 42 5 75 -3z m145 -6 c0
-2 -16 -4 -35 -4 -19 0 -35 4 -35 8 0 4 16 6 35 4 19 -2 35 -6 35 -8z m80 6
c0 -6 -11 -8 -27 -4 -40 10 -41 14 -5 14 18 0 32 -5 32 -10z m118 3 c-10 -2
-28 -2 -40 0 -13 2 -5 4 17 4 22 1 32 -1 23 -4z m65 0 c-7 -2 -19 -2 -25 0 -7
3 -2 5 12 5 14 0 19 -2 13 -5z m264 -40 c-3 -10 -5 -2 -5 17 0 19 2 27 5 18 2
-10 2 -26 0 -35z m-961 6 c3 -33 -20 -63 -43 -55 -11 5 -14 10 -6 14 6 4 14
22 18 40 8 38 27 38 31 1z m68 7 c-1 -9 5 -16 13 -16 12 0 13 -3 4 -14 -10
-12 -9 -20 4 -40 24 -37 35 -32 35 13 0 49 8 71 26 71 13 0 21 -54 15 -99 -2
-7 2 -10 8 -6 6 3 11 2 11 -4 0 -5 -8 -11 -17 -13 -26 -6 -94 13 -87 23 7 12
-3 11 -26 -1 -16 -9 -21 -6 -26 14 -3 14 -2 31 2 38 9 14 11 19 13 44 0 9 7
14 14 11 6 -2 11 -12 11 -21z m316 0 c0 -3 -4 -8 -10 -11 -5 -3 -10 -1 -10 4
0 6 5 11 10 11 6 0 10 -2 10 -4z m-203 -38 c-3 -7 -5 -2 -5 12 0 14 2 19 5 13
2 -7 2 -19 0 -25z m203 -22 c0 -31 3 -34 35 -40 54 -10 49 -21 -8 -18 l-52 4
3 44 c5 51 22 60 22 10z m586 -32 c-1 -1 -21 -4 -45 -7 -29 -4 -40 -2 -30 4 7
5 24 9 37 9 17 0 22 6 23 28 l1 27 7 -30 c4 -16 7 -31 7 -31z m-2869 -36 c-2
-13 -4 -3 -4 22 0 25 2 35 4 23 2 -13 2 -33 0 -45z m2723 26 c0 -2 -15 -4 -32
-3 -27 0 -29 2 -13 8 18 8 45 4 45 -5z m-250 -10 c0 -2 -19 -4 -42 -3 -35 1
-38 2 -18 8 23 7 60 4 60 -5z m113 9 c-7 -2 -19 -2 -25 0 -7 3 -2 5 12 5 14 0
19 -2 13 -5z m180 0 c-7 -2 -19 -2 -25 0 -7 3 -2 5 12 5 14 0 19 -2 13 -5z
m-120 -10 c-7 -2 -21 -2 -30 0 -10 3 -4 5 12 5 17 0 24 -2 18 -5z m-1817 -53
c-34 -11 -304 -31 -384 -29 -31 1 22 7 118 14 96 7 191 15 210 18 19 2 46 4
60 5 23 0 23 0 -4 -8z m-1126 -11 c19 -7 80 -14 135 -16 129 -5 126 -4 122
-17 -4 -13 -35 -13 -167 -3 -63 5 -90 4 -79 -3 9 -5 73 -13 143 -16 138 -8
163 -17 39 -15 -84 1 -112 4 -185 15 -41 7 -46 11 -50 37 -5 33 -5 33 42 18z
m893 -46 c-7 -2 -21 -2 -30 0 -10 3 -4 5 12 5 17 0 24 -2 18 -5z m87 -23 c0
-5 -17 -9 -37 -9 l-38 2 35 7 c19 4 36 8 38 9 1 0 2 -3 2 -9z m1343 3 c-7 -2
-19 -2 -25 0 -7 3 -2 5 12 5 14 0 19 -2 13 -5z m-1386 -49 c-3 -3 -12 -4 -19
-1 -8 3 -5 6 6 6 11 1 17 -2 13 -5z m-802 -28 c1 -1 -2 -17 -6 -36 -3 -19 -7
-26 -8 -16 -1 18 -2 18 -21 1 -20 -18 -20 -17 -20 24 0 40 1 41 28 35 15 -4
27 -7 27 -8z m46 4 c24 -13 26 -65 3 -74 -27 -10 -30 -7 -33 39 -2 48 0 51 30
35z m1066 -22 c-3 -8 -6 -5 -6 6 -1 11 2 17 5 13 3 -3 4 -12 1 -19z m-971 -3
c-3 -8 0 -15 6 -15 7 0 7 -4 -1 -13 -6 -8 -8 -17 -4 -20 3 -4 1 -7 -5 -7 -7 0
-12 9 -12 19 0 11 -5 21 -12 23 -16 6 -1 28 19 28 9 0 13 -6 9 -15z m2061 -17
c-3 -7 -5 -2 -5 12 0 14 2 19 5 13 2 -7 2 -19 0 -25z m-1152 -37 c-13 -11
-100 -22 -89 -11 5 5 25 10 44 13 19 2 39 5 45 5 6 1 6 -1 0 -7z m-225 -21 c0
-5 -8 -10 -17 -10 -15 0 -16 2 -3 10 19 12 20 12 20 0z m73 3 c-7 -2 -19 -2
-25 0 -7 3 -2 5 12 5 14 0 19 -2 13 -5z m287 -33 c0 -11 -4 -20 -10 -20 -5 0
-10 9 -10 20 0 11 5 20 10 20 6 0 10 -9 10 -20z m-193 -35 c1 -5 -11 -10 -27
-11 -30 -1 -40 10 -17 19 17 8 40 4 44 -8z m193 -5 c0 -5 -4 -10 -10 -10 -5 0
-10 5 -10 10 0 6 5 10 10 10 6 0 10 -4 10 -10z m-1213 -47 c-3 -10 -5 -2 -5
17 0 19 2 27 5 18 2 -10 2 -26 0 -35z m430 17 c1 -21 -3 -26 -25 -27 -15 0
-19 1 -10 4 11 3 15 10 11 20 -4 11 -2 14 5 9 7 -4 12 -2 12 5 0 6 -8 9 -20 6
-11 -3 -20 -1 -20 5 0 5 10 8 22 6 16 -2 23 -10 25 -28z m311 21 c10 -6 6 -10
-15 -14 -33 -6 -51 2 -32 14 18 11 30 11 47 0z m-581 -38 c-3 -10 -5 -4 -5 12
0 17 2 24 5 18 2 -7 2 -21 0 -30z m853 23 c0 -9 -30 -14 -35 -6 -4 6 3 10 14
10 12 0 21 -2 21 -4z m-285 -16 c3 -5 -1 -10 -10 -10 -9 0 -13 5 -10 10 3 6 8
10 10 10 2 0 7 -4 10 -10z m-728 -266 c-3 -3 -12 -4 -19 -1 -8 3 -5 6 6 6 11
1 17 -2 13 -5z m1033 -96 c0 -10 5 -18 10 -18 6 0 10 -4 10 -8 0 -18 -33 -7
-42 14 -13 28 -2 67 12 44 6 -8 10 -23 10 -32z m-202 25 c-37 -4 -48 -15 -28
-28 6 -3 10 -22 10 -41 0 -19 5 -34 12 -34 28 0 -4 -12 -37 -14 -28 -1 -33 1
-21 9 9 7 15 27 14 53 0 40 -2 42 -32 43 -29 2 -28 2 9 9 22 4 56 7 75 7 l35
0 -37 -4z m137 -2 c-3 -5 -1 -12 5 -16 13 -8 13 -62 0 -70 -6 -3 -13 1 -16 9
-3 9 -10 14 -14 11 -8 -5 -4 51 5 66 4 5 11 9 16 9 6 0 8 -4 4 -9z m-268 -7
c-3 -3 -12 -4 -19 -1 -8 3 -5 6 6 6 11 1 17 -2 13 -5z m193 -16 c0 -48 11 -69
34 -63 11 2 6 -2 -12 -10 -23 -11 -38 -13 -50 -6 -9 6 -12 11 -5 11 13 0 14
40 1 40 -4 0 -8 5 -8 11 0 5 5 7 10 4 6 -3 10 3 10 14 0 12 5 21 10 21 6 0 10
-10 10 -22z m-397 5 c-7 -2 -19 -2 -25 0 -7 3 -2 5 12 5 14 0 19 -2 13 -5z
m204 -75 c-3 -7 -5 -2 -5 12 0 14 2 19 5 13 2 -7 2 -19 0 -25z m12 -22 c-2 -2
-22 -6 -44 -9 -27 -4 -35 -3 -25 3 14 9 79 15 69 6z m-116 -13 c-7 -2 -21 -2
-30 0 -10 3 -4 5 12 5 17 0 24 -2 18 -5z m522 -33 c3 -5 2 -10 -4 -10 -5 0
-13 5 -16 10 -3 6 -2 10 4 10 5 0 13 -4 16 -10z m170 -40 c-27 -10 -97 -26
-155 -35 -117 -17 -454 -38 -521 -32 -35 3 -31 4 21 5 176 6 513 42 610 66 80
20 103 18 45 -4z m-1125 0 c13 -8 13 -10 -2 -10 -9 0 -20 5 -23 10 -8 13 5 13
25 0z m117 -132 c-3 -8 -6 -5 -6 6 -1 11 2 17 5 13 3 -3 4 -12 1 -19z m20 0
c-3 -8 -6 -5 -6 6 -1 11 2 17 5 13 3 -3 4 -12 1 -19z m183 2 c0 -5 7 -10 15
-10 13 0 13 -3 3 -13 -17 -19 -71 0 -54 19 13 16 36 18 36 4z m-6244 -993 c14
5 14 3 2 -16 -10 -17 -19 -21 -38 -16 -14 3 -33 7 -42 8 -23 2 -23 13 -1 26
10 5 26 5 40 0 13 -5 30 -6 39 -2z m-1427 -97 c0 -35 0 -35 -16 -12 -9 12 -26
22 -39 22 -23 0 -24 -3 -24 -60 0 -56 2 -60 23 -60 13 0 28 5 35 12 9 9 12 3
12 -28 -1 -31 -3 -36 -11 -21 -5 9 -20 17 -33 17 -22 0 -23 -4 -25 -65 l-2
-65 31 0 c23 0 33 6 42 25 20 44 35 28 22 -22 -6 -21 -12 -23 -82 -23 -59 0
-73 3 -64 12 15 15 17 274 2 283 -21 13 1 20 64 20 l66 1 -1 -36z m93 -112
c-3 -142 -3 -148 16 -148 11 0 30 12 41 28 l20 27 1 -37 0 -38 -77 0 c-46 0
-73 4 -65 9 11 6 13 42 10 158 l-3 150 30 -1 30 -1 -3 -147z m376 140 c12 -6
22 -17 22 -24 0 -8 6 -11 13 -8 17 6 41 -21 34 -39 -3 -7 3 -19 13 -25 21 -13
52 -73 56 -106 1 -11 5 -34 9 -51 5 -23 4 -27 -5 -15 -8 12 -9 10 -5 -11 6
-26 6 -26 -54 -28 -44 -1 -61 2 -61 11 0 9 -3 9 -10 -2 -11 -18 -16 -13 -25
25 -7 29 -7 29 8 10 19 -23 22 -13 6 18 -11 20 -10 20 16 -3 l28 -25 -18 28
c-19 29 -15 46 8 31 7 -5 4 -1 -6 9 -27 24 -18 29 18 12 l30 -15 -24 20 c-29
25 -50 25 -67 3 -11 -15 -16 -16 -33 -5 -13 7 -21 8 -21 2 0 -16 -30 -12 -37
6 -9 24 13 40 32 24 12 -10 19 -10 27 -2 9 9 7 12 -10 12 -17 0 -22 6 -22 25
0 14 -4 25 -9 25 -5 0 -7 -8 -4 -19 6 -24 -25 -37 -34 -14 -4 9 -2 18 5 21 6
2 9 9 6 16 -7 18 22 40 42 32 9 -4 23 -1 31 6 13 10 18 9 32 -8 18 -22 54 -19
59 5 2 9 -4 12 -18 8 -11 -3 -18 -2 -15 2 2 4 -12 9 -33 10 -73 6 -106 2 -114
-14 -5 -8 -16 -15 -24 -15 -10 0 -12 5 -8 13 5 8 2 8 -9 -2 -9 -7 -17 -9 -17
-3 0 17 27 33 44 26 9 -3 16 -1 16 5 0 14 47 36 82 39 13 1 33 -3 46 -10z
m310 -27 c4 -35 -7 -40 -26 -11 -7 11 -21 20 -32 20 -18 0 -20 -7 -20 -60 0
-53 2 -60 20 -60 10 0 24 8 29 18 8 13 10 7 10 -28 0 -35 -2 -41 -10 -27 -5 9
-19 17 -29 17 -18 0 -20 -7 -20 -65 0 -62 1 -65 24 -65 14 0 30 10 41 26 21
32 29 25 20 -15 l-7 -31 -76 0 c-59 0 -73 3 -64 12 15 15 17 260 3 287 -9 15
-3 17 62 15 l72 -2 3 -31z m280 30 c28 -2 52 -41 52 -86 0 -54 -25 -85 -70
-85 -30 0 -30 0 -30 -58 0 -32 5 -63 12 -70 9 -9 3 -12 -27 -12 l-40 0 0 158
0 158 45 -2 c25 -1 51 -3 58 -3z m161 -48 c16 -90 48 -226 56 -245 6 -15 2
-18 -26 -18 -33 0 -34 1 -36 45 -2 57 -8 65 -44 65 -27 0 -29 -3 -31 -37 0
-21 -1 -46 0 -55 1 -13 -6 -18 -23 -18 -22 0 -23 3 -15 28 5 15 21 81 35 147
33 151 31 145 54 145 15 0 21 -11 30 -57z m541 48 c2 -1 -1 -6 -8 -13 -8 -8
-12 -55 -12 -145 l0 -133 25 0 c18 0 28 7 35 25 13 35 20 31 20 -10 l0 -35
-71 0 c-61 0 -70 2 -60 14 14 16 11 259 -2 287 -7 13 -2 16 30 13 21 -2 40 -3
43 -3z m-832 -41 l2 -35 -21 28 c-32 41 -69 32 -69 -18 0 -7 20 -35 45 -61 53
-58 65 -101 42 -150 -18 -36 -50 -50 -92 -40 -22 6 -25 12 -25 49 l1 42 20
-38 c15 -29 25 -38 42 -35 17 2 23 11 25 39 2 28 -3 41 -25 63 -61 61 -77 111
-52 159 17 31 29 38 69 35 32 -3 35 -6 38 -38z m456 -60 l41 -94 3 83 c2 53
-1 88 -9 97 -9 12 -5 14 27 13 22 0 33 -3 27 -6 -10 -3 -13 -45 -13 -160 0
-192 -9 -197 -81 -38 l-50 110 3 -111 c3 -106 2 -110 -17 -106 -19 3 -20 10
-17 149 2 112 0 148 -10 155 -8 6 -1 8 21 6 33 -3 36 -7 75 -98z m250 67 c30
-40 35 -176 9 -227 -36 -70 -106 -78 -143 -17 -15 25 -20 50 -20 110 0 122 29
170 99 164 24 -1 40 -10 55 -30z m686 -32 c0 -32 -2 -35 -30 -35 -28 0 -30 3
-30 35 0 32 2 35 30 35 28 0 30 -3 30 -35z m1450 0 c0 -32 -2 -35 -30 -35 -28
0 -30 3 -30 35 0 32 2 35 30 35 28 0 30 -3 30 -35z m-180 -15 c0 -28 2 -30 40
-30 36 0 40 -2 40 -25 0 -23 -4 -25 -41 -25 l-40 0 3 -52 3 -53 43 -3 c37 -3
42 -6 42 -28 0 -23 -3 -24 -58 -24 -96 0 -102 9 -102 151 l0 119 35 0 c32 0
35 -2 35 -30z m-3341 -62 c-12 -30 -22 -78 -23 -110 0 -34 -5 -56 -11 -54 -19
6 -8 103 18 160 33 71 44 73 16 4z m2071 -68 l0 -100 -30 0 -30 0 0 100 0 100
30 0 30 0 0 -100z m285 75 c22 -21 25 -33 25 -100 l0 -75 -35 0 -35 0 0 75 0
75 -65 0 -65 0 0 -75 0 -75 -35 0 -35 0 0 79 c0 74 2 81 26 100 22 18 41 21
111 21 76 0 86 -2 108 -25z m135 -55 c24 -44 46 -80 49 -80 3 0 17 23 31 51
44 90 58 109 83 109 13 0 26 -2 29 -5 3 -3 -17 -48 -45 -101 l-50 -95 -51 3
-51 3 -47 90 c-26 50 -47 93 -48 98 0 4 13 7 28 7 26 0 34 -9 72 -80z m452 63
c22 -20 23 -70 1 -95 -13 -14 -31 -18 -95 -18 -50 0 -77 -4 -73 -10 3 -5 44
-10 91 -10 l84 0 0 -30 0 -30 -98 0 c-132 0 -142 7 -142 102 0 101 8 108 123
108 70 0 95 -4 109 -17z m286 1 c12 -8 22 -26 22 -40 0 -20 -5 -24 -30 -24
-20 0 -30 5 -30 15 0 12 -14 15 -65 15 l-65 0 0 -75 0 -75 -35 0 -35 0 0 77
c0 65 3 80 22 100 19 21 31 23 108 23 61 0 92 -4 108 -16z m292 -84 l0 -100
-30 0 -30 0 0 100 0 100 30 0 30 0 0 -100z m282 83 c14 -13 18 -31 18 -85 0
-97 -13 -108 -127 -108 -102 0 -123 12 -123 70 0 53 13 60 109 60 111 0 96 18
-19 22 -84 3 -85 3 -88 31 l-3 27 107 0 c86 0 111 -3 126 -17z m-3766 -8 c-21
-16 -32 -13 -21 4 3 6 14 11 23 11 15 -1 15 -2 -2 -15z m14 -23 c0 -5 -11 -14
-25 -20 -14 -6 -25 -17 -25 -24 0 -9 3 -9 12 0 7 7 19 12 27 12 10 0 7 -8 -11
-27 -14 -16 -31 -37 -37 -48 -11 -18 -12 -17 -6 10 3 17 6 40 6 52 -1 12 9 29
21 38 25 17 38 19 38 7z m125 -53 c10 -15 -1 -23 -20 -15 -9 3 -13 10 -10 16
8 13 22 13 30 -1z m-137 -52 c-25 -49 -38 -59 -38 -28 0 19 49 86 57 78 2 -2
-7 -25 -19 -50z m21 -21 c-11 -24 -29 -36 -29 -18 0 12 31 54 36 49 3 -2 -1
-16 -7 -31z m34 -4 c-6 -24 -23 -30 -23 -9 0 13 21 39 26 34 2 -2 1 -13 -3
-25z m61 2 c23 -9 20 -23 -4 -21 -11 1 -20 7 -20 14 0 15 2 15 24 7z m41 -14
c3 -5 1 -10 -4 -10 -6 0 -11 5 -11 10 0 6 2 10 4 10 3 0 8 -4 11 -10z m6608
-482 c-29 -14 -29 -23 -1 -42 18 -13 20 -18 10 -28 -7 -7 -18 -13 -25 -13 -7
-1 -11 -6 -9 -13 1 -7 -5 -12 -13 -12 -11 0 -14 13 -12 60 l2 60 35 -1 c32 0
33 -1 13 -11z"/>
<path d="M1417 6204 c-35 -19 -47 -50 -47 -117 0 -68 17 -99 60 -113 44 -15
89 1 108 37 20 37 11 154 -13 179 -28 27 -74 33 -108 14z"/>
<path d="M3484 6135 l-21 -75 44 0 c49 0 48 -5 15 97 l-17 53 -21 -75z"/>
<path d="M4173 6210 c-66 -27 -72 -209 -8 -234 37 -14 86 -6 110 19 22 21 25
33 25 94 0 58 -4 74 -22 95 -26 29 -72 40 -105 26z"/>
<path d="M5131 6209 c-47 -19 -67 -75 -56 -154 10 -64 36 -87 93 -83 40 3 49
8 69 37 44 65 22 179 -38 200 -37 13 -36 13 -68 0z"/>
<path d="M1802 6173 l3 -38 44 2 c40 3 60 14 61 35 0 19 -35 38 -71 38 l-40 0
3 -37z"/>
<path d="M1800 6015 c0 -45 0 -45 36 -45 62 0 95 31 74 71 -8 15 -22 19 -60
19 l-50 0 0 -45z"/>
<path d="M2760 6165 c0 -45 0 -45 35 -45 33 0 55 20 55 49 0 19 -32 41 -61 41
-28 0 -29 -2 -29 -45z"/>
<path d="M4560 6165 c0 -44 1 -45 33 -45 36 0 57 15 57 41 0 27 -28 49 -61 49
-28 0 -29 -2 -29 -45z"/>
<path d="M1877 5480 c-10 -33 -17 -64 -17 -70 0 -5 18 -10 40 -10 22 0 40 4
40 8 0 10 -41 132 -44 132 -2 0 -10 -27 -19 -60z"/>
<path d="M3595 5519 c-20 -56 -35 -103 -35 -110 0 -5 20 -9 44 -9 l44 0 -19
62 c-22 70 -26 77 -34 57z"/>
<path d="M4691 5476 c-12 -38 -19 -71 -17 -73 2 -2 22 -3 43 -1 l40 3 -22 70
-22 70 -22 -69z"/>
<path d="M710 5429 l0 -122 47 6 c81 9 120 81 92 169 -16 49 -44 68 -101 68
l-38 0 0 -121z"/>
<path d="M1820 4060 c-36 -36 -15 -120 30 -120 24 0 50 37 50 72 0 27 -30 68
-50 68 -5 0 -19 -9 -30 -20z"/>
<path d="M3376 4067 c-12 -9 -18 -27 -19 -55 -1 -52 20 -77 57 -68 32 8 45 61
24 103 -15 32 -36 39 -62 20z"/>
<path d="M1018 4129 c-24 -13 -23 -46 2 -59 14 -8 25 -7 40 2 25 16 26 44 1
58 -23 12 -22 12 -43 -1z"/>
<path d="M1010 4013 c-41 -29 -9 -82 42 -70 30 8 42 31 28 56 -13 26 -45 32
-70 14z"/>
<path d="M1542 4124 c-41 -28 -26 -84 23 -84 55 0 70 44 29 85 -19 19 -24 19
-52 -1z"/>
<path d="M4040 4120 c-27 -27 -28 -127 -2 -160 22 -27 57 -20 68 12 13 43 6
129 -12 149 -22 24 -29 24 -54 -1z"/>
<path d="M2026 4064 c-25 -25 -19 -34 24 -34 41 0 52 14 28 38 -16 16 -33 15
-52 -4z"/>
<path d="M2590 3985 c-10 -12 -10 -18 0 -30 24 -29 58 -16 73 28 5 14 0 17
-27 17 -18 0 -39 -7 -46 -15z"/>
<path d="M3086 4064 c-9 -9 -16 -32 -16 -54 0 -60 49 -93 81 -54 21 25 17 93
-6 110 -24 18 -40 18 -59 -2z"/>
<path d="M3577 4062 c-25 -27 -21 -32 23 -32 41 0 52 14 28 38 -17 17 -32 15
-51 -6z"/>
<path d="M7481 3384 c0 -11 3 -14 6 -6 3 7 2 16 -1 19 -3 4 -6 -2 -5 -13z"/>
<path d="M7503 3355 c0 -27 2 -38 4 -22 2 15 2 37 0 50 -2 12 -4 0 -4 -28z"/>
<path d="M7523 3355 c0 -27 2 -38 4 -22 2 15 2 37 0 50 -2 12 -4 0 -4 -28z"/>
<path d="M7433 3340 c1 -11 5 -20 9 -20 4 0 8 9 8 20 0 11 -4 20 -9 20 -6 0
-9 -9 -8 -20z"/>
<path d="M7482 3335 c0 -16 2 -22 5 -12 2 9 2 23 0 30 -3 6 -5 -1 -5 -18z"/>
<path d="M7860 3240 c0 -16 4 -30 8 -30 4 0 9 14 10 30 1 17 -2 30 -8 30 -5 0
-10 -13 -10 -30z"/>
<path d="M1210 916 c0 -2 9 -6 20 -9 11 -3 18 -1 14 4 -5 9 -34 13 -34 5z"/>
<path d="M1730 985 c0 -63 1 -66 23 -63 20 3 22 8 22 63 0 55 -2 60 -22 63
-22 3 -23 0 -23 -63z"/>
<path d="M1886 966 c-4 -27 -10 -55 -13 -62 -4 -10 3 -14 22 -14 21 0 25 4 20
19 -3 10 -9 39 -13 62 l-8 44 -8 -49z"/>
<path d="M2269 1043 c-18 -21 -25 -206 -10 -246 8 -21 17 -28 33 -25 30 4 41
64 34 176 -6 103 -25 134 -57 95z"/>
<path d="M3747 904 c-18 -18 -2 -24 59 -24 48 0 65 3 62 13 -5 13 -109 23
-121 11z"/>
<path d="M4603 818 c2 -9 24 -13 62 -13 38 0 60 4 63 13 3 9 -14 12 -63 12
-49 0 -66 -3 -62 -12z"/>
<path d="M7745 230 c-3 -5 -1 -10 4 -10 6 0 11 5 11 10 0 6 -2 10 -4 10 -3 0
-8 -4 -11 -10z"/>
<path d="M11623 4515 c0 -33 2 -45 4 -27 2 18 2 45 0 60 -2 15 -4 0 -4 -33z"/>
<path d="M11641 4554 c0 -11 3 -14 6 -6 3 7 2 16 -1 19 -3 4 -6 -2 -5 -13z"/>
<path d="M11603 4505 c0 -27 2 -38 4 -22 2 15 2 37 0 50 -2 12 -4 0 -4 -28z"/>
<path d="M11703 4533 c-17 -6 -17 -40 0 -46 10 -4 14 4 14 24 0 16 -1 29 -1
28 -1 0 -7 -3 -13 -6z"/>
<path d="M11642 4500 c0 -14 2 -19 5 -12 2 6 2 18 0 25 -3 6 -5 1 -5 -13z"/>
<path d="M11660 4490 c0 -5 5 -10 10 -10 6 0 10 5 10 10 0 6 -4 10 -10 10 -5
0 -10 -4 -10 -10z"/>
<path d="M11187 4360 c3 -11 9 -17 14 -14 14 8 10 34 -5 34 -9 0 -12 -7 -9
-20z"/>
<path d="M11200 4050 c0 -19 3 -21 12 -12 9 9 9 15 0 24 -9 9 -12 7 -12 -12z"/>
<path d="M9721 4028 c-1 -16 4 -28 9 -28 12 0 12 8 0 35 -8 18 -9 17 -9 -7z"/>
<path d="M11372 3879 c-4 -11 -6 -37 -3 -57 l5 -37 7 47 c4 26 10 52 14 57 3
6 1 11 -5 11 -6 0 -14 -9 -18 -21z"/>
<path d="M11263 3820 c0 -25 2 -35 4 -22 2 12 2 32 0 45 -2 12 -4 2 -4 -23z"/>
<path d="M11243 3810 c0 -25 2 -35 4 -22 2 12 2 32 0 45 -2 12 -4 2 -4 -23z"/>
<path d="M11020 3775 c0 -22 4 -34 10 -30 6 3 10 17 10 30 0 13 -4 27 -10 30
-6 4 -10 -8 -10 -30z"/>
<path d="M11222 3785 c0 -16 2 -22 5 -12 2 9 2 23 0 30 -3 6 -5 -1 -5 -18z"/>
<path d="M11051 3764 c0 -11 3 -14 6 -6 3 7 2 16 -1 19 -3 4 -6 -2 -5 -13z"/>
<path d="M11458 3763 c7 -3 16 -2 19 1 4 3 -2 6 -13 5 -11 0 -14 -3 -6 -6z"/>
<path d="M11408 3753 c7 -3 16 -2 19 1 4 3 -2 6 -13 5 -11 0 -14 -3 -6 -6z"/>
<path d="M11313 3743 c9 -2 25 -2 35 0 9 3 1 5 -18 5 -19 0 -27 -2 -17 -5z"/>
<path d="M11253 3733 c9 -2 23 -2 30 0 6 3 -1 5 -18 5 -16 0 -22 -2 -12 -5z"/>
<path d="M11119 3726 c-2 -2 -51 -6 -109 -10 -58 -4 -159 -11 -225 -16 -66 -5
-172 -10 -235 -11 -73 -1 -100 -4 -75 -8 l40 -6 -35 -7 c-19 -3 -91 -7 -159
-7 -68 -1 -174 -4 -235 -6 -65 -3 -164 1 -239 10 -71 8 -131 15 -134 15 -2 0
-2 4 1 9 10 15 -74 18 -86 4 -13 -16 -13 -15 30 -36 17 -8 32 -11 32 -6 0 5 9
4 20 -3 11 -7 20 -18 20 -25 0 -7 5 -13 10 -13 6 0 10 6 10 14 0 12 7 13 39 7
2 -1 -2 -8 -9 -16 -7 -9 -10 -19 -6 -23 4 -4 14 1 21 11 7 10 23 20 35 22 19
4 20 2 8 -12 -8 -10 -8 -14 -1 -10 8 5 13 -2 15 -20 3 -29 28 -45 28 -18 0 9
-4 13 -10 10 -6 -3 -10 4 -10 17 0 21 5 24 35 24 33 0 35 -2 36 -35 l2 -36 7
40 7 40 3 -40 3 -40 7 40 7 40 2 -42 c0 -24 4 -43 9 -43 4 0 7 17 6 38 -1 23
0 27 3 10 3 -18 10 -28 21 -28 12 0 13 3 4 12 -19 19 -15 49 5 41 12 -5 14 -3
9 8 -4 8 -1 6 7 -3 8 -10 17 -15 20 -11 4 3 7 1 7 -5 0 -6 -10 -13 -22 -15
l-23 -4 23 -2 c15 -1 22 -7 22 -21 0 -11 3 -20 8 -20 4 0 6 21 3 48 -4 58 6
53 13 -7 6 -46 16 -67 17 -35 0 18 1 18 9 -1 7 -16 9 -10 11 25 l2 45 6 -42
c8 -49 21 -67 22 -32 l1 24 8 -25 8 -25 2 25 1 25 10 -25 c8 -20 12 -22 19
-10 5 8 10 10 10 5 0 -17 40 -12 41 5 0 13 1 13 7 0 4 -8 15 -16 25 -16 13 -1
17 6 18 30 1 20 3 24 6 11 10 -45 15 -51 23 -30 5 11 9 14 9 7 1 -7 5 -11 10
-7 5 3 12 1 16 -5 8 -13 35 -13 35 0 0 5 -7 7 -15 4 -8 -4 -15 -1 -15 4 0 12
43 7 47 -5 3 -9 144 -9 159 -1 5 3 43 4 84 3 45 -1 78 2 82 9 5 7 8 7 8 0 0
-6 17 -9 43 -7 23 2 62 5 87 6 l45 3 6 65 6 64 1 -69 c2 -74 10 -80 22 -19 l8
38 2 -40 c2 -35 3 -37 10 -15 l8 25 1 -24 c2 -43 20 -9 24 44 l3 50 2 -57 c2
-57 2 -57 27 -48 14 5 25 6 25 2 0 -4 4 -1 9 7 5 8 8 39 6 70 -2 31 -2 46 1
34 3 -13 10 -23 15 -23 5 0 9 10 10 23 1 21 1 21 8 -3 l8 -25 5 25 5 25 2 -26
c0 -15 -8 -38 -20 -53 -20 -26 -14 -37 9 -14 7 7 12 8 12 2 0 -6 -5 -15 -12
-22 -15 -15 -6 -24 16 -16 12 5 16 20 16 70 l0 64 -65 -1 c-36 -1 -69 1 -72 5
-3 3 14 6 38 7 24 0 67 4 94 9 l50 7 -41 2 c-22 0 -43 -1 -45 -3z m-82 -73
c-3 -10 -5 -4 -5 12 0 17 2 24 5 18 2 -7 2 -21 0 -30z m-450 21 c-3 -3 -12 -4
-19 -1 -8 3 -5 6 6 6 11 1 17 -2 13 -5z m480 -71 c-2 -16 -4 -3 -4 27 0 30 2
43 4 28 2 -16 2 -40 0 -55z m-80 35 c-3 -7 -5 -2 -5 12 0 14 2 19 5 13 2 -7 2
-19 0 -25z m-127 -6 c0 -15 -2 -15 -10 -2 -13 20 -13 33 0 25 6 -3 10 -14 10
-23z m27 -54 c-2 -13 -4 -3 -4 22 0 25 2 35 4 23 2 -13 2 -33 0 -45z m-590 30
c-3 -8 -6 -5 -6 6 -1 11 2 17 5 13 3 -3 4 -12 1 -19z m112 -20 c8 2 12 -1 9
-8 -4 -14 -53 -23 -80 -14 -10 3 -18 15 -17 27 0 21 1 20 10 -3 l10 -25 17 27
c15 26 17 26 27 9 5 -10 16 -16 24 -13z m369 8 c3 -14 0 -17 -12 -13 -9 4 -16
2 -16 -4 0 -6 -4 -8 -9 -5 -5 3 -7 15 -4 26 7 26 36 22 41 -4z"/>
<path d="M11173 3635 c0 -38 2 -53 4 -32 2 20 2 52 0 70 -2 17 -4 1 -4 -38z"/>
<path d="M11194 3686 c-3 -8 -4 -29 -1 -48 3 -29 4 -28 5 10 1 26 6 41 12 37
6 -3 10 -1 10 4 0 16 -20 13 -26 -3z"/>
<path d="M11263 3650 c0 -30 2 -43 4 -27 2 15 2 39 0 55 -2 15 -4 2 -4 -28z"/>
<path d="M9875 3684 c46 -7 123 -8 118 -1 -2 4 -34 6 -71 6 -37 -1 -58 -3 -47
-5z"/>
<path d="M11243 3640 c0 -30 2 -43 4 -27 2 15 2 39 0 55 -2 15 -4 2 -4 -28z"/>
<path d="M10153 3673 c42 -2 112 -2 155 0 42 1 7 3 -78 3 -85 0 -120 -2 -77
-3z"/>
<path d="M11222 3625 c0 -16 2 -22 5 -12 2 9 2 23 0 30 -3 6 -5 -1 -5 -18z"/>
<path d="M9892 3575 c0 -16 2 -22 5 -12 2 9 2 23 0 30 -3 6 -5 -1 -5 -18z"/>
<path d="M9912 3575 c0 -16 2 -22 5 -12 2 9 2 23 0 30 -3 6 -5 -1 -5 -18z"/>
<path d="M9820 3567 c0 -15 6 -24 15 -24 10 0 14 6 10 14 -3 8 -5 19 -5 24 0
5 -4 9 -10 9 -5 0 -10 -10 -10 -23z"/>
<path d="M9757 3556 c-4 -10 -1 -13 8 -9 8 3 12 9 9 14 -7 12 -11 11 -17 -5z"/>
<path d="M11050 3531 c0 -5 7 -11 15 -15 9 -3 15 0 15 9 0 8 -7 15 -15 15 -8
0 -15 -4 -15 -9z"/>
<path d="M11108 3533 c7 -3 16 -2 19 1 4 3 -2 6 -13 5 -11 0 -14 -3 -6 -6z"/>
<path d="M9881 3314 c0 -11 3 -14 6 -6 3 7 2 16 -1 19 -3 4 -6 -2 -5 -13z"/>
<path d="M11338 3273 c7 -3 16 -2 19 1 4 3 -2 6 -13 5 -11 0 -14 -3 -6 -6z"/>
<path d="M9590 3225 c0 -5 5 -17 10 -25 5 -8 10 -10 10 -5 0 6 -5 17 -10 25
-5 8 -10 11 -10 5z"/>
<path d="M11137 3199 c8 -8 16 -8 30 0 16 9 14 10 -11 11 -22 0 -27 -3 -19
-11z"/>
<path d="M11105 3189 c-10 -15 3 -25 16 -12 7 7 7 13 1 17 -6 3 -14 1 -17 -5z"/>
<path d="M9823 3178 c-23 -11 -32 -38 -12 -38 5 0 8 -4 4 -9 -3 -5 -2 -12 3
-15 4 -3 13 13 19 35 5 21 10 39 9 38 -1 0 -11 -5 -23 -11z"/>
<path d="M9630 3170 c0 -5 9 -10 19 -10 11 0 23 5 26 10 4 6 -5 10 -19 10 -14
0 -26 -4 -26 -10z"/>
<path d="M9775 3130 c-3 -5 -1 -10 4 -10 6 0 11 5 11 10 0 6 -2 10 -4 10 -3 0
-8 -4 -11 -10z"/>
<path d="M11172 3040 c0 -19 2 -27 5 -17 2 9 2 25 0 35 -3 9 -5 1 -5 -18z"/>
<path d="M9092 3035 c0 -16 2 -22 5 -12 2 9 2 23 0 30 -3 6 -5 -1 -5 -18z"/>
<path d="M11345 3039 c-4 -6 -5 -12 -2 -15 2 -3 7 2 10 11 7 17 1 20 -8 4z"/>
<path d="M9650 3000 c0 -5 5 -10 10 -10 6 0 10 5 10 10 0 6 -4 10 -10 10 -5 0
-10 -4 -10 -10z"/>
<path d="M9982 2975 c0 -16 2 -22 5 -12 2 9 2 23 0 30 -3 6 -5 -1 -5 -18z"/>
<path d="M11787 2983 c-29 -3 -40 -11 -52 -32 -8 -16 -12 -31 -9 -34 3 -3 7
-35 10 -70 4 -78 -11 -103 -92 -149 -30 -16 -54 -34 -54 -39 0 -5 11 -14 24
-19 38 -14 47 -42 40 -117 -10 -100 -14 -105 -87 -103 -34 1 -70 1 -79 1 -20
-1 -173 -297 -158 -306 25 -15 -9 -80 -37 -70 -12 4 -26 -19 -16 -29 3 -3 18
-2 34 1 l29 6 -1 -68 c-1 -37 -8 -80 -15 -94 -8 -14 -14 -20 -14 -12 0 9 -4
10 -12 4 -7 -5 -19 -8 -25 -7 -7 1 -17 2 -22 3 -5 0 -12 9 -14 19 -3 11 -5 7
-6 -10 -1 -21 -5 -25 -21 -21 -11 3 -20 13 -20 22 0 9 -5 23 -10 31 -8 11 -9
9 -5 -10 3 -14 1 -38 -4 -53 -10 -26 -9 -27 25 -27 19 0 33 -4 30 -9 -3 -4
-17 -6 -31 -3 l-25 4 2 -73 c1 -55 3 -62 5 -26 4 45 16 61 26 35 3 -7 6 -3 6
8 1 12 9 28 19 35 14 11 15 11 5 -1 -7 -8 -12 -34 -12 -60 l2 -45 6 40 c7 40
30 91 31 67 0 -7 5 -10 12 -6 7 5 8 3 3 -7 -8 -12 -6 -12 8 0 16 12 17 9 19
-40 l1 -54 7 55 7 55 1 -52 c1 -28 6 -54 11 -58 10 -6 6 -103 -4 -113 -3 -4
-10 0 -14 7 -5 7 -13 11 -19 7 -5 -3 -15 1 -21 8 -10 11 -8 15 6 19 10 3 4 5
-14 6 -22 1 -33 -4 -36 -17 -4 -16 -5 -16 -6 1 0 9 -6 17 -12 17 -6 0 -8 -7
-5 -16 3 -8 2 -12 -4 -9 -6 3 -10 1 -10 -5 0 -6 -4 -8 -10 -5 -10 6 -16 -58
-11 -120 3 -37 9 -44 21 -25 7 11 10 12 10 2 0 -7 5 -10 11 -6 6 3 15 0 20 -7
7 -11 9 -10 9 3 0 11 5 15 15 12 9 -4 15 0 16 7 0 8 4 5 9 -6 8 -19 9 -19 9 3
1 12 6 22 11 22 6 0 10 -10 11 -22 0 -22 1 -22 9 -3 7 16 9 12 10 -20 1 -22 2
-66 4 -97 l3 -58 -36 -10 c-59 -16 -119 -13 -124 7 -6 21 -11 -57 -8 -107 3
-38 21 -68 21 -34 0 16 2 17 10 4 9 -13 11 -13 20 0 8 13 10 12 10 -4 0 -20 0
-20 15 0 11 14 14 15 15 4 0 -13 1 -13 10 0 8 12 10 12 10 1 0 -11 3 -11 15
-1 13 10 15 9 16 -11 1 -21 2 -21 6 -4 10 40 22 37 18 -5 -4 -41 -20 -64 -36
-54 -4 2 -9 -5 -12 -16 -5 -21 7 -28 18 -10 10 16 28 11 21 -6 -3 -8 -2 -12 4
-9 6 3 10 2 10 -4 0 -5 -8 -14 -17 -20 -13 -7 -14 -12 -6 -23 6 -7 13 -39 16
-70 5 -55 4 -58 -18 -58 -16 0 -24 7 -27 25 -6 31 0 32 12 2 7 -18 8 -16 5 13
-2 19 -4 37 -4 40 -1 3 -6 -2 -11 -10 -7 -11 -10 -8 -10 16 0 16 5 35 12 42 9
9 8 12 -5 12 -14 0 -17 -11 -18 -62 -1 -35 -1 -66 0 -71 0 -4 -12 -8 -29 -9
-16 0 -35 -1 -42 -2 -7 -1 -15 10 -19 24 -6 18 -7 13 -6 -20 l2 -45 43 0 c24
0 46 3 48 6 1 3 17 4 34 1 32 -5 33 -6 30 -87 -2 -52 -12 -66 -45 -64 -11 1
-41 1 -67 0 -46 -1 -48 -2 -48 -29 l0 -28 68 4 c37 2 75 9 86 14 18 10 18 7
11 -48 -5 -33 -7 -69 -7 -80 1 -19 -4 -22 -55 -23 -31 0 -58 -3 -61 -6 -3 -2
-13 0 -23 6 -17 9 -19 5 -19 -40 l0 -50 53 6 c28 3 55 11 59 17 5 7 8 4 8 -8
0 -15 5 -17 26 -12 22 6 25 4 20 -9 -3 -9 -6 -18 -6 -19 0 -2 -11 -1 -24 1
-21 4 -23 2 -18 -24 4 -19 7 -22 10 -11 7 32 32 21 32 -14 0 -42 -12 -60 -36
-58 -11 1 -43 2 -71 1 l-53 -1 0 -110 0 -110 425 0 425 0 0 541 c0 429 -3 540
-12 536 -7 -3 -32 -13 -55 -22 l-43 -17 0 -120 c0 -113 -9 -158 -31 -158 -11
0 -15 897 -4 908 3 3 20 -7 40 -22 l35 -27 0 -85 c0 -57 -5 -95 -15 -114 -12
-24 -13 -30 -2 -30 7 0 29 -9 50 -19 l37 -19 0 727 0 726 -93 93 c-51 50 -95
91 -97 90 -3 -1 -22 -3 -43 -5z m112 -1139 c1 -34 -4 -56 -14 -64 -13 -11 -15
0 -14 91 1 100 2 103 14 64 8 -22 14 -63 14 -91z m-563 -42 c-5 -8 -76 -4 -76
4 0 2 18 4 41 4 22 0 38 -4 35 -8z m574 -1203 c15 -27 13 -192 -2 -210 -20
-23 -54 -47 -44 -31 4 7 7 72 7 143 -2 113 0 128 14 123 8 -4 20 -15 25 -25z
m-582 -196 c-10 -2 -28 -2 -40 0 -13 2 -5 4 17 4 22 1 32 -1 23 -4z m-18 -210
c0 -7 -11 -13 -25 -13 -14 0 -25 6 -25 13 0 7 11 13 25 13 14 0 25 -6 25 -13z
m-76 -3 c18 -6 26 -17 26 -32 0 -19 -2 -20 -10 -8 -8 13 -10 13 -10 -2 0 -21
-40 -20 -41 2 -1 8 -5 4 -9 -10 l-8 -25 -1 27 c-1 31 8 58 19 58 5 0 20 -4 34
-10z m64 -55 c-3 -3 -9 2 -12 12 -6 14 -5 15 5 6 7 -7 10 -15 7 -18z"/>
<path d="M9890 2973 c0 -5 11 -8 24 -8 13 0 22 3 19 8 -2 4 -13 7 -24 7 -10 0
-19 -3 -19 -7z"/>
<path d="M9670 2950 c20 -13 33 -13 25 0 -3 6 -14 10 -23 10 -15 0 -15 -2 -2
-10z"/>
<path d="M9938 2936 c-23 -17 -23 -21 2 -23 14 -1 20 4 20 18 0 22 0 22 -22 5z"/>
<path d="M10295 2930 c-3 -5 1 -10 9 -10 9 0 16 5 16 10 0 6 -4 10 -9 10 -6 0
-13 -4 -16 -10z"/>
<path d="M11380 2925 c-67 -25 -139 -45 -174 -47 -35 -3 -36 -4 -36 -46 0 -39
2 -42 23 -38 12 3 65 10 117 17 52 6 100 16 106 21 6 4 18 6 26 3 8 -3 25 3
37 14 22 20 23 21 5 28 -11 3 -23 13 -27 20 -6 10 -18 12 -38 8 -18 -4 -29 -3
-29 4 0 6 9 11 19 11 11 0 23 5 26 10 8 13 -12 11 -55 -5z m-35 -35 c-3 -5
-11 -10 -16 -10 -6 0 -7 5 -4 10 3 6 11 10 16 10 6 0 7 -4 4 -10z m-98 -26
c-3 -3 -12 -4 -19 -1 -8 3 -5 6 6 6 11 1 17 -2 13 -5z"/>
<path d="M10420 2869 c-107 -3 -197 -6 -200 -7 -3 -1 2 -7 10 -12 12 -8 10
-10 -10 -10 -20 0 -22 -2 -10 -10 36 -23 -298 2 -399 30 -35 10 -117 13 -94 4
7 -3 8 -15 4 -32 -6 -22 -12 -26 -34 -24 -21 3 -26 0 -21 -12 3 -9 14 -16 24
-16 11 0 22 -4 25 -10 3 -5 17 -10 31 -10 13 0 24 -3 24 -7 0 -5 12 -9 28 -9
15 -1 46 -3 70 -4 23 -1 42 -7 42 -14 0 -7 4 -6 9 2 6 11 11 10 25 -3 9 -9 16
-13 16 -8 0 13 134 12 142 -1 5 -7 8 -6 8 4 0 13 1 13 10 0 8 -13 10 -12 10 3
0 19 0 19 -110 22 -79 2 -225 24 -216 32 2 3 53 -1 113 -7 59 -7 218 -16 353
-20 l245 -7 -189 -1 c-167 -2 -187 -4 -182 -18 3 -9 7 -41 8 -72 1 -41 2 -47
5 -22 3 19 10 38 16 42 9 6 9 8 1 8 -7 0 -14 11 -16 25 -6 28 8 35 15 8 4 -15
5 -15 6 2 2 16 5 15 17 -10 8 -16 12 -22 9 -12 -2 9 0 17 5 17 6 0 11 -12 11
-27 1 -25 2 -24 8 7 6 32 7 30 15 -30 5 -36 11 -57 13 -47 5 18 5 18 19 0 10
-14 13 -15 14 -3 0 13 1 13 10 0 7 -11 10 -3 11 30 2 33 3 37 6 15 7 -51 15
-63 23 -35 7 23 8 23 9 3 1 -15 7 -21 21 -20 11 1 20 6 20 12 0 5 5 2 11 -7
11 -20 39 -13 39 11 1 11 5 8 15 -9 8 -14 14 -19 15 -10 0 10 3 11 11 3 15
-15 39 -5 39 14 0 16 27 42 44 43 5 0 3 -6 -3 -14 -10 -12 -8 -15 11 -19 17
-3 15 -5 -9 -6 -18 0 -33 -5 -33 -10 0 -14 18 -23 24 -12 4 5 18 8 31 5 16 -3
27 1 31 9 2 7 3 69 2 138 l-3 124 -195 -6z m-633 -85 c-3 -3 -12 -4 -19 -1 -8
3 -5 6 6 6 11 1 17 -2 13 -5z m480 -126 c-2 -13 -4 -3 -4 22 0 25 2 35 4 23 2
-13 2 -33 0 -45z m70 30 c-3 -7 -5 -2 -5 12 0 14 2 19 5 13 2 -7 2 -19 0 -25z
m30 -45 c-2 -16 -4 -5 -4 22 0 28 2 40 4 28 2 -13 2 -35 0 -50z m80 15 c-2
-13 -4 -5 -4 17 -1 22 1 32 4 23 2 -10 2 -28 0 -40z m-147 32 c0 -5 -4 -10
-10 -10 -5 0 -10 5 -10 10 0 6 5 10 10 10 6 0 10 -4 10 -10z m278 -2 c19 -19
14 -30 -7 -18 -13 7 -22 7 -26 0 -9 -15 -25 -12 -25 4 0 12 10 18 41 25 3 0
10 -4 17 -11z m-161 -20 c-3 -8 -6 -5 -6 6 -1 11 2 17 5 13 3 -3 4 -12 1 -19z"/>
<path d="M7731 2840 c1 -8 4 -26 8 -40 7 -25 7 -25 13 -3 3 12 0 30 -8 40 -10
14 -13 15 -13 3z"/>
<path d="M7832 2790 c0 -19 2 -27 5 -17 2 9 2 25 0 35 -3 9 -5 1 -5 -18z"/>
<path d="M7872 2780 c0 -19 2 -27 5 -17 2 9 2 25 0 35 -3 9 -5 1 -5 -18z"/>
<path d="M7782 2780 c0 -14 2 -19 5 -12 2 6 2 18 0 25 -3 6 -5 1 -5 -13z"/>
<path d="M7852 2780 c0 -14 2 -19 5 -12 2 6 2 18 0 25 -3 6 -5 1 -5 -13z"/>
<path d="M8032 2775 c0 -16 2 -22 5 -12 2 9 2 23 0 30 -3 6 -5 -1 -5 -18z"/>
<path d="M9124 2770 c-25 -25 -211 -48 -419 -53 -115 -2 -178 -1 -140 3 46 5
18 6 -85 4 -85 -2 -225 -4 -310 -4 -96 -1 -147 -5 -135 -10 14 -6 2 -9 -42 -9
-88 -1 -93 -5 -92 -60 1 -38 2 -42 9 -21 8 25 8 24 9 -5 1 -21 4 -26 10 -16 6
9 11 10 15 2 4 -6 12 -11 18 -11 6 0 6 6 -2 15 -7 9 -10 19 -6 22 4 4 11 1 16
-7 6 -8 10 -10 10 -4 0 6 -7 17 -15 24 -8 7 -15 16 -15 21 0 12 37 11 45 -1 3
-5 1 -10 -6 -10 -8 0 -7 -5 2 -17 8 -9 13 -18 12 -20 -2 -1 -2 -9 -2 -15 1 -7
5 1 9 17 l8 30 2 -30 3 -30 7 35 7 35 3 -35 3 -35 7 40 7 40 2 -36 1 -36 58
-3 c153 -7 425 2 434 15 5 6 8 6 8 -2 0 -8 9 -9 29 -3 16 4 32 5 36 2 3 -4 10
0 15 8 6 8 10 10 10 4 0 -11 34 -11 95 0 11 2 23 -2 27 -8 5 -7 8 -3 8 9 0 15
3 16 9 7 7 -11 11 -11 24 2 14 15 16 14 20 -2 4 -16 5 -16 6 1 0 10 5 16 10
12 6 -3 9 7 8 22 -1 20 3 28 17 31 15 3 18 0 13 -17 -3 -12 -1 -21 4 -21 5 0
9 10 9 23 0 18 2 19 10 7 6 -10 10 -11 10 -2 0 6 5 12 10 12 6 0 10 -9 10 -21
0 -13 -4 -18 -12 -13 -6 4 -8 3 -4 -4 3 -5 0 -12 -6 -15 -7 -3 -3 -4 10 -4 18
1 22 7 24 37 1 35 1 35 5 4 3 -26 8 -31 24 -27 10 3 19 10 19 15 0 6 -7 8 -15
4 -10 -4 -15 1 -15 14 0 17 7 20 41 20 24 0 38 -4 34 -10 -3 -5 -13 -10 -21
-10 -8 0 -14 -4 -14 -10 0 -5 9 -10 20 -10 11 0 20 -4 20 -10 0 -5 7 -7 16 -3
15 5 15 7 0 15 -9 5 -14 14 -11 19 4 5 11 7 16 4 5 -4 9 -2 9 4 0 5 -8 15 -17
20 -15 9 -14 10 10 11 15 0 27 -4 27 -10 0 -5 5 -10 12 -10 6 0 9 3 5 6 -9 9
21 36 33 29 5 -3 10 -2 10 3 0 5 9 12 20 15 11 3 20 10 20 16 0 14 -62 15 -76
1z m-1047 -147 c-2 -16 -4 -5 -4 22 0 28 2 40 4 28 2 -13 2 -35 0 -50z m533
14 c0 -2 -13 -4 -30 -5 -16 0 -30 4 -30 9 0 6 5 7 10 4 6 -3 13 1 16 9 5 13 8
13 20 1 8 -7 14 -15 14 -18z m-513 -14 c-3 -10 -5 -4 -5 12 0 17 2 24 5 18 2
-7 2 -21 0 -30z m191 3 c3 -15 1 -16 -17 -5 -11 7 -17 17 -14 22 8 13 28 2 31
-17z"/>
<path d="M11178 2718 c5 -87 10 -95 11 -18 1 40 5 60 10 51 7 -11 10 -11 17 0
6 10 10 7 15 -11 l7 -25 1 28 c1 15 -4 27 -11 27 -7 0 -22 3 -34 6 -19 5 -20
2 -16 -58z"/>
<path d="M7613 2743 c9 -2 23 -2 30 0 6 3 -1 5 -18 5 -16 0 -22 -2 -12 -5z"/>
<path d="M8853 2743 c9 -2 25 -2 35 0 9 3 1 5 -18 5 -19 0 -27 -2 -17 -5z"/>
<path d="M7703 2733 c9 -2 25 -2 35 0 9 3 1 5 -18 5 -19 0 -27 -2 -17 -5z"/>
<path d="M8748 2733 c12 -2 32 -2 45 0 12 2 2 4 -23 4 -25 0 -35 -2 -22 -4z"/>
<path d="M7878 2723 c23 -2 61 -2 85 0 23 2 4 4 -43 4 -47 0 -66 -2 -42 -4z"/>
<path d="M9934 2679 c1 -36 5 -43 24 -45 16 -3 22 1 22 14 0 14 -2 15 -10 2
-9 -13 -10 -13 -10 0 0 13 -2 13 -9 0 -7 -10 -11 -2 -14 28 l-4 42 1 -41z"/>
<path d="M11293 2712 c-8 -5 -8 -12 3 -26 13 -19 14 -19 14 7 0 30 0 30 -17
19z"/>
<path d="M7863 2650 c0 -30 2 -43 4 -27 2 15 2 39 0 55 -2 15 -4 2 -4 -28z"/>
<path d="M7883 2650 c0 -30 2 -43 4 -27 2 15 2 39 0 55 -2 15 -4 2 -4 -28z"/>
<path d="M11212 2670 c0 -19 2 -27 5 -17 2 9 2 25 0 35 -3 9 -5 1 -5 -18z"/>
<path d="M11232 2675 c0 -16 2 -22 5 -12 2 9 2 23 0 30 -3 6 -5 -1 -5 -18z"/>
<path d="M7841 2674 c0 -11 3 -14 6 -6 3 7 2 16 -1 19 -3 4 -6 -2 -5 -13z"/>
<path d="M10043 2650 c0 -25 2 -35 4 -22 2 12 2 32 0 45 -2 12 -4 2 -4 -23z"/>
<path d="M11256 2675 c-9 -26 -7 -32 5 -12 6 10 9 21 6 23 -2 3 -7 -2 -11 -11z"/>
<path d="M9882 2655 c-8 -10 -9 -15 -2 -15 6 0 8 -4 5 -10 -3 -5 0 -7 7 -5 14
6 23 45 10 45 -4 -1 -13 -7 -20 -15z"/>
<path d="M10062 2635 c0 -16 2 -22 5 -12 2 9 2 23 0 30 -3 6 -5 -1 -5 -18z"/>
<path d="M10105 2651 c-3 -5 -2 -12 3 -15 5 -3 9 1 9 9 0 17 -3 19 -12 6z"/>
<path d="M10183 2653 c4 -3 2 -12 -4 -20 -9 -10 -8 -13 0 -13 7 0 10 -4 7 -8
-3 -5 1 -9 9 -9 9 0 13 10 12 29 -1 16 -8 28 -16 28 -8 0 -11 -3 -8 -7z"/>
<path d="M8885 2630 c-3 -5 -1 -10 4 -10 6 0 11 5 11 10 0 6 -2 10 -4 10 -3 0
-8 -4 -11 -10z"/>
<path d="M10131 2614 c0 -11 3 -14 6 -6 3 7 2 16 -1 19 -3 4 -6 -2 -5 -13z"/>
<path d="M10220 2619 c0 -5 5 -7 10 -4 6 3 10 8 10 11 0 2 -4 4 -10 4 -5 0
-10 -5 -10 -11z"/>
<path d="M11240 2581 c0 -31 -4 -41 -21 -46 -26 -8 -29 -5 -36 37 -8 55 -13
45 -13 -29 l0 -71 48 5 c127 14 256 43 266 60 27 46 34 70 20 70 -8 0 -14 -7
-14 -14 0 -9 -9 -13 -22 -12 -13 2 -33 -3 -46 -9 -12 -7 -27 -10 -32 -7 -6 3
-16 3 -22 -1 -7 -5 -32 -10 -55 -12 l-43 -3 0 35 c0 25 -4 36 -15 36 -11 0
-15 -11 -15 -39z"/>
<path d="M9893 2574 c-17 -9 -34 -26 -37 -40 -5 -20 -10 -23 -26 -14 -30 16
-50 12 -50 -10 0 -11 1 -20 3 -20 23 0 125 -24 134 -32 7 -6 80 -13 163 -16
82 -3 150 -9 150 -14 0 -8 -278 -3 -370 7 -43 4 -159 30 -182 40 -10 4 -18 5
-18 2 0 -10 135 -135 140 -130 3 3 -1 8 -8 10 -6 3 -9 10 -6 15 4 7 2 8 -4 4
-8 -5 -12 1 -12 16 0 15 -3 19 -8 11 -6 -9 -11 -7 -19 6 -13 21 -1 24 26 6 9
-5 16 -5 18 1 4 12 73 6 73 -6 0 -5 18 -7 40 -5 22 2 42 0 45 -4 2 -4 25 -6
50 -5 36 2 45 0 46 -14 0 -14 2 -13 9 3 5 11 9 15 9 10 1 -6 13 -12 28 -13 15
-1 31 -8 36 -15 5 -8 6 -5 3 9 -5 17 -2 20 24 20 22 0 30 -4 30 -17 0 -10 5
-21 10 -24 6 -3 10 1 10 9 0 13 4 12 20 -4 11 -11 20 -24 20 -29 0 -6 4 -12 8
-15 4 -2 7 12 5 32 l-2 37 14 -40 c13 -39 13 -39 15 -10 1 29 2 29 14 -10 10
-34 13 -37 18 -18 4 17 11 20 29 16 13 -3 30 -13 37 -21 10 -14 12 -13 13 9 0
22 1 23 9 4 5 -11 9 -14 9 -6 1 7 7 11 15 8 16 -6 72 52 68 70 -2 7 3 11 10 8
7 -2 32 13 54 33 34 32 41 43 37 65 -3 16 1 37 11 52 l16 24 -113 -2 c-104 -2
-112 -3 -113 -22 -1 -11 -2 -24 -3 -28 -1 -5 -8 -2 -16 7 -9 8 -14 21 -13 28
4 20 -58 23 -65 4 -4 -9 -2 -16 4 -16 6 0 7 -5 4 -10 -4 -6 -11 -8 -16 -5 -5
4 -9 1 -9 -4 0 -6 -7 -11 -16 -11 -10 0 -14 6 -10 15 4 11 -2 15 -22 16 -15 1
-30 1 -34 0 -5 0 -8 4 -8 10 0 7 10 9 25 7 13 -3 22 -1 19 3 -3 5 -30 9 -60 9
-45 0 -54 -3 -55 -17 0 -14 -2 -13 -9 5 -8 19 -17 22 -62 22 -29 0 -69 3 -88
5 -22 4 -47 -1 -67 -11z m287 -20 c0 -17 -17 -34 -34 -34 -19 1 -20 2 -4 14
10 7 16 15 13 18 -3 2 2 5 10 5 8 0 15 -1 15 -3z m340 -14 c0 -5 -2 -10 -4
-10 -3 0 -8 5 -11 10 -3 6 -1 10 4 10 6 0 11 -4 11 -10z m-710 -30 c0 -5 -4
-10 -10 -10 -5 0 -10 5 -10 10 0 6 5 10 10 10 6 0 10 -4 10 -10z m107 -26 c-3
-3 -12 -4 -19 -1 -8 3 -5 6 6 6 11 1 17 -2 13 -5z m350 -60 c-3 -3 -12 -4 -19
-1 -8 3 -5 6 6 6 11 1 17 -2 13 -5z m56 -1 c-7 -2 -19 -2 -25 0 -7 3 -2 5 12
5 14 0 19 -2 13 -5z m103 0 c-7 -7 -77 -5 -85 2 -2 3 17 5 44 5 27 0 45 -3 41
-7z m-186 -54 c0 -6 -4 -7 -10 -4 -5 3 -10 11 -10 16 0 6 5 7 10 4 6 -3 10
-11 10 -16z m100 -11 c0 -16 -3 -19 -11 -11 -6 6 -8 16 -5 22 11 17 16 13 16
-11z m53 2 c3 -11 1 -20 -4 -20 -5 0 -9 9 -9 20 0 11 2 20 4 20 2 0 6 -9 9
-20z m60 -10 c-3 -11 -7 -20 -9 -20 -2 0 -4 9 -4 20 0 11 4 20 9 20 5 0 7 -9
4 -20z"/>
<path d="M7828 2573 c7 -3 16 -2 19 1 4 3 -2 6 -13 5 -11 0 -14 -3 -6 -6z"/>
<path d="M10255 2560 c-3 -5 -1 -10 4 -10 6 0 11 5 11 10 0 6 -2 10 -4 10 -3
0 -8 -4 -11 -10z"/>
<path d="M11541 2554 c0 -11 3 -14 6 -6 3 7 2 16 -1 19 -3 4 -6 -2 -5 -13z"/>
<path d="M10590 2415 c-17 -18 -21 -28 -13 -33 6 -4 13 -24 15 -44 2 -28 6
-35 16 -29 9 5 12 27 10 70 l-3 63 -25 -27z"/>
<path d="M9618 2407 c-9 -6 -8 -7 5 -3 11 3 20 0 23 -9 4 -8 15 -15 27 -15 19
0 19 1 4 18 -19 20 -39 24 -59 9z"/>
<path d="M11245 2410 c-3 -5 -1 -10 4 -10 6 0 11 5 11 10 0 6 -2 10 -4 10 -3
0 -8 -4 -11 -10z"/>
<path d="M11339 2418 c0 -2 -2 -35 -3 -73 -1 -39 -5 -76 -9 -82 -4 -7 -29 -15
-55 -18 -96 -13 -102 -15 -102 -41 0 -27 2 -28 85 -13 l61 10 52 105 c29 57
52 106 52 109 0 5 -79 7 -81 3z"/>
<path d="M7796 2401 c-4 -5 -2 -12 3 -15 5 -4 12 -2 15 3 4 5 2 12 -3 15 -5 4
-12 2 -15 -3z"/>
<path d="M9409 2137 l-137 -273 24 -27 c15 -18 24 -41 24 -63 l0 -34 225 0
225 0 -3 -635 c-1 -349 1 -635 4 -635 13 0 26 26 38 74 7 26 18 54 24 61 12
12 71 45 81 45 2 0 4 -34 3 -76 -1 -81 -2 -83 -59 -59 -33 13 -19 -19 18 -43
35 -23 36 -24 29 -75 -8 -60 -11 -65 -27 -49 -14 14 -44 16 -53 3 -3 -5 18
-21 47 -35 63 -30 40 -34 -39 -6 -31 11 -59 18 -62 15 -9 -9 33 -34 69 -40 62
-11 73 -26 65 -89 -3 -32 -3 -56 3 -56 5 0 9 -6 9 -14 0 -12 -10 -11 -51 5
-28 11 -61 27 -73 35 -27 17 -31 10 -27 -41 1 -22 3 -59 3 -82 l1 -43 425 0
425 0 0 75 c0 46 -4 75 -11 75 -5 0 -8 -4 -4 -9 3 -5 1 -12 -4 -16 -5 -3 -14
3 -20 12 -10 17 -10 17 -11 1 0 -10 -4 -18 -10 -18 -5 0 -10 7 -10 15 0 8 -4
15 -10 15 -5 0 -10 -7 -10 -15 0 -7 -8 -18 -17 -24 -14 -8 -15 -12 -4 -25 9
-11 10 -16 2 -16 -6 0 -16 10 -21 23 l-9 22 0 -24 c-1 -40 -13 -16 -16 33 -2
24 -6 49 -9 54 -4 7 21 10 71 8 53 -2 77 -7 75 -14 -1 -7 2 -12 8 -12 5 0 10
12 10 28 0 27 -1 27 -78 30 -42 2 -81 7 -86 12 -5 5 -4 22 3 41 6 17 11 42 11
54 0 19 7 24 35 27 19 2 41 1 48 -3 7 -5 25 -10 40 -13 24 -4 27 -2 27 25 l0
29 -79 0 c-49 0 -83 4 -87 11 -5 9 15 10 79 5 83 -7 87 -6 87 13 0 17 -6 21
-33 21 -18 0 -38 5 -45 12 -9 9 -12 9 -12 -1 0 -10 -3 -11 -13 -2 -10 7 -17 7
-24 0 -8 -8 -15 -4 -27 12 -17 25 -21 55 -8 61 5 2 12 19 16 38 6 31 5 32 -7
16 -13 -18 -14 -17 -15 12 l-1 31 47 -5 c26 -3 64 -7 85 -10 28 -3 37 -1 37
11 0 11 -14 15 -57 17 -84 2 -91 3 -98 10 -4 4 -8 33 -9 65 -1 48 2 60 19 70
20 12 20 12 -2 13 -14 0 -23 6 -23 16 0 12 7 14 28 10 71 -13 142 -17 142 -7
0 10 -18 14 -112 26 -26 3 -49 12 -52 20 -9 23 6 89 23 103 14 11 13 13 -6 18
-21 6 -22 10 -16 73 3 36 8 68 10 70 7 9 87 0 100 -11 10 -8 13 -7 13 3 0 11
2 11 10 -1 9 -13 10 -13 10 0 0 13 1 13 10 0 8 -13 10 -12 10 3 0 11 -8 18
-22 18 -13 1 -30 3 -38 4 -8 1 -36 3 -62 4 -28 0 -48 6 -48 12 0 9 24 10 85 5
l85 -7 0 40 0 39 -67 7 c-38 3 -75 7 -83 8 -12 2 -15 17 -15 70 0 37 3 67 8
67 4 0 7 7 7 15 0 11 5 12 23 6 13 -5 40 -8 60 -6 27 3 37 0 40 -13 4 -14 5
-13 6 3 1 17 3 18 11 5 7 -10 10 21 10 98 l0 112 -47 0 -48 0 0 -52 c0 -32 -5
-53 -12 -55 -7 -3 -13 3 -13 12 0 10 -7 15 -17 13 -15 -2 -19 7 -24 57 -4 36
-3 65 3 73 7 8 7 12 -1 12 -9 0 -8 5 2 14 8 9 13 27 11 43 -3 22 -2 24 4 9 7
-16 10 -17 17 -6 6 11 13 0 21 -35 l12 -50 -4 50 c-4 53 11 53 19 0 4 -27 4
-27 6 7 1 30 4 36 18 31 9 -4 14 -2 10 3 -3 6 3 11 14 11 12 1 17 -3 13 -9 -4
-7 -2 -8 4 -4 7 4 12 19 12 34 l0 27 -85 -4 c-82 -3 -85 -2 -85 19 0 11 5 18
10 15 6 -3 10 2 10 11 0 16 1 16 15 -2 14 -18 14 -18 15 0 0 15 3 16 15 6 8
-7 15 -9 15 -4 0 5 5 2 10 -6 8 -12 10 -12 10 5 1 19 1 19 11 1 9 -15 13 -16
21 -5 7 11 11 11 15 1 14 -36 23 14 23 139 0 91 -4 138 -10 134 -5 -3 -10 1
-10 10 0 9 5 13 10 10 6 -4 10 22 10 69 l0 76 -91 0 -92 0 -117 -122 c-113
-116 -117 -123 -113 -157 7 -51 -22 -85 -70 -85 -50 0 -77 27 -77 77 0 36 -8
47 -97 141 -53 55 -109 110 -123 122 -30 26 -64 34 -66 17 -1 -7 -2 -20 -3
-28 0 -9 -11 -15 -26 -15 -45 0 -27 -26 28 -40 28 -7 55 -18 59 -24 11 -16 10
-76 -2 -76 -5 0 -10 -7 -10 -15 0 -16 -20 -20 -35 -6 -6 5 -34 11 -62 14 -56
6 -68 -4 -35 -30 15 -13 15 -14 -10 -10 -16 2 -28 0 -28 -5 0 -11 54 -35 90
-40 34 -4 48 -19 42 -43 -5 -19 -4 -19 15 3 21 23 43 29 43 11 0 -5 5 -7 10
-4 6 3 10 0 10 -7 0 -8 3 -9 8 -3 12 17 27 15 41 -7 11 -18 11 -20 -3 -15 -11
5 -16 1 -16 -13 0 -29 -19 -34 -29 -8 -6 13 -10 16 -10 8 -1 -23 12 -36 42
-44 27 -6 36 -32 18 -52 -13 -13 -17 -76 -6 -94 11 -17 16 -40 9 -40 -12 0
-102 50 -111 62 -7 7 -13 33 -15 58 l-3 44 -65 22 c-105 37 -110 43 -110 140
0 83 0 84 30 99 28 15 30 19 30 77 0 56 3 65 30 93 l31 32 -69 22 c-64 20
-104 48 -113 79 -2 7 -65 -111 -140 -261z m481 14 c0 -10 3 -33 6 -50 6 -27 4
-30 -11 -25 -13 5 -15 14 -10 42 4 24 2 38 -7 43 -10 7 -9 9 5 9 10 0 17 -8
17 -19z m582 -56 c-2 -14 -6 -25 -7 -25 -1 0 -5 11 -7 25 -3 16 -1 25 7 25 8
0 10 -9 7 -25z m48 3 c0 -10 -4 -18 -10 -18 -5 0 -10 2 -10 4 0 2 -2 11 -5 19
-4 8 0 14 10 14 8 0 15 -9 15 -19z m30 18 c0 -3 -4 -8 -10 -11 -5 -3 -10 -1
-10 4 0 6 5 11 10 11 6 0 10 -2 10 -4z m36 -23 c-10 -10 -19 5 -10 18 6 11 8
11 12 0 2 -7 1 -15 -2 -18z m-36 -7 c0 -3 -4 -8 -10 -11 -5 -3 -10 -1 -10 4 0
6 5 11 10 11 6 0 10 -2 10 -4z m-677 -91 c26 -3 47 -10 47 -16 0 -13 -23 -11
-112 8 -85 18 -108 35 -30 22 26 -4 68 -10 95 -14z m597 -69 c0 -3 -4 -8 -10
-11 -5 -3 -10 -1 -10 4 0 6 5 11 10 11 6 0 10 -2 10 -4z m10 -44 c0 -18 -5
-29 -14 -29 -8 0 -12 6 -10 14 11 38 14 43 19 43 3 0 5 -13 5 -28z m-562 -257
c-1 -19 -6 -35 -11 -35 -5 0 -7 -16 -4 -35 4 -26 2 -35 -9 -35 -15 0 -19 -12
-7 -24 11 -11 31 -96 21 -90 -13 8 -9 -11 5 -25 10 -10 9 -11 -5 -6 -32 12
-48 52 -48 119 0 72 6 96 25 96 7 0 16 16 19 35 4 19 9 35 12 35 2 0 4 -16 2
-35z m672 -45 c0 -5 -4 -10 -9 -10 -5 0 -16 -3 -25 -6 -11 -4 -16 -1 -16 10 0
10 9 16 25 16 14 0 25 -4 25 -10z m-43 -62 c-3 -8 -6 -5 -6 6 -1 11 2 17 5 13
3 -3 4 -12 1 -19z m62 -84 c9 -8 -125 -2 -144 6 -12 4 14 6 60 3 44 -3 82 -7
84 -9z m-63 -1007 c4 -4 -14 -7 -39 -7 -26 0 -47 4 -47 9 0 10 76 8 86 -2z
m64 -7 c0 -5 -2 -10 -4 -10 -3 0 -8 5 -11 10 -3 6 -1 10 4 10 6 0 11 -4 11
-10z m-90 -370 c0 -5 -7 -10 -15 -10 -8 0 -15 5 -15 10 0 6 7 10 15 10 8 0 15
-4 15 -10z"/>
<path d="M9790 2400 c-9 -6 -10 -10 -3 -10 6 0 15 5 18 10 8 12 4 12 -15 0z"/>
<path d="M11171 2394 c0 -11 3 -14 6 -6 3 7 2 16 -1 19 -3 4 -6 -2 -5 -13z"/>
<path d="M10550 2372 c0 -5 7 -13 16 -16 10 -4 14 -1 12 6 -5 15 -28 23 -28
10z"/>
<path d="M9660 2353 c0 -9 6 -13 15 -9 8 3 15 1 15 -5 0 -6 5 -7 10 -4 6 4 17
1 25 -5 9 -7 15 -8 15 -2 0 14 -25 33 -33 25 -4 -3 -7 -2 -7 3 0 5 -9 10 -20
11 -12 1 -20 -4 -20 -14z"/>
<path d="M9175 2344 c-20 -9 -24 -13 -12 -14 10 0 16 -4 13 -8 -3 -5 1 -9 9
-9 8 0 15 6 15 13 0 7 10 14 23 16 21 3 21 4 2 9 -11 3 -33 0 -50 -7z"/>
<path d="M10052 2330 c0 -19 2 -27 5 -17 2 9 2 25 0 35 -3 9 -5 1 -5 -18z"/>
<path d="M7773 2343 c9 -2 23 -2 30 0 6 3 -1 5 -18 5 -16 0 -22 -2 -12 -5z"/>
<path d="M9867 2331 c-4 -17 -3 -21 5 -13 5 5 8 16 6 23 -3 8 -7 3 -11 -10z"/>
<path d="M9981 2334 c0 -11 3 -14 6 -6 3 7 2 16 -1 19 -3 4 -6 -2 -5 -13z"/>
<path d="M10131 2336 c-9 -11 -7 -15 9 -19 13 -3 20 0 20 8 0 21 -16 27 -29
11z"/>
<path d="M10190 2324 c0 -8 6 -11 15 -8 8 4 15 1 15 -7 0 -7 2 -10 5 -7 3 3 3
12 0 20 -7 18 -35 20 -35 2z"/>
<path d="M10506 2331 c-4 -5 -3 -16 0 -25 5 -12 10 -14 19 -6 9 8 14 7 18 -2
3 -7 6 -2 6 11 1 18 5 22 19 16 14 -5 15 -4 4 7 -10 10 -16 10 -33 0 -12 -8
-18 -9 -14 -3 3 6 2 11 -4 11 -5 0 -12 -4 -15 -9z"/>
<path d="M9815 2320 c4 -6 11 -8 16 -5 14 9 11 15 -7 15 -8 0 -12 -5 -9 -10z"/>
<path d="M11268 2313 c7 -3 16 -2 19 1 4 3 -2 6 -13 5 -11 0 -14 -3 -6 -6z"/>
<path d="M10485 2300 c-3 -5 -1 -10 4 -10 6 0 11 5 11 10 0 6 -2 10 -4 10 -3
0 -8 -4 -11 -10z"/>
<path d="M11203 2303 c9 -2 23 -2 30 0 6 3 -1 5 -18 5 -16 0 -22 -2 -12 -5z"/>
<path d="M7938 2293 c6 -2 18 -2 25 0 6 3 1 5 -13 5 -14 0 -19 -2 -12 -5z"/>
<path d="M7988 2283 c7 -3 16 -2 19 1 4 3 -2 6 -13 5 -11 0 -14 -3 -6 -6z"/>
<path d="M9885 2260 c-3 -4 43 -54 101 -111 99 -98 107 -104 145 -103 37 1 48
9 124 84 46 46 81 88 78 93 -3 6 -1 7 4 4 6 -4 19 3 29 15 18 20 18 21 1 15
-10 -4 -31 -7 -45 -7 -22 0 -24 -2 -12 -11 11 -8 12 -12 2 -16 -6 -2 -10 -9
-7 -13 3 -5 0 -12 -6 -16 -8 -4 -9 -3 -5 4 8 14 1 15 -76 12 -49 -2 -58 1 -58
15 0 11 -5 15 -15 11 -9 -3 -37 -3 -62 1 -36 5 -43 8 -28 14 14 5 0 8 -40 10
-33 2 -75 3 -93 4 -18 1 -35 -1 -37 -5z"/>
<path d="M10090 2256 c0 -2 7 -6 15 -10 8 -3 15 -1 15 4 0 6 -7 10 -15 10 -8
0 -15 -2 -15 -4z"/>
<path d="M7982 2140 c0 -19 2 -27 5 -17 2 9 2 25 0 35 -3 9 -5 1 -5 -18z"/>
<path d="M9175 2160 c-3 -5 -2 -10 4 -10 5 0 13 5 16 10 3 6 2 10 -4 10 -5 0
-13 -4 -16 -10z"/>
<path d="M8023 2120 c0 -25 2 -35 4 -22 2 12 2 32 0 45 -2 12 -4 2 -4 -23z"/>
<path d="M8910 2130 c0 -6 7 -10 15 -10 8 0 15 2 15 4 0 2 -7 6 -15 10 -8 3
-15 1 -15 -4z"/>
<path d="M8960 2124 c0 -16 9 -18 28 -5 10 6 9 10 -7 14 -14 3 -21 0 -21 -9z"/>
<path d="M9095 2083 c-11 -2 -29 -8 -40 -13 -75 -33 -359 -50 -314 -18 9 6
-28 8 -110 4 -68 -3 -224 -6 -346 -6 -216 0 -223 -1 -228 -20 -5 -19 -11 -20
-59 -15 -58 7 -198 31 -238 42 -14 3 -22 3 -18 -2 4 -4 -4 -17 -18 -30 -24
-22 -31 -43 -16 -47 23 -4 69 -10 167 -18 148 -13 169 -17 109 -19 l-51 -1
-10 -44 c-5 -25 -7 -50 -3 -56 8 -14 19 20 21 65 1 29 1 30 9 5 7 -21 8 -22
10 -5 2 18 3 18 8 -3 4 -13 11 -22 17 -20 5 2 13 -10 17 -27 5 -20 6 -13 3 20
-3 35 -2 45 5 35 5 -8 10 -24 11 -35 l0 -20 9 20 c7 17 9 14 11 -15 2 -31 3
-29 9 15 l7 50 3 -50 3 -50 7 50 7 50 2 -55 c2 -39 5 -49 10 -35 l8 20 5 -20
c4 -14 6 -9 8 15 l2 35 7 -29 c6 -29 6 -30 89 -33 61 -3 82 0 82 9 0 9 3 9 8
2 4 -6 49 -10 111 -10 75 1 106 -3 108 -11 3 -9 -10 -13 -46 -13 -34 0 -51 -4
-51 -12 0 -9 -3 -9 -8 -2 -4 7 -67 10 -179 10 l-173 -1 0 -27 c0 -15 -4 -29
-9 -32 -13 -8 -29 16 -26 42 1 18 -3 22 -27 22 -22 0 -29 -4 -27 -17 3 -34 -1
-43 -20 -43 -20 0 -31 18 -31 50 0 14 -5 17 -22 12 -12 -3 -17 -7 -10 -10 6
-2 12 -8 12 -13 0 -6 -6 -7 -12 -3 -10 6 -9 3 0 -9 12 -14 8 -15 -50 -10 -35
3 -75 6 -90 6 -16 0 -28 4 -28 8 0 5 -8 9 -19 9 -19 0 -37 -39 -23 -51 12 -11
122 -28 225 -35 90 -6 97 -8 97 -28 0 -18 7 -21 42 -23 22 -2 47 2 55 9 11 8
12 7 7 -5 -4 -12 -1 -15 14 -12 15 3 21 -3 26 -27 5 -25 9 -28 20 -19 11 9 16
9 23 -1 8 -14 103 -20 103 -7 0 4 12 5 28 2 54 -10 143 -3 154 12 5 6 8 6 8
-1 0 -7 9 -14 20 -17 18 -5 30 -39 13 -36 -5 1 -108 1 -231 0 -210 -1 -222 -2
-206 -18 15 -16 15 -17 -2 -24 -11 -4 -36 -8 -57 -8 l-38 -1 18 -24 c19 -25
51 -34 148 -41 28 -2 53 -4 57 -4 12 -1 -25 -41 -38 -41 -7 0 -15 -6 -17 -12
-4 -9 -6 -9 -6 1 -1 11 -5 10 -16 -5 -13 -16 -14 -16 -9 -1 3 9 2 17 -4 17 -5
0 -13 -12 -17 -27 l-8 -28 -12 29 c-11 26 -13 26 -17 8 -4 -13 3 -29 19 -46
23 -25 27 -26 148 -26 l125 0 0 -61 c0 -56 2 -61 20 -56 11 3 20 0 20 -6 0 -7
5 -5 10 3 5 8 10 11 10 6 0 -5 7 -3 15 4 9 7 15 8 15 2 0 -5 16 -8 35 -6 26 2
35 -1 35 -13 0 -13 -12 -14 -80 -10 l-80 5 0 -56 c0 -31 5 -64 10 -72 5 -8 10
-10 10 -5 0 6 5 3 10 -5 8 -12 10 -12 10 -1 0 9 7 11 21 8 14 -4 23 1 29 16
l9 22 0 -22 c1 -23 19 -27 33 -8 5 6 8 4 8 -4 0 -11 4 -9 14 4 13 19 14 18 13
-8 -2 -21 -7 -27 -27 -29 -14 0 -29 -2 -35 -3 -5 -2 -20 -3 -33 -4 -21 -1 -22
-3 -8 -16 16 -16 61 -21 52 -6 -4 5 10 4 30 -2 l35 -11 215 215 c199 199 214
217 214 250 0 41 33 79 68 79 14 0 27 11 37 30 15 29 13 56 -4 46 -4 -3 -8 6
-9 19 -1 13 5 26 14 29 10 4 14 12 10 22 -4 9 -1 23 6 31 9 11 9 16 -2 23 -9
6 -1 10 26 15 54 9 64 13 64 25 0 12 -42 5 -78 -13 -32 -15 -56 8 -28 29 11 8
27 14 36 14 8 0 21 10 29 23 13 20 13 21 -1 9 -13 -10 -17 -10 -21 0 -4 10 -7
10 -15 -1 -8 -11 -13 -7 -26 17 -21 40 -20 59 2 71 9 6 12 11 6 11 -6 0 -9 12
-6 29 3 22 0 30 -14 33 -11 2 7 11 41 22 96 30 115 38 115 47 0 5 -11 9 -25 9
-20 0 -25 5 -25 25 0 26 -14 30 -65 18z m-1128 -79 c-3 -3 -12 -4 -19 -1 -8 3
-5 6 6 6 11 1 17 -2 13 -5z m1106 -4 c-28 -11 -244 -42 -251 -36 -2 3 11 8 29
11 92 17 197 33 219 33 25 1 25 1 3 -8z m-870 -120 c5 0 4 -6 -2 -13 -6 -8 -8
-17 -4 -20 3 -4 1 -7 -5 -7 -7 0 -12 7 -12 15 0 9 -9 15 -25 15 -20 0 -25 5
-24 23 1 17 2 18 6 4 2 -9 8 -15 13 -12 5 3 6 13 3 22 -5 13 -1 12 17 -5 13
-12 28 -22 33 -22z m-106 -12 c-3 -7 -5 -2 -5 12 0 14 2 19 5 13 2 -7 2 -19 0
-25z m403 22 c0 -5 -8 -7 -17 -3 -16 6 -16 4 1 -15 10 -12 23 -19 29 -15 6 4
7 1 3 -6 -6 -9 -12 -9 -25 3 -10 9 -21 13 -26 9 -4 -5 -5 -2 -1 5 4 6 2 12 -4
12 -6 0 -8 5 -5 10 8 13 45 13 45 0z m-363 -52 c-3 -8 -6 -5 -6 6 -1 11 2 17
5 13 3 -3 4 -12 1 -19z m13 -74 c0 -8 -5 -12 -10 -9 -6 4 -8 11 -5 16 9 14 15
11 15 -7z m70 -114 c0 -5 -2 -10 -4 -10 -3 0 -8 5 -11 10 -3 6 -1 10 4 10 6 0
11 -4 11 -10z m21 -53 c-6 -6 -19 -2 -33 8 l-23 17 23 -5 c12 -3 20 -1 17 3
-3 5 -2 16 2 26 6 15 8 13 15 -11 4 -16 3 -34 -1 -38z m-84 16 c-3 -10 -5 -4
-5 12 0 17 2 24 5 18 2 -7 2 -21 0 -30z m320 5 c-3 -7 -5 -2 -5 12 0 14 2 19
5 13 2 -7 2 -19 0 -25z m43 12 c0 -5 -7 -10 -16 -10 -8 0 -12 5 -9 10 3 6 10
10 16 10 5 0 9 -4 9 -10z m-80 -220 c0 -5 -2 -10 -4 -10 -3 0 -8 5 -11 10 -3
6 -1 10 4 10 6 0 11 -4 11 -10z m-43 -276 c-3 -3 -12 -4 -19 -1 -8 3 -5 6 6 6
11 1 17 -2 13 -5z m106 -31 c2 -5 1 -19 -4 -33 -6 -21 -7 -22 -8 -5 -2 18 -3
18 -16 -5 l-14 -25 -1 30 c0 23 -3 27 -10 15 -8 -13 -10 -13 -10 2 0 9 10 18
23 21 12 2 25 5 29 6 4 0 9 -2 11 -6z"/>
<path d="M7888 2063 c7 -3 16 -2 19 1 4 3 -2 6 -13 5 -11 0 -14 -3 -6 -6z"/>
<path d="M9740 1956 c0 -2 7 -7 16 -10 8 -3 12 -2 9 4 -6 10 -25 14 -25 6z"/>
<path d="M7896 1922 c-2 -4 -1 -14 3 -21 6 -10 10 -9 14 3 6 16 -8 32 -17 18z"/>
<path d="M9110 1910 c0 -5 5 -10 11 -10 5 0 7 5 4 10 -3 6 -8 10 -11 10 -2 0
-4 -4 -4 -10z"/>
<path d="M11251 1884 c0 -11 3 -14 6 -6 3 7 2 16 -1 19 -3 4 -6 -2 -5 -13z"/>
<path d="M9816 1881 c-4 -5 -2 -12 3 -15 5 -4 12 -2 15 3 4 5 2 12 -3 15 -5 4
-12 2 -15 -3z"/>
<path d="M7860 1858 c0 -19 2 -20 10 -8 13 19 13 30 0 30 -5 0 -10 -10 -10
-22z"/>
<path d="M7883 1847 c0 -8 6 -14 14 -14 15 0 12 19 -3 24 -6 2 -11 -3 -11 -10z"/>
<path d="M9255 1779 c-23 -7 -36 -20 -52 -54 -13 -29 -17 -48 -10 -52 5 -3 7
-1 3 5 -3 6 -1 14 5 18 8 5 10 -1 7 -19 -3 -15 -1 -24 4 -21 5 3 7 21 6 40 -2
37 12 54 45 54 10 0 20 7 24 15 8 21 3 23 -32 14z"/>
<path d="M9815 1781 c-3 -5 -1 -12 5 -16 5 -3 10 1 10 9 0 18 -6 21 -15 7z"/>
<path d="M11253 1715 c0 -27 2 -38 4 -22 2 15 2 37 0 50 -2 12 -4 0 -4 -28z"/>
<path d="M9133 1698 c-10 -18 -13 -39 -3 -33 8 5 21 45 15 45 -2 0 -7 -6 -12
-12z"/>
<path d="M10560 1694 c0 -8 4 -14 9 -14 4 0 7 -12 4 -27 -3 -24 -2 -25 6 -8 8
19 9 19 16 2 6 -15 10 -16 16 -5 5 7 9 20 9 28 0 13 -1 13 -10 0 -11 -18 -25
-6 -16 15 3 10 11 13 18 9 7 -4 10 -3 6 1 -14 15 -58 15 -58 -1z"/>
<path d="M11272 1685 c0 -16 2 -22 5 -12 2 9 2 23 0 30 -3 6 -5 -1 -5 -18z"/>
<path d="M10492 1675 c0 -16 2 -22 5 -12 2 9 2 23 0 30 -3 6 -5 -1 -5 -18z"/>
<path d="M11201 1684 c0 -11 3 -14 6 -6 3 7 2 16 -1 19 -3 4 -6 -2 -5 -13z"/>
<path d="M9165 1649 c-4 -6 -4 -13 -1 -16 3 -4 6 -1 6 6 0 7 5 9 10 6 6 -3 10
-1 10 4 0 14 -17 14 -25 0z"/>
<path d="M7910 1630 c0 -5 5 -10 10 -10 6 0 10 5 10 10 0 6 -4 10 -10 10 -5 0
-10 -4 -10 -10z"/>
<path d="M8042 1610 c0 -14 2 -19 5 -12 2 6 2 18 0 25 -3 6 -5 1 -5 -13z"/>
<path d="M9193 1622 c-9 -6 -7 -11 7 -20 17 -11 20 -10 20 8 0 21 -7 25 -27
12z"/>
<path d="M11263 1623 c9 -2 23 -2 30 0 6 3 -1 5 -18 5 -16 0 -22 -2 -12 -5z"/>
<path d="M11178 1613 c7 -3 16 -2 19 1 4 3 -2 6 -13 5 -11 0 -14 -3 -6 -6z"/>
<path d="M8121 1594 c0 -11 3 -14 6 -6 3 7 2 16 -1 19 -3 4 -6 -2 -5 -13z"/>
<path d="M10481 1563 c2 -35 2 -35 6 -8 3 16 10 33 16 37 8 5 6 8 -5 8 -14 0
-18 -8 -17 -37z"/>
<path d="M9134 1579 c-24 -29 -50 -95 -42 -104 5 -6 15 -19 23 -30 13 -17 12
-14 0 18 -14 34 -14 37 2 37 24 0 103 31 103 40 0 4 -6 8 -12 7 -43 -1 -57 5
-60 25 -2 18 -5 19 -14 7z"/>
<path d="M7888 1553 c7 -3 16 -2 19 1 4 3 -2 6 -13 5 -11 0 -14 -3 -6 -6z"/>
<path d="M7709 1523 c11 -21 60 -45 118 -58 25 -5 39 -2 59 14 l27 21 -24 0
c-27 0 -144 24 -173 36 -16 6 -17 4 -7 -13z"/>
<path d="M9209 1431 c-3 -9 -20 -15 -47 -15 -29 -1 -46 -7 -56 -21 -23 -30
-20 -34 21 -24 36 8 61 4 32 -5 -8 -2 -29 -9 -48 -15 -44 -14 -98 -14 -107 0
-4 7 -94 -76 -225 -207 -201 -201 -219 -222 -219 -254 -1 -41 -16 -64 -48 -74
-20 -7 -21 -9 -8 -19 11 -9 14 -23 9 -55 -7 -50 -5 -48 -95 -57 l-68 -7 0 -33
0 -34 93 4 c75 3 83 2 42 -5 -27 -4 -69 -9 -92 -9 -40 -1 -43 -3 -42 -28 1
-18 3 -22 6 -10 4 14 8 16 19 6 11 -9 14 -9 14 1 0 8 10 11 30 8 17 -3 30 0
30 6 0 6 5 4 10 -4 5 -8 10 -10 10 -4 0 6 6 11 14 11 9 0 14 -12 14 -34 0 -18
6 -41 13 -49 20 -24 -11 -42 -72 -42 -27 -1 -54 -4 -59 -7 -16 -10 0 -27 18
-20 9 3 13 3 10 0 -4 -4 -3 -18 2 -31 6 -14 6 -24 1 -24 -5 0 -7 -9 -4 -20 5
-17 0 -20 -26 -20 -28 0 -31 -3 -30 -32 0 -18 3 -28 5 -21 3 7 11 10 19 7 7
-3 15 3 18 13 4 16 5 16 6 -1 1 -20 1 -20 17 0 14 18 15 18 10 -6 -5 -23 -4
-23 6 3 14 33 43 36 52 4 4 -16 8 -19 15 -9 6 10 10 5 14 -17 7 -35 -11 -100
-23 -81 -5 8 -10 8 -14 2 -3 -5 -33 -13 -66 -17 -54 -6 -60 -9 -60 -30 0 -25
26 -41 34 -22 3 9 8 8 15 -3 7 -10 11 -11 11 -3 0 8 11 11 30 9 17 -2 30 1 30
5 0 5 -17 9 -37 9 -51 0 -38 6 29 14 l58 7 -4 -48 c-5 -67 -5 -65 -16 -58 -6
3 -10 -4 -10 -17 0 -19 -2 -20 -10 -8 -8 12 -12 12 -18 3 -4 -7 -31 -14 -60
-15 -33 -2 -52 -7 -52 -15 0 -10 78 -13 356 -13 l355 0 -3 23 c-3 28 17 51 54
60 15 4 40 18 55 32 38 33 10 33 -59 0 -28 -14 -54 -22 -57 -19 -3 4 0 9 7 11
17 6 42 32 42 44 0 5 -7 9 -15 9 -8 0 -14 3 -13 8 1 4 -3 17 -10 29 -8 14 -9
24 -2 28 6 4 8 11 4 16 -9 15 -13 119 -5 119 16 0 32 -28 38 -65 5 -30 12 -40
37 -50 38 -16 60 -40 74 -80 8 -22 11 126 11 532 l1 561 -30 -11 c-27 -10 -30
-16 -30 -55 0 -40 -3 -45 -45 -70 -53 -32 -59 -62 -19 -99 24 -22 26 -29 22
-88 -3 -49 -9 -68 -23 -80 -30 -22 -32 -19 -33 30 -1 35 3 47 18 55 23 12 26
30 6 30 -9 0 -12 7 -9 21 4 14 0 25 -11 31 -18 10 -23 73 -6 83 12 7 10 94 -2
101 -18 11 -6 36 25 49 28 12 30 21 3 16 -5 -1 -3 5 5 15 12 15 11 16 -21 10
-26 -5 -31 -4 -20 3 8 6 23 11 32 11 9 0 21 8 27 18 8 14 12 15 22 5 14 -14
33 -18 25 -5 -3 4 9 13 26 20 l30 11 -4 -44 c-1 -24 1 -40 5 -36 4 4 7 43 5
87 -2 43 -6 73 -9 65z m-9 -45 c0 -3 -4 -8 -10 -11 -5 -3 -10 -1 -10 4 0 6 5
11 10 11 6 0 10 -2 10 -4z m-729 -989 c-10 -9 -11 -8 -5 6 3 10 9 15 12 12 3
-3 0 -11 -7 -18z"/>
<path d="M11190 1375 c-11 -13 -10 -14 4 -9 9 3 16 10 16 15 0 13 -6 11 -20
-6z"/>
<path d="M7676 1371 c-8 -13 3 -37 17 -39 7 -1 35 -4 63 -8 34 -4 54 -2 58 5
4 7 -1 11 -13 11 -11 0 -23 5 -26 10 -4 6 -10 8 -15 5 -5 -3 -23 1 -39 10 -35
18 -38 18 -45 6z"/>
<path d="M7855 1320 c-12 -14 -4 -16 83 -18 76 -3 94 -1 85 9 -6 6 -29 13 -50
14 -21 2 -53 5 -71 7 -21 3 -37 -1 -47 -12z"/>
<path d="M9155 1300 c-3 -5 -1 -10 4 -10 6 0 11 5 11 10 0 6 -2 10 -4 10 -3 0
-8 -4 -11 -10z"/>
<path d="M9120 1275 c0 -8 2 -15 4 -15 2 0 6 7 10 15 3 8 1 15 -4 15 -6 0 -10
-7 -10 -15z"/>
<path d="M7568 1208 c-9 -24 3 -37 38 -44 26 -5 40 -2 54 11 27 25 25 34 -7
34 -16 -1 -40 2 -54 6 -18 5 -28 2 -31 -7z"/>
<path d="M7710 1175 l-23 -25 25 0 c14 0 40 -3 57 -6 29 -6 31 -5 31 25 0 29
-2 31 -21 21 -14 -8 -24 -8 -33 -1 -9 8 -19 4 -36 -14z"/>
<path d="M9125 1180 c3 -5 8 -10 11 -10 2 0 4 5 4 10 0 6 -5 10 -11 10 -5 0
-7 -4 -4 -10z"/>
<path d="M10565 1060 c-3 -5 -1 -10 4 -10 6 0 11 5 11 10 0 6 -2 10 -4 10 -3
0 -8 -4 -11 -10z"/>
<path d="M10545 1020 c3 -5 10 -10 16 -10 5 0 9 5 9 10 0 6 -7 10 -16 10 -8 0
-12 -4 -9 -10z"/>
<path d="M7565 930 c-1 -44 2 -50 20 -51 11 0 29 -2 40 -5 11 -2 55 -7 98 -10
l77 -7 0 42 c0 26 -4 40 -10 36 -5 -3 -10 -1 -10 4 0 6 5 11 10 11 6 0 10 7
10 15 0 8 -4 15 -10 15 -5 0 -10 -5 -10 -11 0 -5 -5 -7 -10 -4 -6 4 -9 1 -8
-6 4 -20 -28 -22 -46 -4 -14 15 -16 15 -16 1 0 -20 -33 -21 -49 -2 -6 7 -22
11 -35 9 -13 -3 -27 0 -30 6 -14 22 -21 10 -21 -39z"/>
<path d="M8350 898 c0 -76 2 -86 19 -91 11 -2 24 0 31 7 8 8 13 7 20 -4 7 -11
10 -11 10 -2 0 10 5 10 21 2 11 -7 23 -9 27 -6 3 3 0 6 -7 6 -25 0 -61 49 -61
83 0 24 -8 41 -30 62 l-30 29 0 -86z"/>
<path d="M10520 945 c0 -8 2 -15 4 -15 2 0 6 7 10 15 3 8 1 15 -4 15 -6 0 -10
-7 -10 -15z"/>
<path d="M10603 953 c-15 -5 -18 -53 -4 -53 5 0 12 -10 14 -22 2 -13 5 1 6 30
0 28 0 52 -1 51 -2 0 -9 -3 -15 -6z"/>
<path d="M11172 918 c1 -37 2 -39 5 -10 2 17 8 32 14 32 5 0 9 5 9 10 0 6 -7
10 -15 10 -11 0 -15 -11 -13 -42z"/>
<path d="M7740 790 c0 -5 5 -10 10 -10 6 0 10 5 10 10 0 6 -4 10 -10 10 -5 0
-10 -4 -10 -10z"/>
<path d="M8362 781 c7 -11 16 -17 20 -15 5 3 2 12 -6 20 -21 20 -28 17 -14 -5z"/>
<path d="M10526 775 c4 -8 8 -15 10 -15 2 0 4 7 4 15 0 8 -4 15 -10 15 -5 0
-7 -7 -4 -15z"/>
<path d="M10560 781 c0 -4 12 -7 26 -5 38 4 42 14 6 14 -18 0 -32 -4 -32 -9z"/>
<path d="M8410 750 c0 -5 5 -10 11 -10 5 0 7 5 4 10 -3 6 -8 10 -11 10 -2 0
-4 -4 -4 -10z"/>
<path d="M7740 571 c0 -6 9 -8 20 -6 11 2 24 -3 30 -13 8 -15 9 -14 10 6 0 18
-5 22 -30 22 -16 0 -30 -4 -30 -9z"/>
<path d="M10598 573 c7 -3 16 -2 19 1 4 3 -2 6 -13 5 -11 0 -14 -3 -6 -6z"/>
<path d="M7791 484 c0 -11 3 -14 6 -6 3 7 2 16 -1 19 -3 4 -6 -2 -5 -13z"/>
<path d="M7740 429 c0 -5 5 -7 10 -4 6 3 10 8 10 11 0 2 -4 4 -10 4 -5 0 -10
-5 -10 -11z"/>
<path d="M10502 321 c2 -7 7 -12 11 -12 12 1 9 15 -3 20 -7 2 -11 -2 -8 -8z"/>
<path d="M8457 300 c-3 -11 -1 -20 4 -20 5 0 9 9 9 20 0 11 -2 20 -4 20 -2 0
-6 -9 -9 -20z"/>
<path d="M10556 277 c3 -10 9 -15 12 -12 3 3 0 11 -7 18 -10 9 -11 8 -5 -6z"/>
<path d="M8488 115 c2 -19 6 -35 8 -35 2 0 4 16 4 35 0 19 -4 35 -8 35 -4 0
-6 -16 -4 -35z"/>
<path d="M9213 40 c0 -25 2 -35 4 -22 2 12 2 32 0 45 -2 12 -4 2 -4 -23z"/>
</g>
</svg>
