<?xml version="1.0" standalone="no"?>
<!DOCTYPE svg PUBLIC "-//W3C//DTD SVG 20010904//EN"
 "http://www.w3.org/TR/2001/REC-SVG-20010904/DTD/svg10.dtd">
<svg version="1.0" xmlns="http://www.w3.org/2000/svg"
 width="1080.000000pt" height="675.000000pt" viewBox="0 0 1080.000000 675.000000"
 preserveAspectRatio="xMidYMid meet">

<g transform="translate(0.000000,675.000000) scale(0.100000,-0.100000)"
fill="#000000" stroke="none">
<path d="M3475 6740 c3 -5 15 -10 25 -10 10 0 27 -13 36 -29 10 -17 22 -27 26
-25 5 3 14 -7 20 -23 13 -32 94 -99 132 -109 14 -3 26 -10 26 -15 0 -5 7 -9
15 -9 9 0 27 -11 41 -25 14 -14 37 -31 53 -39 27 -15 157 -36 176 -30 6 2 57
8 115 13 58 5 125 17 150 26 25 9 56 18 70 19 14 1 34 7 45 13 11 6 53 18 94
28 41 10 85 27 98 38 21 19 63 38 118 54 11 4 23 12 28 19 4 7 21 16 39 19 18
4 38 14 46 21 7 8 25 17 40 21 15 3 30 10 33 15 3 5 24 16 45 23 34 12 -60 14
-719 15 -503 0 -756 -3 -752 -10z"/>
<path d="M8020 5944 c-8 -2 -103 -19 -210 -39 -263 -49 -368 -74 -374 -91 -3
-9 2 -17 12 -20 48 -15 181 -67 206 -82 5 -3 7 1 4 9 -3 8 -9 14 -14 14 -8 1
-50 18 -112 48 -34 16 -10 25 86 33 72 6 84 5 117 -16 20 -12 39 -20 42 -17 3
4 -11 14 -31 23 -20 10 -36 21 -36 26 0 6 42 11 100 10 3 0 16 -3 30 -7 17 -4
21 -3 11 3 -19 14 -5 19 84 32 44 6 96 14 116 17 31 4 62 -7 207 -77 94 -46
169 -86 167 -90 -3 -5 -44 -13 -92 -20 -49 -6 -108 -16 -133 -21 -121 -24
-230 -39 -246 -33 -16 5 -16 4 -4 -5 12 -8 6 -11 -27 -11 -31 0 -43 -4 -43
-14 0 -12 -6 -13 -30 -4 -20 6 -35 7 -43 0 -6 -5 -38 -13 -70 -17 -32 -3 -56
-9 -53 -12 3 -4 0 -13 -6 -22 -10 -13 -10 -14 2 -3 15 13 44 17 36 4 -2 -4 11
-6 30 -4 20 3 38 11 41 18 3 8 9 14 15 14 5 0 6 -5 2 -11 -7 -12 89 -5 161 12
61 15 84 19 163 23 40 3 76 7 80 10 4 2 45 10 91 16 64 10 85 10 90 1 6 -9 11
-8 21 4 7 8 23 15 36 15 14 0 33 5 44 12 10 7 21 10 23 8 3 -3 10 -52 16 -110
15 -133 28 -238 35 -270 2 -14 7 -59 10 -100 4 -41 9 -95 11 -120 3 -25 12
-117 20 -205 8 -88 18 -182 21 -209 5 -38 3 -47 -6 -41 -10 6 -12 -3 -7 -41
11 -85 27 -336 22 -345 -3 -4 -27 -11 -53 -14 -26 -4 -101 -18 -167 -32 -66
-13 -151 -28 -188 -33 -38 -5 -85 -14 -105 -19 -20 -6 -57 -13 -82 -16 -25 -3
-69 -10 -99 -15 -68 -12 -124 -13 -117 -1 7 10 61 24 176 46 47 9 87 21 91 26
5 8 161 41 177 37 4 -1 33 6 64 16 32 9 92 19 134 21 82 4 90 7 79 25 -5 8
-22 10 -49 6 -123 -18 -203 -33 -214 -40 -14 -9 -23 -10 -161 -26 -52 -6 -99
-14 -105 -18 -13 -8 -9 -7 -111 -17 -166 -15 -218 -15 -232 3 -19 26 -17 110
3 114 13 2 17 17 19 68 4 88 -1 103 -30 96 -28 -7 -25 -27 -71 462 l-6 62 31
11 c30 11 30 11 16 39 -8 16 -15 45 -15 65 0 42 -15 75 -34 75 -14 0 -18 17
-32 160 -7 74 -18 100 -41 100 -14 0 -15 -13 -9 -112 l7 -113 -29 28 c-34 33
-45 79 -25 100 8 8 16 31 18 52 4 48 -1 53 -187 176 -91 61 -118 87 -77 74 44
-14 148 -79 142 -88 -4 -6 -1 -7 6 -2 7 4 30 -1 51 -10 47 -21 73 -14 68 17
-2 19 -38 41 -188 116 -102 51 -198 94 -215 95 -26 2 -30 -2 -33 -25 -3 -23 3
-31 33 -45 27 -13 35 -22 31 -36 -7 -27 3 -47 23 -47 18 0 41 -18 41 -32 0 -4
-6 -8 -14 -8 -8 0 -22 -7 -30 -16 -13 -13 -15 -34 -11 -127 3 -62 10 -143 15
-182 6 -38 17 -155 25 -260 8 -104 26 -279 40 -388 14 -109 25 -211 25 -228 0
-22 6 -32 25 -39 14 -5 25 -16 25 -24 0 -7 17 -31 38 -51 20 -21 29 -35 20
-32 -12 4 -15 2 -12 -7 3 -8 -2 -20 -11 -27 -9 -8 -28 -24 -41 -36 -14 -13
-29 -23 -35 -23 -5 0 -36 -26 -69 -58 -49 -49 -58 -63 -53 -83 3 -13 11 -27
17 -31 6 -4 11 -50 11 -113 0 -91 -3 -108 -17 -116 -10 -6 -18 -17 -18 -25 0
-8 -7 -17 -15 -21 -9 -3 -34 -22 -55 -42 -22 -20 -58 -51 -80 -70 -30 -25 -38
-36 -28 -42 7 -5 20 -6 28 -4 34 11 150 9 162 -3 7 -7 10 -12 8 -13 -3 0 -47
-1 -97 -3 -51 -1 -96 -6 -100 -9 -14 -15 -32 -5 -42 23 -5 17 -17 30 -27 30
-13 0 -15 -6 -10 -34 5 -25 3 -35 -9 -40 -8 -3 -15 -12 -15 -20 0 -12 7 -14
28 -10 28 6 30 3 53 -58 21 -56 24 -77 21 -182 -2 -110 -5 -125 -32 -180 -17
-32 -30 -64 -30 -69 0 -6 -8 -19 -17 -29 -11 -13 -20 -46 -25 -96 -4 -42 -12
-104 -18 -137 -6 -33 -14 -80 -19 -105 -12 -69 -29 -99 -54 -92 -16 4 -19 2
-14 -11 5 -14 0 -17 -31 -17 -20 -1 -48 -7 -62 -15 -14 -8 -32 -14 -40 -14
-12 0 -12 2 -1 6 10 4 6 12 -14 29 -16 13 -32 24 -37 24 -5 0 -8 16 -6 36 1
19 -3 38 -9 42 -7 5 -9 36 -7 87 2 44 1 89 -3 100 -5 17 -7 16 -14 -10 -5 -18
-5 -31 1 -33 6 -2 10 -10 10 -17 0 -11 -7 -12 -32 -4 -18 5 -65 9 -104 9 -67
0 -224 12 -322 26 -40 5 -43 8 -40 32 2 22 8 27 28 25 14 -1 116 -5 228 -9
177 -6 202 -5 202 8 0 12 -23 16 -120 22 -67 4 -125 4 -130 1 -14 -8 -22 30
-14 70 5 27 3 35 -9 35 -17 0 -27 -21 -27 -59 0 -41 -17 -51 -89 -50 -42 0
-59 3 -46 8 18 7 17 8 -5 14 -14 3 -86 13 -160 22 -175 21 -210 31 -210 54 0
11 -7 21 -15 25 -11 4 -15 -1 -15 -19 0 -13 -5 -27 -10 -30 -6 -4 -3 -16 10
-32 31 -40 26 -53 -20 -53 l-40 0 0 -41 c0 -22 -5 -49 -11 -60 -6 -12 -11 -45
-11 -75 -1 -45 2 -57 20 -70 20 -14 21 -17 8 -42 -13 -24 -12 -30 5 -51 21
-25 18 -57 -7 -77 -8 -6 -15 -35 -16 -70 -3 -56 -2 -59 20 -57 20 3 22 -2 22
-43 0 -42 -2 -45 -22 -39 -13 4 -31 9 -40 11 -14 4 -18 -1 -18 -25 0 -17 -4
-31 -10 -31 -5 0 -10 -20 -10 -45 0 -31 4 -45 13 -44 38 5 42 0 39 -50 -3 -38
-8 -50 -23 -54 -15 -4 -19 -14 -19 -46 0 -40 -1 -42 -27 -39 -26 3 -28 0 -31
-41 -2 -24 0 -47 5 -52 11 -11 152 -38 225 -44 110 -8 36 19 -155 55 -36 7
-57 16 -54 23 7 23 117 28 225 11 57 -9 106 -13 110 -10 13 14 -17 26 -98 41
-147 28 -160 33 -160 60 0 21 5 25 31 25 23 0 30 4 26 14 -4 11 -1 13 11 9 12
-4 14 -3 7 5 -5 5 -19 12 -30 14 -14 2 -21 12 -23 37 l-3 33 38 -7 c21 -4 63
-9 93 -11 139 -8 268 -44 160 -44 -29 0 -40 -4 -40 -15 0 -16 -5 -18 -66 -15
-25 1 -45 -4 -52 -13 -10 -12 -6 -15 27 -21 22 -3 47 -3 56 0 10 4 24 -2 36
-15 16 -17 17 -21 4 -21 -8 0 -15 -7 -15 -15 0 -17 5 -18 28 -6 9 5 26 5 37 1
19 -7 19 -8 -5 -18 -24 -9 -26 -14 -25 -72 1 -43 5 -64 15 -70 15 -7 118 -14
380 -27 69 -3 130 -10 137 -15 6 -5 17 -8 25 -7 7 2 23 -2 36 -9 18 -11 22
-10 22 2 0 15 12 14 135 -3 28 -4 73 -7 100 -6 40 0 49 3 46 15 -3 8 -6 34 -9
58 -3 33 -8 42 -23 42 -15 0 -19 7 -19 36 0 36 0 37 35 31 37 -6 38 -5 51 67
6 34 5 38 -12 32 -11 -3 -32 -2 -49 2 -28 8 -30 12 -30 57 0 46 -1 48 -30 51
-106 13 -145 15 -146 7 0 -4 -1 -27 -3 -50 -1 -24 -4 -45 -7 -47 -7 -7 -215
13 -244 24 -20 8 -27 7 -31 -5 -8 -21 -47 -19 -72 4 -16 13 -52 22 -129 30
-59 7 -109 14 -112 16 -2 2 0 20 3 40 6 30 10 34 29 31 12 -3 45 -8 72 -11 28
-3 82 -12 120 -20 104 -21 327 -37 339 -25 5 5 8 10 5 11 -2 0 -40 5 -84 10
-44 5 -111 12 -150 14 -70 5 -238 38 -284 56 -19 8 -27 7 -33 -5 -5 -9 -16
-16 -24 -16 -11 0 -14 -9 -12 -32 3 -28 0 -33 -17 -31 -11 1 -72 7 -135 13
-207 20 -205 20 -208 61 -2 29 1 37 20 46 25 11 124 2 170 -16 14 -5 29 -7 32
-3 4 3 35 6 69 7 57 0 62 2 65 23 3 22 7 23 40 17 115 -22 255 -32 288 -20 33
11 25 13 -118 34 -84 13 -154 24 -156 26 -1 1 2 15 8 30 9 25 13 27 48 20 20
-4 91 -13 157 -21 175 -19 260 -38 259 -55 -1 -12 17 -14 105 -11 58 2 107 5
109 7 7 6 -12 35 -22 34 -6 -1 -26 -1 -43 0 -38 1 -46 21 -9 21 16 0 26 7 29
21 5 20 10 21 64 14 32 -4 62 -10 67 -15 15 -15 -4 -30 -39 -30 -43 0 -55 -18
-27 -41 13 -10 22 -29 22 -44 l0 -27 -59 7 c-33 4 -75 3 -93 -1 l-33 -7 30
-13 c17 -7 53 -14 80 -15 88 -3 110 -11 110 -41 0 -33 18 -53 40 -44 13 5 14
10 6 19 -6 8 -8 29 -4 50 5 32 3 38 -19 46 -21 8 -25 15 -21 36 7 31 34 48 67
39 13 -3 33 -1 43 5 13 7 42 6 94 -3 71 -12 120 -11 117 3 -4 20 17 112 34
145 17 34 19 51 13 122 l-7 82 49 -5 c26 -2 109 -10 183 -18 215 -22 475 -39
493 -32 42 16 12 27 -75 27 -102 0 -141 7 -132 22 4 7 0 7 -12 0 -31 -16 -304
7 -304 26 0 3 11 20 25 38 21 28 30 32 54 28 24 -5 34 0 61 30 l33 36 91 -2
c80 -3 91 -1 94 15 3 14 -5 17 -50 18 -29 1 -65 4 -80 8 l-28 6 45 65 c89 128
79 122 119 85 32 -29 56 -32 56 -7 0 10 12 25 26 32 14 8 33 28 41 44 30 59
40 62 92 35 25 -13 76 -45 113 -71 74 -53 78 -54 78 -34 0 11 -122 105 -190
147 -12 8 -8 15 22 42 20 18 40 46 43 62 14 59 46 161 68 214 19 47 22 51 28
30 4 -13 7 -52 8 -86 1 -49 4 -63 16 -63 13 0 14 25 12 165 -2 168 -9 193 -37
140 -8 -14 -29 -35 -47 -46 -42 -26 -127 -125 -118 -139 12 -19 26 -10 89 50
35 33 66 60 70 60 8 0 -3 -42 -14 -50 -3 -3 -24 -48 -44 -100 -21 -52 -45
-106 -53 -119 -8 -13 -16 -41 -16 -61 -1 -32 -6 -40 -34 -56 -34 -18 -34 -17
-89 9 -61 30 -84 34 -84 13 0 -7 -12 -29 -27 -49 -16 -19 -33 -43 -38 -52 -9
-15 -15 -16 -33 -6 -12 6 -33 23 -46 36 -14 14 -35 25 -46 25 -17 0 -21 -5
-19 -27 2 -17 -10 -50 -29 -83 -18 -30 -48 -88 -68 -127 l-35 -73 -45 0 c-50
0 -84 15 -159 68 -27 20 -51 36 -52 37 -2 1 -10 55 -18 121 -18 138 -61 311
-105 419 -16 42 -30 79 -30 81 0 2 35 2 79 -2 66 -5 81 -3 95 12 15 15 24 16
68 6 27 -7 68 -12 91 -12 44 0 137 -28 137 -42 0 -4 -7 -5 -15 -2 -8 4 -15 1
-15 -4 0 -6 8 -12 18 -14 9 -3 -72 -4 -180 -4 -108 1 -200 -2 -203 -6 -4 -4 2
-22 14 -41 30 -50 68 -170 92 -300 46 -241 37 -219 98 -249 65 -33 91 -36 91
-8 0 20 30 79 61 118 24 31 42 89 35 109 -7 18 29 63 51 63 7 0 13 5 13 11 0
7 10 28 22 48 13 20 23 41 23 46 1 6 6 9 13 7 7 -1 12 5 12 13 0 21 29 75 93
172 15 23 27 49 27 59 0 9 11 31 24 48 26 34 72 143 82 194 4 18 9 32 13 32 8
0 22 51 53 187 l23 102 90 21 c50 11 128 26 175 34 121 22 277 51 410 78 107
21 112 23 70 28 -44 5 -43 5 35 18 128 21 125 20 125 45 0 54 -135 1257 -151
1350 -11 62 -11 68 6 81 10 7 15 18 11 24 -3 6 -68 41 -143 78 -75 38 -163 86
-196 107 -33 21 -76 40 -95 42 -19 2 -39 8 -45 14 -10 10 -63 13 -97 5z m-820
-379 c11 -13 10 -14 -4 -9 -9 3 -16 10 -16 15 0 13 6 11 20 -6z m65 -53 c-3
-3 -16 5 -28 17 l-22 23 28 -17 c15 -10 25 -20 22 -23z m-56 -42 c19 -17 38
-30 43 -30 4 0 8 -5 8 -12 0 -6 19 -30 43 -52 23 -23 52 -52 62 -66 20 -25 20
-25 0 -10 -11 8 -22 17 -25 20 -3 3 -45 31 -94 63 -49 31 -96 67 -104 79 -11
15 -12 19 -2 13 10 -6 12 -4 7 9 -9 23 1 39 16 26 7 -6 27 -24 46 -40z m51 10
c0 -5 -5 -10 -11 -10 -5 0 -7 5 -4 10 3 6 8 10 11 10 2 0 4 -4 4 -10z m82 -70
c14 0 58 -51 58 -68 0 -10 -23 7 -65 48 -67 66 -91 102 -33 49 18 -16 36 -29
40 -29z m-137 -78 c-7 -8 -45 20 -45 33 0 9 7 7 24 -8 14 -12 23 -23 21 -25z
m92 -112 c9 -8 39 -32 65 -53 30 -23 48 -45 48 -58 0 -18 -7 -15 -43 22 -23
24 -64 63 -90 87 -26 23 -47 47 -47 53 0 5 11 0 25 -13 13 -13 32 -30 42 -38z
m-17 -67 c0 -7 3 -13 8 -13 9 0 122 -107 122 -116 0 -3 -28 17 -62 44 -59 46
-99 72 -112 72 -19 0 -1 -47 32 -83 55 -61 125 -136 145 -156 9 -10 17 -28 17
-42 0 -13 3 -46 6 -74 l5 -50 -21 25 c-12 14 -54 63 -93 109 -40 47 -75 94
-79 105 l-6 21 -1 -21 c-1 -22 27 -63 86 -127 89 -97 113 -131 113 -160 0 -26
-2 -28 -17 -16 -12 10 -11 6 4 -16 15 -21 23 -53 28 -110 3 -44 4 -77 2 -75
-27 28 -207 278 -207 287 0 9 10 9 43 -2 l42 -15 -28 25 c-15 14 -37 25 -48
25 -11 0 -21 6 -23 13 -5 14 -42 303 -52 397 l-6 64 51 -49 c28 -28 51 -56 51
-62z m230 -162 c-1 -10 -6 -7 -15 9 -19 33 -18 50 0 26 8 -11 15 -27 15 -35z
m-96 -27 c7 -19 2 -18 -19 6 -16 17 -16 20 -3 15 9 -4 19 -13 22 -21z m124
-19 c-3 -3 -9 2 -12 12 -6 14 -5 15 5 6 7 -7 10 -15 7 -18z m11 -160 c2 -80
-1 -94 -13 -89 -21 8 -30 58 -15 82 10 16 9 24 -4 43 -18 25 -22 43 -8 35 5
-3 14 1 21 9 7 8 14 15 15 15 1 0 3 -43 4 -95z m-247 -132 c29 -37 60 -76 68
-88 8 -12 30 -42 48 -65 37 -50 44 -80 7 -35 -13 17 -24 26 -25 21 0 -4 14
-26 31 -48 27 -33 33 -51 41 -125 5 -47 7 -87 5 -90 -7 -6 -52 44 -108 122
-28 39 -60 83 -72 99 -19 24 -52 156 -40 156 2 0 18 -7 36 -15 27 -13 29 -13
12 -1 -11 8 -27 21 -36 28 -14 11 -35 108 -24 108 2 0 27 -30 57 -67z m248
-73 c0 -11 -2 -20 -4 -20 -2 0 -6 9 -9 20 -3 11 -1 20 4 20 5 0 9 -9 9 -20z
m1100 -85 c0 -5 -5 -3 -10 5 -5 8 -10 20 -10 25 0 6 5 3 10 -5 5 -8 10 -19 10
-25z m-1300 -152 c22 -38 18 -41 -17 -13 -14 11 -32 20 -39 20 -9 0 -14 11
-14 29 0 16 -3 38 -6 48 -7 22 49 -40 76 -84z m-370 -1226 c12 -59 20 -113 18
-119 -4 -10 -48 201 -48 226 0 28 11 -11 30 -107z m759 -55 l30 -18 -55 -57
c-31 -31 -59 -57 -63 -57 -4 0 -15 6 -24 13 -15 11 -13 18 25 75 23 34 46 62
50 62 4 0 21 -8 37 -18z m-216 -87 c15 -13 27 -27 27 -31 0 -5 -30 -52 -66
-106 -46 -68 -73 -98 -86 -98 -17 0 -19 5 -13 33 4 17 24 64 44 102 21 39 41
83 45 98 8 33 13 33 49 2z m-1595 -151 c39 -5 42 -8 42 -34 0 -30 0 -30 -47
-23 -51 7 -62 8 -106 5 -38 -3 -24 -22 16 -22 66 0 77 -8 77 -55 0 -24 -3 -50
-6 -59 -5 -14 -8 -14 -27 -1 -12 8 -40 15 -62 15 -46 1 -222 33 -232 44 -4 3
-1 12 5 18 7 7 12 20 12 30 0 16 10 18 79 18 50 0 83 4 87 12 4 6 3 8 -3 5
-15 -9 -53 22 -53 44 0 18 6 19 88 14 48 -3 106 -8 130 -11z m1195 -36 c29
-28 30 -32 13 -38 -10 -3 -31 -4 -47 -2 -25 4 -29 8 -29 38 0 44 21 45 63 2z
m14 -83 c7 -3 16 -22 19 -45 7 -43 14 -48 37 -26 9 9 18 11 24 6 5 -6 9 -2 9
9 0 11 -3 18 -6 16 -7 -4 -40 31 -40 41 0 10 50 -5 76 -23 25 -16 25 -16 5
-37 -11 -12 -24 -33 -30 -48 -12 -32 -22 -33 -104 -17 l-57 12 0 64 0 63 28
-6 c15 -3 33 -7 39 -9z m-987 -15 c47 -5 135 -10 197 -12 l112 -3 -1 -38 c0
-31 -3 -37 -17 -31 -9 3 -50 8 -91 10 -41 2 -131 6 -200 10 -112 6 -143 8
-187 13 -7 0 -13 14 -13 31 0 30 0 30 58 30 31 0 95 -4 142 -10z m1230 3 c0
-5 -4 -15 -10 -23 -11 -18 -25 -7 -17 15 6 15 27 21 27 8z m-1685 -68 c55 -8
127 -15 160 -15 33 0 76 -5 95 -11 35 -11 92 -14 355 -23 77 -2 148 -8 158
-11 9 -4 17 -17 17 -29 0 -22 -2 -22 -122 -20 l-123 2 95 -9 c52 -5 108 -16
123 -24 16 -8 36 -16 45 -16 9 -1 -14 -6 -53 -13 -40 -6 -100 -8 -140 -4 -38
3 -130 7 -202 8 l-133 2 0 28 c0 16 5 28 13 27 6 0 26 1 42 2 29 3 30 3 5 10
-15 4 -24 14 -24 24 2 20 -12 23 -19 3 -9 -24 -69 -24 -191 0 -66 13 -134 24
-153 24 -26 0 -33 4 -33 20 0 23 -10 26 -28 8 -15 -15 -26 -4 -19 17 8 18 6
18 132 0z m59 -85 c167 -28 166 -28 166 -50 0 -25 -36 -26 -95 -4 -22 8 -79
17 -127 21 -95 6 -114 13 -105 37 8 20 15 20 161 -4z m89 -82 c-2 -5 5 -8 15
-8 23 0 37 -50 19 -63 -10 -7 -247 -1 -253 6 -1 1 -4 19 -8 40 l-7 38 119 -3
c66 -2 118 -6 115 -10z m402 -38 c121 -7 221 -13 222 -14 1 -1 0 -19 -4 -39
l-6 -37 -70 0 c-38 0 -108 4 -156 10 -47 5 -131 14 -186 20 -134 14 -145 18
-145 45 0 27 16 33 80 29 25 -1 144 -8 265 -14z m284 -27 c0 -5 -4 -17 -9 -28
-8 -18 -9 -17 -9 8 -1 15 4 27 9 27 6 0 10 -3 9 -7z m-716 -48 c9 -4 17 -18
17 -32 0 -20 4 -24 28 -22 46 3 64 0 56 -12 -4 -7 -21 -9 -43 -5 -20 3 -79 10
-131 16 -142 15 -150 18 -150 45 0 23 1 24 103 21 56 -2 110 -7 120 -11z m212
-16 c39 -6 152 -14 253 -18 182 -7 218 -15 187 -41 -13 -10 -29 -10 -91 0 -59
10 -78 10 -83 1 -11 -17 -182 1 -409 45 -37 7 -15 24 31 24 23 0 74 -5 112
-11z m-187 -81 c34 -7 61 -16 59 -21 -1 -5 -7 -9 -12 -9 -17 0 -34 -19 -29
-33 3 -7 2 -15 -3 -18 -10 -7 -215 22 -224 31 -4 4 -5 22 -2 40 l6 34 71 -6
c39 -4 99 -12 134 -18z m722 12 c0 -5 -2 -10 -4 -10 -3 0 -8 5 -11 10 -3 6 -1
10 4 10 6 0 11 -4 11 -10z m75 -301 c0 -20 -6 -24 -39 -27 -62 -4 -80 -21 -23
-22 60 0 137 -18 157 -36 12 -12 12 -16 -3 -31 -11 -11 -17 -13 -17 -5 0 7 -7
12 -16 12 -8 0 -12 -5 -8 -11 4 -8 1 -8 -12 -1 -11 5 -50 8 -89 6 -38 -2 -87
-1 -107 2 -32 5 -38 10 -38 30 0 21 5 24 34 24 41 0 51 12 48 57 l-3 34 58 -5
c53 -4 58 -6 58 -27z m-616 -24 c58 -8 168 -25 244 -37 138 -23 138 -23 134
-48 -3 -14 -1 -33 4 -42 11 -21 1 -23 -33 -8 -13 5 -79 14 -148 19 -76 5 -137
15 -155 24 -16 8 -61 20 -100 26 -96 15 -151 31 -136 40 7 4 11 12 10 17 -5
30 24 31 180 9z m609 -139 c6 -3 8 -15 5 -27 -5 -19 -11 -20 -87 -14 -101 8
-112 11 -97 29 6 7 7 16 3 21 -8 9 161 1 176 -9z m-548 -16 c30 -6 108 -12
172 -13 64 -1 120 -5 124 -9 3 -4 4 -15 0 -24 -6 -15 -19 -16 -122 -10 -63 3
-173 9 -245 13 -135 6 -149 12 -135 49 5 14 17 16 79 11 39 -4 97 -11 127 -17z
m524 -58 c74 -7 80 -9 81 -30 l2 -24 -116 7 c-64 4 -120 11 -124 15 -5 4 -6
17 -2 29 5 18 12 20 43 15 20 -3 73 -8 116 -12z"/>
<path d="M7290 4963 c0 -9 105 -103 116 -103 4 0 -3 12 -17 26 -34 36 -99 87
-99 77z"/>
<path d="M7346 4725 c4 -8 10 -15 15 -15 4 0 6 7 3 15 -4 8 -10 15 -15 15 -4
0 -6 -7 -3 -15z"/>
<path d="M7356 4529 c16 -20 31 -34 33 -32 3 2 -10 18 -29 36 l-34 32 30 -36z"/>
<path d="M6128 2513 c6 -2 18 -2 25 0 6 3 1 5 -13 5 -14 0 -19 -2 -12 -5z"/>
<path d="M7360 5795 c0 -8 7 -15 15 -15 8 0 76 -27 151 -60 75 -34 138 -59
140 -57 4 4 -287 147 -299 147 -4 0 -7 -7 -7 -15z"/>
<path d="M7604 5785 c22 -17 40 -20 32 -6 -3 5 -16 11 -28 14 -22 6 -22 5 -4
-8z"/>
<path d="M7660 5760 c8 -5 20 -10 25 -10 6 0 3 5 -5 10 -8 5 -19 10 -25 10 -5
0 -3 -5 5 -10z"/>
<path d="M7993 5763 c9 -2 15 -8 13 -11 -2 -4 10 -8 27 -9 l32 -2 -34 15 c-18
7 -38 13 -45 13 -6 -1 -3 -3 7 -6z"/>
<path d="M7190 5755 c0 -9 50 -34 54 -27 3 5 -8 13 -25 19 -16 6 -29 10 -29 8z"/>
<path d="M7303 5753 c4 -6 21 -16 39 -23 77 -30 196 -85 231 -107 26 -16 37
-19 37 -10 0 8 -62 41 -142 76 -177 78 -173 77 -165 64z"/>
<path d="M7700 5746 c0 -2 7 -7 16 -10 8 -3 12 -2 9 4 -6 10 -25 14 -25 6z"/>
<path d="M7865 5740 c3 -5 11 -10 16 -10 6 0 7 5 4 10 -3 6 -11 10 -16 10 -6
0 -7 -4 -4 -10z"/>
<path d="M7270 5721 c0 -5 14 -16 30 -25 17 -8 30 -11 30 -6 0 5 -9 12 -20 15
-11 3 -20 11 -20 16 0 5 -4 9 -10 9 -5 0 -10 -4 -10 -9z"/>
<path d="M7756 5716 c10 -8 21 -12 24 -10 5 6 -21 24 -34 24 -6 0 -1 -6 10
-14z"/>
<path d="M7690 5700 c8 -5 20 -10 25 -10 6 0 3 5 -5 10 -8 5 -19 10 -25 10 -5
0 -3 -5 5 -10z"/>
<path d="M7350 5680 c0 -11 41 -35 54 -32 12 4 73 -26 81 -38 8 -13 25 -13 25
0 0 6 -26 22 -57 36 -90 40 -103 44 -103 34z"/>
<path d="M7730 5685 c0 -2 10 -10 23 -16 20 -11 21 -11 8 4 -13 16 -31 23 -31
12z"/>
<path d="M8429 5615 c-3 -2 -41 -10 -85 -16 -43 -6 -99 -17 -124 -24 -25 -8
-97 -21 -160 -30 -137 -19 -368 -60 -446 -81 -30 -8 -58 -14 -62 -14 -4 0 1
-5 10 -11 13 -7 60 -4 160 11 79 12 151 23 160 26 10 3 79 16 155 29 449 79
468 83 433 105 -16 11 -34 13 -41 5z"/>
<path d="M7590 5571 c-20 -5 -22 -8 -9 -13 9 -4 20 -3 25 2 5 4 18 10 29 13
l20 5 -20 0 c-11 0 -31 -3 -45 -7z"/>
<path d="M8472 5405 c-1 -33 3 -107 8 -165 5 -58 14 -161 20 -230 6 -69 15
-159 20 -200 5 -41 17 -160 25 -263 15 -185 31 -277 47 -277 24 0 22 28 -27
480 -68 630 -91 792 -93 655z"/>
<path d="M2995 5429 c-96 -9 -188 -42 -208 -76 -5 -7 -13 -10 -19 -7 -6 4 -16
0 -22 -8 -6 -8 -21 -20 -33 -26 -12 -7 -32 -27 -44 -44 -13 -18 -17 -28 -9
-22 90 68 113 83 122 78 6 -4 44 11 86 32 71 37 80 39 166 39 77 0 99 -4 146
-26 101 -48 195 -168 226 -290 43 -168 -27 -435 -148 -563 -21 -21 -38 -42
-38 -46 0 -21 -162 -130 -194 -130 -11 0 -6 149 5 156 8 4 7 9 -2 15 -32 20
-37 9 -38 -88 -1 -53 -3 -98 -5 -100 -2 -2 -43 -8 -92 -14 -78 -8 -96 -7 -154
10 -77 24 -119 53 -178 124 -54 65 -68 91 -77 144 -6 36 -4 44 12 49 67 24
155 58 198 78 28 13 77 33 110 46 132 50 132 50 144 94 19 78 21 95 12 118 -5
13 -21 74 -36 137 -16 62 -36 134 -47 160 l-19 46 7 -50 c3 -27 14 -72 23
-100 10 -27 16 -55 14 -62 -2 -7 1 -21 7 -32 12 -23 18 -20 -90 -41 -30 -6
-71 -20 -90 -30 -33 -18 -34 -19 -10 -20 34 0 128 25 165 44 33 17 39 14 49
-26 7 -29 -2 -36 -21 -17 -8 8 -32 5 -85 -10 -85 -24 -92 -25 -83 -11 3 6 1
10 -5 10 -6 0 -13 -6 -16 -14 -6 -16 -62 -42 -71 -33 -3 4 -11 1 -17 -7 -10
-13 -76 -39 -82 -33 -2 1 3 16 11 32 7 17 15 38 18 47 3 9 25 22 49 29 24 6
61 20 84 30 22 11 47 19 55 19 31 0 114 37 114 50 0 23 -31 23 -78 2 -43 -20
-159 -62 -171 -62 -3 0 -6 4 -6 8 0 10 131 72 151 72 21 0 93 46 83 53 -5 3
-50 -8 -99 -24 -50 -16 -92 -29 -95 -28 -3 0 11 14 30 31 19 17 29 28 23 24
-7 -4 -13 -3 -13 2 0 5 23 12 50 14 28 3 58 12 68 21 20 18 26 53 11 63 -12 7
-109 -27 -109 -38 0 -4 -6 -5 -14 -2 -8 3 -23 1 -34 -5 -12 -7 -22 -7 -29 0
-6 6 -14 5 -23 -6 -7 -8 -19 -15 -26 -15 -8 0 -20 -12 -27 -27 -13 -31 -14
-33 -54 -82 -24 -30 -25 -33 -6 -22 12 6 35 30 52 54 35 51 70 81 96 84 31 3
67 11 105 22 19 6 37 11 40 11 9 -1 -45 -40 -55 -40 -5 0 -37 -14 -70 -31 -33
-16 -52 -28 -42 -25 9 3 17 1 17 -4 0 -6 -5 -10 -10 -10 -6 0 -10 -8 -8 -17 2
-12 -9 -22 -38 -32 -23 -9 -48 -22 -58 -30 -9 -7 -24 -11 -35 -8 -26 6 -41
-31 -47 -109 -2 -33 -11 -91 -19 -129 -26 -112 2 -251 74 -362 42 -65 77 -96
156 -137 40 -20 75 -28 175 -37 147 -14 192 -5 320 62 181 94 343 318 369 512
15 110 14 207 -4 237 -8 14 -26 49 -40 79 -29 61 -130 166 -190 196 -22 11
-55 32 -73 48 -18 15 -38 27 -45 28 -53 4 -133 3 -192 -2z m415 -205 c22 -20
54 -65 71 -100 30 -61 32 -70 31 -170 -1 -58 -5 -111 -9 -117 -4 -6 -6 -26 -4
-43 5 -61 -108 -252 -201 -340 -44 -43 -186 -140 -193 -132 -2 2 32 32 76 67
96 76 147 138 200 242 61 122 83 222 76 351 -4 78 -11 118 -26 150 -20 42 -41
78 -51 88 -49 49 -24 53 30 4z m-815 -198 c-10 -6 -25 -18 -34 -26 -9 -8 -28
-23 -43 -32 -25 -17 -26 -17 -31 8 -2 13 -2 22 1 20 3 -3 10 1 16 10 13 18 87
45 100 36 6 -3 1 -10 -9 -16z m-52 -83 c-7 -2 -13 -16 -13 -29 0 -25 -31 -64
-51 -64 -8 0 -9 11 -5 31 3 17 6 37 6 45 0 12 24 20 60 22 10 0 11 -1 3 -5z
m405 -33 c2 -18 0 -21 -6 -11 -8 10 -19 11 -56 3 -25 -5 -46 -8 -46 -6 0 3 15
13 33 24 42 26 71 22 75 -10z m-198 6 c0 -2 -7 -7 -16 -10 -8 -3 -12 -2 -9 4
6 10 25 14 25 6z m-84 -42 c-11 -7 -22 -11 -25 -8 -3 3 3 12 13 20 11 7 22 11
25 8 3 -3 -3 -12 -13 -20z m139 14 c-5 -14 -115 -50 -115 -39 0 12 36 37 47
34 6 -2 14 1 18 6 9 16 56 14 50 -1z m-195 -28 c0 -5 -7 -10 -16 -10 -8 0 -12
5 -9 10 3 6 10 10 16 10 5 0 9 -4 9 -10z m54 -25 c-10 -8 -27 -15 -37 -15 -11
0 -31 -10 -45 -22 -15 -12 -19 -18 -9 -15 20 7 23 -13 5 -31 -19 -19 -34 -14
-46 14 -12 24 -10 26 35 45 27 11 57 24 68 29 34 15 51 12 29 -5z m-157 -50
c8 -19 8 -25 0 -26 -8 0 -8 -2 1 -6 6 -2 12 -10 12 -15 0 -6 -3 -8 -7 -5 -3 4
-12 2 -20 -5 -7 -6 -15 -9 -17 -7 -4 4 -9 66 -7 82 2 17 27 5 38 -18z m123 0
c-14 -17 -30 -20 -30 -6 0 5 8 12 18 14 9 3 19 5 21 6 2 0 -2 -6 -9 -14z m110
-28 c0 -6 -3 -8 -6 -5 -3 4 -21 0 -39 -8 -40 -16 -55 -18 -55 -5 0 11 46 28
78 28 12 0 22 -4 22 -10z m-115 -27 c5 -8 -43 -40 -60 -40 -17 0 -1 28 23 37
15 6 28 11 29 12 1 1 4 -3 8 -9z m-140 -31 c-5 -7 5 -8 29 -4 36 7 51 -7 20
-19 -33 -13 -62 -7 -59 12 5 23 4 22 11 22 3 0 2 -5 -1 -11z"/>
<path d="M6240 5370 c0 -5 -19 -11 -42 -12 -40 -1 -41 -2 -8 -5 19 -2 64 3
100 11 l65 14 -57 1 c-33 1 -58 -3 -58 -9z"/>
<path d="M5893 5363 c15 -2 39 -2 55 0 15 2 2 4 -28 4 -30 0 -43 -2 -27 -4z"/>
<path d="M6463 5345 c-8 -9 -13 -43 -13 -88 0 -41 -4 -130 -10 -198 -17 -220
-32 -702 -44 -1344 -2 -127 -16 -309 -25 -323 -6 -10 -367 -21 -694 -22 -77 0
-136 -4 -133 -9 3 -5 -92 -8 -218 -7 -123 0 -222 4 -219 9 5 9 -69 8 -122 -2
l-40 -7 40 -6 c22 -4 218 -7 435 -7 217 -1 527 -4 688 -7 l293 -7 30 -39 c36
-45 75 -53 65 -13 -5 18 -2 25 8 25 23 0 26 11 31 142 3 67 13 220 21 338 8
118 19 296 24 395 5 99 16 254 25 345 8 91 15 201 15 246 0 44 6 127 14 185
13 92 21 200 17 237 0 6 -7 12 -14 12 -8 0 -38 36 -68 80 -55 82 -79 96 -106
65z m106 -150 c29 -49 40 -77 36 -95 -2 -14 -9 -92 -15 -175 -6 -82 -17 -224
-25 -315 -8 -91 -15 -223 -16 -295 -2 -124 -7 -181 -30 -325 -6 -36 -15 -171
-19 -300 -5 -129 -12 -264 -16 -299 l-7 -64 -26 32 -27 32 4 302 c1 166 7 370
12 452 5 83 12 233 15 335 3 102 9 262 12 355 3 94 6 217 5 275 -1 58 1 129 4
157 l5 53 23 -28 c13 -15 42 -58 65 -97z m-666 -1842 c-7 -2 -19 -2 -25 0 -7
3 -2 5 12 5 14 0 19 -2 13 -5z"/>
<path d="M5705 5340 c-4 -6 27 -10 85 -10 58 0 89 4 85 10 -3 6 -42 10 -85 10
-43 0 -82 -4 -85 -10z"/>
<path d="M5998 5343 c18 -2 45 -2 60 0 15 2 0 4 -33 4 -33 0 -45 -2 -27 -4z"/>
<path d="M5305 5330 l-80 -6 106 -2 c58 -1 135 -4 170 -6 35 -3 54 -3 41 0
-12 3 -20 10 -17 15 7 10 -88 9 -220 -1z"/>
<path d="M8030 5314 c-40 -35 -60 -74 -60 -122 0 -89 117 -111 195 -38 33 31
35 38 35 94 0 78 -13 92 -85 92 -43 0 -59 -5 -85 -26z m130 -58 c0 -29 -7 -51
-20 -67 l-20 -24 2 55 c2 45 -1 55 -15 58 -28 6 -45 -16 -45 -56 0 -26 6 -42
21 -54 22 -18 22 -18 -13 -18 -54 0 -64 11 -61 68 0 13 15 37 32 53 25 23 40
29 75 29 l44 0 0 -44z"/>
<path d="M5006 5311 c-4 -6 -4 -15 -1 -21 8 -12 197 -5 222 9 15 9 11 10 -23
11 -23 0 -75 3 -116 6 -52 5 -77 3 -82 -5z"/>
<path d="M6304 5229 c-11 -19 -16 -220 -6 -304 5 -43 6 -93 2 -110 -6 -29 -7
-30 -80 -37 -75 -6 -450 -15 -450 -10 0 1 5 11 12 21 18 29 -4 71 -37 71 -37
0 -42 -26 -11 -59 14 -15 23 -30 19 -34 -3 -4 -56 -7 -117 -7 -156 0 -388 -18
-401 -31 -7 -8 77 -9 305 -4 173 4 344 8 380 10 113 6 360 6 369 1 5 -3 11
-19 14 -36 7 -32 31 -40 41 -14 11 29 6 288 -8 378 -9 63 -10 97 -3 116 16 41
-8 82 -29 49z"/>
<path d="M5472 5216 c-174 -8 -255 -15 -260 -23 -4 -6 -30 -14 -57 -16 -28 -3
-3 -2 55 0 58 3 170 5 250 4 154 -3 597 15 637 25 12 4 23 10 23 15 0 11 -330
8 -648 -5z"/>
<path d="M4968 5205 c-11 -34 -9 -222 3 -203 5 10 8 64 7 120 -2 57 -6 94 -10
83z"/>
<path d="M5487 5159 c-12 -7 -16 -17 -11 -31 3 -11 7 -28 9 -37 2 -13 15 -16
84 -14 l81 1 0 -33 c0 -49 -19 -59 -87 -47 -32 5 -61 8 -65 5 -5 -2 -8 -27 -8
-55 0 -28 -5 -68 -12 -90 -10 -33 -9 -41 3 -49 16 -11 184 -7 196 5 13 12 -29
31 -82 36 l-50 5 -3 41 c-3 37 0 42 22 48 14 3 44 3 66 0 l40 -7 0 50 c0 27 6
71 14 97 11 35 11 48 3 51 -126 36 -170 41 -200 24z"/>
<path d="M5103 5139 c-6 -8 -14 -43 -17 -79 -4 -36 -11 -96 -16 -135 -18 -132
-18 -165 -5 -165 23 0 36 62 46 218 11 163 10 182 -8 161z"/>
<path d="M5361 5128 c-12 -30 -32 -283 -25 -303 10 -25 43 -18 50 11 4 14 7
89 8 166 1 104 -2 142 -11 145 -7 3 -17 -6 -22 -19z"/>
<path d="M6123 5134 c-7 -3 -13 -17 -13 -31 0 -23 3 -25 33 -20 17 3 39 8 48
12 25 9 28 -12 16 -108 -11 -92 -14 -94 -64 -81 -21 6 -23 13 -24 68 -1 72
-17 50 -18 -25 -1 -32 -6 -49 -16 -53 -20 -7 -19 -21 2 -41 12 -13 27 -15 66
-11 61 8 77 20 77 57 0 45 21 172 32 193 6 12 6 22 -1 29 -12 12 -118 20 -138
11z"/>
<path d="M5192 5118 c-17 -17 4 -38 40 -38 27 0 30 -3 24 -22 -4 -13 -9 -35
-13 -51 -4 -22 -10 -27 -32 -25 -20 2 -27 -2 -29 -19 -3 -18 3 -23 32 -28 33
-7 34 -9 34 -51 l0 -44 -48 0 c-30 0 -52 -5 -60 -15 -7 -9 -11 -18 -8 -20 3
-3 39 -8 81 -11 l77 -7 0 74 c0 41 7 114 16 163 12 73 13 91 2 97 -20 13 -102
11 -116 -3z"/>
<path d="M5878 5103 c-14 -15 -15 -22 -6 -31 9 -9 9 -20 0 -45 -6 -17 -14 -58
-18 -89 -4 -34 -12 -59 -20 -62 -19 -7 -18 -42 2 -50 9 -3 31 -6 49 -6 19 0
37 -4 40 -10 10 -16 33 -12 55 10 15 15 20 33 20 70 0 61 46 169 72 170 9 0
19 4 22 9 8 12 -26 40 -49 40 -11 -1 -49 2 -85 6 -57 6 -67 5 -82 -12z m131
-22 c9 -6 11 -18 5 -42 -4 -19 -7 -38 -6 -42 2 -5 -2 -6 -7 -3 -5 4 -15 -20
-21 -51 -7 -32 -15 -69 -19 -82 l-7 -25 -22 22 c-12 12 -27 22 -33 22 -13 0
-7 179 6 200 7 12 84 13 104 1z"/>
<path d="M1760 5009 c-52 -3 -113 -13 -135 -22 -58 -21 -119 -51 -126 -60 -5
-7 -26 -14 -52 -16 -4 -1 -42 -35 -83 -77 -81 -81 -141 -185 -151 -264 -5 -34
-9 -40 -30 -40 -13 0 -26 7 -29 15 -9 21 -24 19 -24 -4 0 -11 -4 -22 -9 -25
-5 -3 -7 -14 -5 -24 3 -9 -2 -37 -11 -61 -8 -25 -12 -48 -7 -53 5 -5 38 -11
75 -15 66 -6 67 -7 67 -34 0 -16 -4 -29 -9 -29 -5 0 -11 -9 -14 -20 -4 -16
-11 -19 -29 -15 -22 5 -24 1 -41 -71 -14 -56 -16 -79 -8 -87 13 -13 191 -19
191 -7 0 15 -14 18 -98 21 -45 2 -82 5 -82 7 0 2 7 28 16 58 13 44 19 54 38
54 12 0 28 6 34 12 10 10 15 10 22 -2 7 -11 10 -1 11 35 1 52 -1 88 -6 93 -4
4 -53 10 -89 11 -28 1 -28 1 -21 49 4 26 10 50 13 54 4 4 28 8 55 9 l47 3 -2
65 -2 66 -3 -58 c-3 -40 -8 -57 -16 -54 -21 7 -9 99 15 120 11 9 18 17 14 17
-3 0 10 26 29 57 39 64 123 141 199 181 48 26 58 27 181 25 192 -2 373 -38
361 -70 -4 -9 -3 -19 2 -22 5 -4 2 -51 -7 -111 -13 -77 -20 -101 -27 -88 -24
42 -211 65 -310 39 -62 -17 -81 -48 -76 -123 l3 -48 107 -1 c59 -1 117 0 130
1 25 2 28 -9 10 -29 -11 -11 -9 -12 9 -7 19 6 21 4 16 -26 -2 -18 -8 -37 -12
-41 -11 -11 -167 -23 -233 -17 -46 4 -58 2 -67 -12 -9 -14 -8 -18 3 -18 8 0
17 -6 19 -12 4 -10 6 -10 6 0 1 17 51 15 51 -2 0 -8 -14 -29 -32 -46 -19 -19
-27 -34 -21 -38 14 -9 261 2 270 12 4 3 2 11 -4 17 -8 8 -34 9 -80 4 -100 -11
-133 -11 -130 0 2 6 47 11 103 12 54 1 117 4 139 7 22 3 34 3 28 0 -7 -3 -13
-13 -13 -22 0 -15 2 -15 10 -2 8 12 10 12 10 -5 0 -24 -17 -85 -28 -102 -10
-16 -98 -33 -206 -42 -50 -4 -81 -11 -84 -18 -2 -7 3 -13 12 -13 9 0 16 -6 16
-14 0 -18 65 -60 129 -82 41 -15 57 -27 71 -54 24 -45 69 -99 70 -82 0 6 -3
12 -7 12 -13 0 -55 68 -49 79 3 5 2 11 -4 13 -5 1 38 3 98 3 91 0 114 3 151
22 25 12 47 20 49 18 7 -7 54 -237 49 -241 -13 -13 -122 -44 -186 -53 -138
-19 -309 19 -441 97 -25 14 -52 26 -60 27 -8 0 -14 5 -13 12 2 7 -3 10 -10 8
-6 -3 -28 10 -47 29 -42 39 -116 144 -108 152 4 3 21 -3 38 -13 18 -10 41 -22
51 -28 11 -5 19 -13 19 -17 0 -5 7 -8 15 -8 21 0 19 16 -2 23 -10 3 -42 20
-71 36 -56 33 -67 37 -58 22 3 -5 -1 -11 -9 -14 -8 -4 -16 2 -20 14 -4 10 -10
19 -15 19 -25 0 24 -81 107 -177 94 -108 237 -183 438 -227 l102 -22 134 33
c143 36 255 83 264 114 3 10 -14 82 -39 160 -26 77 -46 147 -46 155 0 18 -6
18 -63 -2 -26 -9 -47 -22 -47 -29 0 -34 -203 -31 -278 3 -49 22 -47 26 18 37
47 8 100 30 100 43 0 4 7 38 15 76 15 72 13 89 -9 80 -8 -3 -16 -1 -19 3 -3 5
-39 6 -79 2 -109 -11 -206 -10 -213 2 -4 6 -5 12 -2 15 2 2 55 7 118 10 108 6
167 22 155 43 -3 4 1 32 9 62 19 69 19 87 3 71 -16 -16 -28 -15 -28 3 0 8 9
15 21 15 11 0 17 5 14 10 -4 6 -56 10 -125 10 -65 0 -125 3 -134 6 -44 17 11
84 69 84 84 0 207 -35 232 -67 10 -12 18 -12 69 1 31 8 64 23 73 32 15 15 15
16 0 11 -15 -5 -16 5 -11 86 2 51 9 94 13 95 13 5 11 32 -2 32 -7 0 -9 12 -5
35 9 45 -11 65 -100 98 -79 29 -159 36 -294 26z m265 -44 c33 -9 70 -26 83
-38 13 -12 22 -15 22 -8 0 7 5 9 11 5 8 -5 6 -10 -6 -16 -32 -18 -70 -16 -150
7 -44 13 -109 27 -145 30 -36 3 -78 8 -95 10 -16 2 -41 5 -55 6 -15 1 0 7 35
15 74 16 217 11 300 -11z m95 -224 c0 -77 -4 -103 -16 -115 -26 -27 -44 -20
-43 17 0 42 23 169 33 185 18 30 26 5 26 -87z m-435 -143 c-7 -33 -22 -58 -34
-58 -11 0 1 74 13 82 22 15 28 8 21 -24z m239 -68 c-7 -7 -49 -7 -125 -2
l-114 9 125 2 c83 1 121 -2 114 -9z m23 -52 c-3 -8 -6 -5 -6 6 -1 11 2 17 5
13 3 -3 4 -12 1 -19z m-15 -60 c-6 -6 -7 0 -4 19 5 21 7 23 10 9 2 -10 0 -22
-6 -28z m49 -169 c-9 -23 -10 -23 -10 -2 -1 12 2 30 6 40 6 15 8 15 11 2 1 -8
-2 -26 -7 -40z m-158 -154 c4 -8 25 -24 49 -37 36 -19 57 -22 133 -21 50 1
103 6 119 12 16 7 31 9 34 7 10 -11 -19 -32 -68 -50 -104 -38 -327 0 -398 67
l-24 22 59 6 c32 3 65 6 74 7 9 1 19 -5 22 -13z m382 -25 c-3 -5 -11 -10 -16
-10 -6 0 -7 5 -4 10 3 6 11 10 16 10 6 0 7 -4 4 -10z m77 -164 c8 -41 13 -54
18 -41 5 15 8 13 20 -14 14 -36 9 -45 -33 -55 -18 -4 -29 -2 -31 6 -54 211
-58 239 -40 259 17 19 18 18 36 -38 10 -32 23 -85 30 -117z"/>
<path d="M2660 4980 c-8 -5 -12 -12 -9 -15 8 -8 39 5 39 16 0 11 -11 11 -30
-1z"/>
<path d="M4957 4963 c-3 -4 -10 -75 -17 -156 -9 -106 -10 -151 -2 -159 16 -16
21 16 31 172 7 120 3 169 -12 143z"/>
<path d="M8050 4905 c-75 -26 -141 -83 -170 -148 -38 -82 -21 -251 29 -297 15
-14 38 -40 51 -59 14 -20 44 -43 74 -57 45 -20 57 -21 106 -13 86 15 106 27
174 100 70 76 79 100 77 209 -1 50 -8 79 -31 125 -28 58 -92 129 -137 153 -33
18 -100 13 -173 -13z m157 -16 c44 -17 82 -59 119 -134 27 -55 34 -81 34 -128
0 -50 -3 -58 -16 -53 -12 4 -14 1 -9 -14 3 -10 1 -30 -5 -42 -18 -36 -112
-117 -150 -129 -19 -6 -39 -15 -44 -20 -6 -5 -21 -9 -35 -9 -20 1 -13 6 29 25
59 26 53 35 -7 10 -81 -34 -139 -5 -191 95 -26 49 -32 72 -27 95 8 39 14 79
20 135 8 82 77 151 169 170 59 11 81 11 113 -1z"/>
<path d="M8151 4834 c0 -11 3 -14 6 -6 3 7 2 16 -1 19 -3 4 -6 -2 -5 -13z"/>
<path d="M8086 4832 c-2 -4 2 -16 10 -27 13 -18 14 -18 14 8 0 25 -13 36 -24
19z"/>
<path d="M8227 4813 c-4 -3 -7 -13 -7 -22 1 -13 3 -13 11 2 11 19 8 33 -4 20z"/>
<path d="M7990 4781 c0 -11 31 -24 39 -16 3 3 -1 10 -9 15 -19 12 -30 12 -30
1z"/>
<path d="M8117 4725 c-9 -9 -17 -17 -17 -19 0 -1 25 -1 55 1 50 2 57 0 66 -21
13 -27 -12 -96 -34 -96 -25 0 -47 25 -57 65 l-10 40 5 -45 c2 -25 11 -49 19
-56 19 -14 20 -21 4 -27 -7 -2 1 -3 17 -1 44 6 75 46 75 98 0 51 -14 66 -68
73 -28 4 -43 1 -55 -12z"/>
<path d="M8290 4725 c-11 -13 -10 -14 4 -9 9 3 16 10 16 15 0 13 -6 11 -20 -6z"/>
<path d="M7970 4700 c-13 -8 -13 -10 2 -10 9 0 20 5 23 10 8 13 -5 13 -25 0z"/>
<path d="M8290 4649 c0 -5 5 -7 10 -4 6 3 10 8 10 11 0 2 -4 4 -10 4 -5 0 -10
-5 -10 -11z"/>
<path d="M8091 4634 c0 -11 3 -14 6 -6 3 7 2 16 -1 19 -3 4 -6 -2 -5 -13z"/>
<path d="M7956 4621 c-3 -5 3 -11 14 -14 21 -5 32 1 24 14 -7 12 -31 11 -38 0z"/>
<path d="M8290 4570 c0 -5 4 -10 9 -10 6 0 13 5 16 10 3 6 -1 10 -9 10 -9 0
-16 -4 -16 -10z"/>
<path d="M7965 4540 c-3 -5 1 -10 9 -10 8 0 18 5 21 10 3 6 -1 10 -9 10 -8 0
-18 -4 -21 -10z"/>
<path d="M8265 4510 c4 -6 11 -8 16 -5 14 9 11 15 -7 15 -8 0 -12 -5 -9 -10z"/>
<path d="M8021 4491 c-14 -26 -14 -31 3 -31 16 0 29 37 16 45 -5 3 -14 -3 -19
-14z"/>
<path d="M8077 4459 c6 -22 23 -26 23 -5 0 8 -6 16 -14 19 -10 4 -12 0 -9 -14z"/>
<path d="M8157 4473 c-10 -9 -8 -33 2 -33 5 0 11 9 14 20 5 20 -3 26 -16 13z"/>
<path d="M2980 4853 c0 -15 -2 -16 -10 -3 -18 28 -10 1 10 -32 13 -23 16 -38
10 -48 -12 -19 -12 -30 -1 -30 5 0 11 9 13 20 2 16 19 -1 68 -72 80 -113 109
-148 122 -148 6 0 4 8 -4 18 -9 9 -27 36 -39 58 -25 44 -75 109 -121 157 -17
17 -28 40 -28 57 0 16 -4 32 -10 35 -5 3 -10 -2 -10 -12z"/>
<path d="M2930 4770 c0 -5 5 -10 10 -10 6 0 10 5 10 10 0 6 -4 10 -10 10 -5 0
-10 -4 -10 -10z"/>
<path d="M2896 4743 c-11 -11 -6 -23 9 -23 8 0 15 4 15 9 0 13 -16 22 -24 14z"/>
<path d="M2980 4714 c0 -8 5 -12 10 -9 6 3 10 10 10 16 0 5 -4 9 -10 9 -5 0
-10 -7 -10 -16z"/>
<path d="M2770 4710 c0 -5 5 -10 10 -10 6 0 10 5 10 10 0 6 -4 10 -10 10 -5 0
-10 -4 -10 -10z"/>
<path d="M2816 4712 c-8 -13 11 -35 23 -28 6 4 11 11 11 16 0 11 -28 21 -34
12z"/>
<path d="M2940 4704 c0 -8 5 -12 10 -9 6 3 10 10 10 16 0 5 -4 9 -10 9 -5 0
-10 -7 -10 -16z"/>
<path d="M5723 4693 c-23 -2 -47 -11 -53 -18 -14 -16 -32 -221 -23 -256 5 -20
10 -21 57 -15 28 3 78 6 112 6 56 0 61 2 60 23 -1 17 4 21 21 20 21 -2 21 0
19 110 -1 62 -5 118 -10 125 -7 12 -83 14 -183 5z m32 -63 c3 -5 0 -18 -7 -29
-17 -27 -2 -41 50 -48 28 -4 43 -12 50 -28 18 -39 2 -47 -59 -31 -37 9 -58 11
-67 3 -17 -13 -9 -20 41 -34 l42 -11 -57 -1 -57 -1 -6 58 c-3 31 -8 74 -11 95
l-6 37 41 0 c22 0 42 -4 46 -10z m125 -37 c0 -45 -1 -46 -19 -29 -10 9 -21 30
-23 47 -4 25 -1 29 19 29 21 0 23 -4 23 -47z m-50 21 c0 -13 -35 -41 -46 -37
-19 7 -17 30 3 41 15 9 43 6 43 -4z"/>
<path d="M2747 4683 c-4 -3 -7 -11 -7 -17 0 -6 5 -5 12 2 6 6 9 14 7 17 -3 3
-9 2 -12 -2z"/>
<path d="M2980 4642 c0 -37 4 -49 15 -49 8 0 15 6 15 14 0 7 -5 13 -11 13 -8
0 -10 12 -6 35 3 19 2 35 -4 35 -5 0 -9 -22 -9 -48z"/>
<path d="M5465 4681 c-34 -4 -59 -11 -58 -17 1 -6 -8 -10 -20 -10 -21 1 -22
-5 -29 -99 -4 -55 -4 -113 1 -130 l7 -30 107 0 c73 0 110 4 119 13 14 14 29
250 16 266 -9 11 -67 14 -143 7z m100 -198 c-6 -52 -7 -53 -41 -53 -41 0 -42
5 -8 37 19 17 24 30 20 47 -3 12 -1 38 4 57 19 66 -37 78 -99 20 -34 -31 -41
-61 -15 -61 11 0 15 -6 12 -18 -4 -15 0 -17 29 -14 37 5 41 -3 14 -35 -12 -15
-30 -23 -50 -23 -31 0 -31 0 -31 54 0 29 -3 73 -6 98 l-6 45 48 8 c27 4 64 9
83 10 18 2 36 7 40 10 9 10 13 -121 6 -182z m-55 99 c0 -13 -30 -52 -41 -52
-16 0 -10 39 9 49 21 13 32 14 32 3z"/>
<path d="M2890 4670 c0 -5 5 -10 11 -10 5 0 7 5 4 10 -3 6 -8 10 -11 10 -2 0
-4 -4 -4 -10z"/>
<path d="M5055 4673 c-27 -5 -42 -59 -50 -179 -4 -75 -3 -93 10 -104 12 -10
18 -10 29 0 11 8 38 9 93 5 46 -4 89 -3 104 3 26 10 27 14 34 119 4 61 3 119
-3 133 -9 24 -13 25 -103 25 -52 1 -103 0 -114 -2z m180 -147 c-4 -48 -11 -89
-16 -91 -4 -3 -44 -3 -89 1 l-81 7 3 86 3 86 85 5 c47 3 89 2 93 -1 5 -4 6
-46 2 -93z"/>
<path d="M5160 4590 c-8 -5 -30 -10 -48 -10 -35 0 -53 -23 -33 -43 8 -8 22 -7
56 5 25 10 45 15 45 13 0 -3 -10 -16 -21 -29 -17 -20 -28 -24 -50 -19 -33 6
-41 -12 -9 -21 11 -3 29 -9 40 -12 15 -4 23 3 35 33 9 21 25 45 37 54 11 9 18
21 14 28 -9 13 -46 14 -66 1z"/>
<path d="M5992 4650 c-3 -14 -6 -68 -7 -120 0 -82 2 -95 18 -98 13 -3 17 3 17
27 0 33 6 35 59 25 28 -6 31 -10 31 -45 l0 -38 -55 -6 c-78 -10 -66 -30 19
-31 37 -1 96 -4 132 -8 61 -6 65 -5 73 17 5 13 11 86 12 163 l4 139 -148 0
-148 0 -7 -25z m264 -57 c-3 -27 -8 -83 -12 -126 l-6 -78 -46 3 -47 3 3 40 c5
52 17 65 58 65 41 0 45 17 7 26 -50 11 -53 13 -53 45 0 43 25 69 67 69 l34 0
-5 -47z m-151 8 c0 -8 -7 -15 -15 -17 -8 -1 -27 -5 -42 -9 -25 -6 -28 -5 -28
19 0 26 2 27 43 24 28 -2 42 -8 42 -17z"/>
<path d="M2686 4655 c-3 -8 -1 -15 4 -15 6 0 10 7 10 15 0 8 -2 15 -4 15 -2 0
-6 -7 -10 -15z"/>
<path d="M2920 4650 c0 -5 7 -10 15 -10 8 0 15 5 15 10 0 6 -7 10 -15 10 -8 0
-15 -4 -15 -10z"/>
<path d="M2580 4570 c0 -13 5 -20 13 -17 6 2 12 10 12 17 0 7 -6 15 -12 18 -8
2 -13 -5 -13 -18z"/>
<path d="M2922 4568 c6 -18 28 -21 28 -4 0 9 -7 16 -16 16 -9 0 -14 -5 -12
-12z"/>
<path d="M2994 4564 c3 -9 6 -20 6 -25 0 -5 9 -4 20 3 23 15 27 30 5 22 -8 -4
-15 -1 -15 5 0 6 -5 11 -11 11 -6 0 -8 -7 -5 -16z"/>
<path d="M2520 4566 c0 -2 7 -6 15 -10 8 -3 15 -1 15 4 0 6 -7 10 -15 10 -8 0
-15 -2 -15 -4z"/>
<path d="M2625 4520 c-3 -5 1 -10 9 -10 9 0 16 5 16 10 0 6 -4 10 -9 10 -6 0
-13 -4 -16 -10z"/>
<path d="M4919 4498 c-3 -96 -8 -177 -18 -303 -6 -77 -16 -225 -21 -330 -6
-104 -15 -246 -20 -315 -6 -69 -8 -148 -5 -177 6 -49 9 -54 54 -82 26 -17 58
-42 71 -56 22 -23 30 -25 112 -25 58 0 88 4 88 11 0 6 6 9 13 6 8 -3 29 -1 48
4 25 6 19 7 -26 3 -122 -12 -224 -2 -165 16 l25 8 -28 1 c-16 1 -55 20 -91 45
l-62 45 8 103 c30 415 48 1078 29 1078 -6 0 -11 -15 -12 -32z"/>
<path d="M2925 4490 c3 -5 8 -10 11 -10 2 0 4 5 4 10 0 6 -5 10 -11 10 -5 0
-7 -4 -4 -10z"/>
<path d="M2744 4482 c4 -7 2 -12 -3 -12 -6 0 -11 -4 -11 -10 0 -15 17 -12 23
5 4 8 1 17 -5 21 -7 4 -8 3 -4 -4z"/>
<path d="M2815 4480 c-4 -6 -3 -16 3 -22 6 -6 12 -6 17 2 4 6 3 16 -3 22 -6 6
-12 6 -17 -2z"/>
<path d="M2680 4430 c0 -5 5 -10 10 -10 6 0 10 5 10 10 0 6 -4 10 -10 10 -5 0
-10 -4 -10 -10z"/>
<path d="M2780 4419 c0 -24 23 -21 28 4 2 10 -3 17 -12 17 -10 0 -16 -9 -16
-21z"/>
<path d="M2920 4420 c0 -5 4 -10 9 -10 6 0 13 5 16 10 3 6 -1 10 -9 10 -9 0
-16 -4 -16 -10z"/>
<path d="M2735 4391 c-3 -5 -1 -12 5 -16 12 -7 30 2 30 16 0 12 -27 12 -35 0z"/>
<path d="M2945 4351 c-6 -11 9 -23 19 -14 9 9 7 23 -3 23 -6 0 -12 -4 -16 -9z"/>
<path d="M5395 4347 c-27 -5 -53 -15 -57 -21 -9 -12 -4 -86 14 -208 11 -81 25
-98 50 -58 10 16 25 20 73 21 33 1 50 4 38 6 -22 4 -33 23 -14 23 10 0 19 40
13 58 -2 7 -21 12 -43 12 -37 0 -39 2 -39 30 0 26 4 30 28 30 36 0 72 10 72
21 0 9 -97 5 -122 -6 -14 -5 -18 -2 -18 12 0 30 38 44 109 41 l64 -3 -2 -107
c-2 -101 -1 -108 17 -108 14 0 21 9 26 31 9 44 8 209 -1 210 -5 0 -19 2 -33 4
-14 2 -44 6 -67 8 -23 3 -46 7 -50 9 -4 3 -30 0 -58 -5z m2 -149 c-3 -8 -6 -5
-6 6 -1 11 2 17 5 13 3 -3 4 -12 1 -19z m93 -50 c0 -5 -14 -8 -30 -8 -18 0
-33 -6 -36 -15 -8 -19 -24 -10 -24 13 0 14 9 17 45 17 25 0 45 -3 45 -7z"/>
<path d="M5048 4342 c-28 -2 -38 -8 -38 -21 0 -9 -4 -21 -9 -26 -5 -6 -11 -50
-13 -98 -4 -79 -3 -89 15 -98 10 -6 22 -8 25 -4 7 7 3 185 -4 197 -3 5 22 8
55 8 64 0 64 1 42 -62 -15 -44 -8 -75 20 -83 12 -4 19 -15 19 -31 0 -25 -1
-25 -53 -19 -42 5 -56 4 -66 -9 -8 -9 -11 -19 -7 -23 12 -12 189 -17 182 -5
-4 7 4 14 19 18 l25 6 -1 117 c-1 64 -6 122 -12 129 -10 12 -82 14 -199 4z
m152 -98 c0 -56 -2 -65 -16 -60 -9 3 -20 6 -26 6 -6 0 -8 14 -3 38 4 20 9 46
11 57 1 11 3 21 3 23 1 1 8 2 16 2 12 0 15 -14 15 -66z m10 -144 c0 -5 -2 -10
-4 -10 -3 0 -8 5 -11 10 -3 6 -1 10 4 10 6 0 11 -4 11 -10z"/>
<path d="M5835 4330 c-11 -5 -51 -9 -88 -9 -77 -1 -91 -14 -65 -60 11 -18 14
-41 11 -78 -5 -52 4 -130 14 -120 3 3 15 2 27 -3 15 -5 34 -2 59 10 42 21 80
14 126 -22 40 -30 51 -9 51 93 0 52 -4 89 -10 89 -5 0 -13 18 -16 39 -5 32
-13 43 -39 55 -37 18 -42 18 -70 6z m62 -64 c2 -2 7 -45 10 -95 l6 -90 -37 10
c-34 9 -97 6 -117 -7 -13 -8 -30 43 -35 105 -3 30 -7 58 -10 62 -3 5 -4 9 -2
10 2 0 26 3 53 6 28 2 52 7 55 10 5 5 70 -3 77 -11z"/>
<path d="M5782 4213 c-31 -6 -17 -23 19 -23 40 0 39 -28 -2 -37 -19 -4 -27 -9
-21 -15 11 -11 72 -1 72 12 0 5 3 15 6 23 6 16 -21 48 -39 46 -7 -1 -22 -4
-35 -6z"/>
<path d="M6012 4280 c-25 -33 -28 -50 -9 -50 6 0 20 -24 30 -53 18 -56 23 -97
7 -62 -7 14 -8 10 -4 -16 5 -29 2 -39 -12 -47 -11 -6 -15 -16 -10 -27 5 -13
12 -16 34 -10 35 10 126 10 180 0 l42 -8 2 122 c0 66 1 127 2 134 1 6 -5 12
-13 12 -10 0 -15 -16 -17 -55 -3 -70 -15 -180 -19 -180 -1 0 -19 7 -38 15 -20
8 -50 15 -67 15 -23 0 -30 4 -30 20 0 22 -15 27 -23 8 -3 -7 -6 6 -6 30 l-1
43 26 -20 c31 -24 79 -27 100 -6 21 21 -2 46 -32 35 -35 -14 -98 13 -102 43
-3 20 2 25 29 31 17 3 59 6 92 6 93 0 57 22 -45 28 -46 3 -86 9 -89 13 -3 5
-15 -4 -27 -21z"/>
<path d="M4229 4193 c-11 -17 -29 -22 -89 -26 -41 -2 -100 -10 -131 -18 -46
-10 -79 -10 -188 1 -145 15 -176 9 -187 -34 l-6 -25 -46 20 c-44 19 -47 19
-59 3 -7 -10 -13 -21 -13 -24 0 -4 33 -21 73 -38 39 -18 111 -61 159 -96 47
-36 89 -63 92 -60 3 2 4 1 1 -3 -3 -3 2 -14 10 -23 14 -16 9 -22 -70 -75 -88
-59 -105 -86 -57 -93 17 -3 22 -10 22 -32 0 -17 7 -33 17 -39 16 -8 16 -13 5
-43 -54 -137 -94 -261 -107 -335 -40 -231 8 -852 85 -1093 11 -34 24 -79 30
-100 6 -22 17 -46 26 -54 14 -14 12 -17 -20 -33 -36 -17 -42 -28 -28 -50 5 -8
34 0 102 29 186 78 175 76 337 82 135 5 158 9 210 32 36 16 89 29 139 35 92
10 163 43 191 90 23 39 51 37 104 -6 62 -52 77 -59 94 -41 21 20 19 45 -2 40
-11 -3 -32 8 -50 25 -52 48 -75 61 -106 61 -39 0 -62 -14 -86 -54 -27 -42 -55
-53 -158 -59 -58 -4 -98 -12 -136 -30 -67 -30 -123 -41 -202 -38 -97 3 -199
-16 -267 -50 -69 -35 -69 -35 -88 49 -7 31 -17 62 -22 69 -6 7 -11 31 -11 53
-1 22 -5 40 -8 40 -24 0 -78 458 -85 730 -6 183 -4 216 15 305 25 120 75 278
103 323 l20 33 -20 6 c-23 6 -31 27 -23 63 14 56 182 101 251 66 41 -20 89
-21 96 -1 10 25 71 18 112 -12 74 -55 187 -149 215 -178 38 -40 208 -298 235
-358 51 -109 126 -309 157 -417 61 -214 74 -344 49 -522 -6 -44 -5 -48 13 -48
34 0 42 21 53 141 10 97 9 130 -4 209 -17 96 -56 243 -74 277 -6 10 -18 46
-26 80 -9 35 -30 91 -46 127 -17 35 -30 67 -30 71 0 25 -106 219 -176 323 -46
68 -84 130 -84 137 0 20 -124 130 -186 165 -48 27 -53 32 -42 49 18 30 3 48
-46 55 -29 5 -46 12 -46 21 0 8 -7 18 -16 23 -15 8 -14 13 3 53 11 24 43 71
71 104 29 33 50 65 48 70 -2 6 -15 9 -30 7 -16 -2 -26 2 -26 11 0 7 -6 21 -13
32 -13 17 -14 17 -28 -2z m-7 -108 c-36 -33 -67 -89 -88 -159 -8 -27 -13 -29
-64 -32 -30 -1 -81 -8 -112 -15 l-56 -11 -33 37 c-18 20 -68 64 -112 97 -61
46 -77 65 -75 81 4 30 48 33 156 12 90 -18 151 -15 219 10 21 7 75 14 121 14
l84 1 -40 -35z m-386 -173 c-4 -3 -14 2 -24 12 -16 18 -16 18 6 6 13 -6 21
-14 18 -18z"/>
<path d="M3983 4053 c9 -2 23 -2 30 0 6 3 -1 5 -18 5 -16 0 -22 -2 -12 -5z"/>
<path d="M3995 4030 c3 -5 8 -10 11 -10 2 0 4 5 4 10 0 6 -5 10 -11 10 -5 0
-7 -4 -4 -10z"/>
<path d="M3838 4023 c12 -2 30 -2 40 0 9 3 -1 5 -23 4 -22 0 -30 -2 -17 -4z"/>
<path d="M3913 4023 c9 -2 23 -2 30 0 6 3 -1 5 -18 5 -16 0 -22 -2 -12 -5z"/>
<path d="M5007 4033 c-33 -4 -38 -7 -35 -26 3 -23 5 -24 91 -11 38 5 47 4 47
-8 0 -9 -6 -21 -14 -27 -17 -14 -47 -97 -38 -105 9 -10 42 -7 42 4 0 19 17 10
28 -15 6 -14 16 -25 22 -25 18 0 23 30 11 54 -7 12 -14 41 -15 63 -2 22 -6 46
-10 52 -4 6 4 9 24 8 16 -1 31 -6 33 -12 2 -5 1 -47 -1 -92 l-4 -83 -53 0
c-29 0 -67 3 -84 6 -34 7 -34 5 -14 92 4 16 1 22 -11 22 -10 0 -16 8 -16 22 0
18 -3 19 -12 10 -7 -7 -14 -41 -16 -75 -1 -34 -3 -73 -5 -87 -2 -25 -2 -25 73
-21 41 2 86 5 100 6 14 1 30 -2 37 -7 7 -5 19 -8 29 -6 13 2 17 19 20 83 3 44
9 93 15 110 8 25 6 32 -13 46 -15 12 -28 14 -38 9 -10 -6 -32 -3 -56 5 -39 14
-63 15 -137 8z"/>
<path d="M5347 3993 c-5 -7 -10 -168 -8 -221 1 -8 17 -12 54 -11 28 1 83 -4
120 -12 59 -11 69 -11 78 1 5 8 8 64 7 125 l-3 109 -45 1 c-25 1 -79 5 -121
10 -46 5 -78 4 -82 -2z m109 -33 c25 -6 53 -6 73 0 l31 9 0 -62 c0 -90 -10
-137 -28 -137 -8 0 -32 5 -53 11 -44 14 -42 33 2 24 22 -5 29 -3 29 9 0 19
-40 31 -75 22 -14 -4 -25 -3 -25 0 0 4 11 17 25 30 25 23 34 54 15 54 -5 0
-13 -6 -17 -13 -4 -7 -20 -20 -35 -29 l-26 -17 -4 50 c-1 28 -1 53 1 55 7 7
43 4 87 -6z"/>
<path d="M1610 3980 c0 -5 4 -10 8 -10 8 0 27 -13 82 -57 29 -24 45 -30 35
-13 -3 6 -1 10 4 10 6 0 11 -8 11 -18 0 -11 10 -27 23 -38 l22 -19 -19 23
c-27 32 -17 35 29 7 22 -13 58 -33 80 -45 39 -21 40 -21 15 -1 -14 12 -50 36
-80 53 -30 18 -70 43 -90 55 -45 29 -108 63 -115 63 -3 0 -5 -4 -5 -10z"/>
<path d="M1500 3972 c0 -5 7 -9 15 -9 8 0 12 4 9 9 -3 4 -9 8 -15 8 -5 0 -9
-4 -9 -8z"/>
<path d="M5698 3972 c-11 -2 -18 -13 -18 -27 0 -22 3 -24 30 -18 l30 6 -15
-38 c-10 -23 -15 -59 -13 -98 l3 -62 75 -9 c141 -16 134 -18 142 39 11 82 9
193 -3 201 -12 7 -202 12 -231 6z m201 -57 c4 -4 -16 -155 -21 -160 -2 -3 -34
1 -71 7 l-67 11 0 36 c0 20 9 56 20 80 l20 43 58 -7 c31 -4 59 -8 61 -10z"/>
<path d="M5815 3843 c4 -18 1 -23 -14 -23 -20 0 -38 -17 -28 -26 3 -3 22 -2
42 2 41 7 57 31 31 46 -9 5 -14 13 -12 17 3 4 -2 8 -10 8 -11 0 -14 -7 -9 -24z"/>
<path d="M1897 3949 c7 -7 15 -10 18 -7 3 3 -2 9 -12 12 -14 6 -15 5 -6 -5z"/>
<path d="M5993 3932 c-14 -9 -24 -242 -10 -242 9 0 5 -23 -7 -31 -5 -4 -11
-30 -14 -59 -4 -42 -2 -52 9 -48 7 2 17 23 22 45 7 39 10 41 40 39 18 -2 42
-8 54 -14 30 -16 53 -15 53 3 0 8 4 15 9 15 6 0 8 9 6 20 -2 11 0 20 6 20 15
0 10 27 -7 34 -35 13 -76 6 -81 -14 -3 -12 -14 -20 -27 -20 -12 0 -27 -5 -33
-11 -7 -7 -12 -3 -16 17 -8 46 -1 184 10 195 13 13 180 8 202 -5 11 -7 12 -35
6 -145 -4 -75 -7 -156 -6 -181 3 -72 -7 -78 -124 -69 -101 7 -122 2 -112 -25
5 -12 31 -15 129 -18 68 -2 128 -2 134 0 6 2 14 39 18 85 18 230 25 392 19
398 -11 10 -266 19 -280 11z"/>
<path d="M1940 3926 c0 -3 9 -10 20 -16 11 -6 20 -8 20 -6 0 3 -9 10 -20 16
-11 6 -20 8 -20 6z"/>
<path d="M1610 3917 c0 -2 15 -14 33 -27 20 -15 27 -17 18 -6 -13 16 -51 41
-51 33z"/>
<path d="M1700 3856 c0 -2 7 -9 15 -16 9 -7 15 -8 15 -2 0 5 -7 12 -15 16 -8
3 -15 4 -15 2z"/>
<path d="M2822 3812 c-79 -25 -111 -40 -108 -49 3 -7 -1 -13 -9 -13 -8 0 -15
-4 -15 -10 0 -5 15 -10 34 -10 19 0 38 5 41 10 3 6 20 10 37 10 22 0 29 4 25
14 -12 31 63 36 93 6 11 -11 22 -20 25 -20 11 0 4 39 -7 43 -7 3 -3 6 9 6 26
1 35 13 27 35 -8 22 -23 20 -152 -22z"/>
<path d="M1800 3836 c0 -4 10 -16 23 -27 19 -16 20 -20 7 -30 -13 -9 -12 -10
3 -5 11 3 17 0 17 -9 0 -8 7 -15 15 -15 12 0 13 4 6 18 -12 21 -71 78 -71 68z"/>
<path d="M1980 3806 c0 -2 8 -10 18 -17 15 -13 16 -12 3 4 -13 16 -21 21 -21
13z"/>
<path d="M1944 3785 c11 -8 24 -15 30 -15 5 0 1 7 -10 15 -10 8 -23 14 -29 14
-5 0 -1 -6 9 -14z"/>
<path d="M6002 3770 c0 -14 2 -19 5 -12 2 6 2 18 0 25 -3 6 -5 1 -5 -13z"/>
<path d="M1996 3759 c3 -5 12 -9 21 -9 19 0 9 13 -12 16 -8 1 -13 -2 -9 -7z"/>
<path d="M2976 3733 c-5 -29 -3 -50 8 -72 9 -16 16 -40 16 -53 0 -13 7 -48 16
-78 26 -91 41 -170 53 -262 5 -48 17 -98 26 -112 10 -15 12 -25 5 -28 -11 -3
24 -159 60 -268 10 -30 28 -98 40 -150 12 -52 37 -134 56 -182 19 -48 34 -99
34 -113 0 -14 5 -34 12 -44 18 -29 -12 -93 -48 -106 -16 -5 -35 -18 -43 -28
-11 -16 -22 -18 -60 -13 -74 11 -99 24 -94 49 3 12 -7 54 -22 92 -14 39 -28
83 -31 98 -2 16 -6 32 -8 36 -3 4 -12 49 -21 101 -14 84 -36 176 -53 220 -3 8
-7 33 -8 55 -2 23 -12 62 -23 89 -12 26 -19 51 -16 55 2 4 -4 25 -14 47 -10
21 -24 80 -30 129 -7 50 -18 111 -26 136 -8 26 -15 57 -15 70 0 14 -9 41 -20
62 -11 20 -20 44 -20 53 0 19 -30 84 -39 84 -3 0 -13 -5 -21 -10 -12 -8 -11
-12 7 -32 25 -26 67 -227 56 -267 -3 -13 -1 -26 6 -30 11 -7 56 -197 68 -286
3 -22 12 -59 20 -82 10 -27 14 -59 10 -84 -4 -32 -1 -48 14 -68 20 -28 24 -59
13 -104 -4 -19 -2 -32 8 -40 17 -13 88 -293 88 -345 0 -71 33 -86 138 -62 37
9 47 8 72 -10 15 -11 35 -20 44 -20 19 0 22 36 4 43 -7 3 2 8 20 12 19 5 36
14 39 21 3 8 13 14 22 14 10 0 23 11 30 23 11 20 9 41 -14 133 -15 60 -31 134
-36 164 -5 30 -20 96 -34 145 -13 50 -34 135 -45 190 -12 55 -28 127 -37 160
-18 70 -60 248 -75 320 -13 62 -34 146 -53 205 -7 25 -18 71 -25 103 -7 35
-17 57 -25 57 -7 0 -15 6 -18 13 -2 6 -7 -7 -11 -30z"/>
<path d="M4983 3735 c-19 -22 -21 -37 -22 -143 -1 -86 2 -122 11 -129 8 -6 36
-7 73 -2 33 4 71 8 85 8 44 2 -2 20 -69 27 l-61 7 0 33 c0 33 1 34 40 34 22 0
40 -5 40 -11 0 -5 4 -8 8 -5 5 3 24 8 43 11 48 8 54 19 26 42 -14 10 -26 28
-29 39 -5 29 -32 23 -36 -7 -3 -27 -23 -39 -69 -39 -19 0 -21 4 -16 43 3 23
10 46 14 52 12 13 127 17 134 5 8 -12 35 -13 35 -2 0 12 -70 32 -113 32 -22 0
-37 6 -41 15 -8 22 -28 18 -53 -10z"/>
<path d="M5371 3733 c-18 -19 -17 -224 1 -252 8 -13 26 -17 77 -19 36 -1 79
-5 94 -8 28 -6 28 -5 25 33 -3 37 -4 38 -38 35 -28 -3 -33 -1 -22 9 6 7 12 18
12 24 0 5 -5 2 -11 -7 -5 -10 -17 -18 -24 -18 -8 0 -15 -6 -15 -13 0 -16 -38
-39 -52 -31 -6 4 -8 25 -5 53 4 30 3 39 -3 26 -12 -28 -12 -5 1 56 6 28 14 47
18 42 3 -6 23 -13 43 -17 31 -6 39 -13 48 -39 9 -30 10 -29 6 15 -3 38 -1 45
12 41 10 -4 13 -1 10 8 -2 8 -33 21 -67 30 -36 9 -67 23 -73 32 -11 21 -19 21
-37 0z"/>
<path d="M5206 3721 c-3 -4 -7 -61 -8 -125 -2 -95 0 -118 12 -126 8 -5 18 -10
21 -10 12 0 19 243 7 257 -12 15 -25 17 -32 4z"/>
<path d="M5701 3672 c6 -15 8 -36 5 -49 -5 -19 10 -162 17 -169 1 -2 20 1 41
6 26 6 55 4 93 -6 31 -8 56 -13 57 -12 19 36 26 57 25 73 -1 11 2 52 6 90 l7
70 -28 11 c-16 7 -75 12 -131 12 l-102 0 10 -26z m197 -64 c3 -33 0 -38 -18
-38 -19 0 -21 4 -16 26 6 24 5 25 -21 20 -31 -7 -69 9 -43 18 8 2 22 7 30 10
8 3 26 4 40 3 21 -2 25 -8 28 -39z m-118 13 c0 -6 -4 -12 -8 -15 -5 -3 -9 1
-9 9 0 8 4 15 9 15 4 0 8 -4 8 -9z m10 -71 c0 -5 11 -10 25 -10 39 0 30 -17
-10 -18 -29 -1 -35 2 -35 18 0 11 5 20 10 20 6 0 10 -4 10 -10z m97 -26 c-3
-3 -12 -4 -19 -1 -8 3 -5 6 6 6 11 1 17 -2 13 -5z"/>
<path d="M4085 3590 c-9 -14 4 -57 51 -162 42 -95 42 -108 5 -108 -3 0 -33 52
-66 116 -49 95 -61 111 -65 92 -6 -21 40 -162 70 -218 10 -19 7 -26 -24 -57
-49 -50 -75 -109 -83 -186 -14 -154 67 -232 289 -281 24 -5 28 -14 47 -95 12
-49 21 -91 21 -95 0 -3 -54 -6 -119 -6 -98 0 -123 -3 -136 -16 -14 -15 -14
-19 -2 -31 10 -10 48 -15 143 -17 l128 -3 13 -54 c7 -30 13 -78 14 -106 1 -71
22 -137 43 -141 31 -6 48 18 41 57 -19 92 -42 236 -39 240 8 9 24 -13 24 -35
0 -14 8 -39 18 -57 l17 -32 3 67 3 67 46 7 c51 7 93 40 93 72 0 21 -44 85 -81
119 -13 11 -46 34 -73 50 l-48 28 -40 130 c-22 72 -53 173 -70 225 -16 52 -32
104 -35 114 -6 17 -2 18 36 12 24 -4 56 -13 72 -21 15 -8 35 -15 44 -15 9 0
14 -4 11 -9 -3 -5 0 -11 7 -14 8 -3 14 2 14 10 0 22 -73 71 -116 79 -81 13
-99 23 -112 62 -7 20 -28 70 -47 111 -45 94 -79 130 -97 101z m129 -352 c62
-176 76 -216 76 -226 0 -7 12 -46 26 -87 14 -41 24 -80 22 -87 -2 -6 -17 24
-32 67 -15 43 -38 101 -51 129 -50 108 -95 228 -90 237 13 21 34 6 49 -33z
m-47 -136 c70 -171 95 -241 91 -251 -4 -12 -129 32 -167 58 -17 13 -38 36 -47
53 -19 37 -22 144 -4 178 18 35 60 90 68 90 4 0 30 -58 59 -128z m228 -441 c9
-35 14 -66 11 -69 -3 -2 -8 1 -10 9 -9 24 -36 137 -36 145 1 20 19 -25 35 -85z
m97 32 c42 -35 67 -65 68 -79 0 -13 -32 -24 -71 -24 -24 0 -27 5 -38 57 -17
87 -14 91 41 46z"/>
<path d="M5100 3540 c0 -5 5 -10 11 -10 5 0 7 5 4 10 -3 6 -8 10 -11 10 -2 0
-4 -4 -4 -10z"/>
<path d="M8361 3499 c-100 -58 -171 -115 -171 -135 0 -22 28 -13 92 29 58 38
90 50 51 19 -24 -19 -243 -397 -243 -420 0 -28 24 5 115 157 50 83 93 151 98
151 4 0 7 -12 7 -26 0 -19 4 -25 18 -22 13 3 17 14 18 53 2 73 58 175 112 204
26 14 29 41 5 40 -10 0 -56 -23 -102 -50z"/>
<path d="M2440 3405 c-25 -7 -79 -20 -120 -29 -103 -22 -122 -34 -125 -73 -2
-18 1 -33 6 -33 5 0 9 -10 9 -22 0 -13 9 -36 20 -53 11 -16 20 -43 20 -60 0
-16 4 -46 10 -65 5 -19 16 -71 24 -115 23 -121 122 -598 145 -698 12 -48 21
-98 21 -111 0 -37 44 -69 99 -74 28 -2 52 1 55 7 5 7 -4 9 -26 6 -27 -4 -25
-2 9 8 44 13 66 27 42 27 -8 1 -23 15 -34 33 -13 20 -29 32 -43 32 -12 0 -26
5 -32 11 -5 5 -21 82 -35 169 -47 297 -54 329 -77 346 -15 12 -19 23 -15 41 4
15 -1 38 -13 61 -13 23 -18 47 -14 61 3 14 -3 50 -14 83 -57 166 -90 319 -74
335 11 11 148 -9 168 -23 6 -5 21 -10 33 -12 27 -4 51 -67 82 -215 11 -53 30
-133 43 -177 13 -44 34 -120 45 -169 11 -48 43 -138 71 -199 39 -85 52 -125
56 -176 4 -45 2 -62 -4 -52 -8 11 -11 10 -14 -9 -2 -13 -11 -24 -21 -26 -42
-6 -47 -43 -6 -38 16 2 29 -1 29 -6 0 -6 -13 -10 -30 -10 -16 0 -30 -5 -30
-11 0 -5 -4 -7 -10 -4 -9 6 -14 -23 -7 -42 3 -11 45 -5 95 13 54 20 68 45 53
93 -5 20 -17 70 -25 111 -8 41 -23 107 -32 145 -10 39 -18 91 -19 117 -2 29
-9 54 -20 64 -12 12 -15 26 -11 50 4 20 2 34 -4 36 -7 2 -17 30 -25 63 -7 33
-29 130 -50 215 -20 85 -40 175 -45 200 -18 94 -41 165 -57 178 -21 15 -45 14
-103 -3z"/>
<path d="M6823 3393 c-28 -3 -43 -9 -43 -18 0 -28 13 -45 35 -45 23 0 41 -22
79 -95 14 -26 16 -27 16 -8 0 12 -4 25 -10 28 -5 3 -10 23 -10 44 0 47 -10
102 -19 99 -3 -1 -25 -3 -48 -5z"/>
<path d="M5445 3310 c-72 -9 -97 -18 -92 -34 3 -8 54 -10 178 -6 96 3 231 4
302 4 70 -1 127 2 127 6 0 4 -7 14 -17 21 -12 11 -65 14 -227 16 -116 0 -238
-2 -271 -7z"/>
<path d="M5405 3240 c-68 -5 -69 -5 -40 -19 22 -10 122 -15 380 -22 612 -15
628 -15 632 -2 6 18 -56 24 -307 28 -210 3 -484 12 -565 18 -16 1 -61 0 -100
-3z"/>
<path d="M5298 3233 c6 -2 18 -2 25 0 6 3 1 5 -13 5 -14 0 -19 -2 -12 -5z"/>
<path d="M8416 3172 c-3 -6 -36 -15 -73 -21 -97 -17 -143 -30 -143 -42 0 -10
60 -5 135 11 22 5 41 7 43 5 4 -4 -58 -81 -125 -155 -17 -19 -42 -48 -54 -65
-13 -16 -47 -58 -76 -92 -28 -34 -57 -71 -63 -83 -27 -51 32 4 141 132 157
183 200 228 210 222 4 -2 6 -11 2 -20 -7 -19 6 -144 16 -144 4 0 8 6 9 13 1 6
6 41 12 77 6 36 9 79 6 97 -4 26 -1 33 15 38 11 4 18 12 16 18 -4 15 -63 22
-71 9z"/>
<path d="M5663 2974 c-7 -3 -13 -12 -13 -20 0 -8 6 -14 13 -14 6 0 115 -3 241
-7 194 -5 228 -4 224 8 -3 11 -37 16 -139 21 -74 3 -174 9 -224 12 -49 3 -96
3 -102 0z m215 -21 c-10 -2 -28 -2 -40 0 -13 2 -5 4 17 4 22 1 32 -1 23 -4z"/>
<path d="M1975 2958 c-22 -5 -76 -19 -120 -29 -86 -21 -117 -41 -98 -60 8 -8
9 -18 3 -29 -10 -19 13 -148 49 -270 10 -36 33 -130 51 -210 17 -80 36 -158
42 -175 5 -16 12 -41 15 -55 3 -14 14 -55 24 -92 22 -75 36 -85 96 -69 21 6
52 11 70 11 17 0 39 7 48 17 17 16 76 25 85 12 3 -4 19 -1 36 6 24 10 33 21
38 47 9 49 -9 167 -53 338 -48 188 -103 418 -111 462 -11 62 -26 88 -50 88
-11 0 -20 5 -20 10 0 12 -51 11 -105 -2z m115 -33 c0 -8 -61 -37 -67 -32 -2 3
8 12 24 20 30 16 43 20 43 12z m10 -66 c0 -5 -4 -9 -10 -9 -5 0 -10 7 -10 16
0 8 5 12 10 9 6 -3 10 -10 10 -16z m-182 -9 c15 -25 44 -27 40 -3 -4 21 21 27
66 19 27 -5 36 -15 54 -54 38 -86 72 -181 92 -254 10 -40 31 -116 46 -168 20
-68 28 -119 29 -180 0 -49 6 -95 14 -108 14 -26 7 -42 -10 -25 -6 6 -17 28
-24 49 l-14 39 -1 -33 c0 -33 -24 -91 -38 -93 -4 0 -18 -2 -32 -4 -124 -20
-134 -17 -125 36 5 31 3 39 -13 48 -12 6 -23 30 -31 68 -7 32 -22 86 -32 120
-10 34 -19 73 -19 85 0 13 -9 42 -20 63 -12 22 -22 60 -24 85 -2 25 -13 67
-25 93 -11 27 -28 76 -36 110 -8 34 -17 72 -21 85 -5 19 -3 22 22 23 16 0 38
4 49 9 31 13 39 12 53 -10z"/>
<path d="M7730 2845 c0 -8 -9 -19 -19 -24 -24 -13 -86 -91 -72 -91 6 0 35 20
65 45 l55 45 106 -78 c59 -42 112 -81 119 -86 14 -10 46 -2 46 11 0 4 -12 15
-28 24 -163 97 -232 143 -232 155 0 8 -9 14 -20 14 -11 0 -20 -7 -20 -15z"/>
<path d="M8543 2743 c10 -16 97 -63 116 -63 10 0 26 -6 36 -14 17 -12 16 -14
-13 -18 -22 -3 -32 0 -32 9 0 7 -5 13 -11 13 -6 0 -9 -7 -5 -15 4 -11 -20 -27
-89 -60 -93 -44 -128 -76 -107 -97 7 -7 21 -2 44 15 18 13 55 34 83 46 46 20
51 21 62 5 14 -19 33 -10 33 16 0 26 65 44 157 45 81 0 115 17 69 35 -15 5
-45 10 -68 10 -33 0 -163 38 -262 76 -13 5 -17 4 -13 -3z"/>
<path d="M3960 2574 l-25 -15 25 7 c14 3 32 10 40 15 13 7 13 8 0 8 -8 0 -26
-6 -40 -15z"/>
<path d="M7758 2553 c18 -2 45 -2 60 0 15 2 0 4 -33 4 -33 0 -45 -2 -27 -4z"/>
<path d="M7628 2543 c17 -2 47 -2 65 0 17 2 3 4 -33 4 -36 0 -50 -2 -32 -4z"/>
<path d="M4165 2410 c4 -6 11 -8 16 -5 14 9 11 15 -7 15 -8 0 -12 -5 -9 -10z"/>
<path d="M4027 2366 c-60 -24 -114 -49 -120 -56 -14 -15 -21 -18 126 43 102
42 132 57 111 57 -5 0 -58 -20 -117 -44z"/>
<path d="M1650 2368 c-36 -5 -69 -13 -74 -19 -6 -5 -23 -9 -38 -9 -32 0 -88
-25 -88 -40 0 -13 22 -25 41 -22 9 2 22 -4 29 -13 14 -17 46 -20 55 -4 4 6 7
26 8 45 1 19 6 34 11 35 6 0 21 2 32 3 12 1 28 -2 36 -8 25 -18 52 -79 54
-121 1 -23 9 -44 19 -51 12 -9 15 -19 10 -35 -4 -12 -3 -19 1 -16 11 6 15 -54
8 -101 -4 -23 -14 -39 -37 -52 l-32 -20 -22 27 c-13 14 -23 36 -23 47 0 25
-13 48 -26 45 -25 -4 -37 5 -54 45 -11 23 -22 61 -26 82 -7 45 -9 48 -24 39
-6 -4 -8 -15 -5 -26 4 -10 3 -29 -1 -41 -6 -20 -9 -17 -23 21 -16 44 -44 72
-57 58 -4 -4 11 -70 34 -146 28 -92 40 -149 36 -169 -6 -27 -4 -29 31 -30 21
-1 46 -4 57 -8 10 -3 25 -1 32 5 7 6 44 18 82 27 38 8 74 20 81 25 7 7 18 6
33 -3 17 -11 22 -11 30 2 15 23 12 47 -15 134 -13 45 -33 110 -44 146 -30 100
-53 160 -60 159 -3 -1 -35 -6 -71 -11z m-75 -388 c32 -33 17 -42 -15 -10 -17
17 -27 40 -17 40 2 0 16 -13 32 -30z"/>
<path d="M4167 2325 c-106 -37 -364 -175 -326 -175 9 0 31 11 50 25 40 29 193
105 263 130 27 10 65 18 84 19 20 1 37 7 40 14 6 18 -34 14 -111 -13z"/>
<path d="M3830 2270 c-9 -6 -10 -10 -3 -10 6 0 15 5 18 10 8 12 4 12 -15 0z"/>
<path d="M4155 2258 c-33 -12 -65 -26 -71 -32 -6 -7 -46 -27 -88 -46 -41 -19
-76 -38 -76 -42 0 -8 47 8 65 21 12 9 200 87 233 96 23 7 31 25 10 25 -7 -1
-40 -10 -73 -22z"/>
<path d="M4116 2175 c-26 -20 0 -20 34 0 22 13 23 14 5 14 -11 0 -29 -6 -39
-14z"/>
<path d="M4060 2150 c-9 -6 -10 -10 -3 -10 6 0 15 5 18 10 8 12 4 12 -15 0z"/>
<path d="M6400 2146 c0 -9 5 -16 10 -16 6 0 10 4 10 9 0 6 -4 13 -10 16 -5 3
-10 -1 -10 -9z"/>
<path d="M6205 2140 c-4 -6 6 -10 23 -10 16 0 51 -2 78 -5 66 -7 27 10 -43 19
-32 4 -54 3 -58 -4z"/>
<path d="M3874 2114 c-18 -14 -18 -14 6 -3 31 14 36 19 24 19 -6 0 -19 -7 -30
-16z"/>
<path d="M2190 1747 c-47 -13 -107 -34 -135 -46 -27 -13 -73 -34 -101 -46 -61
-28 -75 -52 -44 -77 24 -20 62 -22 130 -8 57 12 373 -5 490 -27 93 -16 121
-28 191 -79 105 -76 242 -117 454 -134 197 -15 262 -27 323 -57 30 -15 63 -41
75 -58 11 -16 34 -43 49 -59 15 -17 28 -35 28 -42 0 -9 15 -7 58 6 77 23 83
27 130 84 28 34 42 62 47 95 l7 46 -63 59 c-35 32 -84 70 -107 84 -51 29 -169
55 -332 71 -63 7 -128 18 -145 26 -16 7 -52 16 -80 20 -27 4 -54 11 -60 15
-11 7 -100 27 -155 34 -57 7 -318 74 -335 87 -14 10 -94 19 -225 24 -99 4
-127 2 -200 -18z"/>
<path d="M8290 1646 c-19 -14 -69 -42 -110 -63 l-75 -38 -374 3 c-206 2 -384
8 -397 12 -50 19 -270 50 -355 50 -64 0 -107 -6 -150 -20 -34 -12 -64 -18 -67
-15 -3 3 -16 -4 -28 -16 -30 -28 -86 -38 -218 -39 -92 0 -114 -3 -142 -21 -19
-11 -34 -24 -34 -29 0 -5 -17 -10 -37 -12 -35 -3 -38 -6 -38 -32 0 -25 11 -38
66 -80 36 -28 103 -84 149 -125 l84 -75 12 30 c15 36 89 85 164 109 30 10 62
24 71 31 8 8 21 14 27 14 6 0 43 16 81 35 131 66 372 100 496 70 57 -14 140
-18 443 -22 368 -4 373 -4 418 17 50 25 67 46 93 117 16 40 16 54 6 83 -15 44
-40 49 -85 16z"/>
<path d="M4545 1132 c-44 -26 -63 -52 -71 -102 -4 -25 -15 -70 -26 -100 -11
-30 -23 -70 -28 -88 -13 -51 -56 -127 -75 -130 -9 -2 -27 -1 -40 2 -30 8 -128
91 -137 116 -13 36 -80 21 -120 -26 -10 -12 -28 -24 -41 -28 -13 -3 -29 -17
-37 -31 -7 -14 -19 -25 -27 -25 -17 0 -16 11 3 38 18 26 28 25 -93 6 -89 -14
-253 -78 -253 -98 0 -8 -6 -17 -12 -20 -8 -3 5 -21 35 -50 53 -50 112 -67 166
-48 39 14 66 6 104 -31 37 -34 115 -71 172 -81 83 -14 95 -18 95 -32 0 -8 -6
-14 -14 -14 -7 0 -19 -6 -25 -13 -6 -8 -29 -19 -51 -26 -22 -6 -52 -23 -66
-36 -15 -14 -36 -25 -46 -25 -11 0 -22 -9 -25 -20 -3 -13 -14 -20 -29 -20 -17
0 -25 -7 -30 -25 -3 -14 -10 -22 -15 -19 -5 3 -9 -5 -10 -18 0 -13 -3 -17 -6
-10 -3 9 -10 4 -19 -13 -18 -35 -18 -55 1 -55 8 0 15 -6 15 -14 0 -8 -7 -16
-15 -20 -9 -3 -15 -19 -15 -41 l0 -35 1365 0 c1084 0 1366 3 1369 13 36 136
45 287 21 380 l-17 68 37 42 c20 23 44 51 54 62 29 31 51 81 51 114 0 33 -14
48 -27 28 -4 -7 -35 -24 -68 -37 -33 -13 -68 -30 -77 -38 -10 -8 -24 -12 -33
-8 -8 3 -25 1 -38 -3 -12 -5 -48 -17 -79 -26 -66 -19 -75 -39 -33 -80 30 -31
25 -31 -25 -3 -39 23 -70 63 -70 92 0 9 -15 22 -33 29 -18 8 -70 54 -114 102
l-82 88 -110 1 c-121 1 -144 10 -188 76 -20 29 -22 40 -16 104 8 97 0 109 -81
130 -117 29 -187 17 -205 -36 -22 -64 -3 -217 39 -305 24 -50 26 -111 5 -139
-8 -10 -15 -34 -15 -52 0 -32 -11 -61 -50 -132 -10 -19 -19 -47 -20 -61 0 -25
-4 -27 -77 -38 -43 -7 -96 -21 -118 -31 -22 -10 -51 -20 -65 -23 -45 -9 -143
-48 -166 -66 -21 -16 -22 -20 -9 -37 19 -26 19 -40 -1 -23 -14 11 -15 10 -12
-7 3 -21 22 -44 36 -44 5 0 23 -7 41 -16 18 -9 43 -14 57 -11 13 2 27 1 29 -4
9 -14 -91 -2 -127 15 -48 23 -85 64 -101 111 -9 24 -25 45 -42 55 -33 18 -53
66 -54 130 -1 28 -11 64 -27 94 l-26 49 12 191 c6 105 14 217 17 249 3 32 2
69 -1 83 -14 56 -124 83 -191 46z"/>
</g>
</svg>
